<svg width="28" height="28" viewBox="0 0 28 28" fill="none" xmlns="http://www.w3.org/2000/svg">
<path d="M28 20.8514C27.8901 21.0221 27.7384 21.1438 27.5684 21.2536C24.6849 23.1156 21.7981 24.9736 18.9238 26.8499C17.9853 27.4627 16.9533 27.7151 15.8586 27.7995C14.771 27.8832 13.7501 27.5824 12.7239 27.2894C11.0883 26.8218 9.44743 26.3751 7.81374 25.9009C7.19833 25.7224 6.63132 25.7721 6.08262 26.1024C5.85699 26.2384 5.62286 26.3633 5.38349 26.4732C5.22588 26.5451 5.18337 26.6465 5.18076 26.8113C5.17095 27.3803 5.00483 27.5346 4.42866 27.5196C3.15337 27.4869 1.87873 27.4496 0.603434 27.4136C0.184223 27.4019 -0.0106683 27.203 0.000449653 26.7773C0.0612713 24.4909 0.126017 22.2052 0.189455 19.9188C0.207767 19.2537 0.220846 18.5886 0.247006 17.9241C0.265318 17.4513 0.442551 17.2872 0.912775 17.2989C2.22469 17.3316 3.53595 17.3696 4.84722 17.4081C5.22653 17.4193 5.41423 17.6142 5.4175 17.9902C5.41946 18.2446 5.4175 18.499 5.4175 18.7534C5.51298 18.794 5.57708 18.7259 5.64771 18.6939C7.61689 17.8038 9.59654 17.7875 11.5252 18.7554C12.4826 19.2361 13.4505 19.4807 14.5107 19.4807C15.6218 19.4807 16.7356 19.4852 17.8421 19.5892C18.8853 19.6873 19.6844 20.2314 20.2488 21.1085C20.3489 21.2641 20.4195 21.2863 20.5856 21.2059C21.7746 20.6343 22.9904 20.1144 24.1558 19.4996C25.6685 18.7017 27.2159 19.1524 27.9993 20.5238V20.8521L28 20.8514ZM26.7214 20.5552C26.1387 20.0941 25.5521 20.0104 24.9223 20.306C23.6457 20.9051 22.3756 21.5185 21.0938 22.1071C20.8185 22.2333 20.7034 22.351 20.7544 22.6846C20.8433 23.2699 20.6138 23.487 20.0206 23.4713C18.536 23.4328 17.0508 23.3909 15.5662 23.3497C15.0653 23.336 14.5643 23.3275 14.0633 23.3052C13.7684 23.2921 13.5696 23.1077 13.5362 22.8448C13.5068 22.6133 13.6428 22.3831 13.8599 22.2987C13.9744 22.2543 14.0934 22.2667 14.2118 22.27C15.9423 22.3151 17.6734 22.3563 19.4039 22.4125C19.6458 22.4204 19.6825 22.3654 19.6079 22.1463C19.2947 21.2236 18.4588 20.6199 17.417 20.5885C16.4151 20.5584 15.4125 20.5427 14.4113 20.5114C13.9927 20.4983 13.5735 20.4767 13.1575 20.4342C12.361 20.3518 11.6789 19.9555 10.9654 19.633C9.1165 18.7972 7.3069 18.9117 5.54961 19.9254C5.40508 20.0091 5.35864 20.1085 5.35537 20.2733C5.32006 21.8586 5.27624 23.4432 5.23373 25.0285C5.22457 25.383 5.23046 25.3954 5.52803 25.2175C6.3501 24.7264 7.20749 24.6328 8.12701 24.9036C9.42715 25.2868 10.7332 25.6498 12.0412 26.0043C12.9797 26.258 13.8933 26.6282 14.8664 26.7263C16.1188 26.8532 17.3098 26.6602 18.3928 25.9506C20.3424 24.6727 22.3057 23.4158 24.2631 22.1496C25.0727 21.6258 25.881 21.1006 26.7227 20.5552H26.7214ZM1.16718 22.3818H1.16522C1.12925 23.6388 1.09786 24.8957 1.05404 26.1527C1.0475 26.3352 1.09982 26.3836 1.27836 26.3869C2.16191 26.4045 3.04546 26.4326 3.92901 26.466C4.08793 26.4719 4.15267 26.4411 4.15725 26.2639C4.22265 23.7316 4.29328 21.1994 4.36915 18.6671C4.37438 18.4892 4.32533 18.4349 4.14548 18.4316C3.2894 18.4153 2.43266 18.3963 1.57723 18.3512C1.31171 18.3375 1.26201 18.4245 1.25808 18.6651C1.23716 19.9044 1.19923 21.1431 1.16783 22.3818H1.16718Z" fill="#16020B"/>
<path d="M20.0157 17.5204C19.4624 17.4746 19.019 17.6296 18.5867 17.8749C17.5024 18.4896 16.3998 18.5034 15.3115 17.8893C14.8537 17.6309 14.3848 17.5021 13.8564 17.5073C12.5752 17.5211 11.5922 16.9776 10.9526 15.854C10.7244 15.4531 10.4078 15.1601 10.0011 14.9437C8.85068 14.3322 8.26012 13.3813 8.29478 12.0635C8.3059 11.6331 8.1993 11.2368 7.96648 10.8712C7.24904 9.7444 7.24447 8.61233 7.96125 7.48353C8.19865 7.10945 8.30459 6.70593 8.29478 6.26579C8.26535 4.97284 8.84022 4.02781 9.96967 3.42287C10.4105 3.18677 10.7401 2.86305 10.9919 2.43206C11.6086 1.3752 12.551 0.843506 13.7648 0.842852C14.3495 0.842852 14.8635 0.707474 15.3749 0.424948C16.4076 -0.145991 17.4736 -0.140759 18.5043 0.431488C19.0072 0.71009 19.5134 0.843506 20.089 0.843506C21.3145 0.843506 22.2628 1.37847 22.8822 2.44645C23.1281 2.87024 23.4538 3.18547 23.8867 3.41633C25.0162 4.01931 25.5956 4.96826 25.5766 6.25533C25.5694 6.72817 25.6924 7.14476 25.9403 7.54632C26.6047 8.62279 26.6073 9.71628 25.9455 10.7941C25.6937 11.2041 25.5714 11.6286 25.5766 12.1106C25.591 13.361 25.0391 14.3008 23.9423 14.8985C23.4793 15.151 23.1268 15.4839 22.8586 15.9397C22.2131 17.0378 21.2138 17.5145 20.0157 17.5204ZM14.1749 1.88532C13.0062 1.83562 12.2717 2.2254 11.7963 3.1083C11.5079 3.64326 11.0645 4.0337 10.5203 4.30642C9.70415 4.71516 9.30652 5.36916 9.33595 6.28672C9.35622 6.91325 9.1973 7.49661 8.85199 8.02177C8.34776 8.79022 8.34449 9.55278 8.84872 10.3219C9.19338 10.8477 9.35818 11.4304 9.33398 12.0563C9.29867 12.9784 9.70611 13.6265 10.5151 14.0385C11.0926 14.3322 11.5347 14.7632 11.8519 15.3269C12.2953 16.115 12.9748 16.5002 13.876 16.4688C14.5614 16.4452 15.1873 16.6094 15.7765 16.9593C16.5391 17.4125 17.318 17.4138 18.0818 16.9626C18.6711 16.6146 19.2963 16.4466 19.9824 16.4681C20.8908 16.4963 21.582 16.1169 22.0254 15.3112C22.3328 14.7514 22.7769 14.3322 23.3445 14.0431C24.166 13.6259 24.5708 12.9621 24.5368 12.036C24.5145 11.4265 24.665 10.8601 24.9992 10.3507C25.5152 9.56455 25.5197 8.78891 25.0018 8.0015C24.6839 7.51754 24.5106 6.9793 24.5387 6.39921C24.5878 5.39009 24.1503 4.69424 23.255 4.25148C22.7357 3.99446 22.3309 3.59683 22.0568 3.08868C21.5912 2.2254 20.8705 1.84085 19.9058 1.87878C19.278 1.90298 18.6953 1.74929 18.159 1.42622C17.3402 0.933103 16.5279 0.929179 15.7085 1.42425C15.182 1.74275 14.6078 1.89775 14.1723 1.88401L14.1749 1.88532Z" fill="#16020B"/>
<path d="M20.5471 4.2352C20.5405 4.35161 20.4882 4.4654 20.4196 4.57527C18.3902 7.82498 16.3622 11.0747 14.3315 14.3237C14.1366 14.6364 13.8312 14.724 13.5689 14.5579C13.3047 14.3905 13.255 14.0863 13.4538 13.7678C15.4806 10.5168 17.5093 7.26712 19.5386 4.01742C19.708 3.74601 19.9245 3.65379 20.1782 3.72966C20.3908 3.79309 20.5445 3.9991 20.5464 4.2352H20.5471Z" fill="#16020B"/>
<path d="M22.044 11.8975C22.0336 12.564 21.7772 13.2644 21.1827 13.8177C20.3443 14.5985 19.1266 14.5907 18.2927 13.8072C17.2404 12.8184 17.1528 11.0245 18.1044 9.93686C19.0801 8.82114 20.6713 8.9055 21.5294 10.1213C21.8753 10.6118 22.0414 11.1624 22.044 11.8969V11.8975ZM21.0035 11.7909C20.9977 11.3083 20.8636 10.874 20.5137 10.5281C20.0579 10.0781 19.4353 10.0807 18.9768 10.5248C18.3222 11.1592 18.3208 12.3893 18.9742 13.0231C19.4477 13.4822 20.0971 13.4697 20.5497 12.9871C20.8642 12.6523 20.9924 12.2435 21.0035 11.7909Z" fill="#16020B"/>
<path d="M16.4191 6.77769C16.4138 7.33359 16.1758 7.99609 15.6454 8.53629C14.7815 9.41591 13.4964 9.42115 12.6174 8.5546C11.5318 7.48466 11.5651 5.55537 12.6874 4.52533C13.6658 3.62739 15.1098 3.80201 15.905 4.9138C16.2445 5.3886 16.4217 5.96216 16.4197 6.77704L16.4191 6.77769ZM15.3766 6.57365C15.3766 6.11192 15.2295 5.69598 14.9587 5.39187C14.4976 4.87391 13.8077 4.85821 13.325 5.3546C12.7116 5.98505 12.7122 7.16551 13.325 7.79531C13.8018 8.2845 14.4787 8.27861 14.9391 7.77504C15.2484 7.43692 15.3786 7.02817 15.376 6.5743L15.3766 6.57365Z" fill="#16020B"/>
</svg>
