<svg width="46" height="41" viewBox="0 0 46 41" fill="none" xmlns="http://www.w3.org/2000/svg">
<path d="M45.5032 29.9897C45.1469 31.0213 44.2574 31.5336 43.369 32.0756C39.243 34.5905 35.1265 37.1191 31.016 39.658C30.0932 40.2285 29.1217 40.5172 28.0148 40.5115C23.1121 40.4864 18.2094 40.4943 13.3067 40.4932C12.6736 40.4932 12.0857 40.3072 11.499 40.1189C10.5928 39.828 9.68902 39.5279 8.78639 39.2266C8.58092 39.1582 8.43602 39.1331 8.26737 39.343C7.90276 39.7949 7.39206 39.9866 6.7911 39.9832C5.16162 39.9752 3.53213 39.9832 1.90384 39.9797C0.760109 39.9763 0 39.2369 0 38.1255C0 34.3406 0 30.5557 0 26.7708C0 25.6845 0.758921 24.9531 1.88483 24.952C3.51432 24.9497 5.1438 24.9588 6.7721 24.9474C7.37306 24.9428 7.87782 25.1254 8.25787 25.5704C8.40158 25.7382 8.51797 25.7393 8.70919 25.6571C9.15219 25.4677 9.6035 25.292 10.0619 25.1368C10.2686 25.0672 10.3244 24.9634 10.3232 24.7637C10.3173 22.4587 10.3173 20.1538 10.3232 17.8477C10.3232 17.6549 10.2662 17.5579 10.075 17.4655C9.17713 17.033 8.70681 16.3255 8.70444 15.3522C8.70087 13.7296 8.69612 12.1082 8.70444 10.4856C8.71156 9.09122 9.69614 8.13729 11.1522 8.1236C12.6629 8.10877 14.1737 8.12018 15.6844 8.12018C15.8257 8.12018 15.9659 8.12018 16.2331 8.12018C15.6986 7.81323 15.2568 7.59529 14.8673 7.3009C13.5026 6.27166 12.7259 4.98568 12.8791 3.2604C13.0299 1.59445 14.6357 0.109933 16.378 0.0152245C18.207 -0.0840478 19.6654 0.678181 20.9814 1.77702C22.4969 3.04246 23.656 4.57376 24.5349 6.30475C24.5741 6.3812 24.6109 6.45765 24.6537 6.53182C24.6667 6.5535 24.7 6.56377 24.7499 6.59572C25.3354 5.38277 26.0563 4.25312 26.9589 3.23986C28.0647 1.99839 29.2939 0.900688 30.9222 0.3119C32.7821 -0.360184 34.6871 0.0768418 35.7441 1.40161C36.9045 2.85532 36.819 4.91037 35.5387 6.39375C35.0113 7.00422 34.3724 7.4789 33.6538 7.86002C33.5315 7.92506 33.4127 7.99352 33.1871 8.11904C35.142 8.11904 36.971 8.11561 38.8012 8.12246C39.2121 8.1236 39.6254 8.08481 40.034 8.20576C41.0851 8.51499 41.7692 9.36622 41.7716 10.416C41.7751 12.0386 41.7668 13.66 41.7751 15.2826C41.7799 16.2913 41.3262 17.025 40.3891 17.4746C40.224 17.5533 40.1456 17.6298 40.1468 17.8181C40.1539 20.778 40.1516 23.7379 40.1539 26.6978C40.1539 26.7354 40.173 26.772 40.1943 26.845C40.4794 26.6966 40.7478 26.5563 41.0162 26.4182C42.4723 25.6651 43.8987 26.0052 44.8488 27.3117C45.1624 27.7419 45.2918 28.2416 45.5068 28.7095V29.9897H45.5032ZM20.8959 39.0441C23.295 39.0441 25.6941 39.0326 28.092 39.0509C28.8307 39.0566 29.4792 38.8661 30.092 38.4849C31.4923 37.6132 32.902 36.7562 34.307 35.8925C37.3285 34.0359 40.3487 32.1749 43.3749 30.3241C43.8559 30.0297 44.0649 29.636 43.9735 29.1031C43.9177 28.7802 43.7977 28.4756 43.6089 28.1983C43.0946 27.4418 42.5162 27.2991 41.6896 27.7316C38.5304 29.3827 35.3724 31.035 32.2144 32.6895C31.6027 33.0101 30.9685 33.2874 30.2737 33.365C29.7464 33.4232 29.2108 33.4209 28.6787 33.4221C25.8211 33.4266 22.9624 33.4243 20.1049 33.4243C19.9719 33.4243 19.8377 33.4278 19.7046 33.4209C19.207 33.3947 18.9196 33.1185 18.9267 32.6792C18.9338 32.2582 19.2509 31.9615 19.7391 31.9604C21.3828 31.9535 23.0301 31.8965 24.6691 31.9775C25.991 32.0425 27.1513 31.7858 28.1692 30.9699C28.2369 30.9163 28.3188 30.8798 28.3936 30.833C29.0528 30.4108 29.2737 29.8859 29.067 29.2378C28.8723 28.6273 28.3592 28.2873 27.6098 28.2861C25.4922 28.2827 23.3745 28.2736 21.2569 28.2907C20.4814 28.2976 19.7723 28.1207 19.0966 27.7715C17.7723 27.0869 16.4433 26.4137 15.1202 25.729C14.4005 25.357 13.6796 25.308 12.9124 25.6149C11.6225 26.1307 10.322 26.6225 9.01917 27.1074C8.7662 27.201 8.70444 27.3322 8.70562 27.5775C8.71394 30.8216 8.71394 34.0645 8.70562 37.3085C8.70562 37.5698 8.76263 37.6976 9.05124 37.7843C10.0049 38.0685 10.9515 38.38 11.8898 38.7097C12.6083 38.9619 13.3364 39.06 14.1 39.0543C16.3649 39.0361 18.631 39.0475 20.8971 39.0475L20.8959 39.0441ZM29.434 31.9535C30.174 31.9604 30.7559 31.7744 31.307 31.488C33.6396 30.2739 35.9698 29.0541 38.3036 27.8423C38.5055 27.7373 38.604 27.6255 38.6029 27.3858C38.5933 24.2559 38.5933 21.1248 38.6029 17.9949C38.6029 17.7519 38.5316 17.6891 38.2834 17.6903C34.1218 17.6971 29.959 17.6971 25.7974 17.6903C25.5456 17.6903 25.4791 17.7564 25.4803 17.9972C25.4886 20.8293 25.491 23.6603 25.4779 26.4924C25.4767 26.7914 25.5872 26.8381 25.858 26.8324C26.5539 26.8176 27.2499 26.8187 27.9459 26.8336C29.3545 26.8632 30.6098 28.091 30.6668 29.442C30.7096 30.4542 30.3094 31.2552 29.434 31.9558V31.9535ZM17.9279 17.6948C16.0336 17.6948 14.1392 17.7028 12.2449 17.688C11.9301 17.6857 11.8589 17.7701 11.8613 18.0634C11.8755 20.0534 11.8743 22.0445 11.8625 24.0345C11.8601 24.3586 11.9242 24.4271 12.252 24.2867C13.5276 23.7424 14.7616 23.8463 15.9801 24.5047C17.2248 25.1768 18.5003 25.7963 19.7605 26.4422C20.0609 26.5962 20.3638 26.7446 20.7058 26.7822C21.7237 26.8918 22.7451 26.8062 23.7641 26.8301C24.0254 26.8359 23.9268 26.635 23.9268 26.5198C23.9316 23.6899 23.9268 20.8613 23.9387 18.0314C23.9399 17.7393 23.8401 17.688 23.5658 17.6903C21.6869 17.7005 19.8068 17.696 17.9267 17.696L17.9279 17.6948ZM25.5171 9.70625C25.5028 9.77243 25.4874 9.81237 25.4874 9.85231C25.485 11.8857 25.4898 13.9202 25.4779 15.9536C25.4767 16.2206 25.5943 16.2422 25.8188 16.2422C30.2749 16.2377 34.7299 16.24 39.186 16.2377C39.901 16.2377 40.2561 15.8976 40.2585 15.221C40.2632 13.6851 40.262 12.1493 40.2585 10.6134C40.2573 9.90023 39.9188 9.58416 39.1706 9.58416C35.6622 9.58416 32.1538 9.58416 28.6454 9.58758C28.5255 9.58758 28.3853 9.52596 28.2867 9.63094C28.6335 10.0292 28.9827 10.4137 29.3117 10.8131C30.136 11.8138 30.8438 12.9058 31.8759 13.7422C32.1847 13.9921 32.1728 14.4622 31.9139 14.7406C31.6574 15.0167 31.1977 15.0715 30.8711 14.8296C30.3889 14.4736 29.978 14.0434 29.5884 13.595C28.7939 12.6787 28.1419 11.6529 27.2772 10.7903C26.7843 10.2985 26.2511 9.86144 25.5183 9.70853L25.5171 9.70625ZM21.1869 9.61725C21.0895 9.59785 21.0515 9.58302 21.0135 9.58302C17.7284 9.58302 14.4421 9.5796 11.157 9.58416C10.5655 9.58416 10.2235 9.94017 10.2223 10.5369C10.2187 12.0865 10.2199 13.6361 10.2223 15.1868C10.2223 15.9022 10.5572 16.2354 11.2959 16.2354C15.3958 16.2388 19.4956 16.2331 23.5943 16.2445C23.9031 16.2445 23.9529 16.1453 23.9517 15.8817C23.9411 13.9476 23.9363 12.0146 23.9541 10.0805C23.9577 9.66403 23.8164 9.68457 23.5028 9.81922C22.9933 10.0383 22.5752 10.3658 22.1904 10.7435C21.4624 11.4566 20.8959 12.293 20.2605 13.0769C19.7593 13.6954 19.2391 14.2956 18.6013 14.7885C18.2521 15.059 17.7961 15.0327 17.5205 14.7509C17.2379 14.4611 17.2319 13.9955 17.5656 13.7228C18.9992 12.5509 19.8341 10.9032 21.1869 9.61611V9.61725ZM1.5119 32.4248C1.5119 34.2733 1.51903 36.1218 1.50597 37.9703C1.50359 38.3708 1.64374 38.5317 2.07248 38.5272C3.58201 38.5123 5.09154 38.5226 6.60226 38.5203C7.11771 38.5203 7.19491 38.4473 7.19491 37.9555C7.19491 34.287 7.19134 30.6173 7.20085 26.9488C7.20085 26.5483 7.05951 26.3908 6.63195 26.3954C5.12242 26.4114 3.61289 26.4011 2.10218 26.4023C1.57129 26.4023 1.5119 26.4582 1.5119 26.9625C1.51072 28.7825 1.5119 30.6025 1.5119 32.4236V32.4248ZM25.7689 8.02661C26.2487 8.08823 26.6418 7.99352 27.0385 7.95815C28.7749 7.80296 30.4899 7.52569 32.1241 6.92321C33.2488 6.50786 34.2382 5.89853 34.7762 4.79741C35.5066 3.30034 34.6598 1.7291 32.9828 1.4929C32.1918 1.38107 31.4543 1.62184 30.7868 1.99953C28.3331 3.38706 26.8794 5.54709 25.7713 8.02547L25.7689 8.02661ZM23.6311 8.07111C23.2867 7.15142 22.8555 6.35039 22.3413 5.59159C21.3638 4.15043 20.2225 2.85647 18.631 2.00523C17.8162 1.56935 16.9469 1.31033 16.0015 1.57505C14.511 1.99268 13.9254 3.7134 14.8043 5.09523C15.3091 5.88826 16.0585 6.4063 16.9267 6.76802C19.0431 7.64892 21.2961 7.88284 23.6299 8.07225L23.6311 8.07111Z" fill="#0B0A0A"/>
</svg>
