<svg width="32" height="27" viewBox="0 0 32 27" fill="none" xmlns="http://www.w3.org/2000/svg">
<path d="M18.2781 9.35062C18.1482 9.35062 18.0465 9.35062 17.9391 9.35062C16.2725 9.35062 14.6114 9.35062 12.9448 9.35062C11.9956 9.35062 11.3402 8.77085 11.2272 7.84666C11.1199 7.02005 11.7753 6.159 12.5888 6.05568C12.747 6.03846 12.9052 6.03271 13.0634 6.03271C18.764 6.03271 24.4646 6.03271 30.1652 6.03271C31.0974 6.03271 31.7188 6.46324 31.9392 7.24966C32.2104 8.23126 31.5437 9.23581 30.5493 9.3334C30.4194 9.34488 30.2838 9.35062 30.1539 9.35062C28.5154 9.35062 26.877 9.35062 25.2386 9.35062H24.894V9.72374C24.894 14.6949 24.894 19.6602 24.894 24.6313C24.894 24.9987 24.8544 25.3431 24.651 25.6531C24.2725 26.2329 23.5945 26.4912 22.9448 26.3018C22.2894 26.1123 21.8375 25.4981 21.8318 24.7749C21.8318 23.3513 21.8318 21.9277 21.8318 20.5041C21.8318 19.2412 21.8318 17.9783 21.8318 16.7154C21.8318 16.6466 21.8544 16.5547 21.8205 16.5031C21.7584 16.4112 21.6736 16.2907 21.5832 16.2734C21.5211 16.262 21.4081 16.3882 21.3572 16.4801C21.3177 16.549 21.3459 16.6523 21.3459 16.7442C21.3459 19.4306 21.3459 22.1171 21.3459 24.8036C21.3459 25.9229 20.2386 26.6692 19.2273 26.2444C18.6341 25.9975 18.2838 25.435 18.2838 24.7347C18.2838 19.7234 18.2838 14.7063 18.2838 9.69504V9.35062H18.2781ZM21.6228 6.90524C18.7527 6.90524 15.877 6.90524 13.0069 6.91098C12.8035 6.91098 12.5832 6.95691 12.408 7.06023C12.1199 7.2267 12.0126 7.6113 12.1086 7.93276C12.2103 8.2657 12.5041 8.47809 12.8713 8.47809C14.7414 8.47809 16.6058 8.47809 18.4759 8.47809C19.0069 8.47809 19.1256 8.5929 19.1256 9.13823C19.1256 14.2873 19.1256 19.4306 19.1256 24.5797C19.1256 24.7289 19.1369 24.8839 19.1764 25.0274C19.2555 25.2972 19.5211 25.4867 19.7922 25.4924C20.0691 25.4981 20.3572 25.3087 20.442 25.0332C20.4815 24.9011 20.4928 24.7519 20.4928 24.6084C20.4928 22.628 20.4928 20.6533 20.4928 18.6729C20.4928 17.9381 20.4872 17.2034 20.4928 16.4686C20.4985 16.0266 20.7245 15.7052 21.103 15.5042C21.4702 15.3091 21.8375 15.355 22.1821 15.5789C22.5776 15.8429 22.6849 16.2333 22.6849 16.6925C22.6849 19.2986 22.6849 21.9047 22.6849 24.5051C22.6849 24.6313 22.6849 24.7576 22.7019 24.8782C22.7414 25.2054 22.99 25.4465 23.312 25.4809C23.6058 25.5096 23.9053 25.3087 23.9957 25.0045C24.0352 24.8782 24.0352 24.7404 24.0352 24.6084C24.0352 19.4536 24.0352 14.2988 24.0352 9.13823C24.0352 8.58142 24.1482 8.47235 24.7075 8.47235C26.4702 8.47235 28.233 8.47235 29.9957 8.47235C30.1369 8.47235 30.2782 8.47235 30.4194 8.47235C30.8262 8.44365 31.12 8.12793 31.1313 7.72037C31.1426 7.23244 30.8092 6.90524 30.2895 6.90524C27.4024 6.90524 24.5098 6.90524 21.6228 6.90524Z" fill="black"/>
<path d="M24.2216 2.69221C24.2216 4.18469 23.0352 5.38442 21.5662 5.38442C20.1029 5.38442 18.9165 4.17895 18.9165 2.69221C18.9165 1.20547 20.1086 0 21.5719 0C23.0408 0 24.2273 1.20547 24.2216 2.69221ZM23.3628 2.70943C23.3628 1.68765 22.5662 0.855308 21.5662 0.861048C20.5888 0.861048 19.7696 1.69339 19.764 2.68647C19.764 3.68528 20.5719 4.51189 21.5549 4.51763C22.5549 4.51763 23.3515 3.71973 23.3572 2.70943H23.3628Z" fill="black"/>
<path fill-rule="evenodd" clip-rule="evenodd" d="M8.0061 10.5632C8.20647 10.2147 8.60426 10.0674 8.89458 10.2343L12.1459 12.1033C12.4362 12.2702 12.5092 12.6881 12.3088 13.0366L6.5567 23.0429C5.88881 24.2047 4.56284 24.6956 3.59508 24.1393L2.79697 23.6805C1.8292 23.1242 1.58611 21.7314 2.25401 20.5695L8.0061 10.5632ZM8.58608 11.1765L2.95492 20.9724C2.55419 21.6695 2.70004 22.5052 3.2807 22.839L4.07881 23.2978C4.65947 23.6316 5.45505 23.3371 5.85578 22.64L11.4869 12.8441L8.58608 11.1765Z" fill="#16020B"/>
<path fill-rule="evenodd" clip-rule="evenodd" d="M13.3912 13.3739C13.2576 13.6063 12.961 13.6863 12.7286 13.5528L7.26877 10.4142C7.0364 10.2806 6.95631 9.98399 7.08989 9.75162C7.22347 9.51925 7.52013 9.43916 7.7525 9.57273L13.2123 12.7113C13.4447 12.8449 13.5248 13.1415 13.3912 13.3739Z" fill="#16020B"/>
<path fill-rule="evenodd" clip-rule="evenodd" d="M9.87611 17.1952L6.03556 14.9875L6.51929 14.146L10.3598 16.3537L9.87611 17.1952Z" fill="#16020B"/>
</svg>
