<svg width="16" height="29" viewBox="0 0 16 29" fill="none" xmlns="http://www.w3.org/2000/svg">
<path fill-rule="evenodd" clip-rule="evenodd" d="M2.26602 1.41089C2.26602 0.631408 2.89333 -0.000488281 3.66716 -0.000488281L12.3331 -0.000488281C13.1069 -0.000488281 13.7342 0.63141 13.7342 1.41089L13.7342 23.7881C13.7342 26.3863 11.6432 28.4927 9.06374 28.4927H6.93649C4.35706 28.4927 2.26602 26.3863 2.26602 23.7881L2.26602 1.41089ZM4.13421 1.88136L4.13421 23.7881C4.13421 25.347 5.38883 26.6108 6.93649 26.6108H9.06374C10.6114 26.6108 11.866 25.347 11.866 23.7881L11.866 1.88136L4.13421 1.88136Z" fill="#16020B"/>
<path fill-rule="evenodd" clip-rule="evenodd" d="M16.0003 0.940914C16.0003 1.46057 15.5791 1.88184 15.0594 1.88184L0.941258 1.88184C0.421601 1.88184 0.000335693 1.46057 0.000335693 0.940914C0.000335693 0.421257 0.421601 -7.98702e-06 0.941257 -7.98702e-06L15.0594 -7.98702e-06C15.5791 -7.98702e-06 16.0003 0.421257 16.0003 0.940914Z" fill="#16020B"/>
<path fill-rule="evenodd" clip-rule="evenodd" d="M12.8 10.752H3.19995L3.19995 8.87012H12.8V10.752Z" fill="#16020B"/>
</svg>
