<svg width="25" height="30" viewBox="0 0 25 30" fill="none" xmlns="http://www.w3.org/2000/svg">
<path d="M4.05201 5.5933C3.89685 5.5933 3.75093 5.59561 3.60533 5.59149C3.57288 5.5905 3.53319 5.57469 3.51062 5.55196C3.37276 5.41377 3.23869 5.2718 3.10364 5.13081C3.09408 5.12093 3.08568 5.11006 3.06921 5.09112H4.05316C4.05316 5.06345 4.05316 5.0417 4.05316 5.02013C4.05316 4.73239 4.03784 4.44366 4.05711 4.15724C4.07918 3.82931 3.71601 3.6399 3.45248 3.78254C3.39846 3.6628 3.34345 3.54437 3.29272 3.42414C3.28547 3.40701 3.29387 3.37951 3.30244 3.36024C3.37902 3.18631 3.50815 3.0692 3.69773 3.04532C3.81813 3.03017 3.94528 3.03017 4.06419 3.05191C4.29972 3.0949 4.42144 3.26833 4.4977 3.48014C4.55913 3.65044 4.57758 3.82734 4.57708 4.00719C4.5761 4.3422 4.57675 4.67705 4.57675 5.01206C4.57675 5.0361 4.57675 5.05999 4.57675 5.0893C4.66734 5.0893 4.7492 5.08832 4.83106 5.08996C4.85016 5.09029 4.8752 5.09326 4.88706 5.10512C5.04353 5.26191 5.19819 5.42069 5.36421 5.59017H4.57675V5.66313C4.57675 6.10487 4.57626 6.54677 4.57675 6.98851C4.57708 7.26291 4.74377 7.43717 5.01767 7.46006C5.1939 7.47472 5.35828 7.44178 5.50865 7.35169C5.83724 7.1547 6.0955 6.89117 6.25361 6.53788C6.30154 6.43082 6.32756 6.31784 6.33201 6.19381C6.24175 6.19381 6.15479 6.20353 6.07063 6.192C5.76609 6.1505 5.60583 5.99518 5.55164 5.69328C5.51343 5.48031 5.53056 5.27657 5.66315 5.09326C5.7791 4.93316 5.94594 4.88441 6.12959 4.86926C6.44055 4.84356 6.68399 4.96479 6.87471 5.20723C7.11024 5.50699 7.18864 5.85255 7.12869 6.21769C7.00269 6.98522 6.56688 7.52364 5.85849 7.84036C5.62543 7.94462 5.38364 8.02879 5.12572 8.03916C4.89035 8.04855 4.65565 8.0334 4.44549 7.90855C4.19102 7.75735 4.05332 7.53401 4.05234 7.23508C4.05052 6.7151 4.05184 6.1953 4.05184 5.67532C4.05184 5.65111 4.05184 5.62674 4.05184 5.5933H4.05201Z" fill="#16020B"/>
<path d="M11.7071 23.4201H11.3305C7.79591 23.4201 4.26275 23.4201 0.728109 23.4201C0.1265 23.4201 0 23.2921 0 22.6802C0.00147093 15.3682 0.00147093 8.05626 0.00147093 0.742818C0.00147093 0.132383 0.1265 0.00588371 0.731051 0.00588371C4.33629 0.00588371 7.94153 0.00882556 11.5482 0C11.8601 0 12.0851 0.0926684 12.3028 0.313307C14.3239 2.36525 16.3508 4.41131 18.3851 6.45001C18.5969 6.6633 18.6837 6.88688 18.6822 7.18253C18.6749 10.1538 18.6822 13.1265 18.6719 16.0978C18.6719 16.3846 18.7499 16.4729 19.0397 16.5009C21.9021 16.7862 24.2291 19.1338 24.6071 22.0168C25.094 25.7324 22.3684 28.7596 19.2677 29.3303C16.0081 29.9304 12.6882 27.7696 11.9042 24.4806C11.8233 24.1438 11.7762 23.7996 11.7071 23.4201ZM17.7055 7.437H17.2966C15.5197 7.437 13.7414 7.437 11.9645 7.437C11.4423 7.437 11.2938 7.28697 11.2938 6.76038C11.2938 4.95261 11.2938 3.14484 11.2938 1.33707V1.00464H1.00611V22.4213H11.7277C11.7439 22.3081 11.763 22.208 11.7733 22.108C12.0792 19.2456 14.521 16.7921 17.3746 16.495C17.6291 16.4685 17.7129 16.3935 17.7114 16.1258C17.7011 13.3472 17.7055 10.5686 17.7055 7.7915V7.43847V7.437ZM23.679 22.9376C23.6819 19.8958 21.2328 17.4231 18.2101 17.4128C15.1697 17.4025 12.6956 19.8722 12.6926 22.92C12.6897 25.9721 15.1535 28.4492 18.191 28.4462C21.2152 28.4433 23.6746 25.9736 23.6775 22.9391L23.679 22.9376ZM12.294 1.81218V6.42648H17.0113C15.3977 4.84817 13.8399 3.32429 12.294 1.81218Z" fill="#16020B"/>
<path d="M9.35761 10.1796C11.1845 10.1796 13.0114 10.1796 14.8383 10.1796C14.9398 10.1796 15.0457 10.1693 15.1428 10.1914C15.3899 10.2458 15.5384 10.4062 15.5429 10.6636C15.5458 10.921 15.4016 11.0828 15.156 11.1475C15.0795 11.1681 14.9942 11.1608 14.9118 11.1608C11.1963 11.1608 7.4807 11.1608 3.76514 11.1608C3.71366 11.1608 3.66218 11.1637 3.61217 11.1593C3.31651 11.1372 3.12676 10.9489 3.12235 10.6768C3.11941 10.4018 3.30621 10.2061 3.59893 10.1826C3.67983 10.1767 3.7622 10.1796 3.8431 10.1796C5.68029 10.1796 7.51748 10.1796 9.35466 10.1796H9.35761Z" fill="#16020B"/>
<path d="M9.32854 14.1914C7.52225 14.1914 5.71595 14.1914 3.90965 14.1914C3.80816 14.1914 3.70519 14.1943 3.6037 14.1855C3.30216 14.1576 3.1227 13.9708 3.12565 13.6957C3.12859 13.4221 3.31245 13.2412 3.61694 13.2162C3.70813 13.2088 3.8008 13.2132 3.892 13.2132C7.52519 13.2132 11.1584 13.2132 14.7916 13.2132C14.9137 13.2132 15.0387 13.2103 15.1578 13.2323C15.4152 13.2809 15.5491 13.4559 15.5461 13.7089C15.5432 13.9605 15.4049 14.1326 15.1461 14.1752C15.0254 14.1943 14.9019 14.1929 14.7798 14.1929C12.9632 14.1929 11.1466 14.1929 9.33001 14.1929L9.32854 14.1914Z" fill="#16020B"/>
<path d="M7.55024 17.2245C6.29407 17.2245 5.0379 17.2245 3.78025 17.223C3.66993 17.223 3.55226 17.2201 3.4493 17.1848C3.21689 17.1083 3.10951 16.9318 3.12863 16.6891C3.14776 16.4434 3.29485 16.3022 3.5302 16.2537C3.60963 16.2375 3.69347 16.2448 3.77437 16.2448C6.28671 16.2448 8.80053 16.2448 11.3129 16.2448C11.3746 16.2448 11.4364 16.2419 11.4967 16.2478C11.7747 16.2713 11.9601 16.4552 11.9689 16.7155C11.9777 16.9774 11.8042 17.1803 11.532 17.2186C11.4423 17.2318 11.3482 17.2259 11.257 17.2259C10.0214 17.2259 8.78435 17.2259 7.54877 17.2259L7.55024 17.2245Z" fill="#16020B"/>
<path d="M6.26278 20.2471C5.39641 20.2471 4.52856 20.2529 3.66219 20.2456C3.26651 20.2427 3.02822 19.9382 3.14736 19.6043C3.24003 19.3454 3.45037 19.2674 3.70631 19.2674C4.31822 19.2689 4.93012 19.2674 5.54203 19.2674C6.57168 19.2674 7.6028 19.2674 8.63245 19.2674C8.71335 19.2674 8.79572 19.263 8.87662 19.2704C9.18993 19.2954 9.39144 19.4939 9.38703 19.769C9.38262 20.047 9.18257 20.2427 8.86191 20.2441C7.99554 20.2515 7.12769 20.2471 6.26131 20.2471H6.26278Z" fill="#16020B"/>
<path d="M17.6645 23.5896C18.375 22.8673 19.0531 22.1789 19.7326 21.4891C19.8121 21.4096 19.8886 21.3258 19.9739 21.2552C20.1857 21.0787 20.4549 21.0831 20.6387 21.2596C20.8344 21.4479 20.8461 21.723 20.652 21.9451C20.5108 22.1054 20.3519 22.2495 20.2004 22.401C19.5149 23.085 18.8295 23.769 18.1426 24.453C17.7704 24.8237 17.5527 24.8251 17.1865 24.4618C16.7231 24.0014 16.2598 23.5425 15.8008 23.0791C15.5376 22.8129 15.5125 22.5452 15.7229 22.329C15.9347 22.1083 16.2304 22.1319 16.4981 22.3996C16.8732 22.7747 17.2409 23.1556 17.6645 23.5896Z" fill="#16020B"/>
</svg>
