<svg width="33" height="35" viewBox="0 0 33 35" fill="none" xmlns="http://www.w3.org/2000/svg">
<path d="M15.3517 8.73396C15.7777 7.50141 16.3698 6.41031 17.1693 5.43517C17.8132 4.64978 18.5582 3.97772 19.3937 3.40142C19.6379 3.23275 19.832 3.23099 20.0771 3.39879C21.9167 4.65593 23.2196 6.33124 24.0111 8.40979C24.0462 8.50115 24.0805 8.59252 24.0884 8.61448C25.0117 8.27889 25.9087 7.8985 26.8381 7.62792C28.1146 7.25719 29.4306 7.23347 30.7492 7.38896C31.0058 7.41883 31.1331 7.55939 31.192 7.80011C32.0573 11.3589 31.3668 14.5787 28.9571 17.3442C26.81 19.8084 24.0427 20.9566 20.765 20.8749C19.8241 20.8512 18.8806 20.9092 17.9389 20.8863C13.7862 20.7871 10.0393 18.0804 8.55993 14.142C7.80529 12.1338 7.67439 10.0921 8.19886 8.01182C8.33152 7.48472 8.37193 7.45309 8.89815 7.39687C11.0733 7.16055 13.1273 7.55588 15.0582 8.58461C15.1435 8.62941 15.2295 8.67158 15.3517 8.73396ZM19.3691 19.7197C19.3691 19.5255 19.3691 19.4078 19.3691 19.2892C19.3673 17.0209 19.3638 14.7526 19.3664 12.4843C19.3664 12.2893 19.3796 12.0837 19.4455 11.9045C19.485 11.7973 19.6396 11.6655 19.7407 11.6673C19.8417 11.669 19.9919 11.8052 20.0279 11.9141C20.0886 12.0951 20.0903 12.3007 20.0912 12.4957C20.093 14.764 20.0903 17.0323 20.0886 19.3006C20.0886 19.4157 20.0886 19.5308 20.0886 19.7047C20.2282 19.602 20.3152 19.5413 20.3978 19.4755C25.2331 15.6074 25.0179 7.8616 19.9823 4.22634C19.7442 4.05415 19.5975 4.13498 19.4068 4.2773C15.761 6.99364 14.5232 11.9546 16.4603 16.116C17.1183 17.5296 18.0531 18.7234 19.3708 19.7197H19.3691ZM20.8151 20.1554C21.0444 20.1554 21.2412 20.1581 21.4371 20.1554C21.6453 20.151 21.8544 20.1519 22.0608 20.1308C24.7227 19.862 26.9084 18.6743 28.5855 16.6106C30.5366 14.2106 31.2324 11.474 30.5858 8.42384C30.5428 8.22091 30.4901 8.07244 30.2248 8.05487C28.2051 7.91607 26.3057 8.30261 24.5382 9.30499C24.3757 9.39723 24.3449 9.49035 24.3871 9.6722C24.67 10.9004 24.7403 12.1417 24.5575 13.3918C24.4864 13.8811 24.3845 14.3661 24.2808 14.9406C24.5865 14.5751 24.8343 14.2721 25.0899 13.976C25.1593 13.8961 25.2542 13.7836 25.3376 13.7827C25.4729 13.7827 25.6521 13.8231 25.7356 13.9163C25.8964 14.0955 25.7866 14.2817 25.646 14.4399C23.997 16.2926 22.6169 18.3729 20.8142 20.1572L20.8151 20.1554ZM15.1584 14.9432C14.7288 13.217 14.6664 11.5153 15.0415 9.80398C15.1004 9.53691 15.0336 9.40777 14.8035 9.28214C13.3724 8.50027 11.8403 8.10582 10.2159 8.06454C9.86802 8.05575 9.51311 8.05926 9.17225 8.11812C9.04398 8.14009 8.87443 8.32018 8.84456 8.45459C8.58716 9.60895 8.52918 10.78 8.7286 11.9467C9.45776 16.2004 12.5703 19.3217 16.8188 20.0526C17.4003 20.1528 17.9995 20.1466 18.6399 20.1932C17.9037 19.363 17.2079 18.6224 16.5622 17.8388C15.6222 16.6985 14.7174 15.5292 13.8011 14.3696C13.6658 14.1983 13.556 13.9848 13.766 13.817C13.9873 13.6395 14.1736 13.8108 14.3308 13.9725C14.4301 14.0744 14.518 14.1868 14.6102 14.2958C14.7929 14.5119 14.9757 14.728 15.1575 14.9441L15.1584 14.9432Z" fill="#16020B"/>
<path d="M14.6537 26.7061C16.7577 27.3035 18.8688 27.8798 20.9631 28.508C21.8908 28.7864 22.7272 28.7162 23.5898 28.2725C25.9065 27.0821 28.2459 25.9357 30.574 24.7664C30.9807 24.5617 31.3971 24.4651 31.8417 24.5986C32.4373 24.7778 32.7755 25.1942 32.8695 25.7986C32.9618 26.3899 32.7667 26.8792 32.2809 27.2385C31.1011 28.1118 29.9186 28.9815 28.7361 29.8521C27.3595 30.865 25.9794 31.8726 24.608 32.8926C24.2022 33.1948 23.7655 33.3318 23.2595 33.3028C20.3394 33.1333 17.4183 32.9708 14.4973 32.8065C12.8343 32.7134 11.1722 32.6167 9.50915 32.5306C8.96799 32.5025 8.45934 32.6624 8.01218 32.9479C7.37614 33.3538 6.76645 33.8018 6.14799 34.2341C5.74915 34.5125 5.64109 34.4967 5.34767 34.0953C3.90516 32.123 2.46353 30.1516 1.0219 28.1794C0.710913 27.7533 0.736389 27.6119 1.20903 27.3685C3.9895 25.9339 6.77524 24.5072 9.55483 23.07C10.3938 22.636 11.2943 22.5016 12.2193 22.4568C13.9263 22.3751 15.6332 22.2345 17.341 22.2249C18.6078 22.2179 19.8782 22.347 21.1406 22.4779C21.8346 22.5499 22.2835 23.41 22.0718 24.104C21.7854 25.044 20.6135 25.8435 19.6014 25.7881C19.4371 25.7793 19.2711 25.7776 19.1103 25.7477C17.9762 25.5369 16.9255 25.8584 15.8801 26.2344C15.4733 26.3802 15.0569 26.4997 14.6449 26.6315L14.6537 26.707V26.7061ZM5.85193 33.5471C6.30787 33.2176 6.73307 32.911 7.15651 32.6027C7.76268 32.1608 8.4321 31.8665 9.18586 31.8384C9.73141 31.8182 10.2805 31.8472 10.826 31.877C14.9497 32.1054 19.0743 32.3374 23.1972 32.5763C23.5907 32.5992 23.9184 32.4999 24.2347 32.2645C25.7993 31.1004 27.3727 29.9487 28.9426 28.7926C29.8949 28.0907 30.8516 27.3949 31.7977 26.6851C32.3336 26.2827 32.2783 25.5869 31.7037 25.3269C31.4156 25.196 31.1529 25.2874 30.8894 25.42C28.5139 26.6148 26.1331 27.7981 23.762 29.0017C22.8554 29.462 21.9374 29.5587 20.964 29.2661C20.0003 28.9762 19.0295 28.7127 18.0614 28.4377C16.4933 27.9932 14.9251 27.5495 13.357 27.1059C13.3359 27.0997 13.3157 27.0901 13.2946 27.0848C13.0812 27.0303 12.8914 26.9477 12.8949 26.6824C12.8975 26.4364 13.075 26.3583 13.2744 26.2959C14.485 25.9155 15.7 25.5492 16.9009 25.1389C17.4368 24.9562 17.9683 24.928 18.5174 24.972C18.8775 25.001 19.2386 25.0414 19.5988 25.044C20.3218 25.0493 20.8902 24.7321 21.282 24.1312C21.564 23.699 21.3426 23.1956 20.834 23.1535C19.7209 23.0603 18.6034 22.9417 17.4895 22.9567C15.8695 22.9778 14.2513 23.1552 12.6314 23.1763C11.3224 23.193 10.1232 23.5409 8.9838 24.1251C6.7155 25.2891 4.46213 26.4821 2.20262 27.6646C2.04976 27.7445 1.89953 27.8315 1.73262 27.9238C3.10748 29.8011 4.46565 31.6556 5.85105 33.5471H5.85193Z" fill="#16020B"/>
<path d="M5.69613 18.2246C5.69613 18.5874 5.69437 18.9133 5.69613 19.2393C5.69789 19.4852 5.62937 19.6864 5.34209 19.6891C5.0557 19.6917 4.97664 19.4914 4.974 19.2472C4.97049 18.9212 4.97312 18.5953 4.97312 18.2246C4.6182 18.2246 4.29404 18.2228 3.96987 18.2246C3.70895 18.2263 3.49899 18.1482 3.50777 17.846C3.51656 17.5613 3.72476 17.4989 3.96899 17.5007C4.28437 17.5033 4.60063 17.5007 4.97312 17.5007C4.97312 17.1519 4.96082 16.8286 4.97927 16.5071C4.9863 16.3745 5.02495 16.2128 5.11105 16.1241C5.18133 16.052 5.37021 16.0169 5.45894 16.0608C5.56348 16.1127 5.67241 16.2629 5.68208 16.378C5.71019 16.7346 5.69262 17.094 5.69262 17.5007C6.05632 17.5007 6.38049 17.5042 6.70378 17.4998C6.96733 17.4954 7.17993 17.578 7.1729 17.8723C7.16675 18.1455 6.95855 18.2263 6.71168 18.2246C6.38664 18.2228 6.06071 18.2246 5.69701 18.2246H5.69613Z" fill="#16020B"/>
<path d="M30.8028 2.36899C30.8028 2.00353 30.8064 1.67761 30.802 1.35168C30.7984 1.10131 30.8828 0.898373 31.1542 0.892223C31.4468 0.886074 31.5329 1.0934 31.5276 1.35959C31.5206 1.67585 31.5258 1.99299 31.5258 2.36723C31.8641 2.36723 32.1874 2.37163 32.5107 2.36636C32.7645 2.36196 32.9798 2.4094 32.9991 2.71688C33.0158 2.96638 32.8462 3.092 32.501 3.09552C32.1865 3.09815 31.8729 3.09552 31.525 3.09552C31.525 3.45834 31.5215 3.78427 31.5258 4.11019C31.5294 4.36057 31.4512 4.55647 31.1701 4.55911C30.8898 4.56174 30.802 4.36935 30.802 4.11898C30.802 3.79217 30.802 3.46625 30.802 3.09552C30.4418 3.09552 30.1062 3.09727 29.7715 3.09552C29.5211 3.09376 29.3375 2.99712 29.3392 2.71688C29.341 2.4709 29.5 2.37251 29.7275 2.36987C30.0746 2.36724 30.4224 2.36987 30.8011 2.36987L30.8028 2.36899Z" fill="#16020B"/>
<path d="M13.3656 3.96874C13.3656 4.33772 13.3647 4.66452 13.3656 4.99132C13.3665 5.24346 13.2769 5.43497 12.9984 5.43409C12.7173 5.43409 12.6364 5.23994 12.6408 4.98693C12.6461 4.66101 12.6417 4.3342 12.6417 3.96874C12.3132 3.96874 12.0101 3.96874 11.707 3.96874C11.3283 3.96786 11.143 3.85015 11.1658 3.60416C11.1983 3.26067 11.4549 3.2431 11.7237 3.24925C12.0171 3.2554 12.3105 3.251 12.6417 3.251C12.6417 2.88642 12.6443 2.54996 12.6408 2.21437C12.6382 1.95784 12.7322 1.77511 13.0116 1.78038C13.2707 1.78566 13.3638 1.96487 13.3647 2.20382C13.3647 2.54029 13.3647 2.87676 13.3647 3.24573C13.7214 3.24573 14.0473 3.24837 14.3724 3.24485C14.621 3.24222 14.8213 3.31513 14.8257 3.59801C14.8309 3.9011 14.6201 3.97401 14.3592 3.9705C14.0429 3.96611 13.7267 3.96962 13.3647 3.96962L13.3656 3.96874Z" fill="#16020B"/>
</svg>
