<svg width="25" height="22" viewBox="0 0 25 22" fill="none" xmlns="http://www.w3.org/2000/svg">
<path d="M10.5561 13.7166C8.82438 13.6608 7.45915 12.2368 7.51431 10.5447C7.57184 8.77895 8.99578 7.45702 10.7791 7.51398C12.4498 7.56738 13.7782 9.03348 13.7165 10.7571C13.6578 12.4101 12.2054 13.77 10.5561 13.7166ZM10.6285 8.13341C9.24486 8.134 8.13169 9.24886 8.13465 10.6301C8.13762 11.9799 9.26562 13.0989 10.619 13.0936C11.9937 13.0883 13.0986 11.9787 13.0974 10.6052C13.0962 9.24411 11.9866 8.13222 10.6285 8.13341Z" fill="#16020B"/>
<path d="M10.3666 10.9176C10.754 10.5394 11.136 10.1563 11.5343 9.78744C11.6117 9.71562 11.758 9.66502 11.8667 9.67263C11.952 9.67862 12.0813 9.78146 12.0958 9.856C12.1146 9.95176 12.0704 10.0905 11.9961 10.1618C11.6758 10.4665 11.3337 10.7527 11 11.046C10.8441 11.1831 10.6924 11.3246 10.5316 11.4573C10.366 11.5939 10.2143 11.5961 10.0523 11.4579C9.77913 11.2255 9.51077 10.9877 9.24664 10.7473C9.09856 10.6123 9.09675 10.4502 9.22549 10.3332C9.35362 10.2167 9.53736 10.2118 9.68605 10.3468C9.87643 10.5198 10.0493 10.7092 10.2294 10.8909L10.3684 10.9181L10.3666 10.9176Z" fill="#16020B"/>
<path d="M18.8843 6.41546L18.2432 6.75124C17.8787 6.23491 17.9951 5.72365 18.6667 4.88168C18.0542 4.02283 17.3117 3.28884 16.4596 2.66959C16.4326 2.68478 16.4158 2.68984 16.404 2.70165C15.6329 3.40189 15.2633 3.44914 14.3201 3.00368C13.9708 2.84001 13.6081 2.70334 13.2453 2.57341C12.6075 2.34393 12.2531 1.87486 12.2599 1.19486C12.2616 0.975512 12.1991 0.906331 11.9798 0.877647C11.0838 0.762908 10.1912 0.76797 9.29525 0.884396C9.12146 0.908018 9.08602 0.977199 9.08433 1.13581C9.07252 1.90017 8.74518 2.33212 8.02638 2.59535C7.6248 2.74214 7.22827 2.90244 6.84356 3.08467C6.12476 3.42383 5.59325 3.34621 5.02631 2.78939C4.98581 2.74889 4.94363 2.71177 4.88795 2.65947C4.02404 3.2804 3.28499 4.01776 2.62018 4.94242C2.70623 4.99979 2.80072 5.04197 2.86822 5.11115C3.3103 5.56504 3.39635 6.14886 3.1365 6.72761C2.94077 7.16126 2.74842 7.59827 2.58475 8.04542C2.32996 8.7406 1.87776 9.07975 1.13871 9.0865C1.0729 9.0865 1.00878 9.0865 0.921041 9.0865C0.742184 10.1428 0.750621 11.1838 0.912604 12.23C1.13364 12.2519 1.3395 12.2519 1.53692 12.2941C2.01612 12.3953 2.3384 12.6906 2.52569 13.1378C2.73829 13.6457 2.94921 14.1535 3.15844 14.6614C3.38117 15.2064 3.30861 15.7076 2.93065 16.1615C2.85134 16.256 2.76192 16.3403 2.65899 16.4483C3.27486 17.3156 4.01729 18.0496 4.88626 18.6806C4.97906 18.5929 5.06343 18.5052 5.15623 18.4259C5.61856 18.0226 6.13151 17.95 6.69508 18.1846C7.17934 18.3871 7.66192 18.5963 8.15124 18.7886C8.74012 19.0181 9.08433 19.4956 9.08433 20.1621C9.08433 20.3713 9.1417 20.4372 9.35431 20.4642C10.2503 20.5789 11.1429 20.5738 12.0388 20.4574C12.2228 20.4338 12.2616 20.3629 12.2633 20.1908C12.2649 19.4399 12.594 19.008 13.3027 18.7515C13.7042 18.6064 14.1008 18.4427 14.4855 18.2622C15.2228 17.9146 15.7392 17.9888 16.323 18.5592C16.3635 18.598 16.4056 18.6351 16.4546 18.679C17.3168 18.058 18.0508 17.324 18.6819 16.45C18.3427 16.1311 18.0508 15.7784 18.0575 15.2908C18.0609 15.0596 18.1284 14.8285 18.174 14.5568C18.4473 14.6969 18.665 14.8082 18.9113 14.9365C18.7021 15.3769 18.9771 15.6451 19.264 15.9101C19.3365 15.9775 19.4057 16.0467 19.4732 16.121C19.62 16.283 19.6335 16.4652 19.5137 16.6407C18.7375 17.7847 17.7774 18.7481 16.6301 19.5192C16.4495 19.6407 16.269 19.6171 16.1121 19.4686C15.9686 19.3336 15.8336 19.1885 15.6902 19.0519C15.4557 18.8258 15.2397 18.7937 14.9461 18.9186C14.4551 19.1261 13.9607 19.3303 13.4663 19.5311C13.1812 19.6475 13.0529 19.8196 13.0462 20.1318C13.0428 20.3207 13.0462 20.5114 13.0445 20.7004C13.0394 20.9467 12.9264 21.1003 12.675 21.1492C11.3251 21.4124 9.97524 21.404 8.62707 21.1425C8.42628 21.1037 8.30816 20.9754 8.30141 20.7645C8.29467 20.5586 8.30141 20.3528 8.29635 20.1469C8.28454 19.8145 8.14618 19.6407 7.8374 19.5192C7.36495 19.3303 6.89418 19.1362 6.42679 18.9337C6.09776 18.7903 5.88179 18.8207 5.62025 19.0755C5.49033 19.202 5.36546 19.332 5.23554 19.4585C5.07187 19.6188 4.88795 19.6424 4.69897 19.5142C3.55327 18.7397 2.59318 17.7779 1.8187 16.6322C1.69552 16.45 1.72083 16.2711 1.86763 16.1142C2.00937 15.964 2.16123 15.8257 2.30296 15.6755C2.51219 15.4545 2.54256 15.2301 2.42276 14.95C2.21353 14.459 2.00768 13.9663 1.80689 13.4719C1.68709 13.18 1.50823 13.0483 1.18595 13.0433C1.01384 13.0416 0.840049 13.0433 0.667942 13.0433C0.370972 13.0399 0.244422 12.9437 0.188741 12.6552C-0.045798 11.4302 -0.060984 10.2018 0.138121 8.97007C0.151619 8.88908 0.161743 8.80809 0.178617 8.7271C0.242735 8.39469 0.359161 8.29345 0.698314 8.29852C1.62297 8.31033 1.66853 8.3137 1.97056 7.42279C2.08361 7.0887 2.24559 6.77148 2.39408 6.45089C2.55944 6.09149 2.53075 5.89239 2.24897 5.60723C2.12242 5.47899 1.98912 5.35413 1.86594 5.22083C1.71915 5.06222 1.70059 4.88505 1.82376 4.70282C2.59993 3.55881 3.55833 2.59703 4.70572 1.82255C4.88626 1.70106 5.06512 1.71962 5.22204 1.86811C5.37052 2.00984 5.51226 2.16002 5.66075 2.30344C5.87504 2.50929 6.11464 2.53966 6.38798 2.42324C6.879 2.21401 7.3717 2.00984 7.86777 1.81243C8.14449 1.70275 8.2896 1.50702 8.29804 1.21342C8.30479 1.00757 8.29804 0.801717 8.3031 0.595863C8.30648 0.37651 8.4229 0.239836 8.63551 0.199341C9.98368 -0.0621953 11.3335 -0.0689446 12.6834 0.194279C12.9213 0.239836 13.0394 0.388321 13.0462 0.62286C13.0529 0.820277 13.0496 1.01769 13.0479 1.21511C13.0479 1.50365 13.1862 1.69431 13.4511 1.8023C13.9607 2.00984 14.4686 2.22245 14.9765 2.43336C15.2296 2.53966 15.4607 2.50761 15.6615 2.31862C15.8117 2.17689 15.9534 2.0284 16.1002 1.88329C16.2724 1.71625 16.4596 1.70106 16.6587 1.83605C17.7876 2.60547 18.7375 3.55375 19.5053 4.68426C19.6403 4.88168 19.6234 5.07066 19.4563 5.24276C19.3652 5.33726 19.2707 5.43006 19.1779 5.52286C18.8337 5.86708 18.8135 5.92782 18.8928 6.41377L18.8843 6.41546Z" fill="black"/>
<path d="M16.4675 14.2253L17.1087 14.6184C15.9394 16.763 12.9714 18.7321 9.48031 18.1702C5.88293 17.5915 3.22201 14.5897 3.0769 10.9923C2.93179 7.39833 5.33792 4.17553 8.81044 3.31499C12.4045 2.42408 15.8314 4.22784 17.3281 7.06592C17.1087 7.18572 16.8894 7.30552 16.6565 7.43207C15.44 5.37184 13.675 4.14684 11.2959 3.91399C9.29808 3.71826 7.53314 4.32401 6.05672 5.684C3.19333 8.31961 3.1309 12.8045 5.90149 15.5228C6.48868 16.0999 7.15855 16.5571 7.91279 16.8895C8.66533 17.2219 9.45163 17.4126 10.2734 17.4599C11.0968 17.5071 11.8983 17.4076 12.6845 17.1646C13.4708 16.9216 14.188 16.5436 14.8393 16.0408C15.4906 15.538 16.0221 14.9272 16.4692 14.2253H16.4675Z" fill="black"/>
<path d="M15.7812 11.0686V10.2773H16.058C17.7537 10.2773 19.4495 10.2756 21.1453 10.2806C21.3005 10.2806 21.3882 10.2486 21.4675 10.0967C21.7223 9.61584 22.2657 9.3948 22.7904 9.52979C23.3017 9.65971 23.6661 10.1187 23.6763 10.6434C23.6864 11.1867 23.3388 11.6626 22.8242 11.8094C22.3011 11.9595 21.7544 11.7571 21.4878 11.2762C21.3899 11.1007 21.2853 11.0636 21.1048 11.0636C19.4259 11.0686 17.7453 11.0669 16.0664 11.0669H15.7812V11.0686ZM22.8832 10.6637C22.8782 10.4511 22.6993 10.2773 22.4867 10.279C22.264 10.2806 22.0834 10.4713 22.0952 10.694C22.107 10.9066 22.2926 11.0754 22.5036 11.0669C22.7162 11.0585 22.8866 10.8763 22.8815 10.6637H22.8832Z" fill="black"/>
<path d="M17.7592 9.09101V8.30134H18.2924C18.8846 8.30134 19.4785 8.29628 20.0708 8.30472C20.2345 8.30641 20.3425 8.26928 20.4302 8.11911C20.5837 7.85758 20.7677 7.61291 20.9313 7.35644C21.0393 7.18771 21.1827 7.10334 21.3835 7.11515C21.4578 7.12021 21.532 7.11009 21.6063 7.11515C21.9319 7.14215 22.1816 7.10672 22.3909 6.76588C22.6642 6.32042 23.2531 6.21581 23.7374 6.41829C24.2081 6.61402 24.5017 7.09322 24.4646 7.59942C24.4258 8.10393 24.058 8.53588 23.5653 8.654C23.0523 8.77717 22.541 8.56288 22.2694 8.11405C22.0922 7.82046 21.581 7.81033 21.3903 8.09549C21.2165 8.35534 21.0579 8.62869 20.8622 8.86829C20.7744 8.97459 20.6107 9.0792 20.4791 9.08089C19.5815 9.09945 18.6855 9.09101 17.7592 9.09101ZM23.6749 7.50999C23.6749 7.29907 23.5011 7.12021 23.2885 7.11515C23.0776 7.11178 22.8954 7.28388 22.8886 7.49649C22.8819 7.71753 23.0658 7.90651 23.2868 7.90313C23.4994 7.89976 23.6749 7.72259 23.6749 7.50999Z" fill="black"/>
<path d="M17.7551 13.0455V12.2542C17.9981 12.2542 18.2343 12.2542 18.4705 12.2542C19.1202 12.2542 19.7715 12.2592 20.4211 12.2525C20.632 12.2508 20.7805 12.3284 20.8935 12.5056C21.0623 12.7688 21.2378 13.027 21.4115 13.2868C21.5735 13.5281 22.1034 13.5095 22.2501 13.2598C22.5387 12.7654 23.0904 12.5427 23.6253 12.703C24.1332 12.8548 24.4825 13.3459 24.4622 13.8824C24.442 14.4325 24.0438 14.8881 23.4836 14.9978C22.9976 15.0939 22.4948 14.8543 22.2434 14.3886C22.1793 14.2705 22.1135 14.23 21.9819 14.2283C20.9222 14.2182 21.1922 14.3886 20.5864 13.4572C20.384 13.1468 20.1798 13.0151 19.8035 13.0354C19.1303 13.0708 18.4553 13.0455 17.7534 13.0455H17.7551ZM23.2828 14.23C23.4954 14.2283 23.6709 14.0512 23.6743 13.8386C23.6759 13.6175 23.487 13.4336 23.2659 13.442C23.055 13.4505 22.8829 13.6344 22.888 13.8453C22.893 14.0579 23.0736 14.2317 23.2845 14.23H23.2828Z" fill="black"/>
<path d="M16.9435 8.31787V9.08054H16.1842V8.31787H16.9435Z" fill="black"/>
<path d="M16.9436 12.269V13.0283H16.1809V12.269H16.9436Z" fill="black"/>
</svg>
