<svg width="54" height="55" viewBox="0 0 54 55" fill="none" xmlns="http://www.w3.org/2000/svg">
<g id="Group 1171276532">
<g id="Group 1171276472">
<g id="Group 1171275872">
<ellipse id="Ellipse 1098" cx="27" cy="27.2547" rx="27" ry="27.2547" fill="#FEEAEE"/>
</g>
</g>
<g id="a">
<path id="Vector" d="M25.4172 10.3334C25.9144 10.147 26.4376 10.0115 26.9711 10.0004C27.3111 9.99495 27.6669 10.0384 27.9599 10.2235C28.279 10.4139 28.4772 10.7547 28.5637 11.1088C28.5831 11.262 28.5934 11.4165 28.5937 11.5705C28.5858 11.8232 28.4259 12.0305 28.3371 12.258C28.2091 12.4578 28.0164 12.6075 27.819 12.7338C27.2401 13.0774 26.5858 13.2744 25.9271 13.3941C25.289 13.4932 24.637 13.5438 23.9941 13.4628C24.1288 13.4257 24.2666 13.4004 24.4052 13.3818C24.9629 13.2804 25.4936 13.0747 26.018 12.8654C26.3998 12.7117 26.7655 12.5203 27.1189 12.3097C27.3894 12.1285 27.684 11.9342 27.8131 11.6211C27.9181 11.3242 27.7567 11.0047 27.5292 10.8136C27.2042 10.5498 26.7813 10.4558 26.3753 10.4021C26.0574 10.3673 25.7383 10.3203 25.4173 10.3334H25.4172Z" fill="#3A3A3C"/>
<path id="Vector_2" d="M25.416 10.3343C25.7371 10.3212 26.0561 10.3682 26.374 10.403C26.78 10.4566 27.2029 10.5507 27.5279 10.8144C27.7554 11.0055 27.9168 11.3251 27.8118 11.622C27.6827 11.9351 27.3881 12.1294 27.1176 12.3106C26.7641 12.5211 26.3985 12.7126 26.0167 12.8663C25.4923 13.0755 24.9615 13.2813 24.404 13.3827C24.2654 13.4013 24.1276 13.4266 23.9929 13.4637C23.6592 13.4258 23.3413 13.3092 23.0412 13.1624C23.0261 13.1537 22.9958 13.1367 22.9807 13.1284C22.8224 13.0001 22.6684 12.8654 22.5175 12.7284C22.2905 12.4666 22.0819 12.1815 21.9473 11.8604C22.2802 11.873 22.6158 11.8285 22.929 11.7127C23.8309 11.3905 24.5188 10.6675 25.4159 10.3342L25.416 10.3343Z" fill="#16020B"/>
<path id="Vector_3" d="M28.5626 11.1092C28.7838 11.0255 29.0373 11.016 29.2568 11.1104C29.5234 11.2107 29.7295 11.4176 29.9135 11.6277C30.3021 12.0928 30.575 12.663 30.652 13.2677C30.8025 14.3082 30.5975 15.3542 30.4131 16.3766C30.3909 16.4323 30.3672 16.4868 30.3432 16.5417C30.3326 16.5101 30.3218 16.4781 30.312 16.447C30.2864 16.4718 30.2622 16.4971 30.2366 16.5212C30.218 16.4959 30.199 16.4707 30.1801 16.4457C30.1947 16.4319 30.2235 16.4038 30.2382 16.3901C30.1576 16.3178 30.0845 16.2353 29.9913 16.1796C29.9025 16.142 29.8061 16.1291 29.7117 16.1152C29.6703 15.9897 29.583 15.8854 29.5403 15.7617C29.6869 15.4103 29.7311 15.0289 29.739 14.6509C29.7512 14.0858 29.739 13.5085 29.5665 12.9652C29.4752 12.6844 29.3138 12.3997 29.0385 12.2654C28.8138 12.1793 28.5666 12.2204 28.3359 12.2583C28.4248 12.0308 28.5848 11.8235 28.5926 11.5708C28.5922 11.4168 28.582 11.2624 28.5626 11.1092Z" fill="#16020B"/>
<path id="Vector_4" d="M28.3378 12.2586C28.5684 12.2207 28.8156 12.1796 29.0403 12.2657C29.3155 12.4 29.4771 12.6847 29.5683 12.9655C29.7409 13.5089 29.7531 14.0861 29.7409 14.6512C29.7329 15.0291 29.6887 15.4106 29.5422 15.762C29.5849 15.8856 29.6721 15.9899 29.7136 16.1155C29.0142 16.1147 28.3149 16.1187 27.6156 16.1147C27.4821 16.1179 27.3455 16.0938 27.214 16.1215C27.0876 16.1996 26.9897 16.3145 26.8811 16.4145L26.864 16.4299C26.6311 16.4204 26.3973 16.4327 26.1643 16.4244C26.1959 15.9522 26.1797 15.4783 26.1493 15.0064C26.156 14.7039 26.19 14.4022 26.1836 14.0994C26.1741 13.9805 26.2246 13.8411 26.1493 13.7376C26.1347 13.7254 26.1054 13.7 26.0908 13.6874C26.1603 13.6376 26.2607 13.5914 26.2551 13.4908C26.1501 13.4465 26.0352 13.4315 25.9277 13.3948C26.5864 13.2751 27.2407 13.078 27.8196 12.7345C28.017 12.6081 28.2097 12.4585 28.3377 12.2586H28.3378Z" fill="#F3A76C"/>
<path id="Vector_5" d="M22.1329 14.6951C22.0614 14.0233 22.1424 13.305 22.5184 12.7285C22.6692 12.8656 22.8232 13.0002 22.9816 13.1285C22.6606 13.42 22.565 13.8788 22.5942 14.2958C22.6242 14.9525 22.9279 15.5492 23.2047 16.1301C23.0921 16.1376 22.9378 16.0811 22.8603 16.1905C22.8209 16.2281 22.8138 16.2821 22.809 16.3331C22.7505 16.3931 22.704 16.4626 22.6724 16.54C22.6076 16.54 22.5523 16.5084 22.501 16.4736C22.3556 15.8865 22.1993 15.2984 22.1329 14.6951Z" fill="#3A3A3C"/>
<path id="Vector_6" d="M22.5948 14.2942C22.5656 13.8773 22.6612 13.4184 22.9822 13.127C22.9973 13.1352 23.0276 13.1523 23.0427 13.1609C23.1367 13.2217 23.2275 13.2884 23.319 13.3528C23.1978 13.6517 23.1473 13.9747 23.1326 14.2954C23.0967 14.9142 23.1851 15.5314 23.3044 16.1368C23.2708 16.134 23.238 16.1313 23.2052 16.1285C22.9284 15.5476 22.6247 14.9509 22.5947 14.2942H22.5948Z" fill="#16020B"/>
<path id="Vector_7" d="M23.043 13.1602C23.3431 13.307 23.6609 13.4236 23.9947 13.4615C24.6376 13.5424 25.2895 13.4919 25.9276 13.3928C26.0351 13.4295 26.15 13.4445 26.255 13.4888C26.2605 13.5894 26.1602 13.6356 26.0907 13.6854C26.1053 13.6981 26.1346 13.7234 26.1492 13.7356C25.5493 13.8474 24.927 13.8659 24.3263 13.749C23.969 13.6838 23.6309 13.5354 23.3193 13.3522C23.2278 13.2878 23.1369 13.221 23.043 13.1602V13.1602Z" fill="#E89665"/>
<path id="Vector_8" d="M23.3174 13.3536C23.629 13.5369 23.9669 13.6853 24.3244 13.7505C24.925 13.8674 25.5473 13.8488 26.1472 13.7371C26.2226 13.8405 26.172 13.9799 26.1815 14.0988C26.1878 14.4017 26.1538 14.7034 26.1472 15.0058C26.1776 15.4777 26.1937 15.9516 26.1622 16.4239C26.3952 16.4321 26.629 16.4199 26.862 16.4294C26.7704 16.5083 26.6459 16.4744 26.5366 16.4739C26.3929 16.4597 26.2487 16.4858 26.1054 16.4759C26.0173 16.4392 25.9581 16.359 25.8882 16.2974C25.8238 16.237 25.7595 16.1766 25.6959 16.1158C25.5229 16.1206 25.3504 16.1221 25.1782 16.1269C24.5531 16.1245 23.9276 16.1565 23.3029 16.1375C23.1836 15.5321 23.0952 14.9149 23.1311 14.2961C23.1457 13.9754 23.1962 13.6526 23.3174 13.3536Z" fill="#F6B37A"/>
<path id="Vector_9" d="M22.8598 16.1896C22.9372 16.0801 23.0916 16.1366 23.2042 16.1291C23.237 16.1319 23.2698 16.1346 23.3034 16.1374C23.9281 16.1563 24.5536 16.1244 25.1787 16.1268C25.1649 16.1461 25.1376 16.1852 25.1237 16.2049C24.8517 16.2361 24.5634 16.2081 24.3068 16.3202C23.8076 16.3404 23.3077 16.3147 22.8086 16.3321C22.8134 16.2811 22.8205 16.2271 22.8599 16.1896H22.8598Z" fill="#1E3E4E"/>
<path id="Vector_10" d="M25.1806 16.1263C25.3528 16.1215 25.5253 16.12 25.6983 16.1152C25.7619 16.176 25.8263 16.2364 25.8906 16.2969C25.8227 16.2969 25.756 16.2953 25.6888 16.2953C25.6737 16.3186 25.6438 16.3656 25.6284 16.3888C25.6248 16.3951 25.6169 16.4074 25.613 16.4137C25.5605 16.3612 25.5257 16.2636 25.4368 16.2763C25.2212 16.2794 25.0044 16.2731 24.7904 16.3023C24.6301 16.3122 24.4693 16.3177 24.3086 16.3197C24.5653 16.2075 24.8535 16.2355 25.1256 16.2044C25.1394 16.1847 25.1666 16.1456 25.1805 16.1262L25.1806 16.1263Z" fill="#28333A"/>
<path id="Vector_11" d="M26.8809 16.4139C26.9896 16.314 27.0874 16.1991 27.2139 16.1209C27.3454 16.0932 27.482 16.1173 27.6154 16.1141C27.5578 16.1343 27.5017 16.1568 27.4452 16.1793C27.8934 16.1912 28.3385 16.252 28.7871 16.2583C29.0777 16.2594 29.3684 16.2642 29.6593 16.2669C29.7829 16.2689 29.912 16.2531 30.0297 16.3025C30.0088 16.3033 29.9678 16.3045 29.9468 16.3053C29.108 16.2985 28.2685 16.3132 27.4297 16.2919C27.4207 16.2884 27.4021 16.2816 27.393 16.2781C27.3835 16.3112 27.3733 16.344 27.3638 16.3772C27.3378 16.3863 27.286 16.4045 27.2604 16.4135C27.2552 16.4088 27.245 16.3998 27.2398 16.3953C27.2004 16.4333 27.1612 16.4715 27.1221 16.5099C27.0577 16.4451 26.9658 16.4321 26.8809 16.4139H26.8809Z" fill="#2A393F"/>
<path id="Vector_12" d="M27.6135 16.1133C28.3128 16.1172 29.0121 16.1133 29.7115 16.1141C29.8059 16.1279 29.9022 16.1409 29.9911 16.1785C30.0843 16.2341 30.1574 16.3167 30.238 16.3889C30.2234 16.4027 30.1945 16.4308 30.1799 16.4446C30.1353 16.3909 30.091 16.334 30.0279 16.3017C29.9102 16.2523 29.781 16.2681 29.6575 16.2661C29.3664 16.2633 29.0758 16.2586 28.7852 16.2575C28.3366 16.2512 27.8916 16.1904 27.4434 16.1785C27.4998 16.156 27.5559 16.1335 27.6136 16.1133H27.6135Z" fill="#1E414A"/>
<path id="Vector_13" d="M24.7887 16.3025C25.0028 16.2734 25.2196 16.2797 25.4351 16.2765C25.524 16.2639 25.5587 16.3614 25.6113 16.4139C25.5931 16.4862 25.5734 16.5585 25.552 16.6303C25.0928 16.6714 24.6284 16.6564 24.17 16.7089C24.0413 16.7406 23.9681 16.8641 23.873 16.9459C23.9469 16.7954 24.0369 16.6493 24.1522 16.5273C24.5839 16.4313 25.0269 16.3864 25.4641 16.318C25.2405 16.2852 25.0139 16.3141 24.7888 16.3026L24.7887 16.3025Z" fill="#523F38"/>
<path id="Vector_14" d="M25.6875 16.2949C25.7546 16.2949 25.8214 16.2965 25.8894 16.2965C25.9592 16.3581 26.0185 16.4383 26.1066 16.475C26.2499 16.4849 26.394 16.4588 26.5378 16.4731C26.6472 16.4734 26.7715 16.5074 26.8631 16.4285L26.8802 16.4131C26.9651 16.4313 27.057 16.4442 27.1214 16.5091C27.0827 16.5553 27.0168 16.5935 27.0164 16.6607C26.9891 17.0899 26.9939 17.5457 27.2016 17.9342C27.3023 18.1111 27.4654 18.2892 27.6846 18.2912C28.0522 18.3089 28.4214 18.3014 28.7887 18.2793C28.981 18.2615 29.1856 18.2442 29.3506 18.1348C29.498 18.0293 29.5579 17.8493 29.6089 17.6834C29.7013 17.3596 29.7621 17.0279 29.8359 16.6997C29.8533 16.6519 29.8565 16.5876 29.905 16.5591C30.0136 16.5323 30.1274 16.5383 30.2375 16.5201C30.2632 16.496 30.2873 16.4707 30.313 16.4459C30.3229 16.477 30.3335 16.5091 30.3441 16.5406C30.3682 16.4857 30.3919 16.4312 30.414 16.3755C30.4097 16.4343 30.4065 16.4932 30.4046 16.5524C30.4456 16.5824 30.4867 16.6125 30.5289 16.642C30.5041 16.6945 30.4764 16.7455 30.4503 16.7972C30.3733 16.7988 30.288 16.7818 30.2205 16.8271C30.1518 16.9275 30.1375 17.053 30.1016 17.1671C30.057 17.3397 29.993 17.5067 29.9291 17.6729L29.9219 17.6923C29.8386 17.874 29.7699 18.0687 29.634 18.2191C29.544 18.3206 29.4248 18.3893 29.3043 18.4473C29.0773 18.5342 28.8308 18.5354 28.5916 18.5417C28.2875 18.5449 27.9831 18.5374 27.6802 18.5106C27.3754 18.4794 27.1092 18.2724 26.9717 18.0035C26.8078 17.7129 26.7759 17.3757 26.7242 17.0526C26.5619 17.0483 26.3996 17.0578 26.2372 17.0606L26.1811 17.0609C26.1358 17.4282 26.0871 17.8112 25.8715 18.1239C25.7318 18.3427 25.4892 18.4872 25.2334 18.5188C24.9332 18.5564 24.63 18.5564 24.3279 18.5548C24.0866 18.5488 23.8398 18.5437 23.6096 18.4627C23.4781 18.3995 23.3525 18.3202 23.2526 18.2127C23.1622 18.084 23.0879 17.9446 23.0303 17.7985C22.9011 17.4829 22.8104 17.1544 22.7397 16.8216C22.5908 16.8307 22.4736 16.752 22.3906 16.6356C22.4246 16.6391 22.4929 16.6462 22.5269 16.6498C22.5194 16.5902 22.5111 16.531 22.5012 16.4717C22.5525 16.5065 22.6078 16.5381 22.6726 16.5381C22.8021 16.5609 22.9794 16.4998 23.0769 16.6036C23.1819 16.9558 23.2183 17.3255 23.3084 17.682C23.3577 17.8688 23.4478 18.0587 23.6137 18.169C23.7574 18.2527 23.9276 18.2705 24.0903 18.2859C24.4635 18.3159 24.839 18.321 25.2134 18.3056C25.4689 18.291 25.6651 18.0832 25.7591 17.859C25.906 17.5063 25.908 17.1162 25.8989 16.7407C25.9021 16.5717 25.722 16.5002 25.6272 16.3885C25.6426 16.3652 25.6726 16.3182 25.6876 16.2949H25.6875Z" fill="#16020B"/>
<path id="Vector_15" d="M27.3924 16.2773C27.4015 16.2809 27.4201 16.2876 27.4292 16.2911C27.6179 16.3441 27.8166 16.3425 28.0088 16.38C28.2102 16.4401 28.4243 16.4191 28.6284 16.4673C28.69 16.4744 28.7244 16.5297 28.7584 16.5754C28.8239 16.6698 28.9009 16.7571 28.9566 16.8582C28.8574 16.7784 28.7698 16.66 28.63 16.6612C28.2154 16.6446 27.8 16.6525 27.3858 16.6351C27.2945 16.6091 27.293 16.4858 27.2598 16.4128C27.2854 16.4037 27.3371 16.3855 27.3632 16.3765C27.3727 16.3434 27.383 16.3106 27.3924 16.2773Z" fill="#52382F"/>
<g id="Group">
<path id="Vector_16" d="M27.4297 16.2931C28.2685 16.3144 29.108 16.2998 29.9467 16.3065C29.7201 16.3472 29.4899 16.3199 29.2616 16.3242C28.9457 16.3203 28.6301 16.3448 28.3143 16.3274C28.2093 16.3191 28.1074 16.3483 28.0095 16.3819C27.8172 16.3443 27.6185 16.3459 27.4298 16.293L27.4297 16.2931Z" fill="#EDC09F"/>
<path id="Vector_17" d="M28.0629 45.5123C28.1217 45.4815 28.1936 45.4163 28.2607 45.4645C28.3366 45.511 28.4341 45.5833 28.4053 45.6864C28.3433 45.7961 28.2351 45.8688 28.145 45.9549C28.0171 45.9229 27.8895 45.8305 27.8789 45.6891C27.9101 45.6067 27.9946 45.5608 28.0629 45.5123Z" fill="#EDC09F"/>
</g>
<path id="Vector_18" d="M22.8087 16.3309C23.3078 16.3136 23.8077 16.3392 24.3068 16.3191C24.4676 16.3171 24.6282 16.3116 24.7886 16.3017C25.0137 16.3131 25.2403 16.2843 25.4639 16.3171C25.0267 16.3854 24.5837 16.4304 24.152 16.5264C24.0368 16.6484 23.9467 16.7945 23.8729 16.9449C23.968 16.8632 24.0411 16.7396 24.1698 16.708C24.6282 16.6555 25.0927 16.6704 25.5518 16.6294C25.5732 16.5575 25.5929 16.4852 25.6111 16.413C25.6151 16.4067 25.623 16.3944 25.6265 16.3881C25.7212 16.4999 25.9013 16.5714 25.8982 16.7403C25.9073 17.1159 25.9053 17.506 25.7584 17.8586C25.6644 18.083 25.4682 18.2906 25.2127 18.3052C24.8383 18.3206 24.4628 18.3155 24.0896 18.2855C23.9269 18.2701 23.7567 18.2524 23.613 18.1686C23.4471 18.0585 23.3571 17.8685 23.3077 17.6817C23.2176 17.3251 23.1813 16.9555 23.0762 16.6033C22.9787 16.4994 22.8014 16.5606 22.6719 16.5377C22.7035 16.4603 22.75 16.3908 22.8085 16.3308L22.8087 16.3309ZM24.2081 17.1484C24.1987 17.1567 24.1801 17.1732 24.171 17.1812C24.2785 17.3833 24.5785 17.3956 24.7527 17.2744C24.9588 17.2992 25.1713 17.2803 25.3616 17.193L25.3565 17.1808C25.4122 17.0225 25.1958 16.9589 25.1244 16.8546C24.9399 16.825 24.75 16.8108 24.5656 16.8471C24.4056 16.8763 24.2623 16.996 24.2082 17.1485L24.2081 17.1484Z" fill="#F6B27B"/>
<path id="Vector_19" d="M29.9473 16.3055C29.9682 16.3047 30.0092 16.3035 30.0302 16.3027C30.0934 16.3352 30.1376 16.392 30.1822 16.4457C30.2011 16.4705 30.2201 16.4958 30.2387 16.5211C30.1286 16.5393 30.0148 16.5334 29.9062 16.5602C29.8577 16.5887 29.8545 16.653 29.8371 16.7008C29.7633 17.0289 29.7025 17.3606 29.6101 17.6845C29.5591 17.8503 29.4992 18.0304 29.3518 18.1358C29.1868 18.2452 28.9822 18.2626 28.7899 18.2803C28.4226 18.3025 28.0534 18.31 27.6858 18.2922C27.4666 18.2903 27.3035 18.1121 27.2028 17.9353C26.9952 17.5467 26.9904 17.091 27.0176 16.6618C27.018 16.5947 27.084 16.5563 27.1226 16.5101C27.1617 16.4719 27.2008 16.4335 27.2403 16.3956C27.2454 16.3999 27.2557 16.409 27.2608 16.4138C27.294 16.4868 27.2956 16.61 27.3868 16.6361C27.8011 16.6535 28.2165 16.6456 28.6311 16.6621C28.7709 16.661 28.8586 16.7794 28.9577 16.8592C28.902 16.7581 28.825 16.6708 28.7594 16.5764C28.7255 16.5306 28.6911 16.4753 28.6295 16.4683C28.4253 16.4201 28.2113 16.441 28.0099 16.381C28.1078 16.3474 28.2097 16.3182 28.3148 16.3265C28.6307 16.3439 28.9462 16.3194 29.262 16.3234C29.4902 16.319 29.7205 16.3462 29.9472 16.3056L29.9473 16.3055ZM27.6908 16.9132C27.593 16.948 27.557 17.0542 27.5269 17.1434C27.5487 17.1828 27.5688 17.2283 27.6193 17.237C27.8286 17.3231 28.0585 17.2686 28.2757 17.3136C28.4269 17.3101 28.6919 17.286 28.6658 17.0755C28.6535 17.0644 28.6295 17.0419 28.6172 17.0309C28.558 16.9018 28.4091 16.8508 28.2796 16.8251C28.0794 16.7798 27.8761 16.8402 27.6908 16.9132Z" fill="#F4A66E"/>
<path id="Vector_20" d="M21.919 16.6249C22.0493 16.5045 22.2499 16.5661 22.3905 16.6363C22.4734 16.7529 22.5907 16.8314 22.7396 16.8223C22.8103 17.1552 22.901 17.4838 23.0302 17.7992C23.0337 17.9817 23.0247 18.1648 23.0452 18.3469C23.0634 18.5405 23.1265 18.7276 23.1341 18.9227C23.0634 18.9495 22.9947 18.9807 22.9264 19.0119C22.7246 19.055 22.5059 19.0139 22.3393 18.8915C22.1477 18.715 22.0494 18.4627 21.9858 18.2155C21.9111 17.8976 21.8598 17.5753 21.8223 17.2515C21.8066 17.041 21.7935 16.8065 21.9191 16.6248L21.919 16.6249ZM22.1496 16.936C22.1153 17.0667 22.1236 17.2034 22.1319 17.3372C22.1504 17.5742 22.1473 17.8139 22.2029 18.0464C22.2452 18.2746 22.3652 18.4981 22.5658 18.6233C22.7163 18.7225 22.9094 18.6952 23.0748 18.6569C23.0081 18.6387 22.9078 18.6771 22.871 18.6001C22.7783 18.4338 22.6882 18.2522 22.6839 18.0579C22.7167 17.9007 22.8336 17.7727 22.8589 17.6128C22.7854 17.3747 22.6243 17.1729 22.4565 16.9932C22.3795 16.9075 22.2524 16.8925 22.1497 16.936L22.1496 16.936Z" fill="#F1A670"/>
<path id="Vector_21" d="M30.5308 16.6431C30.6576 16.6009 30.81 16.531 30.936 16.6104C31.0737 16.7458 31.1231 16.9492 31.118 17.1376C31.1132 17.444 31.0674 17.7488 31.0074 18.0489C30.9584 18.3064 30.8522 18.5532 30.6962 18.7637C30.5158 18.9856 30.2184 19.0764 29.9396 19.0508C29.9444 18.8071 29.9787 18.5655 29.9783 18.3218C29.9767 18.1117 30.0178 17.891 29.9238 17.6936L29.9309 17.6742C29.9748 17.6817 30.0194 17.6892 30.064 17.6963C30.1462 17.8278 30.2457 17.9649 30.2493 18.126C30.2271 18.3432 30.0988 18.528 30.0088 18.7211C30.1605 18.7116 30.3216 18.6911 30.4448 18.5931C30.6154 18.462 30.6834 18.246 30.7314 18.0454C30.8053 17.6805 30.8164 17.3038 30.7717 16.9346C30.7058 16.9066 30.6295 16.8876 30.5667 16.9334C30.4001 17.0361 30.2844 17.2028 30.1809 17.3654C30.1553 17.2995 30.1288 17.2339 30.1036 17.1684C30.1395 17.0543 30.1537 16.9286 30.2225 16.8284C30.29 16.783 30.3753 16.7999 30.4523 16.7984C30.4783 16.7467 30.5059 16.6957 30.5309 16.6432L30.5308 16.6431Z" fill="#F0A76D"/>
<path id="Vector_22" d="M24.2091 17.1491C24.2632 16.9967 24.4065 16.8771 24.5664 16.8478C24.7508 16.8115 24.9408 16.8256 25.1252 16.8553C25.1967 16.9596 25.4131 17.0231 25.3574 17.1815C25.3064 17.0144 25.1295 16.937 24.9822 16.8738C25.0731 16.9596 25.0769 17.1222 24.9759 17.2008C24.8993 17.2695 24.7875 17.2573 24.6947 17.2403C24.5613 17.1976 24.5226 17.0499 24.489 16.9307C24.3749 16.9745 24.2939 17.0661 24.209 17.149L24.2091 17.1491ZM24.604 16.9489C24.5811 17.0153 24.5783 17.0891 24.649 17.1298L24.6664 17.1013C24.6972 17.1235 24.728 17.1455 24.7591 17.1677C24.8113 17.1562 24.8638 17.1448 24.9163 17.1329C24.8843 17.0855 24.8527 17.0377 24.8215 16.99C24.7808 17.0054 24.7386 17.018 24.7019 17.0417C24.7173 17.0006 24.7295 16.9579 24.7426 16.9162C24.698 16.9339 24.651 16.9438 24.604 16.9489Z" fill="#3B332C"/>
<path id="Vector_23" d="M27.6892 16.9124C27.8744 16.8393 28.0778 16.7789 28.278 16.8243C28.4075 16.8499 28.5563 16.9009 28.6156 17.0301C28.5414 16.9685 28.4549 16.9238 28.3672 16.8855C28.3775 16.9432 28.3881 17.0008 28.4 17.0589C28.3427 17.2314 28.1271 17.3013 27.9759 17.2046C27.8756 17.1478 27.8772 17.0229 27.8753 16.9226C27.7363 16.9554 27.6257 17.0458 27.5254 17.1425C27.5554 17.0533 27.5913 16.947 27.6893 16.9124H27.6892ZM27.9778 16.9558C27.9952 16.9948 27.9687 17.0793 28.0418 17.0667C28.1164 17.0778 28.1535 16.9656 28.107 16.9142C28.0588 16.872 28.0134 16.9277 27.9778 16.9557V16.9558Z" fill="#282218"/>
<path id="Vector_24" d="M22.1501 16.9357C22.2528 16.8923 22.38 16.9073 22.457 16.993C22.6248 17.1727 22.7859 17.3745 22.8593 17.6126C22.834 17.7725 22.7171 17.9005 22.6843 18.0576C22.6887 18.2519 22.7787 18.4335 22.8715 18.5999C22.9082 18.6769 23.0085 18.6386 23.0753 18.6567C22.9098 18.695 22.7167 18.7222 22.5663 18.6231C22.3656 18.4979 22.2456 18.2744 22.2034 18.0462C22.1477 17.8136 22.1509 17.5739 22.1323 17.337C22.124 17.2032 22.1157 17.0665 22.15 16.9358L22.1501 16.9357Z" fill="#BF694E"/>
<g id="Group_2">
<path id="Vector_25" d="M24.6024 16.9488C24.6494 16.9437 24.6964 16.9338 24.741 16.916C24.728 16.9579 24.7157 17.0005 24.7003 17.0416C24.6912 17.0566 24.6735 17.0861 24.6647 17.1012L24.6474 17.1296C24.5767 17.0889 24.5795 17.0151 24.6023 16.9488H24.6024Z" fill="#FCFCFC"/>
<path id="Vector_26" d="M22.4773 25.7267C22.4907 25.7515 22.5049 25.7768 22.5192 25.8017C22.1527 26.4979 21.7926 27.1968 21.4083 27.8835C21.3574 27.8863 21.3068 27.889 21.2559 27.8918C21.5034 27.0917 21.9541 26.3738 22.4773 25.7266V25.7267Z" fill="#FCFCFC"/>
</g>
<path id="Vector_27" d="M24.9822 16.873C25.1295 16.9363 25.3064 17.0136 25.3574 17.1807L25.3625 17.1929C25.1721 17.2802 24.9597 17.2992 24.7535 17.2742C24.5794 17.3955 24.2793 17.3832 24.1719 17.181C24.181 17.1731 24.1995 17.1565 24.209 17.1483C24.2939 17.0653 24.3749 16.9737 24.489 16.9299C24.5225 17.0491 24.5612 17.1968 24.6947 17.2395C24.7875 17.2565 24.8993 17.2687 24.9759 17.2C25.077 17.1214 25.0731 16.9588 24.9822 16.873Z" fill="#FFFEFE"/>
<g id="Group_3">
<path id="Vector_28" d="M27.9785 16.9552C28.0141 16.9272 28.0595 16.8714 28.1077 16.9138C28.1542 16.9651 28.1171 17.0772 28.0425 17.0662C27.9694 17.0788 27.9959 16.9944 27.9785 16.9553V16.9552Z" fill="#F8F7F6"/>
<path id="Vector_29" d="M30.8534 33.1016C31.6673 33.1142 32.4812 33.0956 33.295 33.1067C33.2386 33.1205 33.1817 33.132 33.1252 33.1446C33.1146 34.1657 33.1197 35.1873 33.1189 36.2089C32.3347 36.2192 31.5496 36.2097 30.7649 36.2086C30.7755 36.0708 30.8724 35.9049 30.7547 35.7896C31.127 35.6644 31.4105 35.3012 31.4264 34.9066C31.4501 34.4813 31.1749 34.043 30.752 33.9348C30.776 33.656 30.8246 33.38 30.8534 33.1017V33.1016Z" fill="#F8F7F6"/>
</g>
<path id="Vector_30" d="M28.3673 16.8867C28.4549 16.925 28.5415 16.9697 28.6157 17.0313C28.6279 17.0423 28.652 17.0648 28.6642 17.0758C28.6903 17.2863 28.4253 17.3104 28.2741 17.3139C28.0569 17.2689 27.8271 17.3234 27.6178 17.2373C27.5673 17.2287 27.5471 17.1832 27.5254 17.1437C27.6257 17.047 27.7363 16.9566 27.8753 16.9238C27.8772 17.0241 27.8756 17.1489 27.9759 17.2058C28.1271 17.3025 28.3428 17.2326 28.4 17.0601C28.3881 17.002 28.3775 16.9444 28.3672 16.8867H28.3673Z" fill="#FBFCFB"/>
<path id="Vector_31" d="M30.5657 16.9319C30.6285 16.8861 30.7047 16.9051 30.7707 16.9331C30.8152 17.3023 30.8043 17.679 30.7304 18.0439C30.6822 18.2445 30.6143 18.4605 30.4438 18.5916C30.3206 18.6895 30.1595 18.71 30.0078 18.7196C30.0979 18.5265 30.2262 18.3417 30.2483 18.1245C30.2447 17.9634 30.1452 17.8263 30.063 17.6949C30.0579 17.5732 30.125 17.4674 30.1799 17.3639C30.2834 17.2012 30.3991 17.0346 30.5657 16.9319Z" fill="#C5674C"/>
<path id="Vector_32" d="M24.7015 17.0419C24.7382 17.0182 24.7805 17.0056 24.8212 16.9902C24.8523 17.0381 24.8839 17.0858 24.9159 17.1332C24.8634 17.145 24.8109 17.1565 24.7588 17.1679C24.7276 17.1458 24.6968 17.1237 24.666 17.1015C24.6747 17.0865 24.6925 17.057 24.7016 17.0419H24.7015Z" fill="#1D1D1D"/>
<path id="Vector_33" d="M26.1812 17.0629L26.2373 17.0625C26.1991 17.245 26.2145 17.4286 26.2519 17.609C26.2665 17.9798 26.2606 18.3558 26.3368 18.721C26.4047 18.9166 26.4663 19.1143 26.4928 19.3205C26.2622 19.3678 26.0403 19.2553 25.831 19.1728C25.7082 19.1084 25.5795 19.0551 25.4503 19.0049C25.4701 19.0842 25.491 19.1645 25.5309 19.2371C25.4452 19.3061 25.3501 19.3614 25.249 19.4045C24.9745 19.5273 24.7076 19.6722 24.4809 19.8716C24.2471 19.5245 24.0529 19.1505 23.7934 18.82C23.7116 18.7138 23.6244 18.6099 23.5684 18.4867L23.6098 18.4646C23.84 18.5455 24.0868 18.5507 24.3281 18.5566C24.6301 18.5582 24.9334 18.5582 25.2336 18.5207C25.4894 18.4891 25.7319 18.3445 25.8717 18.1258C26.0873 17.813 26.1359 17.43 26.1813 17.0628L26.1812 17.0629Z" fill="#F7B37C"/>
<path id="Vector_34" d="M26.237 17.0618C26.3993 17.059 26.5616 17.0495 26.7239 17.0538C26.7756 17.3769 26.8077 17.7141 26.9715 18.0047C27.1089 18.2736 27.375 18.4806 27.68 18.5118C27.9828 18.5386 28.2873 18.5461 28.5913 18.5429C28.8306 18.5366 29.077 18.5354 29.3041 18.4485C29.2611 18.6519 29.0857 18.7834 28.9839 18.9555C28.7643 19.2435 28.6083 19.5728 28.4018 19.8689C28.0753 19.5988 27.6776 19.4463 27.3152 19.2355C27.3451 19.1648 27.3696 19.0918 27.3941 19.0191C27.2358 19.0768 27.0767 19.1337 26.9234 19.2047C26.7852 19.262 26.6391 19.2943 26.4926 19.3196C26.4661 19.1135 26.4045 18.9157 26.3366 18.7202C26.2604 18.355 26.2663 17.979 26.2517 17.6082C26.2141 17.4278 26.1987 17.2441 26.2371 17.0617L26.237 17.0618Z" fill="#F3A66C"/>
<path id="Vector_35" d="M29.9298 17.6738C29.9937 17.5076 30.0577 17.3405 30.1023 17.168C30.1276 17.2335 30.154 17.2991 30.1797 17.365C30.1247 17.4685 30.0577 17.5743 30.0628 17.696C30.0182 17.6888 29.9735 17.6814 29.9297 17.6738H29.9298Z" fill="#E2AB82"/>
<path id="Vector_36" d="M29.6334 18.2202C29.7692 18.0697 29.8379 17.8751 29.9213 17.6934C30.0153 17.8908 29.9743 18.1116 29.9758 18.3216C29.9762 18.5653 29.9419 18.8069 29.9371 19.0506C29.926 19.3629 29.8684 19.6713 29.8514 19.9833C29.8348 20.2482 29.7969 20.5116 29.772 20.7762C29.7681 20.8876 29.6757 20.9615 29.603 21.0333C29.4048 21.2095 29.1867 21.3615 28.9766 21.523C28.7164 21.6975 28.4748 21.8985 28.2066 22.0612C28.0826 21.9665 27.9463 21.8895 27.8077 21.8183C27.8827 21.4566 27.9763 21.0989 28.043 20.7352C28.0711 20.5646 28.1679 20.3656 28.0447 20.2108C27.912 20.1018 27.7224 20.1227 27.5617 20.1065C27.2039 20.1068 26.8494 20.0555 26.4919 20.0508C26.4157 20.037 26.3403 20.0192 26.2656 20.0015C26.3221 19.9889 26.3789 19.9774 26.4366 19.9659C26.4492 19.8849 26.4512 19.8028 26.4485 19.721C26.3995 19.7096 26.3506 19.6982 26.302 19.6871C26.3964 19.6752 26.4891 19.6543 26.5796 19.6239C26.8533 19.5587 27.1112 19.432 27.3145 19.2353C27.677 19.4462 28.0747 19.5986 28.4012 19.8686C28.6077 19.5725 28.7637 19.2431 28.9832 18.9553C29.0851 18.7831 29.2604 18.6516 29.3035 18.4483C29.4239 18.3902 29.5432 18.3215 29.6332 18.2201L29.6334 18.2202Z" fill="#E18C65"/>
<path id="Vector_37" d="M23.0296 17.7988C23.0873 17.9449 23.1615 18.0843 23.252 18.2131C23.2263 18.3 23.2129 18.3908 23.2231 18.4816C23.2531 18.8627 23.2796 19.2446 23.3321 19.6236C23.3906 20.026 23.4134 20.4394 23.5552 20.8245C23.704 21.1515 24.0832 21.2944 24.236 21.6206C24.144 21.5413 24.0429 21.4733 23.9422 21.4054C23.759 21.2687 23.5702 21.1356 23.4096 20.9726C23.284 20.847 23.2883 20.6583 23.265 20.4952C23.2172 19.9948 23.1758 19.4938 23.1268 18.9934C23.0597 18.9989 22.9922 19.0045 22.9258 19.0116C22.9941 18.9804 23.0628 18.9492 23.1334 18.9224C23.126 18.7273 23.0628 18.5401 23.0446 18.3466C23.024 18.1646 23.0331 17.9814 23.0295 17.7989L23.0296 17.7988Z" fill="#F3B984"/>
<path id="Vector_38" d="M23.2242 18.4814C23.2139 18.3906 23.2273 18.2998 23.253 18.2129C23.3529 18.3203 23.4785 18.3997 23.61 18.4629L23.5685 18.485C23.6246 18.6082 23.7119 18.7121 23.7936 18.8183C24.053 19.1488 24.2473 19.5228 24.4811 19.8699C24.7077 19.6705 24.9747 19.5255 25.2492 19.4028C25.3503 19.3597 25.4454 19.3045 25.5311 19.2354C25.6859 19.3669 25.8505 19.496 26.0469 19.5592C26.219 19.6129 26.401 19.6251 26.5807 19.6232C26.4903 19.6536 26.3974 19.6745 26.3031 19.6864C26.3516 19.6975 26.4006 19.7089 26.4496 19.7203C26.4524 19.8021 26.4504 19.8842 26.4377 19.9652C26.3801 19.9766 26.3231 19.9881 26.2667 20.0008C26.3413 20.0185 26.4167 20.0363 26.493 20.0501C25.9674 20.0572 25.4426 20.0789 24.9177 20.1011C24.8131 20.0943 24.7629 20.2081 24.7574 20.2961C24.7437 20.5295 24.8187 20.7558 24.8609 20.9828C24.9139 21.2497 24.9703 21.5155 25.0394 21.7785C24.8952 21.8255 24.7594 21.8931 24.6303 21.9713C24.4894 21.8658 24.3546 21.7517 24.237 21.6206C24.0842 21.2944 23.7051 21.1515 23.5562 20.8245C23.4145 20.4395 23.3915 20.0261 23.3331 19.6236C23.2806 19.2445 23.2542 18.8626 23.2242 18.4816V18.4814Z" fill="#E5936A"/>
<path id="Vector_39" d="M25.4512 19.0039C25.5803 19.0541 25.709 19.1074 25.8318 19.1718C26.0036 19.3021 26.1967 19.4309 26.4194 19.4387C26.592 19.4158 26.7594 19.3483 26.9059 19.2554C26.9107 19.2424 26.9197 19.2172 26.9245 19.2045C27.0777 19.1334 27.2368 19.0765 27.3952 19.0189C27.3707 19.0915 27.3462 19.1646 27.3162 19.2353C27.1129 19.4319 26.855 19.5586 26.5814 19.6238C26.4017 19.6258 26.2196 19.6136 26.0475 19.5599C25.8513 19.4967 25.6866 19.3676 25.5318 19.2361C25.4919 19.1634 25.471 19.0832 25.4512 19.0039Z" fill="#C46C51"/>
<path id="Vector_40" d="M25.8301 19.1719C26.0394 19.2544 26.2613 19.3669 26.4919 19.3196C26.6384 19.2943 26.7845 19.2619 26.9227 19.2047C26.9179 19.2173 26.9089 19.2426 26.9042 19.2556C26.7576 19.3484 26.5902 19.4159 26.4177 19.4389C26.195 19.431 26.0019 19.3023 25.8301 19.172V19.1719Z" fill="#67382D"/>
<path id="Vector_41" d="M24.9184 20.1018C25.4432 20.0796 25.968 20.0579 26.4937 20.0508C26.4458 20.0973 26.3969 20.1435 26.3385 20.1768C25.9377 20.1867 25.5369 20.2079 25.1364 20.2301C25.3094 20.3059 25.4994 20.3213 25.6822 20.36C25.9385 20.413 26.1999 20.4374 26.4612 20.4516C26.3637 20.493 26.3333 20.595 26.3001 20.6862C26.1714 20.6831 26.0423 20.6866 25.914 20.6941C25.9835 20.9006 26.0573 21.1068 26.0988 21.3212C26.1466 21.5277 26.171 21.7414 26.2465 21.9404C26.3057 22.002 26.4036 21.9914 26.4806 22.0154C26.539 22.1556 26.4415 22.3041 26.3147 22.3641C26.0127 22.5161 25.6612 22.5232 25.333 22.4727C25.3492 22.5186 25.365 22.5643 25.3816 22.6105C25.1276 22.402 24.8836 22.182 24.6309 21.972C24.76 21.8939 24.8958 21.8263 25.04 21.7793C24.9709 21.5163 24.9144 21.2506 24.8615 20.9836C24.8193 20.7565 24.7442 20.5302 24.758 20.2969C24.7635 20.2088 24.8137 20.0951 24.9183 20.1018L24.9184 20.1018Z" fill="#F6B180"/>
<path id="Vector_42" d="M26.4926 20.0508C26.8499 20.0556 27.2046 20.1069 27.5623 20.1064C27.7231 20.1226 27.9126 20.1017 28.0453 20.2107C28.1685 20.3655 28.0718 20.5645 28.0437 20.7351C27.977 21.0988 27.8834 21.4565 27.8084 21.8183C27.947 21.8893 28.0832 21.9663 28.2072 22.0612C27.9127 22.2744 27.6284 22.5034 27.3203 22.6978C27.2034 22.7716 27.0656 22.8016 26.929 22.8107C26.5475 22.8347 26.1645 22.8202 25.7846 22.7827C25.6357 22.7689 25.4951 22.7053 25.3806 22.6105C25.364 22.5643 25.3482 22.5185 25.332 22.4727C25.6602 22.5232 26.0116 22.5161 26.3137 22.3641C26.4405 22.3041 26.5381 22.1556 26.4796 22.0154C26.6897 21.9111 26.7059 21.6576 26.7568 21.4566C26.8046 21.1992 26.8962 20.9531 26.9582 20.6993C26.7386 20.6804 26.5187 20.6913 26.2991 20.6862C26.3323 20.595 26.3627 20.4931 26.4602 20.4516C26.85 20.4224 27.2437 20.3869 27.6193 20.2728C27.1955 20.2068 26.7663 20.1716 26.3374 20.1768C26.3959 20.1436 26.4448 20.0974 26.4926 20.0508Z" fill="#EFA170"/>
<path id="Vector_43" d="M25.1367 20.2296C25.5371 20.2074 25.9379 20.1862 26.3388 20.1763C26.7676 20.1711 27.1968 20.2063 27.6206 20.2723C27.2451 20.3864 26.8514 20.4219 26.4616 20.4511C26.2002 20.4369 25.9388 20.4124 25.6825 20.3595C25.4997 20.3208 25.3098 20.3054 25.1368 20.2296H25.1367Z" fill="#DB815B"/>
<path id="Vector_44" d="M25.9121 20.6946C26.0404 20.6871 26.1696 20.6835 26.2983 20.6867C26.5178 20.6918 26.7377 20.6807 26.9573 20.6997C26.8953 20.9537 26.8037 21.1996 26.7559 21.4571C26.705 21.6581 26.6888 21.9116 26.4787 22.0159C26.4017 21.9919 26.3038 22.0025 26.2446 21.9409C26.1691 21.7419 26.1447 21.5283 26.0969 21.3217C26.0555 21.1072 25.9816 20.9011 25.9121 20.6946Z" fill="#E38D67"/>
<path id="Vector_45" d="M23.9434 21.4063C24.044 21.4742 24.1452 21.5421 24.2371 21.6216C24.3548 21.7527 24.4895 21.8668 24.6304 21.9722C24.8831 22.1823 25.1271 22.4023 25.3811 22.6107C25.4956 22.7055 25.6362 22.7691 25.7851 22.7829C26.1649 22.8205 26.548 22.8351 26.9295 22.8109C27.0661 22.8018 27.204 22.7718 27.3208 22.698C27.6288 22.5038 27.9131 22.2747 28.2077 22.0614C28.4758 21.8987 28.7175 21.6977 28.9778 21.5231C28.9889 21.7932 28.9833 22.0634 28.9758 22.3338C28.6185 22.5719 28.2698 22.8227 27.9057 23.0509C27.5002 23.3234 27.0492 23.5978 26.5417 23.575C26.0509 23.5667 25.6216 23.2973 25.2287 23.0312C24.7995 22.7469 24.3726 22.4578 23.9726 22.1333C23.964 21.969 23.9604 21.8043 23.9778 21.6408C23.9789 21.5615 24.0054 21.4698 23.9434 21.4062L23.9434 21.4063Z" fill="#DD7F5C"/>
<path id="Vector_46" d="M23.9728 22.1328C24.3728 22.4574 24.7997 22.7464 25.2289 23.0308C25.6218 23.2969 26.051 23.5662 26.5419 23.5745C27.0494 23.5974 27.5003 23.323 27.9059 23.0505C28.27 22.8223 28.6187 22.5715 28.976 22.3334C28.9752 22.5269 28.9752 22.7203 28.9831 22.9134C28.4698 23.2664 27.9395 23.5949 27.4272 23.9512C27.1413 24.1388 26.8709 24.3536 26.5679 24.5132C26.5454 24.5625 26.5233 24.6119 26.502 24.6617C26.4704 24.6613 26.4073 24.6608 26.3756 24.6605C26.3713 24.6332 26.3622 24.5787 26.3579 24.5515C25.7786 24.0812 25.1259 23.7116 24.5438 23.244C24.3539 23.0872 24.119 22.9822 23.957 22.7946C23.9677 22.5739 23.957 22.3532 23.9728 22.1328Z" fill="#F4A86C"/>
<path id="Vector_47" d="M23.9 22.8297C23.9138 22.821 23.9419 22.8037 23.9561 22.7949C24.1181 22.9825 24.353 23.0875 24.5429 23.2443C25.125 23.7119 25.7778 24.0815 26.357 24.5518C26.3613 24.5791 26.3704 24.6336 26.3748 24.6608C26.3779 24.6742 26.3842 24.7015 26.3874 24.7149C26.3005 24.7224 26.1872 24.6991 26.1271 24.7788C26.0344 24.9111 25.9407 25.0434 25.8412 25.1714C25.2319 24.816 24.6127 24.4783 23.9864 24.1541C23.8892 24.1016 23.7866 24.0609 23.6827 24.0258C23.6705 23.9263 23.665 23.826 23.6662 23.7265C23.7301 23.424 23.8238 23.129 23.9 22.8297H23.9Z" fill="#EB148C"/>
<path id="Vector_48" d="M28.9826 22.9142C29.0074 22.9173 29.0572 22.9228 29.0821 22.926C29.165 23.2605 29.2748 23.5875 29.381 23.9152C29.2862 24.1901 29.1657 24.4566 29.1081 24.7437C29.0469 24.7805 28.99 24.8262 28.9608 24.8934C28.7621 25.2737 28.571 25.6583 28.3708 26.0382C28.2678 26.2297 28.1852 26.4334 28.0592 26.6119C27.8226 26.2976 27.6288 25.9529 27.3843 25.6436C27.2592 25.4549 27.1415 25.261 27.0096 25.0766C26.9306 24.9703 26.8841 24.838 26.7853 24.748C26.6617 24.6936 26.5187 24.7295 26.3876 24.7153C26.3845 24.7018 26.3782 24.6746 26.375 24.6611C26.4066 24.6615 26.4697 24.6619 26.5013 24.6623C26.5227 24.6125 26.5448 24.5632 26.5673 24.5138C26.8701 24.3542 27.1407 24.1394 27.4266 23.9519C27.9387 23.5957 28.4691 23.2672 28.9825 22.9141L28.9826 22.9142Z" fill="#EB148C"/>
<g id="Group_4">
<path id="Vector_49" d="M23.665 23.7266C23.6638 23.8261 23.6693 23.9264 23.6816 24.0259C23.7132 24.215 23.7677 24.3991 23.8079 24.5867C24.1543 26.3147 24.4457 28.0538 24.8196 29.7763C24.94 30.3035 25.0573 30.8322 25.2129 31.3507C25.3448 31.744 25.4837 32.1346 25.6247 32.5247C25.8885 33.3552 26.1653 34.1824 26.4539 35.0045C26.4065 35.0002 26.3521 35.0097 26.3185 34.9683C26.2052 34.8664 26.1032 34.7503 25.9694 34.6737C25.4584 34.1983 24.9352 33.7347 24.4179 33.2655C23.8782 32.7924 23.3316 32.3268 22.7835 31.8636C22.7567 31.9039 22.7302 31.9446 22.7042 31.9856C22.6351 31.4541 22.271 30.966 21.7624 30.7816C21.922 29.9511 22.2252 29.1555 22.5932 28.3965C22.6347 28.3104 22.673 28.2228 22.701 28.1311C22.4649 28.0521 22.2217 27.9984 21.9819 27.9329C21.7955 27.8804 21.6005 27.8685 21.4082 27.8855C21.7925 27.1988 22.1526 26.4998 22.519 25.8037C22.5048 25.7788 22.4906 25.7535 22.4772 25.7287C22.7441 25.4566 22.9139 25.1119 23.0984 24.7829C23.2871 24.4307 23.5012 24.0911 23.665 23.7266Z" fill="#F3F2F2"/>
<path id="Vector_50" d="M18.9682 40.6367C19.1261 40.6505 19.2695 40.7303 19.3805 40.8417C19.9262 41.3503 20.3531 41.9671 20.8167 42.548C21.0263 42.8793 21.3111 43.1549 21.5338 43.476C21.5129 43.5167 21.4923 43.5573 21.4722 43.5988C21.3293 43.5696 21.1899 43.6316 21.0631 43.6897C20.9011 43.7734 20.7349 43.8647 20.62 44.0099C20.3475 43.8642 20.1375 43.6328 19.906 43.4337C19.722 43.2833 19.5558 43.1127 19.3631 42.9729C19.2735 43.5443 19.3137 44.1248 19.3086 44.7006C19.3362 45.4437 19.4207 46.183 19.4946 46.9229C19.2035 46.6264 18.9061 46.3361 18.5998 46.0553C18.5465 45.9593 18.4769 45.85 18.5437 45.7422C18.5981 45.7588 18.6523 45.7773 18.7068 45.7947C18.7202 45.6474 18.6779 45.5045 18.6554 45.3608C18.565 44.492 18.7218 43.583 19.1889 42.8362C19.0866 42.7056 18.9639 42.5934 18.8379 42.4867C18.2866 42.0034 17.7658 41.4877 17.2109 41.0083C17.688 40.9167 18.159 40.7962 18.638 40.7129C18.7498 40.6955 18.8592 40.6663 18.9682 40.6367Z" fill="#F3F2F2"/>
<path id="Vector_51" d="M34.0789 40.7511C34.4553 40.5786 34.8727 40.7274 35.1944 40.9454C35.1241 41.048 35.0491 41.1475 34.9686 41.2423C34.3502 41.9784 33.7516 42.7346 33.0648 43.4102C32.8571 43.6203 32.6774 43.933 32.3517 43.9548C32.0926 43.7933 31.8308 43.5847 31.5062 43.6124C31.4513 43.5642 31.3882 43.5306 31.3242 43.4994C32.0185 42.7938 32.7217 42.0956 33.395 41.369C33.5068 41.2569 33.6095 41.1364 33.7169 41.0203C33.8192 40.9077 33.9558 40.8367 34.079 40.7509L34.0789 40.7511Z" fill="#F3F2F2"/>
</g>
<g id="Group_5">
<path id="Vector_52" d="M29.1064 24.7426C29.164 24.4555 29.2845 24.1889 29.3793 23.9141C29.5309 24.1719 29.6794 24.4318 29.8243 24.6936C30.1773 25.3605 30.4679 26.0594 30.7223 26.7695C30.8542 27.155 30.9655 27.5491 31.0267 27.9522C31.0208 27.9731 31.0094 28.0146 31.0034 28.0355C30.5746 28.0731 30.1454 28.1276 29.728 28.2337C29.752 28.276 29.7758 28.3187 29.799 28.3621C30.186 29.1664 30.5394 29.9945 30.7341 30.8689C29.8594 31.6729 29.0279 32.5211 28.1856 33.3578C27.7587 33.7957 27.3184 34.2206 26.9065 34.6732C26.7592 34.7849 26.6474 34.9385 26.4863 35.0336C26.5234 34.8654 26.5973 34.7091 26.6514 34.5467C26.9397 33.7198 27.1988 32.8835 27.4688 32.051C27.4937 31.9574 27.4897 31.8599 27.4949 31.7647C27.5233 31.681 27.5541 31.5981 27.5671 31.5104C27.7159 30.6484 27.9035 29.7934 28.1112 28.944C28.435 27.5414 28.7801 26.1443 29.1063 24.7424L29.1064 24.7426Z" fill="#F3F2F1"/>
<path id="Vector_53" d="M23.8223 42.2091C23.9837 42.6829 24.0841 43.1754 24.2254 43.6559C24.3115 44.0389 24.4367 44.4121 24.5089 44.7979C24.345 44.6916 24.1748 44.5957 24.0137 44.4851C24.0256 44.4749 24.0493 44.454 24.0611 44.4433C24.0315 44.2928 24.0026 44.1416 23.9991 43.9879C23.9395 43.3948 23.8633 42.8033 23.8223 42.209V42.2091Z" fill="#F3F2F1"/>
</g>
<path id="Vector_54" d="M23.6836 24.0255C23.7874 24.0606 23.8901 24.1013 23.9873 24.1538C24.6136 24.478 25.2327 24.8156 25.842 25.1711C25.7114 25.3575 25.5755 25.5407 25.4511 25.7314C25.3508 25.8645 25.2395 25.9889 25.1431 26.1247C25.0231 26.2803 24.9244 26.4548 24.7731 26.5835C24.5401 26.1061 24.3363 25.6149 24.101 25.1387C24.0035 24.9547 23.9537 24.743 23.8099 24.5862C23.7697 24.3986 23.7152 24.2146 23.6836 24.0254V24.0255Z" fill="#EB148C"/>
<path id="Vector_55" d="M23.8086 24.5859C23.9523 24.7427 24.0021 24.9544 24.0997 25.1384C24.335 25.6146 24.5388 26.1059 24.7717 26.5833C24.9229 26.4546 25.0217 26.28 25.1418 26.1244C25.2381 25.9886 25.3494 25.8642 25.4498 25.7312C25.6223 25.974 25.7897 26.2196 25.9687 26.4577C25.8695 28.4807 25.7696 30.5041 25.6255 32.5239C25.4845 32.1338 25.3455 31.7433 25.2136 31.35C25.058 30.8315 24.9408 30.3027 24.8204 29.7756C24.4464 28.0531 24.1549 26.314 23.8087 24.5859H23.8086Z" fill="#EB148C"/>
<path id="Vector_56" d="M29.8242 24.6955C29.9719 24.7113 30.1259 24.7453 30.2416 24.844C30.4126 24.9806 30.4809 25.1947 30.582 25.3803C30.926 26.1171 31.2245 26.8817 31.388 27.6805C31.5543 28.5678 31.4441 29.4748 31.3552 30.3641C31.2857 30.8249 31.2837 31.2968 31.1554 31.7474C31.0863 32.0103 31.0263 32.2757 30.9718 32.5423C31.7457 32.5368 32.5201 32.5451 33.2945 32.5415C33.2968 32.7156 33.2945 32.8898 33.2937 33.0639C32.4818 33.0741 31.6695 33.0453 30.8584 33.0599L30.8517 33.1053C30.8228 33.3837 30.7743 33.6597 30.7502 33.9385C30.6009 33.912 30.4374 33.9665 30.2984 33.8966L30.3565 33.8757C30.3696 33.6668 30.4024 33.4599 30.4339 33.2534C30.4398 33.2036 30.4453 33.1538 30.4501 33.1045C30.4415 33.0919 30.4233 33.0669 30.4142 33.0543C30.3617 33.0279 30.3072 33.007 30.2531 32.9848C30.3138 32.9773 30.3754 32.9702 30.437 32.9623C30.4473 32.8166 30.4208 32.6464 30.546 32.5414C30.668 32.0438 30.8173 31.5494 30.8659 31.0376C30.8687 31.0199 30.8734 30.9843 30.8758 30.9666C30.9958 30.0354 31.1179 29.0944 31.0432 28.1542C31.0404 28.0871 31.0349 28.0203 31.0266 27.954C30.9654 27.5508 30.8541 27.1567 30.7222 26.7713C30.4678 26.0613 30.1772 25.3624 29.8242 24.6953V24.6955Z" fill="#16020B"/>
<path id="Vector_57" d="M26.1279 24.7788C26.188 24.699 26.3013 24.7223 26.3882 24.7148C26.5193 24.7291 26.6622 24.6931 26.7859 24.7476C26.8846 24.8377 26.9312 24.97 27.0102 25.0761C27.1421 25.2606 27.2598 25.4545 27.3849 25.6432C27.2803 25.9173 27.1496 26.1815 27.0587 26.461C27.039 26.5767 27.0647 26.6944 27.0725 26.8105C27.1448 27.7334 27.236 28.655 27.3023 29.5791C27.3631 30.3081 27.4129 31.0386 27.497 31.7655C27.4919 31.8607 27.4959 31.9583 27.471 32.0518C27.2009 32.8842 26.9419 33.7206 26.6536 34.5475C26.5995 34.7098 26.5256 34.8662 26.4885 35.0345C26.4806 35.027 26.464 35.0119 26.4561 35.0045C26.1675 34.1824 25.8906 33.355 25.6269 32.5246C25.771 30.5048 25.8709 28.4814 25.9701 26.4584C25.7912 26.2203 25.6237 25.9746 25.4512 25.7318C25.5755 25.5411 25.7114 25.3578 25.8421 25.1715C25.9416 25.0435 26.0352 24.9113 26.128 24.779L26.1279 24.7788Z" fill="#16020B"/>
<path id="Vector_58" d="M28.9605 24.8938C28.9897 24.8267 29.0466 24.7809 29.1079 24.7441C28.7817 26.146 28.4366 27.5431 28.1128 28.9458C27.9051 29.7952 27.7175 30.6501 27.5687 31.5122C27.5556 31.5998 27.5248 31.6827 27.4964 31.7665C27.4123 31.0395 27.3626 30.3089 27.3017 29.58C27.2354 28.656 27.1441 27.7343 27.0719 26.8115C27.064 26.6954 27.0383 26.5777 27.0581 26.4619C27.149 26.1823 27.2797 25.9182 27.3843 25.6442C27.6287 25.9533 27.8226 26.298 28.0592 26.6124C28.1852 26.4339 28.2677 26.2301 28.3708 26.0387C28.571 25.6588 28.7621 25.2742 28.9607 24.8939L28.9605 24.8938Z" fill="#EB148C"/>
<path id="Vector_59" d="M22.5582 25.0424C22.6936 24.8841 22.8867 24.7759 23.1 24.7815C22.9155 25.1104 22.7458 25.4552 22.4788 25.7272C21.9555 26.3744 21.505 27.0924 21.2573 27.8924C21.2218 28.0081 21.1929 28.1258 21.1677 28.2443C20.992 29.0546 21.0824 29.8941 21.2463 30.6984C21.4213 30.702 21.5986 30.7193 21.7641 30.7802C22.2727 30.9647 22.6368 31.4528 22.7059 31.9843C22.7264 32.3002 22.6984 32.6164 22.7118 32.9328C22.7012 32.9371 22.679 32.9454 22.6684 32.9498C22.5512 32.9735 22.4315 32.9669 22.3131 32.9644C22.2506 32.7709 22.3036 32.5648 22.2973 32.3665C22.3079 32.0885 22.2878 31.7857 22.1066 31.5602C21.8685 31.2186 21.4096 31.0507 21.008 31.163C20.6052 31.268 20.2723 31.6143 20.2044 32.0281C20.1357 32.3069 20.2708 32.5735 20.3478 32.8345C20.3837 32.985 20.4733 33.1299 20.4662 33.2862C20.3635 33.3829 20.2135 33.3995 20.0792 33.4145C20.0034 33.1029 19.8668 32.8095 19.7902 32.4984C19.7044 32.079 19.8166 31.6273 20.0717 31.2857C20.2647 31.0317 20.5439 30.8541 20.8425 30.7494C20.6288 29.8258 20.5585 28.8448 20.8136 27.922C21.0261 27.1062 21.4514 26.3618 21.971 25.7035C22.161 25.478 22.3502 25.2518 22.5582 25.0425V25.0424Z" fill="#16020B"/>
<g id="Group_6">
<path id="Vector_60" d="M30.5841 25.3789C31.1286 25.6617 31.7008 25.8879 32.2552 26.1505C33.1374 26.5474 34.0188 26.9469 34.9097 27.3241C35.4001 27.5405 35.7338 28.0025 35.9167 28.4934C36.6007 30.5041 37.345 32.494 38.055 34.4957C38.378 35.4737 38.6737 36.4606 38.9656 37.4482C39.0714 37.8439 39.2053 38.2337 39.2661 38.64C39.3238 39.0069 39.2823 39.3788 39.3052 39.748C39.1899 39.9151 39.1666 40.1216 39.086 40.304C38.8491 40.8778 38.436 41.3564 37.9949 41.7837C36.873 42.7776 35.7879 43.8205 34.8385 44.9834C34.6463 45.2152 34.4827 45.4691 34.2893 45.7002C34.2553 44.7461 34.08 43.7877 33.6919 42.9122C33.6551 43.3485 33.667 43.7885 33.6441 44.226C33.6219 44.9261 33.5619 45.624 33.5035 46.3213C33.4897 46.4638 33.4727 46.6112 33.526 46.7489C33.3586 46.8745 33.1904 46.9993 33.0174 47.1178C32.9818 46.9294 32.9514 46.7407 32.9143 46.5532C32.8749 46.3992 32.991 46.2452 32.906 46.0959C32.7331 45.4695 32.602 44.8322 32.4267 44.2063C32.4018 44.1226 32.3762 44.0389 32.352 43.9552C32.6778 43.9334 32.8575 43.6207 33.0652 43.4106C33.7518 42.7349 34.3505 41.9787 34.9689 41.2427C35.0495 41.1479 35.1246 41.0484 35.1948 40.9458C34.8729 40.7278 34.4555 40.5789 34.0793 40.7515C34.0745 40.6078 34.0631 40.4624 34.0884 40.3203C34.1121 40.2019 34.2428 40.1608 34.3321 40.1008C34.2816 40.0692 34.1892 40.072 34.1769 40.0005C34.092 39.6111 33.9601 39.234 33.8499 38.8514C33.8191 38.7329 33.7781 38.6176 33.7473 38.4995C33.7476 38.4371 33.7547 38.3751 33.7764 38.3171C34.0497 37.6481 34.1385 36.9239 34.229 36.2123C34.3103 35.5422 34.377 34.8705 34.4323 34.1979C34.4497 33.9709 34.4844 33.7442 34.4706 33.5164C34.4141 33.6451 34.392 33.7849 34.3588 33.9212C34.0548 35.2022 33.7357 36.48 33.4194 37.7583C33.3933 37.8708 33.3649 37.9833 33.3285 38.0935C33.3202 38.1169 33.304 38.1639 33.2957 38.1876C32.7899 38.0493 32.2698 37.9708 31.7549 37.8736C31.3746 39.8599 30.9801 41.8438 30.6014 43.8301C30.173 43.7645 29.7438 43.7025 29.3137 43.6473C29.2983 43.6832 29.2841 43.7195 29.2707 43.757C29.2576 43.6812 29.2336 43.609 29.2012 43.5398C30.0522 41.2965 30.9581 39.0744 31.8275 36.8378C31.8935 36.6633 31.982 36.497 32.0249 36.3146C32.4104 36.2755 32.7982 36.3265 33.184 36.2944C33.2022 35.4371 33.1863 34.579 33.195 33.7214C33.1939 33.5417 33.2199 33.3616 33.201 33.1827C33.1821 33.1736 33.1445 33.1559 33.1255 33.1472C33.182 33.1346 33.2388 33.1231 33.2954 33.1093L33.2957 33.0627C33.2965 32.8885 33.2989 32.7144 33.2965 32.5403C32.5221 32.5438 31.7478 32.5355 30.9738 32.5411C31.0283 32.2745 31.0884 32.0091 31.1574 31.7462C31.2858 31.2956 31.2878 30.8237 31.3573 30.3629C31.4462 29.4736 31.5563 28.5666 31.3901 27.6793C31.2266 26.8804 30.9281 26.1159 30.5841 25.3791V25.3789ZM31.5227 28.0365C31.505 28.1491 31.4943 28.2647 31.5184 28.3773C31.621 28.399 31.7249 28.4192 31.8303 28.4223C31.7569 28.2746 31.6459 28.1451 31.5227 28.0365ZM36.6124 31.1605C35.9592 31.4199 35.3626 31.8053 34.824 32.2535C34.7837 32.2863 34.7505 32.3282 34.741 32.3803C34.6991 32.5406 34.6569 32.7006 34.6277 32.8637C35.3077 32.5628 35.9431 32.1351 36.4386 31.5763C36.5524 31.4377 36.6791 31.3046 36.7534 31.1392C36.7049 31.1325 36.6562 31.1408 36.6125 31.1605L36.6124 31.1605ZM35.0103 39.121C34.6936 39.3283 34.3622 39.5652 34.2051 39.9226C34.6356 39.7532 35.0419 39.5206 35.4055 39.2343C35.6176 39.0518 35.8135 38.839 35.9422 38.5894C35.6219 38.7493 35.3147 38.9338 35.0103 39.1209V39.121ZM34.7208 39.9739C34.664 40.0024 34.5953 40.0256 34.5684 40.0892C34.6722 40.1819 34.8101 40.2207 34.9459 40.2365C35.2788 40.2713 35.614 40.2163 35.9362 40.1335C36.1179 40.0921 36.2892 40.0154 36.4432 39.9108C36.4373 39.8654 36.4184 39.8195 36.3686 39.8101C36.1822 39.7346 35.976 39.7481 35.7794 39.754C35.4193 39.7765 35.0513 39.8195 34.7208 39.9739H34.7208Z" fill="#E7E6E6"/>
<path id="Vector_61" d="M28.458 33.3134C28.6689 33.1124 28.8932 32.9224 29.0708 32.6895C29.0744 32.8292 29.0776 32.9691 29.0791 33.1092C29.1119 33.1522 29.1558 33.193 29.1593 33.2509C29.1352 33.4338 29.1442 33.6182 29.1482 33.8018C29.1505 34.5134 29.151 35.2246 29.1486 35.9358C29.1486 36.0298 29.1509 36.1245 29.1695 36.2173C29.1794 36.2402 29.1994 36.286 29.2094 36.3089C29.4755 36.3334 29.7432 36.3081 30.0094 36.3342C29.3452 39.0514 28.7032 41.7741 28.0685 44.4989C28.0097 44.7966 27.8865 45.0845 27.8869 45.3921C27.7985 45.4541 27.7041 45.5098 27.6259 45.5856C27.5667 45.6891 27.6709 45.7736 27.7527 45.8183C27.7338 45.8482 27.7097 45.8779 27.701 45.9138C27.5806 46.5274 27.4175 47.1316 27.2785 47.7413H25.6346C25.573 47.1304 25.6121 46.5136 25.5311 45.9051C25.5477 45.8916 25.5643 45.8786 25.5809 45.8652C25.6425 45.7917 25.7341 45.7226 25.7405 45.6199C25.6971 45.5438 25.6106 45.5094 25.5419 45.4616C25.5446 45.0593 25.5111 44.6576 25.4775 44.2572C25.4695 43.5871 25.4245 42.9182 25.3834 42.2493C25.2638 40.4296 25.0142 38.6227 24.7832 36.8149C24.668 35.9035 24.564 34.9913 24.4499 34.0799C24.4183 33.8663 24.4029 33.6499 24.3496 33.4402C24.8195 33.8058 25.2811 34.1821 25.7439 34.5573C25.8087 34.6154 25.8873 34.6528 25.9718 34.6734C26.1056 34.75 26.2075 34.8661 26.3208 34.9679C26.3544 35.0094 26.4089 34.9999 26.4563 35.0042C26.4642 35.0117 26.4808 35.0267 26.4887 35.0342C26.6498 34.939 26.7616 34.7854 26.9089 34.6737C27.0787 34.6315 27.1829 34.4826 27.3117 34.3772C27.6912 34.0194 28.0711 33.6629 28.458 33.3134ZM26.4287 39.3827C26.2605 39.4301 26.1234 39.5826 26.1176 39.761C26.0907 39.9865 26.2692 40.2104 26.4986 40.2215C26.764 40.2543 27.0021 39.9901 26.9531 39.7299C26.9243 39.4898 26.6629 39.3093 26.4287 39.3828V39.3827ZM26.4682 43.7668C26.3351 43.8205 26.2281 43.9421 26.2016 44.0842C26.1542 44.2849 26.2754 44.5091 26.4773 44.5644C26.7399 44.6643 27.0463 44.4246 27.0273 44.149C27.0396 43.8694 26.7217 43.666 26.4682 43.7667V43.7668Z" fill="#E7E6E6"/>
</g>
<g id="Group_7">
<path id="Vector_62" d="M18.2287 27.3075C19.4793 26.7811 20.7255 26.2437 21.971 25.7051C21.4513 26.3634 21.026 27.1077 20.8136 27.9236C20.5585 28.8465 20.6288 29.8274 20.8424 30.751C20.5439 30.8556 20.2647 31.0333 20.0716 31.2872C19.8165 31.6288 19.7044 32.0805 19.7901 32.4999C19.8668 32.8111 20.0034 33.1045 20.0792 33.4161C20.127 33.5621 20.2111 33.6929 20.2617 33.8378C20.4749 34.438 20.6984 35.0438 21.0542 35.5765C21.181 35.7656 21.3397 35.9295 21.4918 36.0982C21.2577 36.448 20.7897 36.5965 20.3866 36.5022C20.212 36.409 19.9893 36.4172 19.8511 36.2629C19.7354 36.2005 19.5991 36.1799 19.4712 36.1571C19.2674 36.189 19.1778 36.4359 19.2244 36.6183C19.1979 36.5622 19.1695 36.5066 19.1529 36.4473C18.9843 35.7744 18.8176 35.1012 18.649 34.4283C18.5954 34.2221 18.559 34.0113 18.4836 33.8115C18.2811 34.3312 18.1294 34.8702 17.9422 35.3962C17.4743 36.789 17.0142 38.1845 16.5589 39.5816C16.5175 39.7084 16.4649 39.8331 16.4457 39.9666C16.4208 40.1526 16.5124 40.333 16.634 40.4685C16.8114 40.664 17.0207 40.8271 17.2122 41.0083C17.767 41.4876 18.2879 42.0034 18.8391 42.4867C18.9651 42.5933 19.088 42.7054 19.1902 42.8362C18.7231 43.5829 18.5663 44.492 18.6567 45.3607C18.6792 45.5044 18.7214 45.6474 18.708 45.7947C18.5651 45.5937 18.3961 45.4132 18.2184 45.2427C17.8361 44.8474 17.4345 44.4711 17.0681 44.0608C16.2175 43.2114 15.408 42.3225 14.6037 41.4301C14.4133 41.2448 14.2644 41.0183 14.0468 40.8622C13.9536 40.3173 14.0157 39.7588 14.0927 39.2155C14.2629 38.2208 14.5085 37.2415 14.7427 36.2606C14.9378 35.4945 15.108 34.7221 15.3398 33.9659C15.8441 32.2284 16.3617 30.4948 16.881 28.7621C16.9853 28.4391 17.0444 28.0809 17.2802 27.8218C17.5302 27.5473 17.899 27.4486 18.2291 27.3077L18.2287 27.3075Z" fill="#FEFDFD"/>
<path id="Vector_63" d="M21.1679 28.2461C21.6415 28.3132 22.1216 28.3239 22.5951 28.3969C22.227 29.1559 21.9238 29.9516 21.7642 30.7821C21.5988 30.7213 21.4215 30.7039 21.2465 30.7003C21.0826 29.8959 20.9922 29.0564 21.1679 28.2461H21.1679Z" fill="#FEFDFD"/>
<path id="Vector_64" d="M20.2044 32.0287C20.2723 31.6149 20.6053 31.2685 21.008 31.1635C21.4096 31.0514 21.8685 31.2191 22.1066 31.5607C22.2879 31.7862 22.308 32.0891 22.2973 32.3671C22.1828 32.2542 22.1051 32.108 21.9783 32.0078C21.786 31.8514 21.5403 31.7495 21.2896 31.7645C20.9745 31.7847 20.6665 31.9639 20.516 32.2451C20.4122 32.4255 20.4046 32.6388 20.3478 32.835C20.2708 32.574 20.1357 32.3075 20.2044 32.0287Z" fill="#FEFDFD"/>
<path id="Vector_65" d="M20.7833 32.5095C20.9598 32.269 21.2884 32.1734 21.5723 32.2469C21.8463 32.3377 22.0359 32.5856 22.126 32.8518C22.2021 33.0805 22.2685 33.3209 22.2476 33.5646C22.2082 34.1511 22.1378 34.7399 21.9685 35.3049C21.9143 35.4766 21.8519 35.6481 21.758 35.8028C21.6214 35.6926 21.5274 35.5414 21.4283 35.3988C21.1661 35.0039 20.9778 34.5664 20.802 34.128C20.7143 33.88 20.5864 33.636 20.5879 33.3667C20.5919 33.0741 20.5867 32.7487 20.7834 32.5094L20.7833 32.5095Z" fill="#FEFDFD"/>
</g>
<path id="Vector_66" d="M21.1699 28.2463C21.1952 28.1279 21.224 28.0102 21.2595 27.8944C21.3105 27.8916 21.361 27.8889 21.412 27.8861C21.6043 27.8691 21.7994 27.881 21.9857 27.9335C22.2255 27.9991 22.4687 28.0527 22.7048 28.1317C22.6768 28.2233 22.6385 28.311 22.597 28.3971C22.1235 28.3241 21.6433 28.3134 21.1699 28.2463Z" fill="#E5E8EB"/>
<path id="Vector_67" d="M31.0292 27.9531C31.0375 28.0195 31.043 28.0862 31.0458 28.1533C31.0261 28.226 31.0008 28.2975 30.9759 28.3689C30.585 28.3946 30.1933 28.3393 29.8015 28.363C29.7782 28.3196 29.7545 28.2769 29.7305 28.2346C30.1479 28.1284 30.5771 28.0739 31.0059 28.0364C31.0119 28.0155 31.0233 27.974 31.0292 27.9531Z" fill="#CBD4D9"/>
<path id="Vector_68" d="M31.5222 28.0371C31.6454 28.1457 31.7564 28.2752 31.8298 28.4229C31.7244 28.4198 31.6206 28.3996 31.5179 28.3779C31.4939 28.2653 31.5045 28.1497 31.5222 28.0371Z" fill="#D2D6DB"/>
<path id="Vector_69" d="M31.0431 28.1523C31.1178 29.0926 30.9958 30.0336 30.8757 30.9648C30.8484 30.9288 30.8212 30.8933 30.7944 30.8585C30.7794 30.8608 30.749 30.8664 30.734 30.8688C30.5393 29.9945 30.1859 29.1665 29.7988 28.362C30.1906 28.3383 30.5823 28.3936 30.9732 28.3679C30.9981 28.2964 31.0234 28.225 31.0431 28.1523Z" fill="#E6E5E6"/>
<path id="Vector_70" d="M30.7359 30.8696C30.751 30.8673 30.7813 30.8617 30.7963 30.8594C30.8232 30.8941 30.8505 30.9297 30.8777 30.9656C30.8753 30.9834 30.8705 31.019 30.8678 31.0367C30.7268 31.1551 30.6111 31.2997 30.4725 31.4213C30.1688 31.6819 29.8892 31.969 29.6014 32.2467C29.4984 32.3442 29.3779 32.42 29.2598 32.4974C29.4103 32.5029 29.56 32.5168 29.7096 32.5353C29.4951 32.5369 29.2811 32.5388 29.0666 32.5408C29.0675 32.5901 29.0686 32.6399 29.0702 32.6897C28.8925 32.9226 28.6682 33.1126 28.4573 33.3136C28.0704 33.6631 27.6904 34.0196 27.311 34.3774C27.1823 34.4828 27.078 34.6317 26.9082 34.6739C27.32 34.2214 27.7604 33.7965 28.1873 33.3586C29.0295 32.5218 29.8612 31.6736 30.7358 30.8696H30.7359Z" fill="#CAD6D9"/>
<path id="Vector_71" d="M30.4724 31.4198C30.611 31.2981 30.7268 31.1537 30.8677 31.0352C30.8192 31.5469 30.6699 32.0413 30.5478 32.5389C30.2682 32.5429 29.9887 32.5417 29.7095 32.5338C29.5598 32.5152 29.4102 32.5013 29.2598 32.4959C29.3778 32.4185 29.4983 32.3427 29.6013 32.2451C29.8893 31.9675 30.1688 31.6805 30.4724 31.4198Z" fill="#E8E6E5"/>
<path id="Vector_72" d="M36.6136 31.1603C36.6575 31.1406 36.706 31.1323 36.7546 31.139C36.6804 31.3044 36.5536 31.4375 36.4398 31.5761C35.9443 32.1349 35.3089 32.5626 34.6289 32.8635C34.6581 32.7004 34.7004 32.5404 34.7422 32.3801C34.7517 32.328 34.7849 32.2861 34.8251 32.2533C35.3638 31.8051 35.9605 31.4197 36.6135 31.1602L36.6136 31.1603Z" fill="#C8CDD5"/>
<path id="Vector_73" d="M20.5171 32.2457C20.6676 31.9645 20.9756 31.7852 21.2907 31.7651C21.5414 31.7501 21.7871 31.852 21.9793 32.0084C22.1061 32.1087 22.1839 32.2548 22.2984 32.3677C22.3047 32.5659 22.2519 32.772 22.3142 32.9656C22.4326 32.9679 22.5523 32.9747 22.6695 32.951C22.6818 32.9707 22.7063 33.0102 22.7181 33.03C22.6434 33.3072 22.6608 33.5962 22.6348 33.8797C22.5708 34.6245 22.4535 35.3886 22.0717 36.0437C22.3433 36.2044 22.6687 36.2897 22.9838 36.2395C23.1201 36.2115 23.2524 36.1673 23.3893 36.1408C23.432 36.2605 23.4849 36.3758 23.5323 36.4935C23.2112 36.6281 22.8594 36.7059 22.5111 36.6471C22.2639 36.6171 22.0364 36.5077 21.8288 36.3754C21.6127 36.5839 21.3758 36.7885 21.0789 36.8682C20.8234 36.9503 20.5505 36.9412 20.2876 36.9053C20.3275 36.7727 20.3638 36.6384 20.3874 36.5018C20.7906 36.5962 21.2585 36.4477 21.4927 36.0978C21.3407 35.9292 21.1819 35.7653 21.0551 35.5761C20.6993 35.0434 20.4758 34.4376 20.2625 33.8374C20.212 33.6925 20.1279 33.5617 20.0801 33.4157C20.2144 33.4006 20.3644 33.3841 20.467 33.2873C20.4742 33.131 20.3846 32.986 20.3486 32.8356C20.4054 32.6394 20.413 32.4261 20.5168 32.2457H20.5171ZM20.7837 32.5091C20.587 32.7484 20.5921 33.0737 20.5882 33.3664C20.5865 33.6358 20.7145 33.8797 20.8022 34.1277C20.9779 34.566 21.1663 35.0036 21.4286 35.3985C21.5277 35.5411 21.6216 35.6923 21.7583 35.8025C21.8523 35.6477 21.9146 35.4763 21.9687 35.3046C22.1381 34.7395 22.2084 34.1507 22.2479 33.5644C22.2688 33.3207 22.2025 33.0802 22.1262 32.8516C22.0362 32.5855 21.8466 32.3374 21.5726 32.2466C21.2886 32.1731 20.9601 32.2687 20.7836 32.5092L20.7837 32.5091Z" fill="#D7D9D9"/>
<path id="Vector_74" d="M22.7055 31.9853C22.7315 31.9442 22.758 31.9035 22.7849 31.8633C23.3329 32.3265 23.8795 32.792 24.4193 33.2652C24.3924 33.322 24.3691 33.3804 24.3486 33.4402C23.9845 33.1689 23.6421 32.8699 23.282 32.5935C23.0952 32.4558 22.9238 32.299 22.7493 32.147C22.7051 32.44 22.7746 32.7389 22.7165 33.0299C22.7046 33.0102 22.6802 32.9707 22.668 32.951C22.6786 32.9466 22.7007 32.9384 22.7114 32.9339C22.698 32.6177 22.726 32.3013 22.7054 31.9854L22.7055 31.9853Z" fill="#E3E7EC"/>
<g id="Group_8">
<path id="Vector_75" d="M22.7496 32.1465C22.9241 32.2985 23.0955 32.4553 23.2822 32.5931C23.6424 32.8694 23.9848 33.1684 24.3489 33.4397C24.4022 33.6493 24.4176 33.8657 24.4492 34.0794C24.5633 34.9908 24.6671 35.903 24.7825 36.8144C25.0135 38.6222 25.263 40.4292 25.3827 42.2488C25.4238 42.9177 25.4688 43.5867 25.4767 44.2568C25.2915 44.3926 25.1612 44.5837 25.0048 44.7492C24.933 44.827 24.8697 44.9126 24.807 44.998C24.7071 44.9324 24.6091 44.8642 24.5101 44.7982C24.4378 44.4124 24.3127 44.0392 24.2266 43.6562C24.0852 43.1756 23.9849 42.6832 23.8234 42.2093C23.8644 42.8036 23.9406 43.3952 24.0003 43.9883C24.0038 44.1419 24.0327 44.2931 24.0622 44.4436C24.0503 44.4542 24.0266 44.4752 24.0148 44.4855C23.879 44.4017 23.7475 44.3086 23.601 44.2446C23.4877 44.2134 23.3689 44.2442 23.2563 44.2651C22.895 44.3492 22.5324 44.4286 22.1731 44.5203C22.1569 44.4373 22.1427 44.3552 22.1233 44.2739C21.963 44.0543 21.7916 43.8422 21.6344 43.62C21.5799 43.6168 21.5258 43.6085 21.4729 43.5978C21.4931 43.5564 21.5136 43.5157 21.5345 43.475C21.3118 43.1539 21.0271 42.8783 20.8174 42.547C20.7013 41.8812 20.4676 41.2434 20.2919 40.5923C20.0791 39.8539 19.8736 39.1139 19.6597 38.3762C19.5183 37.8056 19.3229 37.2457 19.2363 36.6628C19.369 36.7363 19.5092 36.8109 19.6655 36.8058C19.8776 36.803 20.0778 36.8796 20.2863 36.9049C20.5492 36.9408 20.8221 36.9499 21.0776 36.8678C21.3745 36.788 21.6114 36.5835 21.8275 36.375C22.0352 36.5073 22.2626 36.6167 22.5098 36.6467C22.8582 36.7055 23.2099 36.6278 23.531 36.4931C23.7477 36.4437 23.9287 36.3008 24.1482 36.2653C24.2904 36.2336 24.4385 36.1697 24.521 36.0434C24.5778 35.8498 24.4377 35.6469 24.2575 35.5789C24.1379 35.6326 24.0143 35.6793 23.9009 35.7468C23.8054 35.8041 23.7497 35.9079 23.6553 35.966C23.5696 36.017 23.4769 36.0541 23.3896 36.1018C23.3892 36.1113 23.3884 36.131 23.388 36.1405C23.2509 36.167 23.1186 36.2112 22.9824 36.2392C22.6673 36.2894 22.342 36.2041 22.0703 36.0434C22.4521 35.3882 22.5695 34.6242 22.6334 33.8794C22.6594 33.5959 22.642 33.3068 22.7167 33.0297C22.7748 32.7386 22.7053 32.4397 22.7495 32.1467L22.7496 32.1465Z" fill="#FEFEFD"/>
<path id="Vector_76" d="M29.1605 33.2503C29.5859 33.2448 30.0119 33.2511 30.4376 33.2515C30.406 33.458 30.3732 33.6649 30.3602 33.8738L30.3022 33.8947C29.7568 33.9828 29.3304 34.5691 29.4863 35.1145C29.6095 35.652 30.2417 35.9899 30.7567 35.7914C30.8744 35.9066 30.7776 36.0725 30.7669 36.2103C30.5343 36.2115 30.3018 36.2091 30.0695 36.2178C29.7702 36.204 29.4701 36.2036 29.1708 36.2166C29.1522 36.1239 29.1499 36.029 29.1499 35.9351C29.1522 35.2239 29.1519 34.5127 29.1495 33.8012C29.1456 33.6175 29.1365 33.4331 29.1606 33.2503H29.1605Z" fill="#FEFEFD"/>
<path id="Vector_77" d="M22.946 45.4836C23.2607 45.465 23.5746 45.4165 23.8897 45.418C24.2763 45.6233 24.6274 45.8934 25.0262 46.0786C25.0219 46.4108 25.087 46.7381 25.1155 47.0678C25.1392 47.2917 25.1494 47.5176 25.1893 47.7399H21.3336C21.2452 47.0347 21.1856 46.3259 21.0781 45.6229C21.7005 45.5747 22.3224 45.5182 22.946 45.4835V45.4836Z" fill="#FEFEFD"/>
</g>
<path id="Vector_78" d="M29.0664 32.5406C29.2808 32.5387 29.4949 32.5367 29.7093 32.5352C29.9885 32.5431 30.2681 32.5443 30.5476 32.5403C30.4225 32.6453 30.4489 32.8155 30.4387 32.9612C30.3771 32.9691 30.3155 32.9762 30.2547 32.9837C30.3088 33.0059 30.3633 33.0268 30.4158 33.0532C30.0308 33.0639 29.6457 33.0521 29.2607 33.0473C29.1932 33.0425 29.1261 33.0572 29.0787 33.1093H29.0784C29.0768 32.969 29.0736 32.8293 29.0701 32.6895C29.0685 32.6397 29.0673 32.59 29.0666 32.5406H29.0664Z" fill="#16020B"/>
<path id="Vector_79" d="M29.0781 33.1097C29.1255 33.0575 29.1927 33.043 29.2601 33.0477C29.6451 33.0525 30.0302 33.0643 30.4152 33.0537C30.4243 33.0663 30.4425 33.0912 30.4511 33.1038C29.9934 33.1106 29.5358 33.109 29.0781 33.1098V33.1097Z" fill="#2A3847"/>
<path id="Vector_80" d="M30.8602 33.0589C31.6713 33.0443 32.4835 33.0731 33.2955 33.0629L33.2951 33.1094C32.4813 33.0983 31.6673 33.1169 30.8535 33.1043L30.8603 33.0589H30.8602Z" fill="#273746"/>
<path id="Vector_81" d="M29.0782 33.1095H29.0786C29.5362 33.1087 29.9939 33.1103 30.4516 33.1035C30.4468 33.1529 30.4413 33.2027 30.4353 33.2524C30.0097 33.252 29.5836 33.2456 29.1583 33.2512C29.1548 33.1931 29.1109 33.1525 29.0781 33.1095H29.0782Z" fill="#EEF4F3"/>
<path id="Vector_82" d="M33.1261 33.1465C33.145 33.1551 33.1825 33.173 33.2015 33.1821C33.2205 33.3609 33.1944 33.541 33.1956 33.7207C33.187 34.5784 33.2027 35.4365 33.1845 36.2937C32.7987 36.3257 32.411 36.2748 32.0255 36.3139C31.6575 36.3309 31.289 36.3151 30.921 36.3222C30.6272 36.3131 30.3314 36.3435 30.0396 36.2977C29.7818 36.2563 29.5204 36.2942 29.2617 36.2649C29.5295 36.2247 29.8031 36.2803 30.0684 36.2179C30.3006 36.2093 30.5332 36.2116 30.7658 36.2104C31.5505 36.2116 32.3355 36.2211 33.1198 36.2108C33.1206 35.1892 33.1155 34.1676 33.1261 33.1465Z" fill="#BFD2D7"/>
<path id="Vector_83" d="M24.3477 33.4406C24.3682 33.381 24.3915 33.3225 24.4183 33.2656C24.9356 33.7347 25.4588 34.1983 25.9698 34.6738C25.8853 34.6533 25.8067 34.6157 25.742 34.5577C25.2792 34.1826 24.8176 33.8062 24.3477 33.4406Z" fill="#CDD7DB"/>
<path id="Vector_84" d="M34.3572 33.9204C34.3904 33.7842 34.4125 33.6444 34.469 33.5156C34.4828 33.7435 34.4481 33.9701 34.4307 34.1972C34.3754 34.8697 34.3087 35.5413 34.2274 36.2115C34.137 36.9231 34.0481 37.6474 33.7749 38.3163C33.7532 38.3744 33.746 38.4363 33.7457 38.4987C33.724 38.4072 33.707 38.314 33.6738 38.2259C33.6102 38.0585 33.5119 37.9084 33.418 37.7575C33.7342 36.4793 34.0533 35.2014 34.3574 33.9204H34.3572Z" fill="#CCD3D2"/>
<path id="Vector_85" d="M17.9422 35.3952C18.1294 34.8692 18.281 34.3303 18.4836 33.8105C18.5591 34.0104 18.5954 34.2212 18.6491 34.4273C18.8176 35.1002 18.9843 35.7735 19.1529 36.4464C19.1695 36.5056 19.1979 36.5613 19.2244 36.6174C19.2276 36.6288 19.2335 36.6513 19.2367 36.6628C19.3231 37.2456 19.5186 37.8056 19.66 38.3762C19.5673 38.5448 19.5127 38.73 19.4397 38.9077C19.3188 39.2457 19.1759 39.5762 19.0779 39.9218C19.0633 40.0178 18.9425 39.9786 18.8785 40.0036C18.9421 40.0671 19.0136 40.1256 19.0633 40.2014C19.0736 40.3514 18.9666 40.4834 18.9693 40.6357C18.8603 40.6654 18.7509 40.6946 18.6392 40.7119C18.1602 40.7952 17.6891 40.9157 17.212 41.0073C17.0205 40.826 16.8112 40.6629 16.6339 40.4675C16.5122 40.3321 16.4206 40.1516 16.4455 39.9656C16.4649 39.8322 16.5174 39.7074 16.5588 39.5807C17.0141 38.1835 17.4741 36.788 17.942 35.3952H17.9422ZM16.8634 38.7016C17.15 38.924 17.4549 39.1242 17.7823 39.2821C18.1187 39.4444 18.4484 39.6305 18.8098 39.7327C18.6969 39.5163 18.4876 39.3773 18.2945 39.2394C17.9972 39.0412 17.6675 38.8907 17.3231 38.7956C17.1722 38.7533 17.0226 38.6969 16.8634 38.7015L16.8634 38.7016Z" fill="#E0E4E4"/>
<path id="Vector_86" d="M29.4857 35.1143C29.3297 34.569 29.7562 33.9826 30.3015 33.8945C30.4404 33.9644 30.604 33.9099 30.7532 33.9364C31.1761 34.0446 31.4514 34.483 31.4276 34.9082C31.4119 35.3027 31.1283 35.666 30.7559 35.7912C30.241 35.9898 29.6088 35.6518 29.4856 35.1143H29.4857ZM30.2596 34.1717C29.8248 34.2602 29.5761 34.8122 29.796 35.1968C29.9993 35.6293 30.6656 35.7169 30.9751 35.3528C31.2776 35.0526 31.216 34.4923 30.8602 34.2597C30.69 34.1278 30.4605 34.1357 30.2596 34.1716V34.1717Z" fill="#16020B"/>
<path id="Vector_87" d="M30.258 34.1731C30.459 34.1372 30.6885 34.1293 30.8586 34.2612C31.2144 34.4938 31.276 35.0541 30.9735 35.3543C30.6639 35.7184 29.9977 35.6307 29.7944 35.1983C29.5745 34.8137 29.8232 34.2616 30.258 34.1732V34.1731ZM30.1068 34.3721C29.9338 34.4744 29.8513 34.6798 29.8407 34.8728C29.8281 34.9273 29.845 34.9692 29.8924 34.9984C29.918 34.8234 29.9394 34.6291 30.08 34.504C30.2928 34.2899 30.6316 34.3334 30.8899 34.4293C30.867 34.3484 30.7836 34.3144 30.7126 34.2887C30.5096 34.2366 30.2873 34.2654 30.1069 34.372L30.1068 34.3721ZM30.8488 35.1528C30.6979 35.3202 30.4373 35.381 30.2315 35.2823C30.0882 35.2313 29.9966 35.1046 29.9287 34.9759C29.9496 35.0793 29.9911 35.1804 30.0558 35.2653C30.2422 35.4794 30.5996 35.5014 30.8128 35.3135C30.9499 35.1883 30.9799 34.9941 30.9893 34.8179C30.9395 34.928 30.9293 35.058 30.8488 35.1527V35.1528Z" fill="#B2BABC"/>
<path id="Vector_88" d="M30.1082 34.3703C30.2886 34.2637 30.511 34.2349 30.7139 34.287C30.7849 34.3127 30.8683 34.3466 30.8912 34.4276C30.6329 34.3316 30.2941 34.2882 30.0812 34.5022C29.9407 34.6274 29.9193 34.8217 29.8936 34.9966C29.8463 34.9675 29.8293 34.9256 29.842 34.8711C29.8526 34.678 29.9352 34.4727 30.1081 34.3704L30.1082 34.3703Z" fill="#DFE6E7"/>
<path id="Vector_89" d="M30.8498 35.1532C30.9304 35.0584 30.9406 34.9285 30.9904 34.8184C30.9809 34.9945 30.9509 35.1888 30.8139 35.3139C30.6006 35.5019 30.2433 35.4798 30.0568 35.2658C29.9921 35.1808 29.9506 35.0798 29.9297 34.9763C29.9976 35.105 30.0893 35.2318 30.2325 35.2828C30.4383 35.3815 30.6989 35.3207 30.8498 35.1533V35.1532Z" fill="#4A5F67"/>
<path id="Vector_90" d="M23.9015 35.7479C24.0148 35.6804 24.1385 35.6338 24.2582 35.5801C24.4383 35.648 24.5784 35.851 24.5216 36.0445C24.4391 36.1708 24.2909 36.2349 24.1488 36.2664C23.9293 36.302 23.7484 36.4449 23.5316 36.4942C23.4842 36.3765 23.4313 36.2613 23.3887 36.1416C23.389 36.1321 23.3898 36.1124 23.3903 36.1028C23.4776 36.055 23.5704 36.0179 23.656 35.967C23.7504 35.909 23.8061 35.8051 23.9016 35.7479L23.9015 35.7479Z" fill="#16020B"/>
<path id="Vector_91" d="M19.2249 36.6175C19.1784 36.4351 19.268 36.1883 19.4718 36.1562C19.5998 36.1791 19.736 36.1997 19.8516 36.2621C19.9899 36.4165 20.2126 36.4081 20.3871 36.5013C20.3634 36.638 20.327 36.7722 20.2872 36.9049C20.0788 36.8796 19.8786 36.803 19.6665 36.8057C19.5101 36.8109 19.3699 36.7362 19.2373 36.6628C19.2341 36.6514 19.2282 36.6289 19.225 36.6174L19.2249 36.6175Z" fill="#16020B"/>
<path id="Vector_92" d="M29.1692 36.2165C29.4685 36.2035 29.7686 36.2039 30.0679 36.2177C29.8026 36.2801 29.529 36.2244 29.2612 36.2647C29.5199 36.2939 29.7813 36.2561 30.0391 36.2975C30.3309 36.3433 30.6267 36.3129 30.9205 36.322C31.2886 36.3149 31.657 36.3306 32.025 36.3137C31.982 36.4961 31.8936 36.6624 31.8276 36.8369C30.9581 39.0735 30.0522 41.2955 29.2013 43.5389C29.0519 43.9571 28.7716 44.3481 28.7712 44.8057C28.4806 45.0071 28.1848 45.2014 27.8867 45.3914C27.8864 45.0837 28.0096 44.7959 28.0684 44.4981C28.703 41.7734 29.345 39.0507 30.0092 36.3334C29.7431 36.3074 29.4754 36.3326 29.2092 36.3081C29.1993 36.2852 29.1792 36.2394 29.1693 36.2165H29.1692Z" fill="#FFF4F4"/>
<path id="Vector_93" d="M33.419 37.7598C33.513 37.9106 33.6113 38.0606 33.6748 38.2281C33.5623 38.1752 33.4462 38.1321 33.3281 38.095C33.3644 37.9849 33.3929 37.8723 33.419 37.7598Z" fill="#2F7D76"/>
<path id="Vector_94" d="M31.7551 37.873C32.27 37.9702 32.7901 38.0487 33.2959 38.187C33.3042 38.1633 33.3204 38.1163 33.3287 38.093C33.4468 38.1301 33.5629 38.1731 33.6754 38.2261C33.7086 38.3141 33.7256 38.4073 33.7473 38.4989C33.7781 38.617 33.8191 38.7323 33.8499 38.8508C33.8626 38.9728 33.8246 39.0912 33.7978 39.2089C33.696 39.6879 33.5964 40.1677 33.5087 40.6499C33.4673 40.8888 33.3981 41.1249 33.3954 41.369C32.7222 42.0956 32.0189 42.7938 31.3246 43.4994C31.3886 43.5306 31.4518 43.5642 31.5066 43.6124C31.4063 43.5958 31.3084 43.5733 31.2101 43.5511C31.1319 43.6538 31.0723 43.7683 31.0056 43.8781C30.8701 43.867 30.7355 43.8508 30.6016 43.8296C30.9802 41.8433 31.3748 39.8594 31.755 37.8731L31.7551 37.873Z" fill="#16020B"/>
<path id="Vector_95" d="M35.0103 39.1214C35.3147 38.9342 35.6219 38.7498 35.9422 38.5898C35.8135 38.8394 35.6176 39.0523 35.4055 39.2347C35.0418 39.521 34.6355 39.7536 34.2051 39.923C34.3622 39.5657 34.6935 39.3287 35.0103 39.1214V39.1214Z" fill="#C5CDD2"/>
<path id="Vector_96" d="M16.8634 38.7015C17.0225 38.6967 17.1722 38.7531 17.323 38.7955C17.6674 38.8907 17.9971 39.0411 18.2944 39.2394C18.4875 39.3771 18.6968 39.5162 18.8097 39.7326C18.4484 39.6303 18.1187 39.4443 17.7822 39.282C17.4549 39.1241 17.15 38.9239 16.8633 38.7015L16.8634 38.7015Z" fill="#C3D0D9"/>
<path id="Vector_97" d="M26.4291 39.3838C26.6632 39.3103 26.9246 39.4908 26.9535 39.7309C27.0024 39.9911 26.7643 40.2552 26.499 40.2225C26.2695 40.2114 26.091 39.9875 26.1179 39.762C26.1239 39.5835 26.2608 39.4311 26.4291 39.3837V39.3838Z" fill="#A1A09D"/>
<path id="Vector_98" d="M34.7207 39.9748C35.0512 39.8203 35.4193 39.7774 35.7794 39.7549C35.9761 39.7489 36.1822 39.7355 36.3686 39.811C36.4184 39.8204 36.4373 39.8663 36.4432 39.9117C36.2892 40.0163 36.1179 40.0929 35.9362 40.1344C35.614 40.2173 35.2787 40.2721 34.9459 40.2374C34.8101 40.2216 34.6722 40.1829 34.5684 40.0901C34.5952 40.0265 34.6639 40.0031 34.7208 39.9748H34.7207Z" fill="#C7CED7"/>
<path id="Vector_99" d="M39.0849 40.304C39.1655 40.1216 39.1888 39.9151 39.3041 39.748C39.3551 40.3724 39.3183 41.0263 39.0364 41.5969C38.7177 42.252 38.29 42.8459 37.8699 43.4379C37.7179 43.627 37.6022 43.8541 37.3957 43.9919C36.4689 44.6344 35.5594 45.3009 34.6374 45.9493C34.68 45.7377 34.939 45.712 35.0698 45.5695C34.9229 45.5726 34.8115 45.6879 34.6674 45.699C34.5399 45.7101 34.4131 45.7693 34.2852 45.7318L34.2883 45.7002C34.4818 45.4692 34.6453 45.2152 34.8376 44.9834C35.7868 43.8204 36.872 42.7776 37.9939 41.7837C38.435 41.3563 38.8481 40.8778 39.085 40.304H39.0849Z" fill="#FFF4F4"/>
<path id="Vector_100" d="M14.0469 40.8613C14.2644 41.0173 14.4133 41.244 14.6037 41.4292C15.4081 42.3217 16.2176 43.2105 17.0681 44.0599C17.4346 44.4702 17.8362 44.8465 18.2184 45.2418C18.3961 45.4124 18.5651 45.5928 18.708 45.7938C18.6536 45.7765 18.5994 45.7579 18.545 45.7413C18.4782 45.8491 18.5477 45.9585 18.6011 46.0545C17.2612 44.8931 15.9565 43.6927 14.6605 42.4831C14.5709 42.3994 14.4935 42.3007 14.4512 42.185C14.2972 41.7498 14.1527 41.3107 14.0469 40.8613Z" fill="#ECEEEE"/>
<path id="Vector_101" d="M33.6926 42.9121C34.0807 43.7875 34.2561 44.746 34.29 45.7L34.2868 45.7317C34.4148 45.7692 34.5415 45.7099 34.6691 45.6989C34.8133 45.6878 34.9246 45.5725 35.0715 45.5694C34.9408 45.7119 34.6817 45.7376 34.6391 45.9492C34.2683 46.2161 33.9029 46.4902 33.5267 46.7488C33.4734 46.611 33.4904 46.4637 33.5042 46.3212C33.5626 45.6238 33.6226 44.926 33.6448 44.2259C33.6676 43.7883 33.6558 43.3485 33.6926 42.9121Z" fill="#CFD5D4"/>
<path id="Vector_102" d="M19.3638 42.9727C19.5566 43.1124 19.7228 43.2831 19.9068 43.4335C20.1382 43.6325 20.3482 43.8639 20.6207 44.0096C20.6022 44.089 20.586 44.1688 20.5651 44.2482C20.3858 44.8997 20.2255 45.5569 20.0439 46.2076C19.9483 46.5669 19.9321 46.9409 19.8685 47.3062C19.7461 47.1763 19.6241 47.0459 19.4953 46.9228C19.4215 46.1828 19.337 45.4435 19.3094 44.7004C19.3145 44.1246 19.2742 43.5441 19.3638 42.9727V42.9727Z" fill="#FEFDFC"/>
<path id="Vector_103" d="M29.2015 43.5391C29.2339 43.6081 29.258 43.6804 29.271 43.7563C29.2442 43.8463 29.2232 43.9379 29.2046 44.0303C29.2525 44.0548 29.3006 44.0793 29.3488 44.1045C29.3603 44.157 29.3713 44.21 29.3836 44.2636C29.3891 44.2961 29.4002 44.3604 29.4061 44.3928C29.1869 44.5188 28.9804 44.664 28.7715 44.8059C28.7718 44.3482 29.0523 43.9573 29.2015 43.5391ZM29.0743 44.4994C29.2753 44.5216 29.3578 44.2198 29.2101 44.1069C29.1051 44.2047 29.0577 44.3576 29.0743 44.4994Z" fill="#F0F2F0"/>
<path id="Vector_104" d="M31.2107 43.5527C31.309 43.5749 31.4069 43.5973 31.5073 43.614C31.8318 43.5863 32.0937 43.7948 32.3527 43.9564C32.3767 44.0401 32.4025 44.1238 32.4273 44.2075C32.1596 44.2842 31.9179 44.4274 31.6905 44.5847C31.3916 44.4512 31.0769 44.3576 30.7578 44.2873C30.8328 44.1467 30.9178 44.0121 31.0062 43.8798C31.0729 43.77 31.1325 43.6555 31.2107 43.5528V43.5527Z" fill="#FFF4F4"/>
<path id="Vector_105" d="M21.0631 43.6882C21.1899 43.6301 21.3292 43.5681 21.4722 43.5973C21.5252 43.6079 21.5792 43.6162 21.6337 43.6195C21.7908 43.8418 21.9622 44.0538 22.1226 44.2733C21.9943 44.3586 21.8462 44.4037 21.7005 44.4487C21.5252 44.5016 21.3601 44.5876 21.1781 44.6185C20.9846 44.4768 20.7737 44.3622 20.5645 44.247C20.5853 44.1676 20.6016 44.0878 20.6201 44.0084C20.735 43.8631 20.9013 43.7718 21.0632 43.6882H21.0631Z" fill="#C7C9D9"/>
<path id="Vector_106" d="M29.3146 43.6484C29.7446 43.7037 30.1739 43.7657 30.6023 43.8313C30.7361 43.8526 30.8708 43.8688 31.0063 43.8798C30.9178 44.0121 30.8329 44.1467 30.7579 44.2873C30.4286 44.2676 30.1059 44.1937 29.7794 44.1535C29.76 44.1799 29.7406 44.2064 29.7209 44.2336C29.7035 44.125 29.5843 44.1369 29.5025 44.1147C29.4832 44.1898 29.4658 44.2656 29.4512 44.3426L29.4196 44.3398C29.4105 44.3212 29.3931 44.2841 29.384 44.2656C29.3718 44.2119 29.3607 44.159 29.3493 44.1065C29.3011 44.0812 29.2529 44.0567 29.2051 44.0323C29.2236 43.9399 29.2445 43.8483 29.2714 43.7582C29.2849 43.7207 29.2991 43.6844 29.3145 43.6484H29.3146Z" fill="#D2D5D5"/>
<path id="Vector_107" d="M26.4663 43.7664C26.7198 43.6657 27.0377 43.869 27.0254 44.1487C27.0443 44.4243 26.738 44.664 26.4754 44.5641C26.2735 44.5088 26.1523 44.2845 26.1997 44.0839C26.2262 43.9417 26.3332 43.8201 26.4663 43.7665V43.7664Z" fill="#9F9F9C"/>
<path id="Vector_108" d="M29.0735 44.5C29.057 44.3582 29.1043 44.2054 29.2094 44.1074C29.357 44.2204 29.2746 44.522 29.0735 44.5Z" fill="#C7D5D3"/>
<path id="Vector_109" d="M29.5005 44.1133C29.5823 44.1354 29.7016 44.1235 29.7189 44.2322C29.664 44.3265 29.5459 44.3328 29.4492 44.3411C29.4638 44.2641 29.4812 44.1883 29.5005 44.1133Z" fill="#F0EEEC"/>
<path id="Vector_110" d="M29.7192 44.2325C29.739 44.2052 29.7583 44.1788 29.7777 44.1523C29.7698 44.1863 29.7536 44.255 29.7457 44.2894C29.8413 44.3308 29.9455 44.3407 30.0474 44.3605C30.276 44.4031 30.5007 44.4671 30.7329 44.4919C31.0859 44.5267 31.4161 44.6819 31.7719 44.7012C31.9353 44.993 32.04 45.3133 32.1573 45.6253C31.6649 45.5976 31.1752 45.5286 30.682 45.5127C30.235 45.4942 29.7888 45.4417 29.3422 45.4334C29.0761 45.6119 28.8198 45.8066 28.5469 45.976C28.4399 46.0356 28.3238 46.1122 28.1959 46.0925C28.0268 46.0384 27.9064 45.899 27.7516 45.8185C27.6698 45.7739 27.5656 45.6893 27.6248 45.5858C27.703 45.51 27.7974 45.4544 27.8858 45.3923C28.184 45.2024 28.4797 45.008 28.7703 44.8067C28.9792 44.6649 29.1857 44.5196 29.4049 44.3936C29.399 44.3612 29.3879 44.2969 29.3824 44.2645C29.3915 44.283 29.4089 44.3201 29.418 44.3387L29.4496 44.3415C29.5463 44.3332 29.6644 44.3269 29.7193 44.2325H29.7192ZM28.0627 45.5124C27.9943 45.5609 27.9098 45.6067 27.8787 45.6892C27.8893 45.8306 28.0169 45.923 28.1448 45.955C28.2348 45.8689 28.343 45.7962 28.4051 45.6864C28.4339 45.5834 28.3363 45.5111 28.2605 45.4645C28.1934 45.4164 28.1216 45.4816 28.0627 45.5124Z" fill="#F3A86E"/>
<path id="Vector_111" d="M29.7781 44.1523C30.1046 44.1926 30.4273 44.2664 30.7566 44.2862C30.7487 44.3545 30.7404 44.4228 30.7333 44.4919C30.5011 44.4671 30.2764 44.4031 30.0478 44.3605C29.9459 44.3407 29.8416 44.3308 29.7461 44.2894C29.754 44.2551 29.7701 44.1864 29.7781 44.1523Z" fill="#EAECEA"/>
<path id="Vector_112" d="M23.2558 44.2662C23.3684 44.2453 23.4872 44.2145 23.6005 44.2457C23.7471 44.3096 23.8785 44.4028 24.0143 44.4866C24.1754 44.5972 24.3456 44.6931 24.5095 44.7993C24.6087 44.8653 24.7066 44.9336 24.8065 44.9992C25.0525 45.1516 25.3005 45.3005 25.5406 45.4624C25.6093 45.5102 25.6958 45.5445 25.7393 45.6207C25.733 45.7234 25.6414 45.7925 25.5797 45.866C25.5229 45.6934 25.4272 45.4971 25.2346 45.4513C25.1039 45.4861 24.9614 45.6164 24.9996 45.7641C25.081 45.9347 25.293 45.926 25.4522 45.9529C25.3222 46.0283 25.1856 46.1278 25.0265 46.0808C24.6276 45.8956 24.2766 45.6255 23.89 45.4202C23.5749 45.4186 23.2609 45.4672 22.9462 45.4857C22.3226 45.5205 21.7007 45.577 21.0784 45.6251C20.9623 45.6323 20.8462 45.6409 20.7305 45.6496C20.8454 45.3571 20.956 45.062 21.0902 44.7777C21.4575 44.7244 21.8148 44.6182 22.1726 44.5214C22.5319 44.4298 22.8945 44.3504 23.2558 44.2663V44.2662Z" fill="#F3AA70"/>
<path id="Vector_113" d="M31.6895 44.5842C31.917 44.427 32.1586 44.2837 32.4264 44.207C32.6017 44.8329 32.7328 45.4702 32.9057 46.0966C32.8307 46.1633 32.7589 46.2336 32.6854 46.3023C32.6167 46.3612 32.54 46.4105 32.4638 46.4591C32.3841 46.1737 32.2557 45.9051 32.1578 45.6259C32.0406 45.314 31.9359 44.9938 31.7724 44.7019C31.7451 44.662 31.7175 44.6229 31.6895 44.5842H31.6895Z" fill="#EB148C"/>
<path id="Vector_114" d="M20.0431 46.2075C20.2247 45.5567 20.385 44.8996 20.5643 44.248C20.7736 44.3633 20.9845 44.4779 21.1779 44.6196C21.1475 44.6713 21.1175 44.7231 21.0899 44.7772C20.9556 45.0615 20.845 45.3565 20.7301 45.6491C20.6728 45.7775 20.6029 45.9023 20.5725 46.0409C20.5311 46.2316 20.4536 46.4116 20.4094 46.6016C20.2712 46.4851 20.1776 46.3272 20.043 46.2076L20.0431 46.2075Z" fill="#EB148C"/>
<path id="Vector_115" d="M21.7003 44.4507C21.846 44.4057 21.9941 44.3607 22.1224 44.2754C22.1418 44.3567 22.156 44.4388 22.1722 44.5218C21.8144 44.6185 21.4571 44.7248 21.0898 44.7781C21.1175 44.724 21.1475 44.6723 21.1779 44.6205C21.3599 44.5897 21.525 44.5036 21.7003 44.4506V44.4507Z" fill="#D17F5C"/>
<path id="Vector_116" d="M25.0045 44.7502C25.1608 44.5848 25.2911 44.3936 25.4764 44.2578C25.51 44.6582 25.5435 45.0598 25.5408 45.4622C25.3007 45.3003 25.0527 45.1514 24.8066 44.999C24.8694 44.9137 24.9326 44.828 25.0045 44.7501V44.7502Z" fill="#F4F3F4"/>
<path id="Vector_117" d="M30.7577 44.2871C31.0768 44.3574 31.3915 44.451 31.6904 44.5845C31.7184 44.6232 31.7461 44.6623 31.7733 44.7022C31.4175 44.6828 31.0874 44.5276 30.7344 44.4929C30.7415 44.4238 30.7498 44.3555 30.7577 44.2871Z" fill="#CF8A67"/>
<path id="Vector_118" d="M25.0005 45.7639C24.9622 45.6162 25.1048 45.4859 25.2354 45.4512C25.4281 45.497 25.5237 45.6932 25.5805 45.8658C25.5639 45.8792 25.5474 45.8923 25.5307 45.9057C25.5114 45.9171 25.4723 45.9408 25.4529 45.9527C25.2938 45.9259 25.0817 45.9345 25.0004 45.7639H25.0005Z" fill="#F8B993"/>
<path id="Vector_119" d="M28.548 45.9762C28.8209 45.8068 29.0772 45.6121 29.3433 45.4336C29.7899 45.4419 30.2361 45.4944 30.6831 45.5129C31.1764 45.5287 31.666 45.5979 32.1584 45.6255C32.2563 45.9047 32.3847 46.1732 32.4644 46.4587C32.4151 46.6317 32.4288 46.8125 32.4123 46.9898C32.3901 47.2398 32.3692 47.4902 32.37 47.7417H28.3809C28.4504 47.1546 28.4875 46.5641 28.5479 45.9762H28.548Z" fill="#F4F3F2"/>
<path id="Vector_120" d="M20.7314 45.6495C20.8471 45.6408 20.9632 45.6321 21.0793 45.625C21.1867 46.3279 21.2463 47.0367 21.3348 47.742H20.4648C20.5036 47.1754 20.541 46.6079 20.5738 46.0412C20.6042 45.9026 20.6741 45.7778 20.7314 45.6495Z" fill="#EFEFEF"/>
<path id="Vector_121" d="M27.7 45.9139C27.7086 45.878 27.7328 45.8483 27.7517 45.8184C27.9065 45.899 28.0269 46.0383 28.1959 46.0924C28.3239 46.1121 28.44 46.0356 28.5469 45.9759C28.4865 46.5638 28.4494 47.1542 28.3799 47.7414H27.2773C27.4163 47.1317 27.5794 46.5275 27.6999 45.9139H27.7Z" fill="#CEDBDE"/>
<path id="Vector_122" d="M25.4532 45.9513C25.4726 45.9394 25.5117 45.9157 25.531 45.9043C25.612 46.5128 25.5729 47.1296 25.6345 47.7405H25.1906C25.1507 47.5182 25.1405 47.2923 25.1168 47.0684C25.0883 46.7387 25.0232 46.4113 25.0275 46.0793C25.1867 46.1263 25.3233 46.0268 25.4532 45.9513Z" fill="#F4F2F2"/>
<path id="Vector_123" d="M32.4654 46.4576C32.5416 46.409 32.6182 46.3597 32.6869 46.3008C32.7367 46.7818 32.8161 47.2603 32.8671 47.7405H32.3711C32.3703 47.489 32.3913 47.2386 32.4134 46.9886C32.4299 46.8113 32.4161 46.6305 32.4655 46.4575L32.4654 46.4576Z" fill="#E8E7E7"/>
</g>
</g>
</svg>
