<svg width="54" height="55" viewBox="0 0 54 55" fill="none" xmlns="http://www.w3.org/2000/svg">
<g id="Group 1171276475">
<g id="Group 1171276472">
<g id="Group 1171275872">
<ellipse id="Ellipse 1098" cx="27" cy="27.2547" rx="27" ry="27.2547" fill="#FEEAEE"/>
</g>
</g>
<g id="a">
<path id="Vector" d="M24.0667 15.0006H24.1618C24.2855 15.047 24.4097 15.0927 24.5334 15.1397C25.3432 15.4483 26.1511 15.7604 26.9633 16.063C27.059 16.0987 27.1868 16.1231 27.276 16.0898C28.2344 15.7343 29.188 15.3656 30.1429 15.0006H30.238C30.5626 15.0767 30.7832 15.2848 30.9841 15.5416C31.4818 16.1766 31.9907 16.8026 32.5091 17.4204C32.6007 17.5292 32.7535 17.6249 32.892 17.6493C33.7309 17.7961 34.5733 17.9251 35.4158 18.0506C35.9259 18.1267 36.1631 18.3264 36.2428 18.8128C36.3801 19.6534 36.5092 20.4959 36.6364 21.3378C36.6667 21.5393 36.7375 21.6963 36.9099 21.8312C37.5698 22.3479 38.2155 22.883 38.8671 23.4109C39.2928 23.7557 39.3647 24.0203 39.1703 24.5286C38.86 25.3396 38.5454 26.1488 38.2464 26.9633C38.2054 27.0756 38.2042 27.229 38.2452 27.3414C38.5443 28.1565 38.8594 28.9657 39.1697 29.776C39.3647 30.2855 39.294 30.5483 38.8677 30.8938C38.2101 31.4265 37.5555 31.9627 36.8926 32.4889C36.7541 32.5989 36.6732 32.7202 36.6465 32.8956C36.5193 33.738 36.3801 34.5787 36.2541 35.4212C36.178 35.9289 35.9759 36.1643 35.4866 36.2434C34.6459 36.3801 33.8034 36.5092 32.961 36.6358C32.7576 36.6661 32.6036 36.7422 32.4699 36.9128C31.9485 37.5793 31.4098 38.2321 30.8771 38.8897C30.5448 39.2993 30.2879 39.3677 29.7974 39.1798C28.9793 38.8665 28.163 38.5484 27.3414 38.2452C27.229 38.2036 27.0756 38.2036 26.9633 38.2452C26.141 38.5478 25.3247 38.8659 24.5066 39.1786C24.028 39.3617 23.7522 39.2868 23.4258 38.8843C22.8877 38.2214 22.3461 37.5603 21.8146 36.8914C21.7046 36.7529 21.5839 36.6709 21.4085 36.6447C20.5661 36.5175 19.7254 36.3795 18.8829 36.2535C18.377 36.178 18.1439 35.9782 18.0631 35.4842C17.9251 34.6435 17.7955 33.8016 17.6701 32.9592C17.6397 32.7547 17.563 32.6007 17.3924 32.4681C16.7878 31.996 16.2004 31.502 15.5975 31.0275C15.3258 30.8135 15.0767 30.5935 15 30.2374V30.1423C15.0458 30.018 15.091 29.8937 15.1379 29.7701C15.4471 28.9609 15.7592 28.1523 16.0618 27.3408C16.0975 27.2451 16.1207 27.1173 16.0874 27.0275C15.7325 26.0709 15.3645 25.1172 15 24.1624V24.0673C15.0779 23.7123 15.3264 23.4924 15.5975 23.2783C16.2117 22.7944 16.811 22.292 17.4257 21.8086C17.5684 21.6963 17.6362 21.5667 17.6623 21.3966C17.7919 20.5476 17.9239 19.6992 18.0559 18.8514C18.132 18.3633 18.3437 18.1397 18.8276 18.0613C19.6671 17.9251 20.5084 17.7961 21.3497 17.6689C21.5441 17.6397 21.6945 17.5726 21.8235 17.4067C22.2997 16.7967 22.7991 16.2051 23.2789 15.5975C23.4924 15.327 23.7112 15.0773 24.0667 15V15.0006ZM23.3526 33.2434C23.6903 33.2463 23.9014 33.0513 24.0845 32.7939C26.5548 29.3325 29.0275 25.8723 31.499 22.4115C31.5584 22.3283 31.6185 22.2426 31.6601 22.1499C31.864 21.6969 31.5822 21.1541 31.0965 21.072C30.7041 21.006 30.4413 21.2022 30.2219 21.5102C27.7534 24.9728 25.2801 28.4324 22.8092 31.8932C22.7587 31.9639 22.7094 32.0359 22.6701 32.1131C22.402 32.6328 22.7682 33.2374 23.3532 33.2428L23.3526 33.2434ZM31.7231 30.9556C31.7249 29.694 30.6964 28.6607 29.4354 28.6583C28.1749 28.6559 27.1404 29.6868 27.1387 30.9467C27.1369 32.2089 28.1654 33.241 29.4264 33.2428C30.6892 33.2446 31.7214 32.2172 31.7231 30.9556ZM24.8699 25.6482C26.1327 25.6499 27.1642 24.622 27.166 23.361C27.1678 22.0994 26.1381 21.0661 24.8782 21.0637C23.6184 21.0613 22.5839 22.0928 22.5815 23.3526C22.5792 24.6137 23.6089 25.6464 24.8699 25.6482Z" fill="#E2136E"/>
<path id="Vector_2" d="M23.3526 33.2441C22.7676 33.2387 22.4013 32.6341 22.6695 32.1145C22.7093 32.0378 22.7587 31.9652 22.8086 31.8945C25.2801 28.4337 27.7528 24.9741 30.2213 21.5115C30.4413 21.2035 30.7035 21.0073 31.0958 21.0733C31.5816 21.1548 31.8634 21.6982 31.6595 22.1512C31.6179 22.244 31.5578 22.3296 31.4984 22.4128C29.0269 25.8736 26.5542 29.3332 24.0839 32.7952C23.9008 33.0521 23.6897 33.2477 23.352 33.2447L23.3526 33.2441Z" fill="white"/>
<path id="Vector_3" d="M31.7231 30.9555C31.7214 32.2171 30.6892 33.2451 29.4265 33.2427C28.1654 33.2409 27.1369 32.2082 27.1387 30.9466C27.1405 29.6868 28.175 28.6558 29.4354 28.6582C30.6964 28.6606 31.7249 29.6933 31.7231 30.9555ZM29.4276 30.2094C29.0352 30.2117 28.6815 30.5714 28.6892 30.9603C28.697 31.3491 29.0335 31.685 29.4217 31.6921C29.8135 31.6993 30.169 31.3497 30.172 30.9543C30.175 30.5631 29.8188 30.207 29.4276 30.2094Z" fill="white"/>
<path id="Vector_4" d="M24.8704 25.6489C23.6094 25.6471 22.5797 24.6144 22.582 23.3534C22.5844 22.0936 23.6189 21.0621 24.8787 21.0645C26.1391 21.0668 27.1683 22.1001 27.1665 23.3617C27.1647 24.6234 26.1332 25.6507 24.8704 25.6489ZM25.616 23.3623C25.6201 22.9699 25.2676 22.6156 24.8734 22.6162C24.4887 22.6168 24.1469 22.9515 24.1332 23.3409C24.1195 23.728 24.4685 24.0907 24.8645 24.099C25.2557 24.1073 25.6118 23.7583 25.616 23.3617V23.3623Z" fill="white"/>
<path id="Vector_5" d="M29.428 30.209C29.8192 30.2066 30.1753 30.5627 30.1724 30.954C30.1694 31.3493 29.8138 31.6989 29.422 31.6918C29.0332 31.6846 28.6973 31.3487 28.6896 30.9599C28.6818 30.5711 29.0356 30.2114 29.428 30.209Z" fill="#E2136E"/>
<path id="Vector_6" d="M25.616 23.3608C25.6118 23.7573 25.2551 24.1063 24.8645 24.098C24.4691 24.0891 24.1195 23.727 24.1332 23.34C24.1475 22.95 24.4887 22.6158 24.8734 22.6152C25.2676 22.6146 25.6201 22.969 25.616 23.3614V23.3608Z" fill="#E2136E"/>
</g>
</g>
</svg>
