<svg width="85" height="85" viewBox="0 0 85 85" fill="none" xmlns="http://www.w3.org/2000/svg">
<path d="M34.9007 3.04013C30.8675 3.04013 26.9964 3.04013 23.105 3.04013C21.9903 3.04013 21.4025 2.45237 21.4228 1.45926C21.4431 0.648561 21.97 0.101338 22.7807 0.0202675C23.0239 0 23.2874 0.0202675 23.5306 0.0202675C30.7459 0.0202675 37.9408 0.0202675 45.1561 0.0202675C49.0272 0.0202675 51.5809 2.55371 51.5809 6.40454C51.5809 18.2611 51.5809 30.1176 51.5809 41.9538C51.5809 42.197 51.5809 42.4605 51.5809 42.7037C51.4796 43.4739 50.8715 44.0008 50.0811 44.0008C49.2907 44.0008 48.6624 43.4739 48.5813 42.7037C48.5408 42.3997 48.5813 42.0754 48.5813 41.7511C48.5813 30.0973 48.5813 18.4232 48.5813 6.76936C48.5813 4.19538 47.4463 3.04013 44.8926 3.04013C42.6835 3.04013 40.4743 3.04013 38.2449 3.04013C38.1841 3.04013 38.1233 3.0604 37.9408 3.1212C37.9408 4.01297 37.9408 4.96555 37.9408 5.89786C37.9408 8.69478 36.0357 10.6202 33.259 10.6202C28.2935 10.6202 23.3279 10.6202 18.3624 10.6202C15.5857 10.6202 13.6806 8.69478 13.6603 5.91812C13.6603 5.00608 13.6603 4.09404 13.6603 3.04013C12.6469 3.04013 11.6741 3.04013 10.7215 3.04013C9.3028 3.04013 7.88408 3.04013 6.44508 3.04013C4.27645 3.04013 3.04013 4.29672 3.04013 6.46535C3.04013 16.7613 3.04013 27.0774 3.04013 37.3734C3.04013 50.9729 3.04013 64.5521 3.04013 78.1516C3.04013 80.8472 4.15485 81.9417 6.83016 81.9417C15.0183 81.9417 23.2063 81.9417 31.3944 81.9417C32.5497 81.9417 33.0766 82.3065 33.2388 83.1577C33.4212 84.2116 32.7726 84.9615 31.6174 84.9615C29.0839 84.9615 26.5505 84.9615 24.0373 84.9615C18.1192 84.9615 12.2213 84.9615 6.30321 84.9615C2.57398 84.9615 0 82.3876 0 78.6381C0 54.5197 0 30.4013 0 6.28294C0 2.61451 2.57398 0 6.2424 0C9.07986 0 11.9376 0 14.775 0C16.214 0 16.6802 0.486421 16.6802 1.94568C16.6802 3.182 16.6802 4.41832 16.6802 5.63438C16.6802 6.9923 17.2477 7.55979 18.5651 7.58006C23.3685 7.58006 28.1719 7.58006 32.9753 7.58006C34.313 7.58006 34.8804 7.01257 34.9007 5.67491C34.9007 4.82368 34.9007 3.97244 34.9007 3.01986V3.04013Z" fill="#16020B"/>
<path d="M60.7827 48.5664C66.7617 48.5664 72.7203 48.5664 78.6992 48.5664C82.3677 48.5664 84.9822 51.1404 84.9822 54.8088C84.9822 62.7942 84.9822 70.7999 84.9822 78.7853C84.9822 82.3321 82.3677 84.9669 78.8411 84.9669C66.7617 84.9669 54.7025 84.9669 42.623 84.9669C39.0762 84.9669 36.4414 82.3524 36.4414 78.8258C36.4414 70.7999 36.4414 62.774 36.4414 54.748C36.4414 51.2012 39.0559 48.5664 42.5825 48.5664C48.6425 48.5664 54.7227 48.5664 60.7827 48.5664ZM39.4815 57.6665H40.7381C52.2096 57.6665 63.681 57.6665 75.1727 57.6665C75.497 57.6665 75.801 57.6463 76.1253 57.6665C76.9157 57.7881 77.3413 58.2948 77.3818 59.0853C77.4426 59.8757 76.9157 60.5243 76.1658 60.6459C75.8618 60.6864 75.5375 60.6661 75.2132 60.6661C63.681 60.6661 52.1285 60.6661 40.5963 60.6661H39.4613V61.8417C39.4613 67.2734 39.4613 72.7051 39.4613 78.157C39.4613 80.7918 40.576 81.9268 43.1905 81.9268C54.8646 81.9268 66.5184 81.9268 78.1926 81.9268C80.8273 81.9268 81.9623 80.8121 81.9623 78.1976C81.9623 70.577 81.9623 62.9564 81.9623 55.3358C81.9623 52.6605 80.8476 51.566 78.1317 51.566C67.2481 51.566 56.3847 51.566 45.501 51.566C44.5282 51.566 43.535 51.5457 42.5622 51.566C40.9408 51.6065 39.6639 52.6807 39.5018 54.2413C39.3802 55.3358 39.4815 56.4302 39.4815 57.626V57.6665Z" fill="#16020B"/>
<path d="M25.8218 16.6953C34.1315 16.6953 40.9819 23.4647 40.9617 31.6933C40.9617 40.3678 34.3747 46.9953 25.761 46.9953C17.1676 46.9953 10.6009 40.3475 10.6211 31.6528C10.6211 23.4444 17.4716 16.6953 25.8218 16.6953ZM25.761 19.8165C19.1943 19.8976 13.7829 24.4375 13.6815 32.0581C13.6005 38.5843 19.2956 44.0565 25.8623 43.9957C32.4088 43.9552 38.0431 38.4627 37.9013 31.9973C37.7391 24.2146 32.1655 19.8368 25.761 19.8165Z" fill="#EB148C"/>
<path d="M71.3198 77.3759C70.6915 77.3759 70.0632 77.3962 69.4349 77.3759C67.1244 77.2543 65.2598 75.2073 65.2598 72.8157C65.2598 70.4241 67.1649 68.3771 69.4754 68.296C70.7117 68.2555 71.9481 68.2555 73.1641 68.296C75.5354 68.3974 77.3595 70.3633 77.3595 72.8157C77.3595 75.2681 75.5759 77.234 73.2046 77.3759C72.5763 77.4164 71.9481 77.3759 71.3198 77.3759ZM71.34 71.3362C70.8131 71.3362 70.2658 71.2956 69.7389 71.3362C68.9079 71.4172 68.2999 72.0861 68.2999 72.836C68.2999 73.5859 68.9079 74.275 69.7389 74.3358C70.8131 74.3966 71.8873 74.3966 72.9614 74.3358C73.8127 74.275 74.3802 73.5859 74.3194 72.7954C74.2585 71.9644 73.7924 71.4375 72.9614 71.3564C72.4345 71.2956 71.8872 71.3564 71.3603 71.3564L71.34 71.3362Z" fill="#16020B"/>
<path d="M27.3031 28.882C27.3031 29.8548 27.3031 30.8277 27.3031 31.8005C27.2828 32.7531 26.6748 33.3611 25.783 33.3611C24.9115 33.3611 24.2832 32.7531 24.2832 31.7802C24.2832 29.794 24.2832 27.8078 24.2832 25.8419C24.2832 24.8893 24.9115 24.2812 25.8033 24.2812C26.695 24.2812 27.2828 24.8893 27.3031 25.8621C27.3233 26.8755 27.3031 27.8686 27.3031 28.882Z" fill="#EB148C"/>
<path d="M25.7835 36.4226C26.6752 36.4226 27.3238 37.0712 27.3035 37.9629C27.2833 38.8142 26.655 39.4222 25.8037 39.4425C24.912 39.4425 24.2634 38.7939 24.2837 37.8819C24.3039 37.0306 24.9322 36.4226 25.7835 36.4023V36.4226Z" fill="#EB148C"/>
</svg>
