<svg width="54" height="55" viewBox="0 0 54 55" fill="none" xmlns="http://www.w3.org/2000/svg">
<g id="Group 1171276470">
<g id="Group 1171275872">
<ellipse id="Ellipse 1098" cx="27" cy="27.2547" rx="27" ry="27.2547" fill="#FEEAEE"/>
</g>
<g id="Group 1171276469" filter="url(#filter0_d_5940_58371)">
<g id="Group">
<g id="Group_2">
<g id="Group_3">
<path id="Vector" d="M36.8903 16.8027V38.303C36.8903 39.6871 35.7653 40.8033 34.3898 40.8033H33.2857C31.9067 40.7997 30.7888 39.6835 30.7888 38.303V33.8001H18.1016V16.8027H36.8903Z" fill="#F6F1EC"/>
<path id="Vector_2" d="M30.7889 38.303V33.8013L12 33.8008V38.303C12 39.6835 13.1198 40.8029 14.5004 40.8029H33.2849C31.9067 40.801 30.7889 39.6827 30.7889 38.303Z" fill="#D7C3B7"/>
<path id="Vector_3" d="M33.0962 19.4434H21.8965V20.6393H33.0962V19.4434Z" fill="#D7C3B7"/>
<path id="Vector_4" d="M33.0962 22.9609H21.8965V24.1568H33.0962V22.9609Z" fill="#D7C3B7"/>
<path id="Vector_5" d="M33.0962 26.4766H21.8965V27.6724H33.0962V26.4766Z" fill="#D7C3B7"/>
<path id="Vector_6" d="M33.0962 29.9941H21.8965V31.19H33.0962V29.9941Z" fill="#D7C3B7"/>
<path id="Vector_7" d="M36.8903 13H18.1016V15.0727H36.8903V13Z" fill="#2A2B2A"/>
<path id="Vector_8" d="M36.8903 15.0723H18.1016V16.8016H36.8903V15.0723Z" fill="#ED3024"/>
</g>
</g>
</g>
<g id="a">
<g id="Group 1171276468">
<path id="Vector_9" d="M36.7989 41.4672C36.4259 41.3669 36.0402 41.2984 35.6816 41.1596C33.8982 40.4712 32.8091 38.6434 33.0278 36.7404C33.2434 34.8644 34.7145 33.3357 36.579 33.0498C38.828 32.705 40.9652 34.1875 41.3887 36.3872C41.8266 38.6596 40.4378 40.8256 38.2009 41.3567C38.0201 41.3999 37.8363 41.4305 37.6537 41.4672H36.7989ZM33.6801 37.2203C33.6735 39.175 35.2581 40.7806 37.2062 40.792C39.1752 40.8034 40.7898 39.2188 40.8013 37.263C40.8127 35.2831 39.2239 33.6775 37.2488 33.6727C35.278 33.6679 33.6873 35.2495 33.6801 37.2197V37.2203Z" fill="#ED3024"/>
<path id="Vector_10" d="M36.8342 36.0444C36.5597 36.3285 36.29 36.618 36.0089 36.8955C35.8527 37.0493 35.6665 37.0433 35.5283 36.9051C35.3962 36.7736 35.3998 36.5808 35.5373 36.421C35.5518 36.4042 35.5686 36.3885 35.5842 36.3723C36.0401 35.9164 36.4942 35.4593 36.952 35.0058C37.155 34.8045 37.316 34.7991 37.5154 34.9962C37.9851 35.4587 38.4513 35.9254 38.915 36.3946C39.0862 36.5675 39.0928 36.7694 38.9468 36.9093C38.7973 37.0529 38.6117 37.0403 38.4314 36.8619C38.1611 36.5934 37.8968 36.3189 37.5731 36.0654V36.2936C37.5731 37.2229 37.5731 38.1522 37.5731 39.0814C37.5731 39.1565 37.5767 39.2322 37.5677 39.3061C37.546 39.4893 37.4319 39.5902 37.2547 39.6004C37.0871 39.6094 36.9646 39.5235 36.9213 39.3571C36.8991 39.2718 36.8991 39.1793 36.8991 39.0904C36.8979 38.0867 36.8985 37.0835 36.8985 36.0798L36.8348 36.0438L36.8342 36.0444Z" fill="#ED3024"/>
</g>
</g>
</g>
</g>
<defs>
<filter id="filter0_d_5940_58371" x="8" y="13" width="37.4688" height="36.4668" filterUnits="userSpaceOnUse" color-interpolation-filters="sRGB">
<feFlood flood-opacity="0" result="BackgroundImageFix"/>
<feColorMatrix in="SourceAlpha" type="matrix" values="0 0 0 0 0 0 0 0 0 0 0 0 0 0 0 0 0 0 127 0" result="hardAlpha"/>
<feOffset dy="4"/>
<feGaussianBlur stdDeviation="2"/>
<feComposite in2="hardAlpha" operator="out"/>
<feColorMatrix type="matrix" values="0 0 0 0 0 0 0 0 0 0 0 0 0 0 0 0 0 0 0.25 0"/>
<feBlend mode="normal" in2="BackgroundImageFix" result="effect1_dropShadow_5940_58371"/>
<feBlend mode="normal" in="SourceGraphic" in2="effect1_dropShadow_5940_58371" result="shape"/>
</filter>
</defs>
</svg>
