<svg width="24" height="24" viewBox="0 0 24 24" fill="none" xmlns="http://www.w3.org/2000/svg">
<g clip-path="url(#clip0_9110_3441)">
<path d="M2.2036 2.17323C2.19685 2.26434 2.1901 2.32846 2.1901 2.39258C2.1901 4.13723 2.1766 5.87851 2.1901 7.62317C2.21372 10.2283 3.95163 12.3712 6.47919 12.955C9.52306 13.6569 12.6175 11.5174 13.036 8.41957C13.0731 8.14286 13.0934 7.86277 13.0934 7.58605C13.1001 5.85827 13.0934 4.13386 13.0934 2.40607C13.0934 2.34196 13.0866 2.27784 13.0832 2.17998C12.8335 2.17998 12.5906 2.17998 12.3442 2.17998C11.8853 2.17998 11.4229 2.18335 10.964 2.17998C10.3161 2.17323 9.83352 1.70079 9.84027 1.08661C9.84364 0.465692 10.3228 0.0101237 10.9775 0.0101237C12.0236 0.0101237 13.0664 0.0101237 14.1125 0.0101237C14.8211 0.0101237 15.2666 0.448819 15.27 1.16423C15.2767 2.73341 15.2767 4.30596 15.27 5.87514C15.2666 6.76265 15.3206 7.66029 15.1991 8.53431C14.7807 11.5984 13.0664 13.6704 10.2047 14.8076C9.97525 14.8988 9.73566 14.9595 9.49944 15.0236C9.25984 15.0844 9.02025 15.1316 8.77053 15.189C8.76715 15.1957 8.74691 15.2058 8.74691 15.2193C8.59505 17.1462 8.93588 18.9213 10.4173 20.2981C12.0034 21.7694 13.8695 22.2216 15.9213 21.5264C18 20.8245 19.2013 19.3093 19.5861 17.153C19.6367 16.8729 19.64 16.5793 19.6434 16.2925C19.6502 15.2396 19.6434 14.1867 19.6502 13.1339C19.6502 12.9483 19.5928 12.8639 19.4241 12.793C18.108 12.2126 17.342 10.8864 17.4769 9.44882C17.6052 8.10911 18.6648 6.92801 20.0079 6.6243C21.6378 6.25984 23.2677 7.17098 23.8178 8.75703C24.3577 10.3161 23.6288 12.0506 22.1204 12.7525C21.8841 12.8639 21.8031 12.982 21.8099 13.2418C21.8268 14.2778 21.82 15.3138 21.8166 16.3498C21.7964 20.072 19.2655 23.1395 15.6175 23.8684C11.4938 24.6918 7.37008 21.8774 6.67154 17.7267C6.54668 16.9775 6.56693 16.2047 6.53656 15.4421C6.52981 15.2531 6.48931 15.1822 6.29021 15.1451C3.01012 14.5242 0.550056 11.9696 0.0708661 8.67266C0.0168729 8.29471 0.00674916 7.90326 0.00337458 7.51856C0 5.42295 0 3.32396 0 1.22835C0 0.415073 0.415073 0 1.22835 0C2.24747 0 3.26659 0 4.28909 0C4.97413 0 5.44319 0.438695 5.44657 1.07312C5.44994 1.72103 4.9775 2.16648 4.28234 2.16985C3.68166 2.16985 3.08099 2.16985 2.48031 2.16985C2.39258 2.16985 2.30484 2.16985 2.2036 2.16985V2.17323Z" fill="black"/>
</g>
<defs>
<clipPath id="clip0_9110_3441">
<rect width="24" height="23.9966" fill="white"/>
</clipPath>
</defs>
</svg>
