<svg width="30" height="23" viewBox="0 0 30 23" fill="none" xmlns="http://www.w3.org/2000/svg">
<g clip-path="url(#clip0_9110_3455)">
<path d="M16.6864 23C15.6906 22.982 14.815 22.6026 13.9395 22.2304C8.63379 19.9782 4.96267 16.27 2.81862 11.1923C2.19141 9.70731 2.49862 8.33191 3.29607 7.00469C3.60456 6.49162 3.93993 5.9894 4.30986 5.51487C5.08683 4.51765 6.5819 4.43575 7.44592 5.36794C8.20242 6.1845 8.91667 7.04082 9.60149 7.91279C10.1916 8.66432 10.061 9.68804 9.34932 10.3601C9.06004 10.6335 8.76179 10.9008 8.4405 11.1393C8.21266 11.3091 8.20882 11.4609 8.31634 11.6933C8.82963 12.8134 9.53365 13.8094 10.4463 14.6766C11.3846 15.5678 12.3292 16.4482 13.5235 17.0516C14.7459 17.6707 14.7382 17.6839 15.6663 16.73C16.6237 15.7449 17.7092 15.6666 18.8177 16.5C19.5383 17.042 20.2641 17.5767 20.9809 18.1235C22.211 19.0617 22.1637 20.4925 20.8785 21.3573C19.8839 22.0269 18.842 22.611 17.6349 22.8748C17.3252 22.9422 17.0026 22.9591 16.6864 22.9988V23ZM4.33162 6.8445C4.19081 7.08056 4.06153 7.30096 3.92969 7.52136C3.18215 8.77392 3.14887 10.0217 3.75816 11.3609C6.06093 16.4217 9.9215 19.9481 15.3552 21.9606C16.9348 22.546 18.289 22.0016 19.61 21.22C18.2494 20.13 16.9168 19.0641 15.5536 17.9717C15.2029 18.6077 14.6819 18.3981 14.1673 18.2138C14.0355 18.1669 13.9062 18.1139 13.7808 18.0561C12.1743 17.3214 10.8751 16.2206 9.68341 14.9957C8.78867 14.0756 8.00145 13.0868 7.50992 11.9113C7.30896 11.432 7.16688 10.9779 7.79409 10.672C6.63694 9.39297 5.50156 8.13801 4.33034 6.8433L4.33162 6.8445ZM4.83595 6.18932C6.00461 7.49005 7.18992 8.80884 8.37266 10.1252C9.18548 9.52786 9.36596 8.88713 8.88339 8.28976C8.23314 7.48523 7.56625 6.69275 6.87375 5.92075C6.28238 5.26075 5.33644 5.37637 4.83595 6.19053V6.18932ZM20.3217 20.7647C21.2152 20.2155 21.2817 19.3544 20.5278 18.7727C19.7867 18.2018 19.0302 17.6466 18.2814 17.0841C17.4826 16.4843 16.7658 16.5891 16.1437 17.4346C17.5325 18.5414 18.9252 19.6507 20.3217 20.7635V20.7647Z" fill="#16020B"/>
<path d="M16.2871 11.6754C14.856 10.8841 13.8627 9.799 13.3033 8.37784C12.374 6.01485 13.087 3.53624 15.1824 1.79712C18.2749 -0.768209 23.2875 -0.56226 26.1317 2.24635C28.9568 5.03689 28.3539 9.31605 24.8274 11.4924C23.5525 12.2788 22.1445 12.6594 20.6264 12.7196C20.4203 12.728 20.195 12.781 20.0196 12.8786C18.3044 13.8409 16.4535 14.3853 14.4617 14.4888C14.2851 14.4985 14.0265 14.3853 13.9356 14.2516C13.7897 14.036 13.96 13.8553 14.1814 13.7265C15.057 13.2158 15.7584 12.5462 16.2871 11.6742V11.6754ZM15.9031 13.5145C15.9031 13.5145 15.9427 13.5266 15.9773 13.5241C16.0669 13.5169 16.1565 13.5085 16.2435 13.4916C17.4813 13.2399 18.6321 12.7943 19.7047 12.156C19.9172 12.0295 20.1963 11.9488 20.4471 11.9452C21.9781 11.9235 23.3784 11.5321 24.6226 10.6902C27.7689 8.56211 27.9327 4.59007 24.9784 2.28368C22.4939 0.344636 18.6577 0.255512 16.0938 2.09821C12.3075 4.82131 13.4556 9.304 16.7235 11.0239C17.3508 11.3539 17.3994 11.443 17.0167 12.0295C16.6787 12.5462 16.2743 13.0243 15.9031 13.5145Z" fill="#16020B"/>
<path d="M30 8.71496C29.9449 8.88357 29.9232 8.96547 29.8925 9.04496C29.3024 10.5625 28.3462 11.8343 27.015 12.858C26.8281 13.0013 26.6386 13.1254 26.3954 12.9748C26.1356 12.8135 26.1573 12.5196 26.4607 12.2871C27.3657 11.5922 28.1081 10.772 28.6419 9.79288C28.8454 9.41952 28.9747 9.00883 29.1923 8.6439C29.2691 8.51503 29.5149 8.39941 29.6723 8.41266C29.8016 8.42229 29.9142 8.63065 30 8.71737V8.71496Z" fill="#16020B"/>
<path d="M-1.71084e-06 9.54221C0.00895848 8.26678 0.448008 7.10817 1.06754 5.99773C1.19554 5.76769 1.39907 5.67977 1.63971 5.79539C1.91236 5.92667 1.89956 6.15309 1.7754 6.38554C1.35683 7.17441 0.977939 7.97773 0.885777 8.86776C0.847377 9.2375 0.848657 9.61327 0.851217 9.98542C0.852497 10.2516 0.762895 10.4503 0.460808 10.4636C0.179202 10.4768 0.0563195 10.2937 0.034559 10.0468C0.0204787 9.87944 0.0102385 9.71083 -0.00128174 9.54221H-1.71084e-06Z" fill="#16020B"/>
<path d="M25.4213 13.5239C25.2677 13.6323 25.1269 13.8069 24.958 13.8346C24.7212 13.8744 24.5176 13.6949 24.5599 13.4697C24.588 13.3252 24.7864 13.1216 24.9247 13.1096C25.0783 13.0964 25.2498 13.271 25.4124 13.3649L25.4201 13.5239H25.4213Z" fill="#16020B"/>
<path d="M2.72006 4.04906C2.82246 4.20081 3.01446 4.35738 3.00294 4.5007C2.9927 4.62957 2.7623 4.83792 2.6279 4.83792C2.49349 4.83792 2.26053 4.63077 2.25157 4.5019C2.24005 4.35738 2.43077 4.1996 2.53317 4.04785H2.72006V4.04906Z" fill="#16020B"/>
<path d="M20.5198 9.8843C18.8866 9.8843 17.3846 9.17523 16.4 7.93902L17.4043 7.22314C18.1482 8.15838 19.2854 8.69401 20.5198 8.69401C21.7541 8.69401 22.859 8.17198 23.6046 7.26055L24.6 7.99003C23.6154 9.19393 22.1278 9.8843 20.5216 9.8843H20.5198Z" fill="#16020B"/>
</g>
<defs>
<clipPath id="clip0_9110_3455">
<rect width="30" height="23" fill="white"/>
</clipPath>
</defs>
</svg>
