<svg width="27" height="27" viewBox="0 0 27 27" fill="none" xmlns="http://www.w3.org/2000/svg">
<path d="M12.9766 8.3921C12.8049 8.3921 12.6435 8.39465 12.4824 8.3901C12.4465 8.389 12.4025 8.37151 12.3776 8.34636C12.225 8.19346 12.0767 8.03637 11.9272 7.88037C11.9167 7.86943 11.9074 7.8574 11.8892 7.83645H12.9779C12.9779 7.80583 12.9779 7.78177 12.9779 7.7579C12.9779 7.43952 12.9609 7.12005 12.9822 6.80314C13.0067 6.44029 12.6048 6.23071 12.3132 6.38854C12.2535 6.25605 12.1926 6.12501 12.1365 5.99198C12.1284 5.97302 12.1377 5.94259 12.1472 5.92127C12.232 5.72882 12.3748 5.59925 12.5846 5.57282C12.7178 5.55606 12.8585 5.55606 12.9901 5.58011C13.2507 5.62768 13.3854 5.81958 13.4697 6.05394C13.5377 6.24238 13.5581 6.43811 13.5576 6.63711C13.5565 7.00779 13.5572 7.37829 13.5572 7.74897C13.5572 7.77558 13.5572 7.802 13.5572 7.83444C13.6575 7.83444 13.748 7.83335 13.8386 7.83517C13.8597 7.83554 13.8874 7.83882 13.9006 7.85194C14.0737 8.02543 14.2448 8.20111 14.4285 8.38864H13.5572V8.46937C13.5572 8.95814 13.5567 9.4471 13.5572 9.93587C13.5576 10.2395 13.742 10.4323 14.0451 10.4576C14.2401 10.4738 14.422 10.4374 14.5883 10.3377C14.9519 10.1198 15.2377 9.82817 15.4126 9.43726C15.4657 9.3188 15.4944 9.19378 15.4994 9.05655C15.3995 9.05655 15.3033 9.06731 15.2102 9.05455C14.8732 9.00862 14.6959 8.83677 14.6359 8.50272C14.5936 8.26708 14.6126 8.04165 14.7593 7.83882C14.8876 7.66168 15.0722 7.60773 15.2754 7.59097C15.6195 7.56254 15.8888 7.69667 16.0999 7.96493C16.3605 8.29661 16.4472 8.67895 16.3809 9.08298C16.2415 9.93223 15.7592 10.528 14.9754 10.8784C14.7176 10.9938 14.45 11.0869 14.1646 11.0984C13.9042 11.1088 13.6445 11.092 13.412 10.9539C13.1304 10.7866 12.9781 10.5395 12.977 10.2087C12.975 9.63335 12.9764 9.05819 12.9764 8.48286C12.9764 8.45607 12.9764 8.4291 12.9764 8.3921H12.9766Z" fill="#16020B"/>
<path d="M0 14.0737C0.615379 13.2309 1.22231 12.3817 1.84755 11.5467C2.46293 10.725 3.09732 9.9181 3.72185 9.10346C3.88309 8.89294 4.07812 8.8007 4.35554 8.81971C4.74701 8.84576 5.14201 8.82605 5.56588 8.82605C5.56024 8.70565 5.55531 8.61341 5.55109 8.52117C5.46237 6.52577 5.84681 4.65639 7.07475 3.03275C8.31748 1.3908 10.0073 0.472658 12.0133 0.134693C14.115 -0.219468 16.1111 0.112866 17.9333 1.24294C19.9245 2.47863 21.0208 4.3135 21.3341 6.61378C21.4235 7.27 21.3904 7.94311 21.413 8.60848C21.4151 8.66833 21.413 8.72818 21.413 8.82605C21.8368 8.82605 22.2466 8.84224 22.655 8.82112C22.9796 8.80422 23.1894 8.92392 23.3809 9.18725C24.4906 10.713 25.6129 12.2311 26.7408 13.7435C26.9133 13.9744 26.9852 14.206 26.9845 14.494C26.9781 18.4278 26.9795 22.3616 26.9859 26.2954C26.9859 26.5432 26.9288 26.7396 26.7204 26.8812H0C0 22.6115 0 18.3426 0 14.0737ZM26.1424 26.0609V14.6222H0.835761V26.0609H26.1424ZM13.4926 13.8061C14.7395 13.8061 15.9872 13.8096 17.2341 13.8012C17.3651 13.8005 17.5151 13.7625 17.6228 13.6906C18.3318 13.2189 18.9423 12.6394 19.4154 11.9297C20.6659 10.0547 20.8884 8.02197 20.2878 5.88293C19.4352 2.84616 16.8722 0.817665 13.8467 0.722612C12.0583 0.666989 10.4326 1.08593 9.04904 2.25472C7.4606 3.59603 6.59033 5.32881 6.42065 7.38758C6.2059 9.98921 7.14657 12.0938 9.27575 13.6343C9.41869 13.7378 9.62569 13.797 9.80383 13.7991C11.0332 13.8132 12.2632 13.8061 13.4926 13.8061ZM18.8057 13.7956H22.4635V9.6604H21.2573C20.8624 11.277 20.059 12.6366 18.8057 13.7956ZM8.11259 13.7913C8.114 13.7681 8.11822 13.7561 8.1147 13.7526C6.95013 12.6444 6.13971 11.3263 5.74331 9.76109C5.73204 9.71602 5.67008 9.65054 5.63065 9.64984C5.25819 9.64139 4.88501 9.64491 4.51114 9.64491V13.792H8.11259V13.7913ZM1.2371 13.7836H3.67397V10.4884C2.84243 11.6129 2.05033 12.6831 1.2371 13.7836ZM23.307 13.7885H25.7502C24.9313 12.6831 24.1378 11.6115 23.307 10.4898V13.7885Z" fill="black"/>
<path d="M19.6858 22.4652C19.1668 22.4652 18.7641 22.3086 18.4778 21.9954C18.1914 21.6777 18.0482 21.2571 18.0482 20.7336C18.0482 20.2056 18.1869 19.7851 18.4643 19.4719C18.7462 19.1542 19.1377 18.9953 19.6388 18.9953C20.0192 18.9953 20.3256 19.0848 20.5583 19.2638C20.791 19.4383 20.9431 19.6732 21.0147 19.9685H21.055V17.9014H21.7798V22.3981H21.1154V21.4383H21.0684C20.9968 21.7694 20.8424 22.0244 20.6053 22.2034C20.3681 22.3779 20.0617 22.4652 19.6858 22.4652ZM18.7798 20.7336C18.7798 21.1184 18.8737 21.3936 19.0617 21.5591C19.2496 21.7202 19.5315 21.8007 19.9073 21.8007C20.2697 21.8007 20.5516 21.7135 20.7529 21.539C20.9543 21.3645 21.055 21.1072 21.055 20.7672V20.7135C21.055 20.0065 20.6679 19.6531 19.8939 19.6531C19.527 19.6531 19.2496 19.7358 19.0617 19.9014C18.8737 20.0669 18.7798 20.3443 18.7798 20.7336Z" fill="black"/>
<path d="M16.8725 22.3981H16.1477V17.9014H16.8725V22.3981Z" fill="black"/>
<path d="M14.4344 21.9889C14.0944 22.3066 13.6469 22.4654 13.0921 22.4654C12.5373 22.4654 12.0899 22.3066 11.7498 21.9889C11.4098 21.6668 11.2397 21.2484 11.2397 20.7339C11.2397 20.2149 11.4098 19.7965 11.7498 19.4788C12.0899 19.1567 12.5373 18.9956 13.0921 18.9956C13.6469 18.9956 14.0944 19.1567 14.4344 19.4788C14.7789 19.7965 14.9512 20.2149 14.9512 20.7339C14.9512 21.2484 14.7789 21.6668 14.4344 21.9889ZM13.0921 21.8211C13.4903 21.8211 13.7812 21.7316 13.9646 21.5527C14.1481 21.3692 14.2398 21.0963 14.2398 20.7339C14.2398 20.3715 14.1481 20.0985 13.9646 19.9151C13.7812 19.7272 13.4903 19.6332 13.0921 19.6332C12.3315 19.6332 11.9512 20.0001 11.9512 20.7339C11.9512 21.0963 12.0429 21.3692 12.2263 21.5527C12.4098 21.7316 12.6984 21.8211 13.0921 21.8211Z" fill="black"/>
<path d="M7.76313 22.4654C7.10093 22.4654 6.56849 22.2551 6.1658 21.8345C5.76311 21.4094 5.56177 20.8479 5.56177 20.1499C5.56177 19.4475 5.77877 18.8859 6.21278 18.4654C6.64679 18.0448 7.22397 17.8345 7.94434 17.8345C8.58864 17.8345 9.1099 17.9866 9.50811 18.2909C9.90633 18.5951 10.1054 19.0045 10.1054 19.5191V19.5727H9.30677V19.5191C9.30677 18.8569 8.84591 18.5258 7.92421 18.5258C7.38281 18.5258 6.98012 18.6577 6.71614 18.9217C6.45663 19.1812 6.32688 19.5906 6.32688 20.1499C6.32688 20.7047 6.45439 21.1141 6.70943 21.3781C6.96446 21.6376 7.3582 21.7674 7.89065 21.7674C8.42757 21.7674 8.81012 21.6869 9.03831 21.5258C9.27097 21.3647 9.38731 21.094 9.38731 20.7137V20.6533H7.72286V20.1029H10.1054V22.3983H9.44771V21.4251H9.40073C9.30677 21.7562 9.11885 22.0135 8.83697 22.1969C8.55508 22.3759 8.19714 22.4654 7.76313 22.4654Z" fill="black"/>
</svg>
