<svg width="320" height="63" viewBox="0 0 320 63" fill="none" xmlns="http://www.w3.org/2000/svg">
<path d="M119.908 37.9161C119.908 39.3082 119.56 40.8117 118.878 42.4405C118.196 44.0554 117.11 45.6563 115.648 47.2155C114.173 48.7747 112.293 50.0416 110.01 51.0161C107.727 51.9906 105.054 52.4778 102.019 52.4778C99.7084 52.4778 97.6202 52.2551 95.7269 51.8235C93.8336 51.3919 92.1212 50.7098 90.5899 49.7771C89.0446 48.8583 87.6386 47.6332 86.3439 46.1297C85.1884 44.7515 84.2 43.2201 83.3925 41.5217C82.5712 39.8233 81.9726 38.0135 81.5549 36.0784C81.1512 34.1434 80.9424 32.0969 80.9424 29.9391C80.9424 26.417 81.4575 23.2708 82.4737 20.4865C83.5039 17.7022 84.9657 15.3217 86.8729 13.3449C88.7801 11.368 91.0215 9.86452 93.583 8.82042C96.1445 7.79024 98.887 7.27515 101.783 7.27515C105.319 7.27515 108.465 7.98514 111.235 9.39119C113.992 10.7973 116.122 12.5513 117.583 14.6256C119.059 16.6999 119.797 18.6628 119.797 20.5144C119.797 21.5306 119.435 22.4216 118.725 23.2012C118.015 23.9808 117.138 24.3706 116.136 24.3706C115.008 24.3706 114.159 24.1061 113.588 23.5631C113.017 23.0202 112.391 22.1014 111.695 20.7928C110.539 18.6211 109.189 17.0062 107.63 15.9342C106.07 14.8623 104.149 14.3194 101.866 14.3194C98.2327 14.3194 95.3371 15.6976 93.1793 18.4679C91.0215 21.2383 89.9495 25.1641 89.9495 30.2454C89.9495 33.6422 90.4228 36.4682 91.3834 38.7235C92.344 40.9788 93.6944 42.6633 95.4345 43.777C97.1886 44.8907 99.2351 45.4475 101.574 45.4475C104.121 45.4475 106.265 44.8211 108.033 43.5542C109.787 42.2874 111.124 40.4358 112.015 37.9996C112.391 36.8441 112.864 35.9114 113.421 35.1875C113.978 34.4636 114.869 34.1016 116.108 34.1016C117.166 34.1016 118.071 34.4636 118.822 35.2014C119.574 35.9392 119.95 36.858 119.95 37.9439L119.908 37.9161Z" fill="#E2136E"/>
<path d="M127.301 47.5081V12.2036C127.301 10.5748 127.663 9.33576 128.387 8.50048C129.111 7.6652 130.085 7.24756 131.324 7.24756C132.563 7.24756 133.551 7.6652 134.303 8.48656C135.055 9.30792 135.431 10.5469 135.431 12.2036V47.5081C135.431 49.1648 135.041 50.3899 134.289 51.2251C133.524 52.0465 132.535 52.4641 131.324 52.4641C130.113 52.4641 129.166 52.0326 128.414 51.1834C127.663 50.3342 127.301 49.1091 127.301 47.5221V47.5081Z" fill="#E2136E"/>
<path d="M147.96 15.5724C146.832 15.5724 145.858 15.2244 145.05 14.5283C144.243 13.8322 143.839 12.8438 143.839 11.577C143.839 10.4215 144.257 9.47484 145.078 8.72308C145.899 7.97133 146.86 7.60938 147.96 7.60938C149.06 7.60938 149.951 7.94349 150.758 8.62563C151.579 9.30778 151.983 10.2823 151.983 11.577C151.983 12.8716 151.579 13.8044 150.786 14.5144C149.992 15.2244 149.046 15.5724 147.96 15.5724ZM151.983 23.9809V47.508C151.983 49.1368 151.593 50.3758 150.814 51.2111C150.034 52.0464 149.06 52.464 147.862 52.464C146.665 52.464 145.705 52.0324 144.953 51.1832C144.201 50.334 143.839 49.109 143.839 47.5219V24.2176C143.839 22.6027 144.215 21.3915 144.953 20.5841C145.705 19.7627 146.665 19.359 147.862 19.359C149.06 19.359 150.034 19.7627 150.814 20.5841C151.593 21.4054 151.983 22.5331 151.983 23.9809Z" fill="#E2136E"/>
<path d="M167.798 23.8694V24.8578C169.232 22.9645 170.791 21.5863 172.489 20.6953C174.188 19.8044 176.137 19.3728 178.35 19.3728C180.564 19.3728 182.415 19.8461 184.1 20.7789C185.784 21.7116 187.051 23.0341 187.886 24.7465C188.429 25.7349 188.777 26.8207 188.93 27.9623C189.084 29.1178 189.167 30.5795 189.167 32.3754V47.5218C189.167 49.1506 188.791 50.3896 188.053 51.2249C187.302 52.0602 186.341 52.4778 185.144 52.4778C183.947 52.4778 182.944 52.0462 182.193 51.197C181.441 50.3478 181.065 49.1228 181.065 47.5357V33.9624C181.065 31.2756 180.689 29.2291 179.951 27.8092C179.199 26.3892 177.724 25.6792 175.496 25.6792C174.049 25.6792 172.726 26.1107 171.529 26.9739C170.332 27.837 169.454 29.0203 168.898 30.5377C168.494 31.7489 168.299 34.0181 168.299 37.3314V47.5357C168.299 49.1924 167.923 50.4174 167.157 51.2527C166.392 52.0741 165.403 52.4917 164.192 52.4917C162.981 52.4917 162.062 52.0602 161.297 51.211C160.545 50.3618 160.169 49.1367 160.169 47.5496V23.9808C160.169 22.4355 160.503 21.2661 161.185 20.5004C161.867 19.7348 162.786 19.3589 163.956 19.3589C164.666 19.3589 165.32 19.5259 165.891 19.8601C166.461 20.1942 166.935 20.7093 167.283 21.3775C167.631 22.0596 167.798 22.881 167.798 23.8555V23.8694Z" fill="#E2136E"/>
<path d="M201.404 15.5724C200.276 15.5724 199.302 15.2244 198.494 14.5283C197.687 13.8322 197.283 12.8438 197.283 11.577C197.283 10.4215 197.701 9.47484 198.522 8.72308C199.344 7.97133 200.304 7.60938 201.404 7.60938C202.504 7.60938 203.395 7.94349 204.202 8.62563C205.023 9.30778 205.427 10.2823 205.427 11.577C205.427 12.8716 205.023 13.8044 204.23 14.5144C203.436 15.2244 202.49 15.5724 201.404 15.5724ZM205.427 23.9809V47.508C205.427 49.1368 205.037 50.3758 204.258 51.2111C203.478 52.0464 202.504 52.464 201.306 52.464C200.109 52.464 199.149 52.0324 198.397 51.1832C197.645 50.334 197.283 49.109 197.283 47.5219V24.2176C197.283 22.6027 197.659 21.3915 198.397 20.5841C199.149 19.7627 200.109 19.359 201.306 19.359C202.504 19.359 203.478 19.7627 204.258 20.5841C205.037 21.4054 205.427 22.5331 205.427 23.9809Z" fill="#E2136E"/>
<path d="M251.646 37.9161C251.646 39.3082 251.298 40.8117 250.616 42.4405C249.934 44.0554 248.848 45.6563 247.386 47.2155C245.911 48.7747 244.031 50.0416 241.748 51.0161C239.465 51.9906 236.792 52.4778 233.757 52.4778C231.446 52.4778 229.358 52.2551 227.465 51.8235C225.572 51.3919 223.859 50.7098 222.328 49.7771C220.783 48.8583 219.377 47.6332 218.082 46.1297C216.926 44.7515 215.938 43.2201 215.131 41.5217C214.309 39.8233 213.711 38.0135 213.293 36.0784C212.889 34.1434 212.68 32.0969 212.68 29.9391C212.68 26.417 213.195 23.2708 214.212 20.4865C215.242 17.7022 216.704 15.3217 218.611 13.3449C220.518 11.368 222.759 9.86452 225.321 8.82042C227.883 7.79024 230.625 7.27515 233.521 7.27515C237.057 7.27515 240.203 7.98514 242.973 9.39119C245.73 10.7973 247.86 12.5513 249.321 14.6256C250.797 16.6999 251.521 18.6628 251.521 20.5144C251.521 21.5306 251.159 22.4216 250.449 23.2012C249.739 23.9808 248.862 24.3706 247.86 24.3706C246.732 24.3706 245.883 24.1061 245.312 23.5631C244.741 23.0202 244.115 22.1014 243.419 20.7928C242.263 18.6211 240.913 17.0062 239.354 15.9342C237.795 14.8623 235.873 14.3194 233.59 14.3194C229.957 14.3194 227.061 15.6976 224.903 18.4679C222.746 21.2383 221.674 25.1641 221.674 30.2454C221.674 33.6422 222.147 36.4682 223.108 38.7235C224.068 40.9788 225.418 42.6633 227.159 43.777C228.913 44.8907 230.959 45.4475 233.298 45.4475C235.846 45.4475 237.989 44.8211 239.757 43.5542C241.512 42.2874 242.848 40.4358 243.739 37.9996C244.115 36.8441 244.588 35.9114 245.145 35.1875C245.702 34.4636 246.593 34.1016 247.832 34.1016C248.89 34.1016 249.795 34.4636 250.547 35.2014C251.298 35.9392 251.674 36.858 251.674 37.9439L251.646 37.9161Z" fill="#E2136E"/>
<path d="M279.614 47.8699C277.651 49.4012 275.744 50.5428 273.907 51.3084C272.069 52.0741 270.009 52.45 267.725 52.45C265.637 52.45 263.8 52.0323 262.226 51.211C260.639 50.3896 259.428 49.262 258.579 47.8559C257.73 46.4499 257.298 44.9185 257.298 43.2619C257.298 41.0345 258.008 39.1412 259.414 37.568C260.82 35.9949 262.769 34.9369 265.234 34.4079C265.749 34.2826 267.029 34.0181 269.076 33.6005C271.122 33.1828 272.876 32.8069 274.338 32.4589C275.8 32.1109 277.387 31.6932 279.099 31.1921C279.002 29.0482 278.57 27.4751 277.805 26.4727C277.039 25.4704 275.452 24.9692 273.043 24.9692C270.969 24.9692 269.424 25.2616 268.38 25.8323C267.336 26.4031 266.445 27.2802 265.693 28.4217C264.941 29.5772 264.426 30.3289 264.106 30.7048C263.8 31.0668 263.131 31.2617 262.129 31.2617C261.21 31.2617 260.431 30.9693 259.762 30.3846C259.094 29.7999 258.76 29.0482 258.76 28.1294C258.76 26.6955 259.261 25.3033 260.278 23.953C261.294 22.6026 262.867 21.4889 265.025 20.6118C267.169 19.7348 269.841 19.3032 273.043 19.3032C276.621 19.3032 279.433 19.7209 281.48 20.5701C283.526 21.4193 284.974 22.7557 285.823 24.5794C286.672 26.4031 287.09 28.8394 287.09 31.8603C287.09 33.7675 287.09 35.3824 287.076 36.7188C287.076 38.0553 287.048 39.531 287.034 41.1598C287.034 42.6911 287.285 44.2921 287.8 45.9487C288.301 47.6053 288.566 48.6773 288.566 49.1506C288.566 49.9859 288.176 50.7516 287.382 51.4337C286.603 52.1159 285.712 52.4639 284.709 52.4639C283.874 52.4639 283.053 52.0741 282.231 51.2806C281.41 50.501 280.547 49.3594 279.642 47.8699H279.614ZM279.071 36.0924C277.874 36.5239 276.148 36.9973 273.865 37.4845C271.582 37.9718 270.009 38.3337 269.145 38.5565C268.268 38.7792 267.433 39.2386 266.64 39.8929C265.846 40.5472 265.442 41.4939 265.442 42.6772C265.442 43.8605 265.916 44.9603 266.848 45.8234C267.781 46.6865 269.006 47.1181 270.51 47.1181C272.125 47.1181 273.6 46.7701 274.965 46.0601C276.329 45.3501 277.331 44.4452 277.958 43.3315C278.695 42.0925 279.057 40.0739 279.057 37.2479V36.0785L279.071 36.0924Z" fill="#E2136E"/>
<path d="M295.331 47.5081V12.2036C295.331 10.5748 295.693 9.33576 296.417 8.50048C297.141 7.6652 298.116 7.24756 299.355 7.24756C300.594 7.24756 301.582 7.6652 302.334 8.48656C303.085 9.30792 303.461 10.5469 303.461 12.2036V47.5081C303.461 49.1648 303.086 50.3899 302.32 51.2251C301.554 52.0465 300.566 52.4641 299.355 52.4641C298.143 52.4641 297.197 52.0326 296.445 51.1834C295.693 50.3342 295.331 49.1091 295.331 47.5221V47.5081Z" fill="#E2136E"/>
<path d="M311.87 47.5081V12.2036C311.87 10.5748 312.232 9.33576 312.956 8.50048C313.68 7.6652 314.654 7.24756 315.893 7.24756C317.132 7.24756 318.121 7.6652 318.873 8.48656C319.624 9.30792 320 10.5469 320 12.2036V47.5081C320 49.1648 319.624 50.3899 318.859 51.2251C318.093 52.0465 317.105 52.4641 315.893 52.4641C314.682 52.4641 313.736 52.0326 312.984 51.1834C312.232 50.3342 311.87 49.1091 311.87 47.5221V47.5081Z" fill="#E2136E"/>
<path d="M72.0884 18.2733C71.6012 8.47269 63.6938 -0.269925 51.8746 0.231244C42.4359 0.634963 36.1295 9.96228 36.1295 9.96228C36.1295 9.96228 29.9902 0.565357 20.5515 0.0363448C8.73228 -0.631881 0.699655 8.01328 0.0453506 17.8C-0.608953 27.4893 5.94801 36.2737 11.2381 42.2459C13.1593 44.4037 15.331 46.5894 17.628 48.6915C19.1176 46.2135 21.0666 43.29 22.3474 41.2575C19.8137 38.334 18.2963 34.5613 18.2963 30.4545C18.2963 21.1133 26.1479 13.5401 35.8372 13.5401C45.5264 13.5401 53.3781 21.1133 53.3781 30.4545C53.3781 39.7958 45.5264 47.369 35.8372 47.369C27.3869 47.9815 22.1664 49.2066 19.2429 50.1393C25.1177 55.332 31.438 59.926 35.7119 62.5154C42.1436 58.7427 53.1832 50.5987 60.5058 42.5661C65.8934 36.6634 72.5757 27.9626 72.0884 18.2733Z" fill="#E2136E"/>
<path d="M36.1018 39.2806C31.8697 39.2806 27.9717 37.3456 25.4241 33.9488L28.0274 31.9858C29.9624 34.5474 32.8998 36.0091 36.1018 36.0091C39.3037 36.0091 42.1575 34.5752 44.0926 32.0833L46.6681 34.074C44.1205 37.3734 40.2642 39.2667 36.1018 39.2667V39.2806Z" fill="#E2136E"/>
</svg>
