<svg width="24" height="24" viewBox="0 0 24 24" fill="none" xmlns="http://www.w3.org/2000/svg">
<path fill-rule="evenodd" clip-rule="evenodd" d="M19.093 4.90703C17.586 3.40004 15.1427 3.40004 13.6357 4.90703L4.90709 13.6357C3.4001 15.1427 3.4001 17.586 4.90709 19.093C6.41408 20.6 8.85739 20.6 10.3644 19.093L19.093 10.3643C20.6 8.85733 20.6 6.41402 19.093 4.90703ZM12.5465 3.81784C14.6551 1.7093 18.0737 1.70931 20.1822 3.81784C22.2908 5.92637 22.2908 9.34498 20.1822 11.4535L11.4536 20.1822C9.34504 22.2907 5.92643 22.2907 3.81789 20.1822C1.70936 18.0736 1.70936 14.655 3.81789 12.5465L12.5465 3.81784Z" fill="#16020B"/>
<path fill-rule="evenodd" clip-rule="evenodd" d="M14.7283 15.8168L8.1818 9.27034L9.271 8.18115L15.8175 14.7276L14.7283 15.8168Z" fill="#16020B"/>
</svg>
