<svg width="113" height="113" viewBox="0 0 113 113" fill="none" xmlns="http://www.w3.org/2000/svg">
<g clip-path="url(#clip0_10377_12386)">
<path d="M96.882 56.5169C96.882 78.8182 78.8187 96.8815 56.5174 96.8815C34.2162 96.8815 16.1528 78.8182 16.1528 56.5169C16.1528 34.2157 34.2162 16.1523 56.5174 16.1523C78.8187 16.1523 96.882 34.2157 96.882 56.5169Z" fill="#EC2227"/>
<path d="M42.6227 98.3412L40.9206 102.093L40.1911 103.552L39.4617 103.17C39.288 102.788 39.0448 102.44 38.7322 102.162L39.9132 99.5917C39.7396 99.0706 39.4617 98.6191 39.0448 98.2717C38.8017 98.2022 38.5585 98.2717 38.3153 98.3412L36.3353 99.0359C35.6058 99.3138 34.7721 99.3138 34.0427 99.0359C33.3132 98.6538 32.7574 97.9938 32.549 97.1948L33.3132 96.8127C33.5216 97.0559 33.6953 97.3338 33.7995 97.6464C33.9037 97.8201 34.0427 97.959 34.2164 98.0285C34.5637 98.098 34.9458 98.098 35.2932 98.0285C35.849 98.0285 36.1616 97.8548 36.2311 97.7854C36.3701 97.4727 36.1616 97.0559 35.5711 96.5696C35.0153 96.0832 34.39 95.7011 33.73 95.3885C33.869 95.0759 34.0774 94.8327 34.3206 94.6243L33.209 94.0685L32.4795 93.7211L32.8963 92.7832L44.6722 98.098L44.2554 99.0359L42.588 98.3759L42.6227 98.3412ZM40.8859 97.5422L37.0995 95.8053C37.2385 96.3264 37.2385 96.8822 37.0995 97.4033C37.4816 97.438 37.8638 97.438 38.2459 97.4033C38.6627 97.4033 39.0796 97.4033 39.4617 97.4033C39.809 97.8548 40.1217 98.3411 40.3648 98.8622C40.4343 98.758 40.5038 98.6191 40.5733 98.4801C40.5733 98.3412 40.7122 98.0285 40.8859 97.5422Z" fill="#34A148"/>
<path d="M51.4108 100.113L50.2644 105.74L49.4308 105.566C47.5897 103.621 45.1581 102.37 42.5181 101.954L42.4138 100.356C43.2475 100.251 44.4286 100.182 45.957 100.147C47.4855 100.113 48.7707 100.043 49.5002 100.008V99.7652L42.0317 98.2715L42.2402 97.2988L53.6687 99.5567L53.4603 100.529L51.4455 100.113H51.4108ZM45.4707 105.254C45.1233 105.184 44.8107 105.08 44.4981 104.872C44.116 104.628 43.9423 104.35 44.0118 104.038C44.116 103.447 44.6718 103.239 45.6097 103.413C45.957 103.482 46.2697 103.621 46.5476 103.795C46.8602 103.934 47.0339 104.246 47.0339 104.594C46.9644 104.872 46.7213 105.115 46.4434 105.184C46.1307 105.288 45.8181 105.288 45.5055 105.254H45.4707ZM49.2223 101.294C47.9023 101.294 46.6518 101.363 45.4707 101.502C46.6518 102.127 47.7286 102.926 48.7013 103.795L49.1876 101.294H49.2223Z" fill="#34A148"/>
<path d="M60.6164 100.043V100.425C61.5196 100.39 62.388 100.495 63.2564 100.738C64.368 101.085 64.9586 101.641 64.9933 102.475C64.9933 102.892 64.7501 103.239 64.2291 103.552C63.8122 103.76 63.3606 103.899 62.9091 103.934C62.5964 103.934 62.3185 103.934 62.0059 103.795C61.5891 103.656 61.3806 103.204 61.5196 102.787C61.5543 102.648 61.6238 102.544 61.728 102.44C61.9364 102.266 62.1796 102.197 62.4575 102.162C62.8743 102.162 63.2912 102.301 63.6733 102.509C63.847 102.44 63.9164 102.37 63.8817 102.266C63.8817 101.641 62.9785 101.363 61.3112 101.467H60.6164L60.8248 105.566H59.9911C59.088 104.906 58.0459 104.42 56.969 104.142C55.7185 103.899 54.4332 103.76 53.1479 103.76L52.1753 102.44C54.3637 101.919 56.5522 101.328 58.6711 100.599C58.6711 100.46 58.6711 100.286 58.6711 100.147L51.3069 100.564L51.2026 99.5915L66.348 98.7578V99.7304L60.5469 100.008L60.6164 100.043ZM58.949 102.753C58.949 102.753 58.949 102.544 58.8796 101.919C57.7332 102.162 56.6216 102.509 55.5448 102.857C56.4479 103.135 57.5943 103.517 59.0532 104.073L58.9838 102.718L58.949 102.753Z" fill="#34A148"/>
<path d="M67.9805 98.7239L69.3006 104.212L68.6058 104.386C68.189 104.143 67.7374 103.969 67.2858 103.934L66.07 99.1755L64.2637 99.6618L64.0205 98.6891L65.931 98.2028L65.6532 97.0912L66.3479 96.8828L67.3553 97.8555L69.5785 97.2997L69.8216 98.2723L67.9805 98.7586V98.7239Z" fill="#34A148"/>
<path d="M77.0472 95.354L79.2704 100.669L78.4714 101.016C75.8661 100.46 73.1219 100.773 70.7251 101.954L69.7177 100.634C70.3429 100.078 71.2808 99.3141 72.4966 98.4457C73.7124 97.5772 74.7893 96.7783 75.3451 96.3267L75.2409 96.1183L68.1892 99.1057L67.8071 98.1678L78.5062 93.6172L78.8883 94.5203L77.0125 95.3888L77.0472 95.354ZM75.8661 97.5077C74.824 98.2372 73.8514 99.0014 72.8788 99.8004C74.1988 99.6614 75.5188 99.6614 76.8388 99.8004L75.8314 97.5077H75.8661ZM75.0672 102.927C74.7546 103.066 74.4072 103.17 74.0598 103.17C73.7124 103.239 73.3303 103.066 73.1566 102.753C72.9135 102.197 73.2609 101.711 74.1293 101.364C74.4419 101.225 74.7893 101.155 75.1367 101.155C75.484 101.155 75.7967 101.294 75.9356 101.607C76.0398 101.885 76.0051 102.197 75.7619 102.406C75.5883 102.614 75.3451 102.788 75.0672 102.892V102.927Z" fill="#34A148"/>
<path d="M8.89281 47.3468L13.8602 47.9721L13.6518 49.6394L12.3318 49.4658L11.0812 49.3268C10.3865 49.1531 9.69176 49.3268 9.1707 49.8479C8.75386 50.4384 8.54544 51.0984 8.5107 51.7931C8.40649 52.6268 8.5107 53.1132 8.64965 53.1132H8.71912V52.4532C8.71912 52.4532 8.71912 52.21 8.71912 52.071C8.7886 51.6889 8.92754 51.3068 9.1707 50.9942C9.4486 50.5773 9.76124 50.3689 10.0739 50.4037C10.3865 50.4384 10.8034 50.89 10.9423 51.7237C11.0465 52.4879 11.0465 53.2521 10.9423 54.0163L9.93492 54.6069C9.93492 54.3984 9.93492 54.19 10.0391 53.9816V53.6342C10.2128 52.1753 10.1086 51.411 9.69176 51.3416C9.27492 51.2721 9.27492 51.55 9.20544 52.0363C9.1707 52.5921 9.27492 53.1479 9.51808 53.6342C9.13597 54.19 8.71912 54.4679 8.30228 54.3984C7.88543 54.329 7.50332 54.0511 7.36437 53.6342C7.19069 53.2521 7.12121 52.8005 7.19069 52.3837C7.46858 51.0984 8.09385 49.8826 8.99702 48.91L7.81595 48.771L8.2328 45.332L9.13597 45.4362L8.92754 47.2426L8.89281 47.3468Z" fill="#29A74A"/>
<path d="M11.9842 37.2034L16.7085 38.836L16.3959 39.635C15.7359 39.8087 15.1106 40.0518 14.4853 40.3644C13.7558 40.7466 13.1653 41.4066 12.8527 42.1708H12.9569C13.3043 42.275 13.5127 42.5876 13.5474 42.935C13.5822 43.2824 13.5474 43.6297 13.4085 43.9424C13.2695 44.3245 13.0611 44.7066 12.7832 45.0192C12.4011 45.4361 12.0537 45.575 11.7063 45.4708C11.2895 45.2971 11.0116 44.8803 11.0116 44.4287C10.9421 43.9771 11.0116 43.5255 11.1506 43.1087C11.4632 42.3792 11.9495 41.7539 12.5053 41.2329C12.8874 40.8855 13.4779 40.3992 14.2422 39.7739L11.359 38.7665L8.96211 45.7487L8.12842 45.4708L11.7758 34.876L12.6095 35.1539L11.9495 37.2728L11.9842 37.2034ZM17.2643 28.0328L21.5022 30.6728L21.0854 31.3328L20.1475 31.8191L18.5496 30.777L17.8896 30.3601C17.6811 30.2212 17.438 30.1865 17.1601 30.2212L16.9169 33.8686L15.7706 34.8065C15.8748 33.9033 15.8748 33.417 15.7706 33.3475C15.6664 33.2781 15.3885 33.3475 15.2148 33.6254C15.0411 33.9033 15.0064 34.0075 14.8327 34.2854C14.659 34.5633 14.5548 34.8065 14.4506 34.9455C14.1032 35.5012 13.7211 35.6402 13.339 35.397C12.9569 35.1539 12.9569 34.7023 13.0958 33.9033C13.1653 33.3475 13.339 32.8265 13.6169 32.3402C14.3464 31.1938 15.3885 30.2907 16.639 29.7001C16.3264 29.4917 15.979 29.2833 15.6316 29.0401L17.4727 26.0527L18.2022 26.5043L17.2643 28.0328ZM15.9443 32.0623V30.7423C15.4232 31.0202 14.9716 31.437 14.6937 31.9581C14.5201 32.2359 14.3811 32.5138 14.3116 32.8265C14.1727 33.2781 14.2074 33.556 14.4158 33.7296L14.5201 33.6602C14.5201 33.6602 14.8674 33.1739 15.2843 32.5138C15.4232 32.2359 15.7011 32.0623 16.0138 32.0623H15.9443Z" fill="#29A74A"/>
<path d="M21.5026 31.7841C20.8773 31.8535 20.3563 32.2009 20.0089 32.6872C19.6268 33.243 19.2794 33.8336 19.0015 34.4588C18.7236 35.0841 18.411 35.6746 17.9942 36.2304C17.6468 36.682 17.1952 37.0294 16.6741 37.2725C16.1878 37.5852 15.5626 37.5852 15.0762 37.2725L14.7983 37.0641L15.3194 36.4041C15.9447 36.682 16.6741 36.5083 17.091 35.9525C17.4384 35.501 17.7163 35.0146 17.9594 34.4936C18.2026 34.0073 18.5152 33.5209 18.8279 33.1041C19.21 32.583 19.6963 32.1314 20.2521 31.7841L19.9394 31.5409L20.8426 30.3946L21.9542 31.263L21.5026 31.7841ZM23.5521 21.1892C24.2469 21.1198 24.8721 20.8071 25.3584 20.3555C25.6016 20.1124 25.81 19.8345 25.9837 19.5566H27.5469C27.269 20.1471 27.1995 20.8071 27.3732 21.4324C27.5469 21.9187 27.8248 22.405 28.2069 22.7524C28.5543 22.9956 28.9016 23.204 29.3185 23.3429L29.0058 23.9682C28.1027 23.8293 27.2342 23.4472 26.5395 22.8566C26.2269 22.405 25.9837 21.884 25.81 21.3629C25.3584 21.6061 24.8721 21.8145 24.3511 21.9535C23.9342 22.0229 23.4826 21.9882 23.1005 21.8492C22.8226 22.3008 22.5795 22.7872 22.4405 23.3082C22.2668 23.864 22.3016 24.2114 22.51 24.4198C22.6142 24.5587 22.7879 24.5587 22.9268 24.4545H22.9616C23.3089 23.9335 23.4826 23.3429 23.4826 22.7524C24.2469 22.4745 25.0805 22.6482 25.6711 23.204C26.0184 23.5514 26.1574 24.0377 26.0532 24.524C25.9142 25.184 25.5669 25.7745 25.0805 26.1914C24.2468 27.1293 22.9963 27.5809 21.7458 27.3725C20.8773 27.0946 20.0089 26.7125 19.2447 26.2261L19.9047 25.4619C20.5647 25.9482 21.3637 26.2609 22.1974 26.2956C23.031 26.2261 23.7953 25.8093 24.3511 25.184C24.5595 24.9756 24.7332 24.7324 24.8374 24.4545C24.9763 24.2114 24.9763 23.864 24.7679 23.6556C24.6984 23.5861 24.629 23.5166 24.5247 23.4819C24.4205 23.864 24.2121 24.2114 23.8995 24.4893C23.4826 24.9756 22.8574 25.2535 22.2321 25.2535C21.7805 25.2535 21.3984 25.0451 21.0858 24.6977C20.9121 24.3851 20.8426 24.0724 20.8773 23.7251L17.9594 26.5388L17.3342 25.9135L26.9563 16.6387L27.5816 17.2639L23.5521 21.1892Z" fill="#29A74A"/>
<path d="M30.2907 16.0142L33.0697 20.1827L32.5486 20.53C32.1318 20.4606 31.7496 20.4606 31.3328 20.53L28.9359 16.9174L27.5117 17.8553L27.0254 17.0911L28.5191 16.1532L27.9633 15.2847L28.4844 14.9026L29.6307 15.3889L31.3328 14.2773L31.8191 15.0068L30.3254 15.9795L30.2907 16.0142Z" fill="#29A74A"/>
<path d="M31.0549 15.042L30.7075 14.2431L42.3792 9.13672L42.7266 9.93567L31.0549 15.042ZM39.496 16.9178C38.3497 17.5084 36.9949 17.6473 35.7444 17.3C34.4939 16.9178 33.4518 16.1189 32.7223 15.0073L33.3128 14.5557C33.9033 15.2852 34.6676 15.841 35.536 16.2578C36.6476 16.6399 37.8286 16.5357 38.8708 16.0147C39.4265 15.7715 39.9476 15.4241 40.3992 15.0073C40.9897 14.4515 41.1981 13.9304 40.9897 13.4789C40.816 13.062 40.3992 12.8189 39.9823 12.8189C39.5308 12.7841 39.0792 12.8189 38.6623 13.0273C38.2107 13.2357 38.0023 13.3747 38.0371 13.5136C38.0718 13.6526 38.2107 13.5831 38.4539 13.6178C38.6971 13.6526 38.8708 13.722 38.9055 13.861C39.0097 14.1736 38.9055 14.521 38.6623 14.7294C38.4192 14.9726 38.1413 15.1462 37.8286 15.2852C37.4813 15.4589 37.0992 15.5284 36.6823 15.5284C36.3002 15.5284 35.9181 15.2852 35.7791 14.9031C35.6055 14.4862 35.7791 13.9999 36.3697 13.4441C36.7865 13.0273 37.2728 12.7146 37.8286 12.5062C38.5581 12.1936 39.3571 12.0199 40.156 12.0894C40.955 12.0199 41.7192 12.4715 42.1013 13.201C42.3792 13.9999 42.136 14.9031 41.476 15.4241C40.9202 16.0842 40.2255 16.5705 39.4613 16.8831L39.496 16.9178Z" fill="#29A74A"/>
<path d="M51.828 8.5449L52.2796 11.1849L50.9596 11.3933L50.6122 10.5944C49.8133 10.2818 48.9449 10.1081 48.0764 10.1428C48.1112 10.247 48.1459 10.3165 48.1806 10.4207C48.2849 10.907 47.9722 11.2197 47.2775 11.3239C46.9648 11.3933 46.6522 11.3933 46.3396 11.3239C46.0269 11.2891 45.749 11.046 45.6796 10.7333C45.5754 10.1081 45.9922 9.72596 46.8954 9.58701C48.0764 9.44807 49.2575 9.51754 50.4038 9.7607L50.2301 8.85753L42.6922 10.1081L42.5532 9.20491L54.8849 7.08594L55.0239 7.91963L51.8975 8.51016L51.828 8.5449Z" fill="#29A74A"/>
<path d="M52.5573 13.8256H51.7931L51.5152 13.7214H50.8552C50.3341 13.7214 49.7783 13.8256 49.2573 13.9298C48.7362 14.034 48.2151 14.0688 47.6593 14.1035C47.0688 14.1382 46.4783 14.1035 45.9225 13.9298C45.332 13.7909 44.9151 13.3046 44.8804 12.714C44.8804 12.5751 44.8804 12.4014 44.8804 12.2624H45.8877C45.8877 13.0614 46.2699 13.4435 46.9646 13.4088C47.312 13.4088 47.7636 13.3393 48.4236 13.2351C48.9099 13.1309 49.3962 13.0961 49.8825 13.0614C50.2299 13.0614 50.5773 13.0961 50.8899 13.2003C50.8899 12.9572 50.8899 12.7488 50.8899 12.5056V11.8109C50.8899 11.3593 50.5773 10.9772 50.1604 10.9772C50.0909 10.9772 50.0215 10.9772 49.952 10.9772H49.7088L49.2573 11.3245C49.9867 11.3245 50.3688 11.4635 50.3688 11.7066C50.3688 11.9151 50.2646 12.0888 50.0909 12.193C49.9173 12.3319 49.7436 12.4014 49.5352 12.4014C48.5278 12.4014 48.0415 12.193 48.0067 11.6024C48.0067 11.2898 48.0762 11.0119 48.3194 10.8035C48.632 10.5603 48.9794 10.3866 49.3962 10.2824C50.1257 10.2477 50.8204 10.2824 51.5499 10.3866C52.1057 10.4908 52.5225 10.9424 52.5225 11.4982V13.2003C52.592 13.4088 52.592 13.6172 52.6268 13.8256H52.5573ZM57.1426 8.47609L57.0731 13.4435H56.4131C56.1352 13.0961 55.7878 12.8182 55.4057 12.6445V8.47609H53.6689V7.57292H55.7878L56.5173 7.12134C55.5794 6.32238 54.3984 5.90554 53.1826 5.90554C52.1057 5.90554 51.0289 6.18344 50.1257 6.73923L49.5352 6.35712C50.9594 5.5929 52.5225 5.14132 54.1205 5.03711C54.9194 5.03711 55.7184 5.24553 56.4131 5.5929C57.0731 5.90554 57.6984 6.28765 58.2542 6.70449L56.7605 7.6424H58.8795V8.51083H57.1426V8.47609ZM71.1764 10.734L69.9953 15.6319L69.0922 15.4235C67.529 13.6519 65.41 12.4014 63.0826 11.9498V10.5603C64.1595 10.4908 65.2364 10.4908 66.2785 10.5603H69.509V10.3866L62.0405 8.54556L62.249 7.67713L73.1217 10.3172L72.9133 11.1856L71.1764 10.734ZM69.2311 11.6024C67.8069 11.533 66.6258 11.533 65.6879 11.6024C66.7648 12.193 67.7722 12.9224 68.6753 13.7909L69.2311 11.6024Z" fill="#29A74A"/>
<path d="M75.0673 12.3328L73.1568 16.9529L72.5663 16.7097C72.4273 16.3276 72.1841 15.9802 71.9062 15.7023L73.5389 11.7423L71.941 11.0823L72.2884 10.2486L73.921 10.9086L74.3031 9.9707L74.9284 10.1791L75.1368 11.3949L77.0126 12.1591L76.6652 12.9928L75.0326 12.3328H75.0673ZM79.7916 21.1908C79.5137 20.774 79.1316 20.2529 78.6105 19.5582C78.1937 19.0371 77.7768 18.516 77.2905 18.0297C76.7347 17.5087 76.1442 17.0223 75.5189 16.6055L76.6652 15.4592L77.8463 16.6055C78.4368 17.335 78.9926 18.0992 79.4442 18.8982C79.9305 19.7318 80.3821 20.5655 80.7642 21.4687L79.8611 21.1561L79.7916 21.1908ZM77.9505 15.876C77.5337 15.6676 77.1863 15.355 76.8737 15.0076C76.5263 14.695 76.4221 14.1739 76.6305 13.7571C76.9431 13.2707 77.4989 13.0276 78.0895 13.1318C78.6453 13.1318 79.2011 13.3055 79.7221 13.5834C80.139 13.7918 80.4863 14.0697 80.7642 14.4171C81.0769 14.7644 81.1463 15.2508 80.9379 15.6329C80.66 16.0844 80.139 16.3276 79.6179 16.2929C79.0621 16.2929 78.5063 16.1539 77.9853 15.876H77.9505ZM78.8189 13.896C78.8189 13.896 78.6105 13.896 78.5063 13.896C78.4021 13.896 78.3326 13.896 78.2632 14.0002C78.1589 14.2781 78.1589 14.556 78.2632 14.8339C78.3326 15.1118 78.5063 15.355 78.7147 15.5286L79.0621 15.6329H79.34C79.34 15.6329 79.34 15.2508 79.1663 14.7644C78.9926 14.2781 78.8537 13.9655 78.7495 13.896H78.8189ZM82.5706 20.3224C82.8137 20.114 83.1264 20.0445 83.439 20.114C83.7516 20.1834 84.0295 20.3224 84.2727 20.4961C84.5158 20.7045 84.6895 20.9476 84.7937 21.2255C84.9327 21.5034 84.8979 21.8508 84.6895 22.094C84.2379 22.615 83.6474 22.5803 82.8832 21.9203C82.3274 21.4687 81.9106 20.8782 81.7021 20.1834C81.4242 19.5234 81.5284 18.7939 81.9453 18.2381C82.2232 17.8908 82.6748 17.6824 83.1264 17.6824C83.5779 17.6824 84.0295 17.8908 84.3769 18.1687C84.6548 18.4466 84.9327 18.7592 85.1064 19.1066C85.3495 19.4192 85.5232 19.8361 85.5927 20.2182C86.218 20.4613 86.8432 20.5655 87.5032 20.5308C87.4338 21.0171 87.5032 21.5034 87.7811 21.9203L88.5801 20.9824C88.1285 20.6698 87.6769 20.3224 87.2601 19.9403L82.5358 15.9802L83.1611 15.2508L91.637 22.3371L91.0812 23.0319L89.9348 22.094L86.739 25.9498L86.1138 25.3593L85.9401 24.2129L86.7043 23.3098C86.9127 23.1014 87.0517 22.8582 87.1906 22.615C87.3295 22.2677 87.2948 21.8856 87.0516 21.6077L85.419 21.1213C85.2801 20.8782 85.1758 20.635 85.1064 20.3919C85.0369 20.1834 84.9674 20.0097 84.8632 19.8361C84.6895 19.5929 84.5158 19.3845 84.2727 19.1761C84.0295 18.9329 83.7169 18.7939 83.3695 18.6897C83.0221 18.5855 82.6748 18.6897 82.4663 18.9676C82.2927 19.1413 82.2232 19.3845 82.2232 19.5929C82.2232 19.8361 82.3274 20.0445 82.5011 20.1834H82.5706V20.3224Z" fill="#29A74A"/>
<path d="M92.7831 25.4287L88.9968 28.7287L88.5799 28.2424C88.5799 27.8255 88.5799 27.4087 88.4062 27.0266L91.6715 24.1781L90.56 22.8581L91.22 22.2676L92.3663 23.5876L93.1652 22.8928L93.6168 23.3792L93.2695 24.595L94.5895 26.1234L93.9295 26.7139L92.8179 25.4287H92.7831Z" fill="#29A74A"/>
<path d="M96.0484 29.6996C95.5273 29.1785 94.7978 28.9006 94.0336 28.9353C93.3736 28.8311 92.6789 28.9353 92.0883 29.248C91.741 29.4911 91.6367 29.7343 91.8104 30.0122C92.0189 30.0817 92.2273 30.1164 92.4357 30.1164C92.7831 30.1859 93.061 30.3943 93.2347 30.6722C93.4083 30.9154 93.4778 31.1585 93.4778 31.4364C93.4778 31.7143 93.3736 31.9575 93.1652 32.1312C92.922 32.3049 92.6094 32.3396 92.3315 32.2354C91.9146 32.0964 91.5673 31.8533 91.3588 31.4712C91.0115 31.0196 90.8378 30.429 90.8725 29.8733C90.9767 29.3175 91.2894 28.8311 91.7757 28.5532C92.6441 27.8932 93.721 27.6153 94.7978 27.7543L93.4778 25.8785L94.2073 25.3574L97.681 30.1859L96.9515 30.7069L96.1178 29.5954L96.0484 29.6996Z" fill="#29A74A"/>
<path d="M98.3408 33.486L96.4302 34.4239V34.7018C97.6808 35.5355 98.8271 36.5081 99.8692 37.585V39.3566C99.1397 38.7313 98.0976 38.5576 97.2292 38.9745C96.7429 39.2524 96.326 39.6692 96.0481 40.1555L95.5618 39.1481C95.9786 38.5229 96.5692 38.0018 97.2292 37.6544C97.5071 37.5155 97.785 37.446 98.0976 37.3766C97.1944 36.4386 96.1176 35.6744 94.9018 35.1534L94.6934 33.4165L97.5765 31.9576L96.6734 30.1165L97.4723 29.7344L102.44 39.6692L101.641 40.0513L98.3408 33.5207V33.486ZM103.69 48.6314L98.966 49.7777L98.7576 48.9788L99.1745 47.9019L101.05 47.5198C101.502 47.4503 101.919 47.2419 102.266 46.9293C102.648 46.4777 102.891 45.8872 102.891 45.2619C102.822 45.1577 102.752 45.0187 102.683 44.9145C102.579 44.7756 102.509 44.7061 102.44 44.6714C102.37 44.6366 102.231 44.845 102.162 45.0882C102.092 45.3314 101.988 45.7829 101.919 45.9219C101.849 46.1651 101.676 46.3387 101.432 46.4082C100.946 46.5472 100.599 46.2693 100.425 45.644C100.39 45.4008 100.39 45.1229 100.425 44.8798C100.564 44.6366 100.738 44.324 100.911 43.9071C100.738 43.6987 100.529 43.5598 100.321 43.4208C100.008 43.2124 99.765 42.8998 99.6608 42.5177C99.5913 42.2745 99.5913 41.9966 99.6608 41.7534C99.6608 41.4061 99.8692 41.2324 100.078 41.1976C100.286 41.1629 100.807 41.3019 101.224 41.7534C101.502 42.0661 101.814 42.344 102.162 42.5871L101.849 41.2671C102.092 40.9197 102.301 40.5376 102.474 40.1208C102.683 40.8503 102.752 41.5797 102.683 42.3092C102.683 42.5871 102.579 42.865 102.579 43.0734C103.1 43.664 103.551 44.2892 103.933 44.9493C103.551 45.5745 103.204 46.2345 102.926 46.9293L104.107 46.6514L104.941 49.9861L104.072 50.1946L103.69 48.5619V48.6314Z" fill="#29A74A"/>
<path d="M111.263 56.5174C111.263 86.7387 86.7387 111.263 56.5174 111.263C26.296 111.263 1.7716 86.7734 1.7716 56.5174C1.7716 26.296 26.2613 1.7716 56.5174 1.7716C86.7387 1.80633 111.228 26.296 111.263 56.5174ZM56.5174 0C25.3234 0 0 25.2887 0 56.4826C0 87.6766 25.2887 113 56.4826 113C87.6766 113 112.965 87.7113 113 56.5174C112.965 25.3234 87.7113 0.0347372 56.5174 0Z" fill="#3A9A48"/>
<path d="M40.8856 28.207C40.5035 27.9986 38.9403 27.686 38.4887 28.207C38.0371 28.7281 38.7319 30.0134 38.6277 30.6734C37.7592 30.9513 36.995 32.1671 36.5782 32.966C35.9182 34.2166 36.0571 34.9113 37.3424 35.606C38.2455 35.9882 39.0792 36.4397 39.9129 36.9261C40.7814 37.5861 41.754 38.1071 42.7961 38.4198C43.2477 39.3229 43.2824 40.365 42.9003 41.3029C41.9972 41.2335 41.094 41.3724 40.2603 41.6503C39.3571 42.0324 39.3224 42.8661 38.6971 43.5609C38.0719 44.2556 37.3771 44.3598 36.8213 45.3325C36.3697 46.0272 36.1613 46.8609 36.2655 47.6946C36.8213 49.4314 39.9477 49.362 41.3372 50.1957C43.3866 51.4462 42.0666 53.2873 41.1982 54.781C40.3298 56.2747 40.5382 57.6642 41.4761 59.4705C42.414 60.8947 43.1088 62.4579 43.5951 64.1253C44.2898 67.5642 42.7266 72.9485 45.9225 75.2759C46.6867 75.8317 47.7983 76.2833 48.3541 75.2759C48.8056 74.5117 48.9099 75.5538 49.5351 74.8938C50.3688 73.9906 49.8825 74.0601 50.1257 74.6506C50.612 75.797 50.8204 75.137 52.1057 74.7896C53.391 74.4422 53.7731 74.3033 54.7457 75.1369C55.7183 75.9706 56.2394 76.5959 57.0384 75.3801C57.6636 74.4422 57.4205 73.0527 58.0457 72.1496C58.671 71.2464 59.3657 71.8369 60.3731 72.1496C60.5815 72.1496 60.5468 72.219 60.7552 72.358C62.2489 72.358 61.6584 71.038 62.631 70.5169C63.8468 69.8916 64.5416 71.698 65.1669 70.1695C65.9311 68.3285 64.5416 64.959 67.9806 65.8274C70.0995 66.3484 71.0722 68.6758 71.489 70.6211C71.7669 71.9411 71.7669 73.1917 72.1143 74.4769C72.4964 75.658 72.7743 76.9085 72.9132 78.1591C73.0174 79.6528 73.2953 81.1117 73.7469 82.5707C75.4143 82.5012 74.4069 80.3823 75.3796 79.6875C76.3522 78.9928 78.228 80.0696 79.4438 79.8612C79.548 78.7844 79.548 77.6728 79.4438 76.5959C79.2701 75.4843 78.7143 74.5812 78.6101 73.4348C78.4017 71.3159 78.9228 69.0232 78.6101 66.9042C78.2975 64.7853 77.1512 62.9789 76.6649 60.9642C76.3522 58.9494 75.9006 56.9694 75.2754 55.0589C74.8238 53.982 74.3375 53.7389 73.0869 53.9125C72.3574 55.8231 72.6006 57.5599 71.5238 59.3663C70.4469 61.1726 69.1964 62.9095 67.2163 60.5473C66.5563 59.54 66.0005 58.4978 65.4795 57.421C64.889 56.5526 64.5416 55.5799 64.4026 54.5378C64.2637 52.3146 65.9658 50.9251 67.9111 50.3346C69.6132 49.8135 69.6827 49.2925 70.968 48.2156C71.8017 47.4862 73.0522 47.2777 73.9901 46.583C75.588 45.4367 74.3375 44.3598 74.9975 42.9009C75.4491 41.8935 77.6375 41.8935 77.568 40.7124C76.7691 40.2608 76.3522 39.4966 75.4838 39.045C74.7543 38.5934 73.9206 38.2461 73.0522 38.1071C72.2185 37.9334 71.3501 37.9682 70.5511 38.2461C69.8564 38.5934 69.0922 38.8713 68.3279 39.0798C66.4521 39.0798 65.6879 36.2313 63.8468 38.2461C63.291 38.8366 63.2216 39.4619 62.5268 39.9482C61.7279 40.3998 60.79 40.6429 59.8868 40.6082C58.9836 40.7124 58.1152 40.8861 57.2468 41.0598C56.2741 41.1293 55.3015 40.9208 54.4331 40.4692C52.0362 39.5661 52.2794 38.5587 52.2794 36.0924C52.2794 34.6334 52.2794 31.1944 50.4036 31.0902C49.0835 31.0207 49.5699 31.9934 48.8056 32.5492C48.0414 33.105 46.9646 32.3408 46.5825 31.8892C45.7488 30.7776 46.1656 28.7628 44.2203 28.6239C42.2751 28.4849 41.9624 30.5692 40.7119 28.3112" fill="#FFCC04"/>
<path d="M11.2203 63.2222L12.4014 66.8349H16.2225L13.1309 69.0581L14.312 72.6707L11.2203 70.4476L8.16347 72.6707L9.34454 69.0581L6.25293 66.8349H10.074L11.2551 63.2222H11.2203ZM19.1404 80.2434L20.3215 83.8561H24.1426L21.0857 86.0793L22.2668 89.6919L19.2099 87.4688L16.1183 89.6919L17.2993 86.0793L14.2425 83.8561H18.0288L19.2099 80.2434H19.1404ZM93.8948 80.0698L95.0759 83.6824H98.8622L95.7706 85.9056L96.9517 89.5183L93.8948 87.2951L90.8032 89.5183L91.9843 85.9056L88.9274 83.6824H92.7137L93.8948 80.0698ZM102.475 62.7012L103.656 66.3138H107.442L104.385 68.537L105.566 72.1497L102.51 69.9265L99.4528 72.1497L100.634 68.537L97.5769 66.3138H101.363L102.544 62.7012H102.475Z" fill="#EC2227"/>
</g>
<defs>
<clipPath id="clip0_10377_12386">
<rect width="113" height="113" fill="white"/>
</clipPath>
</defs>
</svg>
