<svg width="128" height="26" viewBox="0 0 128 26" fill="none" xmlns="http://www.w3.org/2000/svg">
<path d="M14.4075 0L29.3858 16.1554L25.6412 19.1788L11.3022 3.78499L14.4075 0Z" fill="#7C337C"/>
<path d="M17.2159 19.528L20.8235 16.597L10.2519 5.10352L0 16.5739L3.83591 19.4126L10.3661 12.3042L17.2159 19.528Z" fill="#00A651"/>
<path d="M1.27796 24.5588C1.27796 24.905 1.27796 24.9973 1.57479 24.9973V25.0666H0.684311V24.9973C0.981137 24.9973 0.981137 24.905 0.981137 24.5588V22.5971H0.661478C0.410318 22.5971 0.318987 22.8048 0.296154 23.0587H0.250488V22.4355H1.98578V23.0587H1.96295C1.96295 22.8048 1.87162 22.5971 1.59762 22.5971H1.27796V24.5588Z" fill="#231F20"/>
<path d="M3.6764 25.0662L2.96858 23.843H2.76309V24.5585C2.76309 24.9047 2.76309 24.997 3.05991 24.997V25.0662H2.16943V24.997C2.46626 24.997 2.46626 24.9047 2.46626 24.5585V22.9199C2.46626 22.5737 2.46626 22.4813 2.16943 22.4813V22.4121H3.08274C3.69923 22.4121 3.81339 22.8737 3.81339 23.1045C3.81339 23.4968 3.56223 23.7045 3.28824 23.7738L3.69923 24.4892C3.85906 24.7662 3.97322 24.9508 4.24722 24.997V25.0662H3.69923H3.6764ZM2.76309 23.7045H2.83158C3.12841 23.7045 3.44807 23.5661 3.44807 23.1276C3.44807 22.8045 3.28824 22.5737 3.01425 22.5737C2.92292 22.5737 2.83158 22.5737 2.76309 22.5967V23.7045Z" fill="#231F20"/>
<path d="M4.52095 22.9199C4.52095 22.5737 4.52095 22.4813 4.22412 22.4813V22.4121H5.1146V22.4813C4.81777 22.4813 4.81777 22.5737 4.81777 22.9199V23.9815C4.81777 24.143 4.81777 24.42 4.86344 24.5585C4.93194 24.8123 5.13743 24.9508 5.34293 24.9508C5.54842 24.9508 5.77675 24.8585 5.89091 24.6277C5.98224 24.4431 5.98224 24.12 5.98224 23.9123V22.9199C5.98224 22.5737 5.98224 22.4813 5.68542 22.4813V22.4121H6.41607V22.4813C6.11924 22.4813 6.11924 22.5737 6.11924 22.9199V24.0969C6.11924 24.5816 5.98224 25.1124 5.32009 25.1124C4.65794 25.1124 4.49811 24.6277 4.49811 24.0969V22.8968L4.52095 22.9199Z" fill="#231F20"/>
<path d="M7.92231 23.2669H7.87664C7.87664 22.8515 7.64831 22.5053 7.28299 22.5053C7.10033 22.5053 6.91766 22.6669 6.91766 22.9207C6.91766 23.4746 8.0593 23.5669 8.0593 24.3516C8.0593 24.7671 7.80814 25.1133 7.39715 25.1133C7.26016 25.1133 7.14599 25.0671 7.07749 25.044C6.98616 25.0209 6.9405 24.9748 6.84917 24.9748C6.75783 24.9748 6.75783 25.044 6.75783 25.1363H6.68934V24.2362H6.75783C6.8035 24.8825 7.19166 24.9979 7.37432 24.9979C7.57981 24.9979 7.78531 24.8594 7.78531 24.5594C7.78531 23.9593 6.6665 23.867 6.6665 23.0823C6.6665 22.6669 6.96333 22.3668 7.28299 22.3668C7.39715 22.3668 7.48848 22.413 7.55698 22.4361C7.62548 22.4822 7.69398 22.5053 7.73964 22.5053C7.80814 22.5053 7.83098 22.4361 7.85381 22.3438H7.89947V23.2669H7.92231Z" fill="#231F20"/>
<path d="M9.33888 24.5588C9.33888 24.905 9.33888 24.9973 9.63571 24.9973V25.0666H8.74523V24.9973C9.04206 24.9973 9.04206 24.905 9.04206 24.5588V22.5971H8.7224C8.47124 22.5971 8.37991 22.8048 8.35707 23.0587H8.28857V22.4355H10.0239V23.0587H9.9782C9.9782 22.8048 9.88687 22.5971 9.61287 22.5971H9.29322V24.5588H9.33888Z" fill="#231F20"/>
<path d="M11.2792 22.9199C11.2792 22.5737 11.2792 22.4813 10.9824 22.4813V22.4121H11.8729V22.4813C11.5761 22.4813 11.5761 22.5737 11.5761 22.9199V23.9815C11.5761 24.143 11.5761 24.42 11.6217 24.5585C11.6902 24.8123 11.8957 24.9508 12.1012 24.9508C12.3067 24.9508 12.5351 24.8585 12.6492 24.6277C12.7405 24.4431 12.7405 24.12 12.7405 23.9123V22.9199C12.7405 22.5737 12.7405 22.4813 12.4437 22.4813V22.4121H13.1744V22.4813C12.8775 22.4813 12.8775 22.5737 12.8775 22.9199V24.0969C12.8775 24.5816 12.7405 25.1124 12.0784 25.1124C11.4162 25.1124 11.2564 24.6277 11.2564 24.0969V22.8968L11.2792 22.9199Z" fill="#231F20"/>
<path d="M14.681 23.2669H14.6125C14.6125 22.8515 14.3842 22.5053 14.0188 22.5053C13.8362 22.5053 13.6535 22.6669 13.6535 22.9207C13.6535 23.4746 14.7951 23.5669 14.7951 24.3516C14.7951 24.7671 14.544 25.1133 14.133 25.1133C13.996 25.1133 13.8818 25.0671 13.8133 25.044C13.722 25.0209 13.6763 24.9748 13.585 24.9748C13.4937 24.9748 13.4937 25.044 13.4937 25.1363H13.4252V24.2362H13.4937C13.5393 24.8825 13.9275 24.9979 14.1102 24.9979C14.3157 24.9979 14.5212 24.8594 14.5212 24.5594C14.5212 23.9593 13.4023 23.867 13.4023 23.0823C13.4023 22.6669 13.6992 22.3668 14.0188 22.3668C14.133 22.3668 14.2243 22.413 14.2928 22.4361C14.3613 22.4822 14.4298 22.5053 14.4755 22.5053C14.544 22.5053 14.5668 22.4361 14.5896 22.3438H14.6581V23.2669H14.681Z" fill="#231F20"/>
<path d="M16.4159 23.6122H16.7584C16.9867 23.6122 17.0781 23.543 17.0781 23.243H17.1237V24.143H17.0781C17.0781 23.843 16.9867 23.7738 16.7584 23.7738H16.4159V24.5585C16.4159 24.9047 16.4159 24.997 16.7127 24.997V25.0662H15.8223V24.997C16.1191 24.997 16.1191 24.9047 16.1191 24.5585V22.9199C16.1191 22.5737 16.1191 22.4813 15.8223 22.4813V22.4121H17.3749V22.9891H17.3521C17.2607 22.5967 17.1466 22.5506 16.8497 22.5506H16.4388V23.5891L16.4159 23.6122Z" fill="#231F20"/>
<path d="M17.6499 23.7285C17.6499 22.99 18.0609 22.3438 18.6774 22.3438C19.2939 22.3438 19.7049 22.99 19.7049 23.7285C19.7049 24.467 19.2939 25.1133 18.6774 25.1133C18.0609 25.1133 17.6499 24.467 17.6499 23.7285ZM19.3395 23.7285C19.3395 23.1284 19.1797 22.4822 18.6774 22.4822C18.1751 22.4822 18.0152 23.1284 18.0152 23.7285C18.0152 24.3286 18.1751 24.9748 18.6774 24.9748C19.1797 24.9748 19.3395 24.3286 19.3395 23.7285Z" fill="#231F20"/>
<path d="M21.3712 25.0662L20.6634 23.843H20.4579V24.5585C20.4579 24.9047 20.4579 24.997 20.7547 24.997V25.0662H19.8643V24.997C20.1611 24.997 20.1611 24.9047 20.1611 24.5585V22.9199C20.1611 22.5737 20.1611 22.4813 19.8643 22.4813V22.4121H20.7776C21.3941 22.4121 21.5082 22.8737 21.5082 23.1045C21.5082 23.4968 21.2571 23.7045 20.9831 23.7738L21.3941 24.4892C21.5539 24.7662 21.668 24.9508 21.942 24.997V25.0662H21.3712ZM20.4579 23.7045H20.5264C20.8232 23.7045 21.1429 23.5661 21.1429 23.1276C21.1429 22.8045 20.9831 22.5737 20.7091 22.5737C20.6177 22.5737 20.5264 22.5737 20.4579 22.5967V23.7045Z" fill="#231F20"/>
<path d="M23.3582 24.5354C23.3582 24.7431 23.3582 24.8816 23.4952 24.8816H23.9518C24.203 24.8816 24.3628 24.7431 24.4998 24.3277H24.5455L24.3628 25.0662H22.7417V24.997C23.0385 24.997 23.0385 24.9047 23.0385 24.5585V22.9199C23.0385 22.5737 23.0385 22.4813 22.7417 22.4813V22.4121H23.6778V22.4813C23.3354 22.4813 23.3354 22.5967 23.3354 22.966V24.5354H23.3582Z" fill="#231F20"/>
<path d="M25.2987 24.5585C25.2987 24.9047 25.2987 24.997 25.5956 24.997V25.0662H24.7051V24.997C25.0019 24.997 25.0019 24.9047 25.0019 24.5585V22.9199C25.0019 22.5737 25.0019 22.4813 24.7051 22.4813V22.4121H25.5956V22.4813C25.2987 22.4813 25.2987 22.5737 25.2987 22.9199V24.5585Z" fill="#231F20"/>
<path d="M26.3261 23.6122H26.6686C26.8969 23.6122 26.9882 23.543 26.9882 23.243H27.0567V24.143H26.9882C26.9882 23.843 26.8969 23.7738 26.6686 23.7738H26.3261V24.5585C26.3261 24.9047 26.3261 24.997 26.6229 24.997V25.0662H25.7324V24.997C26.0292 24.997 26.0292 24.9047 26.0292 24.5585V22.9199C26.0292 22.5737 26.0292 22.4813 25.7324 22.4813V22.4121H27.285V22.9891H27.2394C27.1481 22.5967 27.0339 22.5506 26.7371 22.5506H26.3032V23.5891L26.3261 23.6122Z" fill="#231F20"/>
<path d="M28.0844 23.6122H28.4954C28.7465 23.6122 28.8379 23.5891 28.8607 23.2199H28.9292V24.143H28.8607C28.8379 23.7969 28.7465 23.7507 28.4954 23.7507H28.0844V24.72C28.0844 24.8816 28.13 24.9277 28.2442 24.9277H28.678C28.952 24.9277 29.0662 24.7662 29.226 24.3969H29.2945L29.1118 25.0662H27.4907V24.997C27.7875 24.997 27.7875 24.9047 27.7875 24.5585V22.9199C27.7875 22.5737 27.7875 22.4813 27.4907 22.4813V22.4121H29.089V22.9891H29.0434C28.9749 22.5967 28.9064 22.5506 28.6095 22.5506H28.0844V23.5891V23.6122Z" fill="#231F20"/>
<path d="M35.8696 12.486V1.26953H38.9977C40.185 1.26953 40.9613 1.31569 41.3267 1.43109C41.8746 1.59264 42.3541 1.96191 42.7195 2.53889C43.0848 3.09279 43.2903 3.83132 43.2903 4.73141C43.2903 5.42379 43.1761 6.00077 42.9706 6.46235C42.7651 6.92393 42.4911 7.2932 42.1486 7.57015C41.8061 7.8471 41.4865 8.00866 41.144 8.10097C40.6873 8.21637 40.0024 8.26253 39.1119 8.26253H37.8332V12.486H35.8696ZM37.8332 3.16203V6.37003H38.9064C39.6827 6.37003 40.185 6.3008 40.4362 6.1854C40.6873 6.07 40.8928 5.88537 41.0527 5.6315C41.1897 5.37763 41.281 5.0776 41.281 4.75449C41.281 4.33906 41.1668 4.01596 40.9613 3.73901C40.7558 3.46205 40.5047 3.3005 40.185 3.23126C39.9567 3.1851 39.4772 3.16203 38.7922 3.16203H37.8561H37.8332Z" fill="#231F20"/>
<path d="M44.8662 12.486V1.26953H48.9761C50.0036 1.26953 50.7571 1.36185 51.2366 1.56956C51.716 1.77727 52.0814 2.12346 52.3554 2.65428C52.6294 3.16203 52.7664 3.76208 52.7664 4.43138C52.7664 5.26223 52.5609 5.97769 52.127 6.50851C51.6932 7.06241 51.0767 7.4086 50.2319 7.54707C50.6429 7.82402 51.0082 8.14713 51.2822 8.49332C51.5562 8.83951 51.9215 9.43957 52.401 10.3166L53.5883 12.5091H51.2594L49.8666 10.0627C49.3643 9.1857 49.0218 8.63179 48.8391 8.42408C48.6564 8.19329 48.451 8.03174 48.2455 7.9625C48.04 7.87018 47.7203 7.8471 47.2637 7.8471H46.8755V12.5322H44.9119L44.8662 12.486ZM46.8298 6.00077H48.2683C49.2044 6.00077 49.7981 5.95461 50.0264 5.86229C50.2547 5.76997 50.4374 5.60842 50.5744 5.37763C50.7114 5.14684 50.7799 4.86989 50.7799 4.54678C50.7799 4.17751 50.6886 3.8544 50.5287 3.62361C50.3689 3.39282 50.1177 3.25434 49.7981 3.1851C49.6383 3.16203 49.1588 3.13895 48.3825 3.13895H46.8527V5.97769L46.8298 6.00077Z" fill="#231F20"/>
<path d="M63.361 12.486H61.2604L60.4156 9.94731H56.5112L55.7121 12.486H53.6343L57.3789 1.26953H59.4338L63.3382 12.486H63.361ZM59.7763 8.05482L58.4292 3.90056L57.1277 8.05482H59.7991H59.7763Z" fill="#231F20"/>
<path d="M68.9089 8.35357V6.46108H73.1101V10.9384C72.6991 11.4 72.1055 11.8155 71.3292 12.1616C70.5529 12.5078 69.7537 12.6925 68.9774 12.6925C67.9728 12.6925 67.0823 12.4386 66.3288 11.9539C65.5753 11.4693 65.0045 10.7538 64.6392 9.83064C64.251 8.90747 64.0684 7.91507 64.0684 6.83035C64.0684 5.65331 64.2739 4.61474 64.7077 3.71465C65.1415 2.81457 65.758 2.09911 66.5571 1.61445C67.1736 1.24518 67.9499 1.06055 68.8632 1.06055C70.0734 1.06055 71.0095 1.36058 71.6717 1.93756C72.3567 2.51454 72.7905 3.32231 72.9731 4.36087L71.0324 4.7763C70.8954 4.2224 70.6442 3.78389 70.256 3.48386C69.8907 3.16075 69.4112 2.9992 68.8404 2.9992C67.9956 2.9992 67.3106 3.32231 66.8083 3.94545C66.306 4.56858 66.0548 5.51483 66.0548 6.73803C66.0548 8.07662 66.306 9.06903 66.8311 9.73832C67.3334 10.4076 68.0184 10.7307 68.8404 10.7307C69.2514 10.7307 69.6624 10.6384 70.0734 10.4538C70.4844 10.2691 70.8497 10.0384 71.1237 9.78448V8.35357H68.8861H68.9089Z" fill="#231F20"/>
<path d="M83.6364 12.486H81.5358L80.691 9.94731H76.7866L75.9874 12.486H73.9097L77.6542 1.26953H79.7092L83.6136 12.486H83.6364ZM80.0517 8.05482L78.7046 3.90056L77.4031 8.05482H80.0745H80.0517Z" fill="#231F20"/>
<path d="M85.874 12.486V3.16203H82.9971V1.26953H90.6917V3.16203H87.8376V12.486H85.874Z" fill="#231F20"/>
<path d="M91.8789 12.486V1.26953H93.8425V12.486H91.8789Z" fill="#231F20"/>
<path d="M99.9839 12.4871V1.33984H101.948V10.5946H106.788V12.4871H99.9839Z" fill="#231F20"/>
<path d="M108.113 12.486V1.26953H110.077V12.486H108.113Z" fill="#231F20"/>
<path d="M111.926 12.486V1.26953H118.547V3.16203H113.866V5.81613H117.908V7.70863H113.866V12.486H111.903H111.926Z" fill="#231F20"/>
<path d="M120.191 12.486V1.26953H127.361V3.16203H122.155V5.65458H126.996V7.54707H122.155V10.5935H127.544V12.486H120.191Z" fill="#231F20"/>
<path d="M35.8696 25.3436V17.6582H36.9656V25.3436H35.8696Z" fill="#231F20"/>
<path d="M38.8613 25.3436V17.6582H39.9801L44.3184 23.6819V17.6582H45.3687V25.3436H44.2499L39.9116 19.3199V25.3436H38.8613Z" fill="#231F20"/>
<path d="M46.807 22.8723L47.8345 22.78C47.8802 23.1723 47.9943 23.4724 48.177 23.7262C48.3596 23.9801 48.6336 24.1647 48.999 24.3263C49.3643 24.4879 49.7981 24.5571 50.2548 24.5571C50.6658 24.5571 51.0311 24.5109 51.3507 24.3725C51.6704 24.2571 51.8987 24.0955 52.0585 23.8878C52.2184 23.6801 52.2869 23.4724 52.2869 23.2416C52.2869 23.0108 52.2184 22.8031 52.0585 22.6184C51.8987 22.4338 51.6704 22.2953 51.3279 22.1569C51.0996 22.0876 50.6201 21.9491 49.8666 21.7876C49.1131 21.626 48.588 21.4645 48.2911 21.3029C47.903 21.1183 47.6062 20.8644 47.4235 20.5875C47.2408 20.3105 47.1267 19.9874 47.1267 19.6412C47.1267 19.2489 47.2408 18.8796 47.4692 18.5565C47.6975 18.2103 48.04 17.9564 48.4966 17.7949C48.9533 17.6103 49.4556 17.541 50.0036 17.541C50.6201 17.541 51.1452 17.6333 51.6019 17.818C52.0586 18.0026 52.4239 18.2795 52.675 18.6257C52.9262 18.9719 53.0632 19.3874 53.086 19.8489L52.0357 19.9182C51.9901 19.4335 51.7846 19.0642 51.4649 18.8335C51.1452 18.5796 50.6658 18.4642 50.0264 18.4642C49.3871 18.4642 48.8848 18.5796 48.588 18.8104C48.2911 19.0412 48.1313 19.295 48.1313 19.6181C48.1313 19.8951 48.2455 20.1259 48.451 20.2874C48.6565 20.4721 49.2045 20.6567 50.0949 20.8413C50.9854 21.026 51.5791 21.1875 51.9216 21.326C52.401 21.5337 52.7435 21.7876 52.9719 22.1107C53.2002 22.4338 53.3144 22.78 53.3144 23.1954C53.3144 23.6108 53.2002 23.9801 52.949 24.3494C52.6979 24.7186 52.3325 24.9956 51.8759 25.1802C51.4192 25.3879 50.8712 25.4803 50.3004 25.4803C49.5698 25.4803 48.9305 25.3879 48.4281 25.1802C47.9258 24.9725 47.5377 24.6725 47.2408 24.2571C46.9668 23.8416 46.807 23.3801 46.7842 22.8723H46.807Z" fill="#231F20"/>
<path d="M60.2324 17.6582H61.3284V22.0894C61.3284 22.851 61.237 23.4742 61.0544 23.9357C60.8717 24.3973 60.5292 24.7666 60.0497 25.0435C59.5702 25.3205 58.9309 25.459 58.1318 25.459C57.3326 25.459 56.739 25.3436 56.2367 25.0897C55.7572 24.8358 55.3919 24.4896 55.1864 24.005C54.9809 23.5434 54.8667 22.8972 54.8667 22.0894V17.6582H55.9627V22.0894C55.9627 22.7587 56.0312 23.2434 56.1682 23.5665C56.3052 23.8896 56.5335 24.1204 56.8531 24.305C57.1728 24.4666 57.5838 24.5589 58.0405 24.5589C58.8396 24.5589 59.4104 24.3973 59.7529 24.0511C60.0954 23.705 60.2552 23.0587 60.2552 22.0894V17.6582H60.2324Z" fill="#231F20"/>
<path d="M63.1555 25.3436V17.6582H66.7859C67.5166 17.6582 68.0646 17.7274 68.4527 17.8659C68.8409 18.0044 69.1377 18.2583 69.366 18.6045C69.5944 18.9506 69.7085 19.343 69.7085 19.7584C69.7085 20.3123 69.5259 20.7739 69.1377 21.1432C68.7496 21.5124 68.1787 21.7432 67.3796 21.8586C67.6764 21.9971 67.8819 22.1125 68.0417 22.251C68.3614 22.5279 68.6582 22.8741 68.9322 23.2664L70.3479 25.3436H68.9779L67.8819 23.7511C67.5623 23.2895 67.3111 22.9433 67.1056 22.6895C66.9001 22.4356 66.7174 22.274 66.5576 22.1817C66.3978 22.0894 66.238 22.0202 66.0553 21.974C65.9411 21.9509 65.7356 21.9279 65.4616 21.9279H64.2058V25.3436H63.1099H63.1555ZM64.2515 21.0508H66.5804C67.0828 21.0508 67.4709 21.0047 67.7449 20.9124C68.0189 20.8201 68.2244 20.6585 68.3842 20.4508C68.5212 20.2431 68.6126 20.0123 68.6126 19.7584C68.6126 19.3891 68.4756 19.0891 68.2016 18.8583C67.9276 18.6275 67.4709 18.5121 66.8773 18.5121H64.2743V21.0508H64.2515Z" fill="#231F20"/>
<path d="M70.5308 25.3436L73.6817 17.6582H74.8918L78.2254 25.3436H76.9924L76.0335 23.0126H72.5857L71.6952 25.3436H70.5536H70.5308ZM72.8825 22.1817H75.691L74.8233 20.0354C74.5722 19.3891 74.3667 18.8583 74.2297 18.4429C74.1155 18.9506 73.9785 19.4353 73.773 19.92L72.8597 22.1817H72.8825Z" fill="#231F20"/>
<path d="M79.0928 25.3436V17.6582H80.2116L84.5498 23.6819V17.6582H85.6001V25.3436H84.4813L80.1431 19.3199V25.3436H79.0928Z" fill="#231F20"/>
<path d="M93.2712 22.6412L94.3672 22.895C94.1388 23.7259 93.7278 24.3721 93.1342 24.8106C92.5405 25.2491 91.8099 25.4568 90.9651 25.4568C90.1203 25.4568 89.3668 25.2953 88.796 24.9491C88.248 24.6029 87.8142 24.1182 87.5173 23.4951C87.2205 22.8489 87.0835 22.1796 87.0835 21.441C87.0835 20.6333 87.2433 19.9409 87.563 19.3408C87.8826 18.7408 88.3621 18.3023 88.9558 17.9792C89.5494 17.6791 90.2344 17.5176 90.9422 17.5176C91.7642 17.5176 92.4492 17.7022 93.02 18.0946C93.5908 18.4869 93.979 19.0408 94.1845 19.7332L93.1113 19.964C92.9287 19.4101 92.6547 18.9946 92.2894 18.7408C91.924 18.4869 91.4674 18.3484 90.9194 18.3484C90.2801 18.3484 89.7549 18.4869 89.3439 18.7639C88.9101 19.0408 88.6133 19.4332 88.4535 19.8947C88.2708 20.3794 88.2023 20.8641 88.2023 21.3718C88.2023 22.018 88.2936 22.595 88.4991 23.0797C88.7046 23.5643 89.0243 23.9336 89.4581 24.1644C89.8919 24.3952 90.3486 24.5337 90.8509 24.5337C91.4674 24.5337 91.9697 24.3721 92.4035 24.049C92.8145 23.7259 93.1113 23.2412 93.2712 22.595V22.6412Z" fill="#231F20"/>
<path d="M95.7373 25.3436V17.6582H101.674V18.5583H96.8333V20.8893H101.377V21.7894H96.8333V24.3973H101.879V25.2974H95.7601L95.7373 25.3436Z" fill="#231F20"/>
<path d="M106.56 25.3436V17.6582H109.665C110.213 17.6582 110.624 17.6813 110.921 17.7274C111.332 17.7967 111.675 17.9121 111.949 18.0967C112.223 18.2813 112.451 18.5121 112.611 18.8352C112.771 19.1584 112.862 19.5045 112.862 19.8738C112.862 20.52 112.634 21.0739 112.2 21.5355C111.743 21.9971 110.944 22.2048 109.779 22.2048H107.656V25.3205H106.56V25.3436ZM107.656 21.3047H109.779C110.487 21.3047 110.99 21.1893 111.286 20.9354C111.583 20.6816 111.72 20.3585 111.72 19.8969C111.72 19.5738 111.629 19.2968 111.469 19.066C111.286 18.8352 111.058 18.6968 110.784 18.6045C110.601 18.5583 110.259 18.5352 109.757 18.5352H107.656V21.2816V21.3047Z" fill="#231F20"/>
<path d="M114.186 25.3436V17.6582H115.282V24.4204H119.323V25.3205H114.186V25.3436Z" fill="#231F20"/>
<path d="M126.493 22.6412L127.589 22.895C127.361 23.7259 126.95 24.3721 126.356 24.8106C125.763 25.2491 125.032 25.4568 124.187 25.4568C123.342 25.4568 122.589 25.2953 122.018 24.9491C121.47 24.6029 121.036 24.1182 120.739 23.4951C120.443 22.8489 120.306 22.1796 120.306 21.441C120.306 20.6333 120.466 19.9409 120.785 19.3408C121.105 18.7408 121.584 18.3023 122.178 17.9792C122.772 17.6791 123.457 17.5176 124.164 17.5176C124.986 17.5176 125.671 17.7022 126.242 18.0946C126.813 18.4869 127.201 19.0408 127.407 19.7332L126.334 19.964C126.151 19.4101 125.877 18.9946 125.512 18.7408C125.146 18.4869 124.69 18.3484 124.142 18.3484C123.502 18.3484 122.977 18.4869 122.566 18.7639C122.132 19.0408 121.835 19.4332 121.676 19.8947C121.493 20.3794 121.424 20.8641 121.424 21.3718C121.424 22.018 121.516 22.595 121.721 23.0797C121.927 23.5643 122.246 23.9336 122.68 24.1644C123.114 24.3952 123.571 24.5337 124.073 24.5337C124.69 24.5337 125.192 24.3721 125.626 24.049C126.037 23.7259 126.334 23.2412 126.493 22.595V22.6412Z" fill="#231F20"/>
</svg>
