<svg width="50" height="101" viewBox="0 0 50 101" fill="none" xmlns="http://www.w3.org/2000/svg">
<g clip-path="url(#clip0_10377_12408)">
<path d="M0.0616641 24.8038C0.0616641 17.0488 0.0616641 9.29372 0.0616641 1.56947C0.0307617 0.400061 0.247078 0 1.54498 0C17.1816 0.0615478 32.8491 0.0615478 48.4856 0C49.7217 0 49.9999 0.307739 49.9999 1.5387C49.969 17.0795 49.969 32.6511 49.9999 48.192C49.9999 49.3921 49.7835 49.8538 48.4238 49.8538C32.8181 49.7922 17.2434 49.7922 1.63768 49.8538C0.339785 49.8538 0.0307617 49.4845 0.0307617 48.2227C0.0925664 40.4062 0.0307617 32.6204 0.0307617 24.8038H0.0616641ZM33.8379 13.1405C33.8379 13.1405 33.7143 12.9866 33.6525 12.9558C32.7563 12.0018 31.6439 11.3248 30.4078 10.894C24.7217 8.21664 18.0159 10.0015 14.184 15.2023C10.4758 20.28 10.9084 27.358 15.2038 31.9126L16.1309 32.8358C20.1482 36.4671 25.9887 37.298 30.7168 34.8668C32.1383 34.3129 33.3435 33.5128 34.3015 32.3126C34.8577 31.9741 35.1976 31.4817 35.5067 30.9586C39.2149 26.3732 39.2458 19.8492 35.5994 15.11C35.414 14.6792 35.1049 14.3099 34.7032 14.0637C34.4251 13.7559 34.1161 13.479 33.8379 13.202V13.1405ZM24.0728 38.3751C24.8762 37.9135 25.6179 38.0366 26.2978 38.6213C26.9467 39.1752 27.5957 39.7599 28.2755 40.2831C28.6772 40.5908 29.0481 41.5756 29.6043 40.8678C30.0987 40.2523 29.079 40.0369 28.739 39.606C28.0901 38.7751 26.7304 38.7751 26.3596 37.6057C27.5029 37.6981 28.3373 38.3751 29.2644 38.9906C31.6748 40.5293 33.8379 40.4985 35.5994 38.7751C33.4362 39.2983 31.7057 38.5905 29.9751 37.8211C28.7699 37.2672 27.472 37.0826 26.1432 37.3288C25.278 37.6673 24.3818 37.3288 23.5165 37.3288C22.8676 37.2364 22.2495 37.3288 21.6006 37.4826C19.2829 38.0673 17.2125 39.606 14.6476 39.3291C16.8107 40.6831 18.8812 40.4369 20.8589 39.0521C21.6933 38.4674 22.4659 37.7596 23.5165 37.6057C23.8256 37.6981 23.8874 37.9135 23.7947 38.1904C22.5895 38.5905 21.6624 39.3906 20.7662 40.2215C20.519 40.4369 20.0246 40.6523 20.4881 41.0832C20.9207 41.4832 21.1371 41.0216 21.4152 40.8062C22.3114 40.0369 23.1766 39.2675 24.0419 38.4982L24.0728 38.3751ZM8.55981 27.7581C9.14695 28.2812 9.23966 28.2812 9.23966 28.0658C9.23966 26.2502 10.5685 24.6191 10.074 22.4342C9.05425 23.6651 8.62161 24.8346 8.59071 26.1578C8.00357 25.5731 8.15808 24.6499 7.69454 24.0037C7.26191 23.3882 7.32372 22.3726 6.30394 22.0649C6.30394 24.773 6.73657 25.8809 8.55981 27.7581ZM40.2965 30.0969L40.0184 29.8815C40.1729 28.5274 40.0184 27.2349 39.4004 25.7885C38.7205 28.1581 39.0295 30.4354 38.257 32.7127C41.9034 30.897 43.6031 28.8967 43.2631 26.8964L40.2965 30.0969ZM9.85771 30.3739L6.24213 26.9272C7.01469 30.1584 9.30147 31.5433 11.8664 33.0512C11.0629 30.7124 11.3719 28.4351 10.5994 25.9424C10.0431 27.5427 9.82681 28.8352 10.0431 30.1892C9.98132 30.2508 9.88861 30.3123 9.82681 30.3739H9.85771ZM38.4424 36.067C37.0518 36.3132 35.6921 36.5286 34.3015 36.7748C33.9924 36.8364 33.7761 36.7748 33.5907 36.5594C33.3126 36.1901 33.7143 36.1286 33.8379 35.9747C34.5178 35.2361 34.9813 34.4052 35.2594 33.2358C33.3435 34.436 32.3546 36.5286 29.8515 37.0826C33.1272 37.975 36.0629 38.9906 38.6278 36.2517C38.7514 36.1901 38.9059 36.1594 38.8132 35.9747C38.8132 35.9439 38.566 36.0363 38.4733 36.067H38.4424ZM38.4733 15.7255C39.4622 14.0329 37.8243 11.6633 35.3212 11.294C35.8466 11.9711 36.3719 12.5865 36.8046 13.2636C37.1754 13.8175 38.0716 14.1252 37.7316 15.0484C37.5153 14.9869 37.2681 14.8023 37.1445 14.8638C36.8046 15.0484 37.1136 15.2946 37.2063 15.5101C37.7316 16.5871 39.0295 16.9564 39.7712 18.2797C38.0097 17.6335 38.5351 18.4951 38.9059 19.1414C39.8021 20.557 40.7601 21.911 41.6562 23.2343C42.7069 20.7416 43.5722 18.2797 41.4708 15.4793V20.8955C41.2854 19.9415 39.8639 19.5722 40.7292 18.0027C41.5635 16.4948 41.2236 14.2791 39.184 13.1097C39.1222 13.0481 39.184 12.7712 38.9677 13.0174L39.184 13.0789C39.184 14.2791 39.9875 15.3254 39.833 16.6487L38.4424 15.6947L38.4733 15.7255ZM8.28169 31.9741C9.23966 34.3745 11.1556 35.5439 15.4201 36.0978C13.8441 34.159 13.875 31.7279 12.1754 29.8199C11.99 31.6356 12.7007 32.9896 13.1334 34.5591L8.28169 31.9741ZM34.8577 35.7593C38.2879 35.7593 41.2545 33.9744 41.6871 31.6356C40.2656 32.7435 38.6278 33.4205 36.8973 34.3437C37.2063 33.4512 37.4535 32.7435 37.6389 32.0664C37.8243 31.3279 38.1025 30.5893 37.7625 29.6661C36.2174 31.5433 36.1556 33.9129 34.8577 35.7901V35.7593ZM40.9764 28.1274C43.0777 25.9424 44.2829 23.6344 43.3559 20.6801C43.1704 22.3726 42.1507 23.7575 41.6562 25.5731C41.0691 24.0652 40.7292 22.7112 39.2767 21.6033L41.0073 28.1274H40.9764ZM14.9875 33.6359C15.3583 35.1438 16.1 35.9132 17.0889 36.7748C14.9566 36.8364 13.1334 36.4671 11.1865 36.1594C13.1952 38.3443 16.0382 38.7751 19.8392 36.9595C17.8305 36.5286 16.9034 34.7438 14.9875 33.6051V33.6359ZM10.5994 13.3251C9.11605 14.5561 8.52891 16.064 8.89974 17.3565C8.99244 17.6335 9.02334 18.0643 9.48688 18.1258C10.5067 18.2182 13.4424 15.4485 12.917 14.7407C12.2681 13.8175 12.9788 13.5713 13.2261 13.0481C13.4733 12.5558 14.0295 12.2172 14.0604 11.4171C12.1445 12.0942 11.1865 13.3251 10.8466 15.1715C11.5264 15.2639 11.7737 14.1868 12.5771 14.6792C11.7737 15.6639 10.723 16.2486 9.64139 17.0487L10.5685 13.2943L10.5994 13.3251ZM8.498 21.0186C8.4053 19.5414 8.498 18.1874 7.69454 16.8026C6.61296 19.326 7.47823 21.3571 8.4053 23.6036C9.11605 21.6956 10.7848 20.4339 11.3101 18.2182C9.91951 18.9567 9.36327 20.003 8.498 21.0186Z" fill="#1E6AB3"/>
<path d="M24.2583 63.5176C24.2583 67.0258 24.2274 70.5648 24.2583 74.073C24.2583 75.1809 23.9184 75.4271 22.8677 75.4271C15.6984 75.3963 8.52905 75.3963 1.3597 75.4271C0.278121 75.4271 0 75.0886 0 74.0423C0.0309023 66.9027 0.0618047 59.7324 0 52.5929C0 51.4542 0.309023 51.1465 1.45241 51.1465C8.55995 51.208 15.6675 51.208 22.8059 51.1465C23.9493 51.1465 24.2892 51.485 24.2583 52.5929C24.1965 56.2242 24.2583 59.8555 24.2583 63.4868V63.5176ZM17.9852 61.1172H18.047C18.047 59.6093 18.047 58.0706 18.047 56.5627C18.047 55.7933 18.047 55.2086 16.9654 55.2394C15.9456 55.2394 16.0074 55.8549 16.0074 56.5011C16.0074 58.4091 16.0074 60.2863 16.0074 62.1943C16.0074 63.8561 16.1928 65.5487 15.6675 67.2105C15.1422 68.9338 13.8134 69.9493 12.0828 69.9801C10.3832 69.9801 9.02349 68.9646 8.52905 67.1797C8.31273 66.4103 8.22003 65.6102 8.22003 64.7793C8.22003 61.9481 8.22003 59.1477 8.22003 56.3165C8.22003 55.5779 8.03461 55.2086 7.23115 55.2394C6.644 55.2702 6.18047 55.301 6.21137 56.1011C6.24227 59.4554 6.08776 62.8406 6.30408 66.1642C6.5513 69.7032 8.65266 71.4573 12.0519 71.4573C15.4512 71.4573 17.6143 69.457 17.8925 65.9795C18.0161 64.3793 17.8925 62.7175 17.8925 61.1172H17.9852Z" fill="#216BB4"/>
<path d="M37.7628 75.4276C34.1781 75.4276 30.5934 75.3968 27.0088 75.4276C25.9272 75.4276 25.6182 75.0891 25.6182 74.0428C25.6491 66.8417 25.6491 59.6406 25.6182 52.4395C25.6182 51.4239 25.9581 51.1777 26.9161 51.1777C34.1472 51.2085 41.3475 51.2085 48.5786 51.1777C49.6602 51.1777 49.9383 51.4855 49.9383 52.5626C49.9074 59.7637 49.9074 66.9648 49.9383 74.1659C49.9383 75.1814 49.6293 75.4584 48.6404 75.4584C44.9939 75.3968 41.3784 75.4584 37.7319 75.4584L37.7628 75.4276ZM42.0273 68.5035C39.7096 64.0105 36.9902 60.1329 34.5489 56.1016C33.9618 55.1168 33.0965 55.2399 32.2622 55.363C31.366 55.4861 31.7677 56.317 31.7677 56.8401C31.7368 59.6098 31.7677 62.3487 31.7677 65.1183C31.7677 66.9032 31.7677 68.6881 31.7677 70.473C31.7677 71.3039 32.2313 71.2731 32.8184 71.3039C33.4365 71.3039 33.7455 71.15 33.6837 70.5038C33.6528 69.9498 33.6837 69.4267 33.6837 68.8727C33.6837 65.3337 33.6837 61.7947 33.6837 57.8249C34.0545 58.5019 34.209 58.7789 34.3326 59.0559C36.434 63.0257 39.0298 66.7186 41.3166 70.5653C41.8419 71.427 42.5217 71.3039 43.2634 71.3039C43.8505 71.3039 43.7887 70.873 43.7887 70.5038C43.7887 65.7338 43.7887 60.9638 43.7887 56.1939C43.7887 55.1168 43.1089 55.2399 42.4908 55.363C41.6874 55.5169 41.9964 56.2247 41.9964 56.6863C41.9964 60.5022 41.9964 64.3182 41.9964 68.4727L42.0273 68.5035Z" fill="#266CB4"/>
<path d="M37.9173 76.8125C41.502 76.8125 45.0866 76.8433 48.6713 76.8125C49.6911 76.8125 49.9692 77.1202 49.9383 78.105C49.9074 85.3061 49.9074 92.5072 49.9383 99.7391C49.9383 100.724 49.6911 101.062 48.6713 101.032C41.3784 101.001 34.1163 101.001 26.8234 101.032C25.8963 101.032 25.6182 100.755 25.6182 99.8314C25.6182 92.5687 25.6491 85.3061 25.6182 78.0435C25.6182 76.9664 26.0508 76.8125 26.9779 76.8125C30.6243 76.8433 34.2708 76.8125 37.8864 76.8125H37.9173ZM33.4056 88.8143C33.4056 91.1532 33.4056 93.4612 33.4056 95.8C33.4056 96.5078 33.5601 96.9079 34.3944 96.9079C35.1979 96.9079 35.4142 96.6001 35.4142 95.8616C35.3833 94.6306 35.476 93.3689 35.3833 92.1379C35.2906 90.907 35.5996 90.353 36.9593 90.5377C38.319 90.7223 39.6478 90.3838 40.8839 89.7375C42.6454 88.8143 43.5415 86.9987 43.3252 84.9984C43.1089 82.9673 41.9964 81.6748 39.9569 81.0901C38.1336 80.5669 36.3104 80.7823 34.4562 80.9054C33.6219 80.967 33.4056 81.3978 33.4056 82.1979C33.4674 84.4137 33.4056 86.6294 33.4056 88.8451V88.8143Z" fill="#1E6AB3"/>
<path d="M11.9592 100.97C8.3745 100.97 4.78983 100.97 1.20516 100.97C0.308989 100.97 -0.0309373 100.755 -3.49355e-05 99.8006C0.0308674 92.538 0.0308674 85.2753 -3.49355e-05 78.0435C-3.49355e-05 77.1818 0.185379 76.8125 1.14335 76.8125C8.46721 76.8433 15.822 76.8433 23.1458 76.8125C24.1347 76.8125 24.2892 77.1818 24.2892 78.0435C24.2892 85.2446 24.2583 92.4457 24.2892 99.6468C24.2892 100.755 23.8875 100.97 22.8986 100.97C19.2521 100.908 15.6366 100.97 11.9901 100.97H11.9592ZM6.05683 88.8451C6.05683 91.0608 6.08773 93.2766 6.05683 95.523C6.05683 96.477 6.33495 96.9079 7.32382 96.9386C9.27067 97.0002 11.2484 97.0925 13.1644 96.6309C17.0272 95.7077 19.2212 92.8765 19.3139 88.722C19.4066 84.906 17.5525 82.1364 14.1841 81.1516C11.8356 80.4746 9.45608 80.69 7.0766 80.8747C6.21134 80.9362 6.05683 81.4286 6.05683 82.1979C6.08773 84.4137 6.05683 86.6294 6.05683 88.8759V88.8451Z" fill="#1D6AB3"/>
<path d="M35.5995 15.0493C39.246 19.8192 39.2151 26.3433 35.5068 30.8979L35.2287 30.5901C36.3411 28.7129 37.3918 26.8357 37.5463 24.62C37.5772 24.066 37.979 23.2659 36.8356 23.2044C35.9703 23.1428 35.5995 23.3582 35.5377 24.3122C35.4759 25.3893 35.1359 26.4356 34.5797 27.3896L34.2398 26.9896C34.4561 26.0971 34.7342 25.2355 34.9196 24.343C35.0123 23.8506 35.1359 23.2044 34.2398 23.2352C33.5908 23.2352 33.0346 23.0813 32.9419 24.1276C32.8183 25.3586 32.4783 26.6203 31.3659 27.4512C30.9332 26.5895 32.1075 26.1279 31.8912 25.2662C31.2113 25.1124 30.4079 24.9893 30.068 25.7278C29.8516 26.1894 30.0062 26.9588 30.2225 27.482C30.5006 28.159 30.9641 26.9896 31.3968 27.482C30.5624 28.8668 32.262 28.9283 32.5711 29.6977L33.0346 29.7592C32.6329 30.1901 33.4981 30.6517 33.0346 31.0825C32.4474 30.7132 32.0148 30.9902 31.5204 31.3595C30.0371 32.4058 29.0173 34.4984 26.6069 33.5136C26.4524 33.4521 26.1743 33.606 25.9579 33.606C24.9073 33.6367 25.4017 34.4369 25.3399 34.9292C25.2163 35.7294 25.8034 35.637 26.267 35.6063C27.6885 35.5139 29.0173 35.0216 30.3461 34.5907L30.7169 34.9292C25.9579 37.3604 20.1174 36.5295 16.131 32.8982L16.4709 32.5904C18.4796 34.006 20.5809 35.2062 23.084 35.5139C23.5785 35.5755 24.4437 36.0986 24.5982 34.96C24.7219 34.0368 24.4437 33.6675 23.4549 33.4829C21.5389 33.1751 19.6539 32.6827 18.356 31.0517C18.8195 30.5901 19.0976 31.1133 19.4067 31.2979C20.6118 32.0365 21.9097 32.6212 23.3313 32.8058C23.8566 32.8674 24.5673 33.329 24.6291 32.2519C24.66 31.5441 24.691 30.9902 23.6712 30.9902C22.8059 30.9902 22.0024 30.5593 21.2299 30.1593C19.9938 29.513 19.1285 30.1285 18.356 31.0517C17.7997 30.467 17.2435 31.3287 16.6872 31.0517C17.1508 30.3747 17.1508 29.8208 16.3782 29.3284C15.4202 28.7129 14.6477 27.7589 13.4734 27.3896C13.4734 27.2973 13.4425 27.1742 13.3807 27.1127C13.3189 26.4356 13.3807 26.0048 14.2151 25.6971C15.173 25.3586 14.4005 24.4046 14.3696 23.7583C14.3078 22.9582 13.5043 23.389 13.0408 23.3582C12.1755 23.3582 12.3918 24.0045 12.4227 24.5277C12.4845 25.4201 12.6081 26.3433 13.1026 27.1127L13.2262 27.605C13.597 29.1437 14.6786 30.2824 15.4821 31.5749L15.2039 31.9134C10.9085 27.3281 10.4759 20.2501 14.1842 15.2032C17.9851 10.0024 24.7219 8.21748 30.4079 10.8948L30.0062 11.2026C28.9246 10.9256 27.843 10.6178 26.7305 10.4332C26.2361 10.3717 25.4017 9.69463 25.2472 10.8948C25.1236 11.8488 25.4635 12.3104 26.5451 12.4643C28.3065 12.7412 30.1916 13.1105 31.6131 14.1261C32.5092 14.7723 32.7874 14.5261 33.3436 14.0645L33.7144 14.4646C32.8492 15.2339 32.6329 15.911 33.6217 16.865C34.9505 18.0959 35.3214 19.85 35.5686 21.5426C35.7231 22.5274 36.0939 22.6504 36.8974 22.5889C38.0408 22.5274 37.639 21.7272 37.5772 21.1733C37.3609 19.0499 36.372 17.2035 35.2905 15.3878L35.5995 15.0493ZM31.7985 21.5118C31.8603 21.8503 31.4586 22.3119 31.9221 22.4966C32.4783 22.712 32.3238 22.035 32.5711 21.8196C32.6947 21.7272 32.8492 21.6965 32.9728 21.6041C32.8492 22.7428 33.6526 22.5889 34.3325 22.5581C35.2596 22.5581 34.9505 21.8503 34.8887 21.3887C34.7651 20.127 34.3634 18.9576 33.1273 18.3421C31.8294 17.6651 30.686 16.5572 30.1916 15.4494C29.3572 13.5721 27.9048 13.3875 26.3288 13.0798C25.8034 12.9874 25.2163 12.8336 25.2163 13.726C25.2163 14.403 25.1236 14.957 26.1125 15.0493C27.194 15.1724 28.3683 15.2955 29.0791 16.3418C27.9975 16.6495 27.2558 15.634 26.267 15.6955C25.8034 15.6955 25.2163 15.4801 25.2472 16.2802C25.2472 16.8034 24.9691 17.542 25.927 17.6343C26.6378 17.6958 27.3177 17.9728 27.8739 18.3729C28.461 18.7729 28.7392 18.496 29.2336 18.1882C30.5624 17.3881 28.7701 16.9573 29.11 16.3418C30.9332 15.8494 30.7478 17.2035 30.9023 18.2806C29.6971 17.8189 29.5426 18.9576 28.8628 19.5115C30.2225 19.7885 31.3659 20.1885 31.8294 21.5118H31.7985ZM24.5364 27.3896C25.4635 28.4975 26.7923 28.3436 27.7812 26.928C26.6378 27.1127 25.5562 26.9896 24.5055 27.4204C25.0927 26.3741 24.5982 26.0048 23.6712 25.4509C22.775 24.9277 22.5587 26.2818 21.9097 25.7894C22.0952 24.7123 21.3226 24.5277 20.5809 24.343C20.9209 24.9277 20.5809 26.1587 21.9097 25.7586C22.0952 27.3589 23.1767 27.5743 24.5055 27.3896H24.5364ZM20.2101 27.2973C20.3646 27.0203 20.7355 26.6203 20.6427 26.4972C19.9011 25.2047 19.4376 23.8506 19.5612 22.2812C18.6959 22.4966 19.0667 23.5737 18.3869 23.4198C17.1508 23.1736 17.5525 24.1584 17.7997 24.343C19.1903 25.297 18.7268 26.8665 19.2212 28.159L20.1792 27.3281C19.932 28.5898 20.7045 29.2053 21.7243 29.5746C22.157 29.7284 22.8368 30.4362 23.0531 29.7592C23.1767 29.3592 23.9802 28.3744 22.6205 27.8512C21.7861 27.5435 21.0754 27.2665 20.2101 27.3281V27.2973ZM20.9209 18.5883C22.0643 18.8653 22.6823 17.6651 23.733 17.6343C24.9382 17.6035 24.5364 16.6803 24.4746 16.0956C24.4128 15.2955 23.7021 15.6955 23.3313 15.7571C22.1261 16.0341 21.0136 16.5572 20.0865 17.4189L20.9209 18.5883C20.0556 18.9576 19.7157 17.8497 18.9431 17.942C18.7886 16.4341 17.8924 16.2495 16.6563 16.6495C17.1817 15.7571 16.9654 14.9877 16.1001 14.5569C15.1112 14.0645 14.9876 15.1416 14.6477 15.6032C13.3498 17.3266 12.6081 19.2653 12.3918 21.4195C12.33 22.0042 12.2064 22.6197 13.1953 22.5889C13.8751 22.5581 14.3387 22.6197 14.4623 21.6349C14.7095 19.7885 15.0803 17.9113 16.6872 16.6495C17.089 17.1111 16.5945 17.3881 16.4091 17.6958C15.7602 18.8345 15.3275 20.0347 15.1112 21.2964C15.0494 21.7272 14.6477 22.4658 15.5748 22.5274C16.2237 22.5581 16.9036 22.7735 17.0581 21.6349C17.2435 20.2501 17.5834 18.8037 18.9431 17.942C19.3139 18.6806 18.5105 19.0191 18.356 19.5731C18.0778 20.5886 17.2744 21.5118 18.0778 23.0197C18.4178 21.4503 19.2212 20.6194 20.2719 20.0347C20.9518 19.6654 20.6427 19.0191 20.9209 18.5883ZM24.5055 11.1718C24.66 10.3717 24.3201 10.2178 23.5167 10.3409C21.1372 10.6486 19.0358 11.5103 17.1508 12.9567C16.8109 13.2029 15.9456 13.449 16.6872 14.1568C17.1817 14.6492 17.5216 15.4186 18.5105 14.5877C19.9629 13.3259 21.6934 12.5566 23.6712 12.4027C24.4746 12.3412 24.66 11.8796 24.5673 11.1718H24.5055ZM23.5785 13.049C21.8788 13.2644 20.3337 13.8799 19.0049 14.9262C18.6959 15.1724 17.9851 15.3878 18.5723 16.0033C19.0358 16.4957 19.4067 17.1727 20.2719 16.4649C21.2917 15.634 22.4969 15.1108 23.8257 15.0185C24.7837 14.957 24.5364 14.3107 24.5673 13.7568C24.6291 13.0182 24.1656 12.9874 23.6403 13.049H23.5785ZM24.0111 24.9585C25.2472 25.4816 26.0816 24.5584 26.2979 23.9737C26.576 23.2967 26.3906 22.1581 25.618 21.5426C25.309 21.2964 24.9073 20.6194 24.5673 20.9887C24.042 21.6041 22.9913 21.8811 23.1767 22.989C23.2076 23.2352 23.2694 23.4506 23.5167 23.4506C25.618 23.3275 24.1656 24.3122 23.9802 24.9585H24.0111ZM26.0816 18.2806C25.6489 18.2806 25.309 18.219 25.309 18.6806C25.309 19.0807 25.2163 19.6038 25.8652 19.6346C26.1434 19.6346 26.6378 19.45 26.267 20.0347C25.7107 20.9579 26.6378 20.6501 26.7614 20.5886C27.2249 20.3116 27.9666 20.0654 27.7812 19.3576C27.534 18.5267 26.6378 18.5575 26.0816 18.3113V18.2806ZM24.5673 18.9268C24.5982 18.4344 24.3819 18.1575 23.9184 18.3113C23.1767 18.5575 22.2188 18.6191 22.0024 19.5115C21.9097 19.9731 22.5587 20.3424 23.0531 20.2193C23.733 20.0347 24.5055 19.85 24.5673 18.9268ZM15.5748 25.8509C15.8529 25.2355 15.9147 24.5892 16.4709 24.2507C16.78 24.066 17.2744 23.943 16.9654 23.4506C16.6872 23.0197 16.1619 23.2967 15.7602 23.2352C15.3275 23.1736 15.0185 23.3275 15.0494 23.8506C15.0494 24.5277 15.1421 25.1739 15.5748 25.8202V25.8509ZM27.1013 32.7751C26.1434 32.3135 26.5142 31.144 25.4635 31.3595C25.0309 31.4518 25.2472 32.0057 25.309 32.3442C25.4944 33.329 26.1434 32.7751 27.1322 32.7751H27.1013ZM30.4079 31.0517C31.1495 30.8363 31.6749 30.5901 31.5513 30.067C31.4277 29.513 31.0877 28.9283 29.9753 29.0514C30.686 29.6361 30.686 30.2516 30.4079 31.021V31.0517Z" fill="#EBEEF7"/>
<path d="M39.2153 13.1094C41.2548 14.248 41.5947 16.4945 40.7604 18.0024C39.8951 19.5719 41.3166 19.9412 41.502 20.8952V15.479C43.5725 18.2794 42.7072 20.7721 41.6874 23.234C40.7604 21.8799 39.8024 20.5259 38.9371 19.1411C38.5354 18.5256 38.041 17.6331 39.8024 18.2794C39.0607 16.9561 37.7628 16.5868 37.2375 15.5097C37.1448 15.2943 36.8358 15.0789 37.1757 14.8635C37.2993 14.8019 37.5774 14.9558 37.7628 15.0481L38.2882 15.5713L38.5045 15.7559L39.8951 16.7099C40.0496 15.3866 39.2771 14.3096 39.2462 13.1401L39.2153 13.1094Z" fill="#E2E6F4"/>
<path d="M8.28174 31.9745L13.1334 34.5595C12.7008 32.99 11.99 31.636 12.1754 29.8203C13.8751 31.7283 13.8751 34.1594 15.4202 36.0982C11.1557 35.5443 9.23971 34.3749 8.28174 31.9745Z" fill="#EBEEF7"/>
<path d="M34.8579 35.79C36.1558 33.9128 36.1867 31.574 37.7627 29.666C38.1336 30.5892 37.8245 31.3278 37.6391 32.0664C37.4537 32.7742 37.2065 33.4512 36.8975 34.3436C38.628 33.4204 40.2658 32.7434 41.6873 31.6355C41.2547 33.9744 38.2881 35.79 34.8579 35.7593V35.79Z" fill="#E2E6F4"/>
<path d="M38.5971 36.2209C36.0322 38.9598 33.0964 37.9443 29.8208 37.0518C32.3239 36.4979 33.3128 34.4053 35.2287 33.2051C34.9506 34.3437 34.4871 35.1746 33.8072 35.944C33.6836 36.0978 33.251 36.1901 33.56 36.5287C33.7454 36.7749 33.9926 36.8056 34.2707 36.7441C35.6613 36.4979 37.0211 36.2825 38.4117 36.0363C38.4735 36.0978 38.5353 36.1594 38.5971 36.2209Z" fill="#E2E6F4"/>
<path d="M10.0432 30.1902C9.79596 28.8361 10.0432 27.5436 10.5994 25.9434C11.372 28.436 11.063 30.7133 11.8664 33.0521C9.30152 31.5442 7.01475 30.1594 6.24219 26.9281L9.85776 30.3748L10.0741 30.898C10.2904 30.6518 10.1977 30.4364 10.0741 30.1902H10.0432Z" fill="#E8EBF6"/>
<path d="M40.2656 30.0974L43.2323 26.8969C43.5722 28.8972 41.8726 30.8975 38.2261 32.7132C38.9986 30.4359 38.6896 28.1587 39.3695 25.7891C39.9566 27.2354 40.142 28.5587 39.9875 29.882C39.9875 30.0666 39.8948 30.4359 39.9566 30.4359C40.2347 30.559 40.2038 30.2513 40.2965 30.0974H40.2656Z" fill="#EBEEF7"/>
<path d="M40.9766 28.127L39.2461 21.6029C40.6985 22.7108 41.0693 24.034 41.6256 25.5727C42.1509 23.7571 43.1707 22.3723 43.3252 20.6797C44.2523 23.6648 43.0471 25.942 40.9457 28.127H40.9766Z" fill="#E2E6F4"/>
<path d="M15.0188 33.666C16.9347 34.8047 17.8618 36.5895 19.8704 37.0204C16.0385 38.836 13.2264 38.4052 11.2178 36.2203C13.1646 36.528 14.9879 36.8973 17.1201 36.8357C16.1312 35.9741 15.3587 35.1739 15.0188 33.6968V33.666Z" fill="#E8EBF6"/>
<path d="M10.6304 13.3245L9.70328 17.0789C10.7849 16.2788 11.8046 15.6941 12.639 14.7093C11.8355 14.1861 11.5883 15.2632 10.9085 15.2017C11.2175 13.3552 12.2064 12.1243 14.1223 11.4473C14.1223 12.2474 13.5352 12.5859 13.288 13.0783C13.0407 13.6014 12.33 13.8784 12.9789 14.7708C13.5043 15.4786 10.5685 18.2483 9.54877 18.156C9.08524 18.0944 9.05433 17.6636 8.96163 17.3866C8.5908 16.0941 9.17794 14.5862 10.6613 13.3552L10.6304 13.3245Z" fill="#E8EBF6"/>
<path d="M26.1743 37.2359C27.5031 36.9897 28.7701 37.1743 30.0062 37.7283C31.7367 38.5284 33.4673 39.2362 35.6304 38.6823C33.8381 40.4364 31.6749 40.4672 29.2955 38.8977C28.3993 38.313 27.534 37.636 26.3906 37.5129L26.1743 37.2051V37.2359Z" fill="#E2E6F4"/>
<path d="M8.52916 21.0188C9.36352 20.0032 9.95066 18.9261 11.3413 18.2183C10.8468 20.4648 9.1781 21.6958 8.43645 23.6038C7.47848 21.3573 6.61321 19.3262 7.72569 16.8027C8.56006 18.2183 8.46735 19.5416 8.52916 21.0188Z" fill="#E8EBF6"/>
<path d="M23.5477 37.4822C22.497 37.6361 21.7244 38.3746 20.8901 38.9286C18.9123 40.2826 16.8419 40.5596 14.6787 39.2055C17.2436 39.4825 19.3141 37.913 21.6317 37.3591C22.2807 37.2052 22.8987 37.1437 23.5477 37.2052C23.5477 37.2975 23.5477 37.3899 23.5477 37.4822Z" fill="#EBEEF7"/>
<path d="M8.56007 27.7264C6.76773 25.8492 6.3042 24.7105 6.3042 22.0332C7.32398 22.3409 7.26217 23.3565 7.69481 23.972C8.15834 24.6182 8.00383 25.5107 8.59097 26.1261C9.14722 26.6801 8.77639 27.2032 8.56007 27.7264Z" fill="#E2E6F4"/>
<path d="M23.5474 37.482C23.5474 37.482 23.5474 37.2974 23.5474 37.2051C24.4126 37.2051 25.3088 37.5744 26.1741 37.2051L26.3904 37.5128C26.7612 38.6822 28.1209 38.6822 28.7699 39.5131C29.0789 39.944 30.0987 40.1594 29.6351 40.7749C29.048 41.5134 28.7081 40.4979 28.3063 40.1901C27.6265 39.667 26.9775 39.0823 26.3286 38.5284C25.6487 37.9437 24.9071 37.8206 24.1036 38.2822L23.8564 38.0052C23.9491 37.7282 23.8873 37.5128 23.5783 37.4205L23.5474 37.482Z" fill="#D7DDF0"/>
<path d="M37.7317 15.0489C38.0716 14.0949 37.1754 13.8179 36.8046 13.2332C36.372 12.5562 35.8466 11.9407 35.3213 11.2637C37.7935 11.633 39.4622 14.0026 38.4733 15.6951L38.257 15.5105C38.5042 14.9258 38.3806 14.6796 37.7317 15.0181V15.0489Z" fill="#E8EBF6"/>
<path d="M8.56006 27.7282C8.80728 27.205 9.17811 26.6819 8.59096 26.1279C8.59096 24.8047 9.0545 23.6353 10.0743 22.4043C10.5687 24.5585 9.20901 26.2203 9.23991 28.0359C9.23991 28.2513 9.1472 28.2513 8.56006 27.7282Z" fill="#EBEEF7"/>
<path d="M24.0727 38.3741C23.2074 39.1435 22.3113 39.9128 21.446 40.6822C21.1988 40.8976 20.9516 41.3592 20.5189 40.9592C20.0554 40.5283 20.5807 40.3129 20.7971 40.0975C21.6932 39.2666 22.6203 38.4665 23.8255 38.0664L24.0727 38.3434V38.3741Z" fill="#D7DDF0"/>
<path d="M30.717 34.837L30.3462 34.4985L33.6836 32.252H34.3017C33.3437 33.4521 32.1385 34.2523 30.717 34.8062V34.837Z" fill="#D7DDF0"/>
<path d="M30.0063 11.171L30.4081 10.8633C31.6442 11.3249 32.7258 11.9711 33.6528 12.9251L33.282 13.1713L30.0373 11.1402L30.0063 11.171Z" fill="#E2E6F4"/>
<path d="M34.3014 32.2824H33.6834C33.8688 31.9747 33.2816 31.6362 33.6834 31.2976C34.5177 31.7285 34.765 30.8976 35.2594 30.5898L35.5375 30.8976C35.1976 31.4207 34.8577 31.9439 34.3323 32.2516L34.3014 32.2824Z" fill="#EBEEF7"/>
<path d="M16.1312 32.8059C15.8221 32.4982 15.5131 32.1904 15.2041 31.8827L15.4822 31.5442C16.0076 31.6673 16.2239 31.1133 16.6565 30.9902C16.9964 31.5442 16.1312 31.975 16.4711 32.5289L16.1312 32.8367V32.8059Z" fill="#EBEEF7"/>
<path d="M35.5997 15.0483L35.2907 15.3868L34.3945 14.3097L34.7036 14.002C35.1362 14.2481 35.4143 14.5867 35.5997 15.0483Z" fill="#E2E6F4"/>
<path d="M33.6833 14.4634L33.3125 14.0634L33.5597 13.4787L33.8069 13.1094L34.6722 14.0018L34.3632 14.3096C34.0542 14.0018 33.8996 14.3711 33.6524 14.4327L33.6833 14.4634Z" fill="#E2E6F4"/>
<path d="M38.4118 36.0367C38.4118 36.0367 38.7517 35.9136 38.7517 35.9444C38.8753 36.0983 38.7208 36.1598 38.5663 36.2214C38.5045 36.1598 38.4427 36.0983 38.3809 36.0367H38.4118Z" fill="#E2E6F4"/>
<path d="M33.6219 12.9551C33.6219 12.9551 33.7765 13.0782 33.8074 13.1397L33.5601 13.509L33.2202 13.2013L33.591 12.9551H33.6219Z" fill="#E2E6F4"/>
<path d="M39.2461 13.0798L39.0298 13.0182C39.2152 12.772 39.1843 13.049 39.2461 13.1106V13.0798Z" fill="#E2E6F4"/>
<path d="M17.9853 61.1179C17.9853 62.7489 18.1089 64.3799 17.9853 65.9802C17.6762 69.4576 15.5131 71.4271 12.1447 71.4579C8.74545 71.4579 6.61319 69.7346 6.39687 66.1648C6.18056 62.8104 6.33507 59.4561 6.30417 56.1017C6.30417 55.3016 6.7368 55.2708 7.32394 55.2401C8.15831 55.2093 8.31282 55.5786 8.31282 56.3171C8.31282 59.1483 8.31282 61.9488 8.31282 64.78C8.31282 65.6109 8.40552 66.411 8.62184 67.1803C9.11628 68.9344 10.476 70.0115 12.1756 69.9808C13.937 69.95 15.2349 68.9345 15.7603 67.2111C16.2547 65.5801 16.0693 63.8875 16.1002 62.195C16.1002 60.287 16.1002 58.4098 16.1002 56.5018C16.1002 55.8248 16.0075 55.2401 17.0582 55.2401C18.1398 55.2401 18.1398 55.794 18.1398 56.5633C18.1398 58.0713 18.1398 59.61 18.1398 61.1179H18.078H17.9853Z" fill="#F9FAFD"/>
<path d="M42.0274 68.5035C42.0274 64.349 42.0274 60.533 42.0274 56.7171C42.0274 56.2555 41.7184 55.5169 42.5219 55.3938C43.1399 55.3015 43.8507 55.1476 43.8198 56.2247C43.8198 60.9947 43.8198 65.7646 43.8198 70.5346C43.8198 70.9039 43.8507 71.3347 43.2944 71.3347C42.5528 71.3347 41.842 71.4578 41.3476 70.5961C39.0608 66.7494 36.465 63.0565 34.3637 59.0867C34.2091 58.8097 34.0855 58.5327 33.7147 57.8557C33.7147 61.8563 33.7147 65.3953 33.7147 68.9035C33.7147 69.4575 33.6838 69.9806 33.7147 70.5346C33.7765 71.2116 33.4366 71.3655 32.8494 71.3347C32.2623 71.3347 31.7679 71.3347 31.7988 70.5038C31.8297 68.7189 31.7988 66.934 31.7988 65.1491C31.7988 62.3795 31.7988 59.6098 31.7988 56.8709C31.7988 56.3478 31.397 55.5169 32.2932 55.3938C33.0967 55.2707 33.9619 55.1168 34.58 56.1324C37.0213 60.1638 39.7407 64.0105 42.0583 68.5343L42.0274 68.5035Z" fill="#F2F4FA"/>
<path d="M33.4053 88.8144C33.4053 86.5987 33.4053 84.383 33.4053 82.1673C33.4053 81.3672 33.6216 80.9363 34.456 80.8748C36.2792 80.7517 38.1333 80.5363 39.9566 81.0594C41.9961 81.6441 43.0777 82.9366 43.3249 84.9677C43.5412 86.968 42.6142 88.7837 40.8836 89.7069C39.6784 90.3531 38.3187 90.6916 36.959 90.507C35.5993 90.3224 35.2903 90.9071 35.383 92.1072C35.4757 93.3382 35.383 94.5999 35.4139 95.8309C35.4139 96.5695 35.2285 96.908 34.3941 96.8772C33.5907 96.8772 33.4053 96.4771 33.4053 95.7693C33.4053 93.4305 33.4053 91.1225 33.4053 88.7837V88.8144ZM35.3521 85.7063C35.3521 86.4756 35.3521 87.2142 35.3521 87.9835C35.3521 88.5375 35.4757 88.9068 36.1247 88.9683C37.3299 89.0606 38.5042 89.0914 39.6166 88.5067C41.0072 87.7989 41.6253 86.0448 41.1309 84.4138C40.6364 82.8751 38.566 81.9826 36.2792 82.3827C34.5487 82.7212 35.6611 84.1368 35.3521 85.0292C35.2903 85.2139 35.3521 85.4601 35.3521 85.6755V85.7063Z" fill="#F2F4FA"/>
<path d="M6.08785 88.8445C6.08785 86.6288 6.08785 84.413 6.08785 82.1665C6.08785 81.3972 6.24236 80.9048 7.10763 80.8433C9.48711 80.6586 11.8975 80.4432 14.2152 81.1202C17.5526 82.0742 19.4377 84.8746 19.345 88.6906C19.2523 92.8451 17.0273 95.6763 13.1954 96.5995C11.2794 97.0611 9.3017 96.9688 7.35485 96.9072C6.39688 96.9072 6.05695 96.4456 6.08785 95.4917C6.14966 93.2759 6.08785 91.0602 6.08785 88.8137V88.8445ZM10.6305 82.3204C9.00297 82.3204 8.18921 83.1205 8.18921 84.7208C8.18921 87.4904 8.18921 90.2293 8.18921 92.999C8.18921 94.6402 9.01327 95.4301 10.6614 95.3686C14.9259 95.2455 17.2745 92.6912 17.1818 88.3829C17.12 84.3207 14.9568 82.3512 10.6305 82.3204Z" fill="#F2F4FA"/>
<path d="M30.8713 18.2807C30.7477 17.2036 30.9022 15.8495 29.079 16.3419C28.3682 15.2956 27.1939 15.1725 26.1123 15.0494C25.1235 14.9263 25.2162 14.3724 25.2162 13.7261C25.2162 12.8337 25.8342 12.9875 26.3287 13.0799C27.9047 13.3876 29.3571 13.5723 30.1915 15.4495C30.6859 16.5573 31.8293 17.6652 33.1272 18.3422C34.3633 18.9885 34.7341 20.1271 34.8886 21.3888C34.9504 21.8504 35.2594 22.5275 34.3324 22.5582C33.6525 22.5582 32.8491 22.7429 32.9727 21.6042C32.9727 21.2657 32.9109 20.958 32.54 20.8349C32.54 19.1116 32.0765 18.373 30.8713 18.2807Z" fill="#2F6FB6"/>
<path d="M16.4711 32.5287C16.1003 31.9747 16.9964 31.5439 16.6565 30.99C17.2128 31.2669 17.769 30.436 18.3252 30.99C19.6231 32.621 21.5082 33.1134 23.4241 33.4211C24.413 33.575 24.6911 33.975 24.5675 34.8983C24.413 36.0369 23.5786 35.5137 23.0533 35.4522C20.5811 35.1444 18.4489 33.9135 16.4402 32.5287H16.4711Z" fill="#2A6DB5"/>
<path d="M33.6833 14.4628C33.9305 14.4012 34.085 14.032 34.3941 14.3397L35.2902 15.4168C36.3718 17.2324 37.3607 19.0789 37.577 21.2023C37.6388 21.7562 38.0405 22.5563 36.8972 22.6179C36.0937 22.6487 35.692 22.5256 35.5684 21.5716C35.3211 19.879 34.9503 18.1249 33.6215 16.8939C32.6326 15.9707 32.849 15.2629 33.7142 14.4936L33.6833 14.4628Z" fill="#2A6DB5"/>
<path d="M35.2286 30.6196C34.7342 30.9273 34.487 31.7582 33.6526 31.3274C33.5599 30.9581 33.4363 30.6503 32.9728 30.9889C33.4672 30.5888 32.6019 30.1272 32.9728 29.6964C33.3436 29.4809 33.7144 29.2347 33.5908 28.7116C34.2398 28.4962 34.3016 27.9115 34.5179 27.3883C35.0432 26.4343 35.4141 25.388 35.4759 24.3109C35.5377 23.3569 35.9085 23.1415 36.7738 23.2031C37.9172 23.2646 37.5154 24.0647 37.4845 24.6187C37.2991 26.8344 36.2793 28.7424 35.1668 30.5888L35.2286 30.6196Z" fill="#2A6DB5"/>
<path d="M24.5053 11.2009C24.598 11.9087 24.4435 12.3703 23.6092 12.4318C21.6623 12.5857 19.9009 13.355 18.4485 14.6168C17.4905 15.4477 17.1197 14.6475 16.6252 14.1859C15.9145 13.4781 16.7797 13.2319 17.0888 12.9858C18.9738 11.5394 21.0752 10.6777 23.4546 10.37C24.2581 10.2777 24.598 10.4007 24.4435 11.2009H24.5053Z" fill="#2A6DB5"/>
<path d="M16.718 16.6484C15.1111 17.9409 14.7402 19.7873 14.493 21.6338C14.3694 22.6185 13.9059 22.5262 13.226 22.5878C12.2371 22.6493 12.3608 22.0031 12.4226 21.4184C12.608 19.2642 13.3805 17.3254 14.6784 15.6021C15.0184 15.1405 15.142 14.0634 16.1308 14.5558C17.027 14.9866 17.2124 15.7559 16.6871 16.6484H16.718Z" fill="#2A6DB5"/>
<path d="M33.6838 31.2971C33.2821 31.6356 33.8692 31.9433 33.6838 32.2818L30.3463 34.5283C29.0175 34.9284 27.6887 35.4515 26.2672 35.5439C25.8037 35.5439 25.2165 35.6669 25.3402 34.8668C25.4329 34.3744 24.9075 33.5743 25.9582 33.5435C26.1745 33.5435 26.4217 33.3897 26.6071 33.4512C28.9866 34.436 30.0373 32.3434 31.5206 31.2971C32.046 30.9278 32.4477 30.6508 33.0348 31.0201C33.1584 31.2971 33.2821 31.6663 33.7147 31.3278L33.6838 31.2971Z" fill="#2F6FB6"/>
<path d="M33.2507 13.2013L33.5906 13.509L33.3434 14.0937C32.7872 14.5861 32.509 14.8323 31.6129 14.1553C30.1914 13.109 28.3063 12.7705 26.5449 12.4935C25.4942 12.3089 25.1543 11.878 25.247 10.924C25.4015 9.72384 26.2359 10.4009 26.7303 10.4624C27.8428 10.6163 28.9244 10.9548 30.006 11.2318L33.2507 13.2628V13.2013Z" fill="#3571B7"/>
<path d="M32.5709 29.6354C32.2619 28.8352 30.5622 28.8045 31.3966 27.4196C32.5091 26.6195 32.849 25.3578 32.9726 24.1268C33.0653 23.0805 33.6525 23.2651 34.2705 23.2344C35.1667 23.2344 35.0431 23.8499 34.9504 24.3422C34.7959 25.2347 34.5177 26.0964 34.2705 26.9888C34.0851 27.5735 33.2507 27.9428 33.6834 28.7121C32.9108 28.5275 32.849 29.2045 32.5709 29.6354Z" fill="#2F6FB6"/>
<path d="M23.6092 13.0795C24.1345 13.018 24.5981 13.0487 24.5363 13.7873C24.5054 14.3413 24.7526 14.9875 23.7946 15.0491C22.4658 15.1414 21.2606 15.6645 20.2408 16.4954C19.3756 17.2032 19.0047 16.4954 18.5412 16.0338C17.9541 15.4183 18.6648 15.2029 18.9738 14.9567C20.3335 13.9104 21.8787 13.3257 23.5474 13.0795H23.6092Z" fill="#2A6DB5"/>
<path d="M18.9741 17.9718C17.6144 18.8335 17.2744 20.2799 17.089 21.6647C16.9345 22.8033 16.2547 22.5879 15.6057 22.5571C14.6786 22.4956 15.0495 21.757 15.1422 21.3262C15.3276 20.0645 15.7911 18.8335 16.4401 17.7256C16.6255 17.4179 17.089 17.1409 16.7182 16.6793C17.9543 16.31 18.8505 16.4947 19.005 17.9718H18.9741Z" fill="#266CB4"/>
<path d="M18.356 30.9894C19.0976 30.0354 19.9938 29.4507 21.2299 30.0969C22.0024 30.497 22.8059 30.9278 23.6712 30.9278C24.66 30.9278 24.66 31.5125 24.6291 32.1895C24.5673 33.2666 23.8566 32.805 23.3312 32.7435C21.9097 32.5281 20.6427 31.9741 19.4066 31.2356C19.0976 31.0509 18.8195 30.5278 18.356 30.9894Z" fill="#2A6DB5"/>
<path d="M24.0419 24.9879C24.2273 24.3417 25.6797 23.3261 23.5784 23.48C23.3311 23.48 23.2693 23.2646 23.2384 23.0184C23.053 21.9105 24.1346 21.6336 24.629 21.0181C24.9381 20.6488 25.3707 21.3258 25.6797 21.572C26.4523 22.1875 26.6377 23.3261 26.3596 24.0032C26.1432 24.5879 25.3089 25.5111 24.0728 24.9879H24.0419Z" fill="#3571B7"/>
<path d="M29.1098 16.3406C28.7699 16.9561 30.5623 17.3869 29.2335 18.1871C28.739 18.4948 28.4609 18.7718 27.8738 18.3717C27.3175 17.9717 26.6377 17.6947 25.9269 17.6331C24.9689 17.5408 25.278 16.8022 25.2471 16.2791C25.2471 15.479 25.8033 15.7252 26.2668 15.6944C27.2866 15.6636 28.0283 16.6791 29.0789 16.3406H29.1098Z" fill="#2F6FB6"/>
<path d="M20.9516 18.6179L20.1172 17.4485C21.0443 16.5868 22.1567 16.0329 23.3619 15.7867C23.7328 15.6944 24.4435 15.2943 24.5053 16.1252C24.5671 16.7099 24.9689 17.6331 23.7637 17.6639C22.7439 17.6947 22.0949 18.8949 20.9516 18.6179Z" fill="#2A6DB5"/>
<path d="M20.2103 27.3282L19.2523 28.1591C18.7579 26.8973 19.2523 25.3279 17.8308 24.3431C17.5836 24.1585 17.1819 23.1737 18.418 23.4199C19.0978 23.543 18.727 22.4659 19.5923 22.2812C19.4686 23.8507 19.9322 25.2048 20.6738 26.4973C20.7665 26.6511 20.3957 27.0204 20.2412 27.2974L20.2103 27.3282Z" fill="#3F74B9"/>
<path d="M16.6875 31.02C16.2858 31.1123 16.0694 31.6662 15.5132 31.5432C14.7097 30.2506 13.6282 29.112 13.2573 27.5733C13.35 27.5118 13.4118 27.4502 13.4736 27.3887C14.617 27.758 15.3896 28.6812 16.3785 29.3274C17.151 29.8198 17.151 30.3737 16.6875 31.0508V31.02Z" fill="#3571B7"/>
<path d="M20.9518 18.6175C20.6737 19.0791 20.9518 19.6946 20.3029 20.0639C19.2522 20.6178 18.4487 21.4795 18.1088 23.0489C17.3054 21.541 18.1088 20.6178 18.3869 19.6022C18.5414 19.0483 19.3449 18.7098 18.9741 17.9712C19.7157 17.9097 20.0866 19.0175 20.9518 18.6483V18.6175Z" fill="#3571B7"/>
<path d="M20.2101 27.3266C21.0754 27.2342 21.8171 27.5112 22.6205 27.8497C23.9493 28.3729 23.1768 29.3576 23.0532 29.7577C22.8368 30.4347 22.157 29.7577 21.7244 29.5731C20.7046 29.2038 19.932 28.5883 20.1792 27.3266H20.2101Z" fill="#3571B7"/>
<path d="M13.1027 27.081C12.6082 26.2809 12.4846 25.3884 12.4228 24.496C12.3919 23.9728 12.1756 23.3266 13.0409 23.3266C13.5044 23.3266 14.3079 22.9265 14.3697 23.7266C14.4006 24.3729 15.204 25.3269 14.2152 25.6654C13.3499 25.9731 13.319 26.4347 13.3808 27.081C13.2881 27.081 13.1954 27.081 13.1027 27.081Z" fill="#3F74B9"/>
<path d="M21.9097 25.789C22.5895 26.2814 22.7749 24.9274 23.6711 25.4505C24.5982 26.0044 25.0926 26.3737 24.5055 27.42C23.1767 27.5739 22.0951 27.3585 21.9097 25.7582V25.789Z" fill="#3F74B9"/>
<path d="M30.8712 18.2795L32.0455 20.8338L31.7674 21.5108C31.3039 20.1875 30.1605 19.7874 28.8008 19.5105C29.4806 18.9565 29.6351 17.8179 30.8403 18.2795H30.8712Z" fill="#3571B7"/>
<path d="M26.0818 18.3108C26.6381 18.557 27.5651 18.557 27.7815 19.3571C27.9978 20.0649 27.2561 20.3111 26.7617 20.5881C26.6072 20.6804 25.6801 20.9574 26.2672 20.0342C26.6072 19.4495 26.1127 19.6649 25.8655 19.6341C25.2166 19.6033 25.3093 19.1109 25.3093 18.6801C25.3093 18.1877 25.6492 18.2493 26.0818 18.28V18.3108Z" fill="#3F74B9"/>
<path d="M31.3969 27.4203C30.9951 26.928 30.5316 28.1281 30.2226 27.4203C30.0062 26.8972 29.8517 26.1586 30.0681 25.6662C30.408 24.9276 31.2114 25.0507 31.8913 25.2046C32.1076 26.0663 30.9333 26.5279 31.366 27.3896L31.3969 27.4203Z" fill="#2F6FB6"/>
<path d="M24.5675 18.9577C24.5057 19.8809 23.7331 20.0655 23.0533 20.2502C22.5588 20.3733 21.9099 20.004 22.0026 19.5424C22.188 18.6499 23.1769 18.5884 23.9185 18.3422C24.3821 18.1883 24.6293 18.4345 24.5675 18.9577Z" fill="#2A6DB5"/>
<path d="M15.5747 25.8811C15.1729 25.2348 15.0802 24.5886 15.0493 23.9116C15.0493 23.3884 15.3274 23.2345 15.7601 23.2961C16.1618 23.3576 16.6871 23.0499 16.9653 23.5115C17.2743 24.0039 16.7798 24.127 16.4708 24.3116C15.9146 24.6501 15.8528 25.2656 15.5747 25.9119V25.8811Z" fill="#4979BB"/>
<path d="M24.5366 27.4201C25.5564 26.9893 26.638 27.1124 27.8123 26.9277C26.8234 28.3433 25.4946 28.4972 24.5675 27.3893L24.5366 27.4201Z" fill="#4979BB"/>
<path d="M27.1015 32.8051C26.1127 32.8051 25.4637 33.359 25.2783 32.3743C25.2165 32.0358 25.0002 31.4818 25.4328 31.3895C26.4835 31.1741 26.1127 32.3435 27.0706 32.8051H27.1015Z" fill="#4979BB"/>
<path d="M30.439 31.0814C30.7171 30.2813 30.7171 29.6966 30.0063 29.1119C31.1188 28.958 31.4588 29.5735 31.5824 30.1274C31.706 30.6198 31.1806 30.8968 30.439 31.1122V31.0814Z" fill="#4979BB"/>
<path d="M21.9406 25.7574C20.6118 26.1575 20.9208 24.9265 20.6118 24.3418C21.3535 24.5264 22.126 24.7111 21.9406 25.7882V25.7574Z" fill="#3F74B9"/>
<path d="M31.7986 21.511L32.0767 20.834H32.5711C32.942 20.9879 33.0347 21.2648 33.0038 21.6033C32.8802 21.6649 32.7256 21.7264 32.602 21.8188C32.3548 22.0342 32.5093 22.7112 31.9531 22.4958C31.4895 22.3111 31.8913 21.8495 31.8295 21.511H31.7986Z" fill="#4979BB"/>
<path d="M33.6834 28.7116C33.2508 27.9115 34.0852 27.573 34.2706 26.9883L34.6105 27.3883C34.3942 27.8807 34.3324 28.4962 33.6834 28.7116Z" fill="#D7DDF0"/>
<path d="M32.5713 29.635C32.8494 29.2349 32.9112 28.5271 33.6838 28.7118C33.7765 29.2349 33.4057 29.4504 33.0657 29.6965L32.6022 29.635H32.5713Z" fill="#D7DDF0"/>
<path d="M13.1025 27.0816C13.1025 27.0816 13.288 27.0816 13.3807 27.0816C13.4425 27.1739 13.4734 27.2662 13.4734 27.3585C13.4116 27.4201 13.3189 27.4816 13.2571 27.5432C13.2261 27.3893 13.1643 27.2354 13.1334 27.0508L13.1025 27.0816Z" fill="#3571B7"/>
<path d="M37.7319 15.0481C38.3809 14.7096 38.4736 14.9558 38.2573 15.5405L37.7319 15.0481Z" fill="#1E6AB3"/>
<path d="M10.0435 30.1895C10.1671 30.4356 10.2598 30.6511 10.0435 30.8973L9.82715 30.3741C9.82715 30.3741 9.95076 30.251 10.0435 30.1895Z" fill="#1E6AB3"/>
<path d="M40.2658 30.0963C40.2658 30.0963 40.2349 30.5579 39.9259 30.4348C39.8641 30.4348 39.9259 30.0655 39.9568 29.8809L40.2349 30.0963H40.2658Z" fill="#1E6AB3"/>
<path d="M35.3525 85.7054C35.3525 85.49 35.2907 85.2438 35.3525 85.0592C35.6615 84.1667 34.5181 82.7512 36.2796 82.4126C38.5663 81.9818 40.6368 82.905 41.1312 84.4437C41.6566 86.0747 41.0076 87.7981 39.617 88.5366C38.5045 89.1214 37.3302 89.0906 36.1251 88.9983C35.4761 88.9367 35.3216 88.5674 35.3525 88.0135C35.3525 87.2441 35.3525 86.5056 35.3525 85.7362V85.7054Z" fill="#266CB4"/>
<path d="M10.5995 82.3207C14.9258 82.3207 17.089 84.321 17.1508 88.3832C17.2435 92.7223 14.864 95.2457 10.6304 95.3688C8.98227 95.4304 8.1582 94.6405 8.1582 92.9992C8.1582 90.2296 8.1582 87.4907 8.1582 84.7211C8.1582 83.1003 8.97196 82.3002 10.5995 82.3207Z" fill="#1D6AB3"/>
<path d="M32.5711 20.8648H32.0766L30.9023 18.3105C32.1384 18.4029 32.602 19.1414 32.5711 20.8648Z" fill="#EBEEF7"/>
<path d="M33.6838 31.3282C33.2511 31.6667 33.1275 31.3282 33.0039 30.9897C33.4674 30.6204 33.591 30.9589 33.6838 31.3282Z" fill="#EBEEF7"/>
</g>
<defs>
<clipPath id="clip0_10377_12408">
<rect width="50" height="101" fill="white"/>
</clipPath>
</defs>
</svg>
