<svg width="17" height="21" viewBox="0 0 17 21" fill="none" xmlns="http://www.w3.org/2000/svg">
<g clip-path="url(#clip0_7940_12638)">
<path d="M14.1273 11.0994C14.1273 9.36881 15.0591 7.85914 16.4415 7.05959C15.7196 6.16047 14.6338 5.3547 13.4369 5.11825C11.8047 4.79547 10.8736 5.33292 10.2714 5.54836C9.66905 5.76381 8.86905 5.95747 8.86905 5.95747C8.86905 5.95747 8.06982 5.76381 7.46675 5.54836C6.86522 5.33292 5.93419 4.7947 4.302 5.11748C2.66982 5.44025 1.24453 6.82236 0.66522 8.05436C-0.452021 10.432 0.00774913 13.4234 0.797021 15.5747C1.58553 17.7268 3.67058 20.7337 5.28744 20.9756C6.43763 21.1475 7.14951 20.3409 8.86905 20.1364C10.5886 20.3409 11.3005 21.1475 12.4507 20.9756C14.0675 20.7337 16.1526 17.7268 16.9411 15.5747C16.9602 15.5218 16.9802 15.4674 16.9993 15.4129C15.3158 14.7269 14.1273 13.0539 14.1273 11.0994ZM8.46062 4.7247C8.46062 4.7247 10.0599 4.94014 11.512 3.26636C12.9641 1.59259 12.551 0.00903024 12.551 0.00903024C12.551 0.00903024 10.9518 -0.206414 9.4997 1.46736C8.0476 3.14114 8.46062 4.7247 8.46062 4.7247Z" fill="#16020B"/>
</g>
<defs>
<clipPath id="clip0_7940_12638">
<rect width="17" height="21" fill="white"/>
</clipPath>
</defs>
</svg>
