<svg width="139" height="24" viewBox="0 0 139 24" fill="none" xmlns="http://www.w3.org/2000/svg">
<path d="M94.262 0.445312L90.4102 23.8527H96.4842L100.336 0.445312H94.262Z" fill="#0072FF"/>
<path d="M129.371 0.445312C127.889 0.445312 126.852 0.889756 126.26 2.37124L117.223 24.0009H123.593C123.593 24.0009 124.63 21.0379 124.926 20.4453C125.667 20.4453 131.741 20.4453 132.63 20.4453C132.778 21.3342 133.371 24.0009 133.371 24.0009H139L134.112 0.445312H129.371ZM126.556 15.5564C127 14.2231 128.926 9.0379 128.926 9.0379C128.926 9.0379 129.371 7.70457 129.667 6.81568L130.112 8.88976C130.112 8.88976 131.297 14.5194 131.593 15.7046H126.556V15.5564Z" fill="#0072FF"/>
<path d="M112.48 9.92593C110.406 8.88889 109.072 8.14815 109.072 6.96296C109.072 5.92593 110.11 4.88889 112.48 4.88889C114.406 4.88889 115.887 5.33334 117.072 5.77778L117.665 6.07407L118.554 1.03704C117.369 0.592594 115.443 0 113.072 0C107.147 0 102.85 3.25926 102.85 7.7037C102.85 11.1111 105.813 13.037 108.184 14.0741C110.554 15.2593 111.295 16 111.295 17.037C111.295 18.6667 109.369 19.2593 107.591 19.2593C105.221 19.2593 103.887 18.963 101.813 18.0741L101.072 17.6296L100.184 22.8148C101.665 23.4074 104.184 24 106.998 24C113.369 24 117.517 20.8889 117.517 16C117.665 13.6296 116.035 11.5556 112.48 9.92593Z" fill="#0072FF"/>
<path d="M85.3724 0.445312L79.4465 16.4453L78.8539 13.1861L76.7798 2.37124C76.4835 0.889756 75.2983 0.445312 73.965 0.445312H64.3354C64.1872 0.445312 64.1872 0.593461 64.0391 0.593461C64.0391 0.741609 64.0391 0.889756 64.1872 0.889756C65.6687 1.3342 67.002 1.77864 68.1872 2.37124C69.5205 2.96383 70.4094 4.14902 70.8539 5.48235L75.7428 23.8527H82.1131L91.5946 0.445312H85.3724Z" fill="#0072FF"/>
<path d="M40.0352 12C40.0352 18.6032 34.7018 24 28.0352 24C21.432 24 16.0352 18.6032 16.0352 12C16.0352 5.39682 21.3685 0 27.9717 0C34.7018 0 40.0352 5.39682 40.0352 12Z" fill="#FFB600"/>
<path d="M28.0352 0C34.6383 0 40.0352 5.39682 40.0352 12C40.0352 18.6032 34.7018 24 28.0352 24C21.432 24 16.0352 18.6032 16.0352 12" fill="#F7981D"/>
<path d="M28.0391 0C34.6422 0 40.0391 5.39682 40.0391 12C40.0391 18.6032 34.7057 24 28.0391 24" fill="#FF8500"/>
<path d="M11.9082 0C5.36849 0.0634921 0.0351562 5.39682 0.0351562 12C0.0351562 18.6032 5.36849 24 12.0352 24C15.1463 24 17.9399 22.7936 20.0986 20.8889C20.5431 20.5079 20.924 20.0635 21.305 19.619H18.8288C18.5113 19.2381 18.1939 18.7936 17.9399 18.4127H22.1939C22.4479 18.0317 22.7018 17.5873 22.8923 17.1429H17.2415C17.051 16.7619 16.8606 16.3175 16.7336 15.873H23.3367C23.7177 14.6667 23.9717 13.3968 23.9717 12.0635C23.9717 11.1746 23.8447 10.3492 23.7177 9.52381H16.3526C16.4161 9.07936 16.5431 8.69841 16.6701 8.25397H23.2732C23.1463 7.80952 22.9558 7.36508 22.7653 6.98413H17.178C17.3685 6.53968 17.6225 6.15873 17.8764 5.71429H22.1304C21.8764 5.26984 21.559 4.8254 21.178 4.44444H18.8288C19.2098 4 19.5907 3.61905 20.0352 3.2381C17.9399 1.26984 15.0828 0.126984 11.9717 0.126984C11.9717 -1.22994e-07 11.9717 0 11.9082 0Z" fill="#FF5050"/>
<path d="M0.0351562 12C0.0351562 18.6031 5.36849 24 12.0352 24C15.1463 24 17.9399 22.7936 20.0986 20.8889C20.5431 20.5079 20.924 20.0635 21.305 19.619H18.8288C18.5113 19.2381 18.1939 18.7936 17.9399 18.4127H22.1939C22.4479 18.0317 22.7018 17.5873 22.8923 17.1428H17.2415C17.051 16.7619 16.8606 16.3174 16.7336 15.873H23.3367C23.7177 14.6666 23.9717 13.3968 23.9717 12.0635C23.9717 11.1746 23.8447 10.3492 23.7177 9.52378H16.3526C16.4161 9.07933 16.5431 8.69838 16.6701 8.25394H23.2732C23.1463 7.80949 22.9558 7.36505 22.7653 6.9841H17.178C17.3685 6.53965 17.6225 6.1587 17.8764 5.71425H22.1304C21.8764 5.26981 21.559 4.82537 21.178 4.44441H18.8288C19.2098 3.99997 19.5907 3.61902 20.0352 3.23806C17.9399 1.26981 15.0828 0.126953 11.9717 0.126953H11.9082" fill="#E52836"/>
<path d="M12.0371 24C15.1483 24 17.9419 22.7936 20.1006 20.8889C20.5451 20.5079 20.926 20.0635 21.307 19.619H18.8308C18.5133 19.2381 18.1959 18.7936 17.9419 18.4127H22.1959C22.4498 18.0317 22.7038 17.5873 22.8943 17.1428H17.2435C17.053 16.7619 16.8625 16.3174 16.7356 15.873H23.3387C23.7197 14.6666 23.9736 13.3968 23.9736 12.0635C23.9736 11.1746 23.8467 10.3492 23.7197 9.52378H16.3546C16.4181 9.07933 16.5451 8.69838 16.6721 8.25394H23.2752C23.1482 7.80949 22.9578 7.36505 22.7673 6.9841H17.18C17.3705 6.53965 17.6244 6.1587 17.8784 5.71425H22.1324C21.8784 5.26981 21.5609 4.82537 21.18 4.44441H18.8308C19.2117 3.99997 19.5927 3.61902 20.0371 3.23806C17.9419 1.26981 15.0848 0.126953 11.9736 0.126953H11.9102" fill="#CB2026"/>
<path d="M16.2827 15.0482L16.4732 13.9689C16.4097 13.9689 16.2827 14.0324 16.1557 14.0324C15.7112 14.0324 15.6478 13.7784 15.7112 13.6514L16.0922 11.4292H16.7906L16.9811 10.2228H16.3462L16.4732 9.46094H15.2033C15.2033 9.46094 14.4414 13.6514 14.4414 14.1594C14.4414 14.9213 14.8858 15.2387 15.4573 15.2387C15.8382 15.2387 16.1557 15.1117 16.2827 15.0482Z" fill="white"/>
<path d="M16.7344 13.0156C16.7344 14.7933 17.9407 15.2378 18.9566 15.2378C19.909 15.2378 20.2899 15.0473 20.2899 15.0473L20.5439 13.841C20.5439 13.841 19.8455 14.1584 19.2106 14.1584C17.8137 14.1584 18.0677 13.1426 18.0677 13.1426H20.6709C20.6709 13.1426 20.8614 12.3172 20.8614 11.9997C20.8614 11.1743 20.4169 10.1584 19.0201 10.1584C17.6868 10.0314 16.7344 11.4283 16.7344 13.0156ZM18.9566 11.1743C19.655 11.1743 19.528 11.9997 19.528 12.0632H18.1312C18.1312 11.9997 18.2582 11.1743 18.9566 11.1743Z" fill="white"/>
<path d="M27.0194 15.0474L27.2734 13.6506C27.2734 13.6506 26.6385 13.968 26.194 13.968C25.3051 13.968 24.9242 13.2696 24.9242 12.5077C24.9242 10.9839 25.6861 10.1585 26.575 10.1585C27.2099 10.1585 27.7178 10.5395 27.7178 10.5395L27.9083 9.20613C27.9083 9.20613 27.1464 8.88867 26.448 8.88867C24.9877 8.88867 23.5273 10.1585 23.5273 12.5712C23.5273 14.1585 24.2892 15.2379 25.8131 15.2379C26.321 15.2379 27.0194 15.0474 27.0194 15.0474Z" fill="white"/>
<path d="M9.30332 10.0312C8.41443 10.0312 7.77951 10.2852 7.77951 10.2852L7.58904 11.3646C7.58904 11.3646 8.16047 11.1106 8.98586 11.1106C9.43031 11.1106 9.81126 11.1741 9.81126 11.5551C9.81126 11.809 9.74777 11.8725 9.74777 11.8725C9.74777 11.8725 9.36682 11.8725 9.17634 11.8725C8.09697 11.8725 6.89062 12.317 6.89062 13.7773C6.89062 14.9201 7.65253 15.1741 8.09697 15.1741C8.98586 15.1741 9.36682 14.6027 9.43031 14.6027L9.36682 15.1106H10.5097L11.0176 11.6186C11.0176 10.0947 9.74777 10.0312 9.30332 10.0312ZM9.55729 12.8884C9.55729 13.0789 9.43031 14.0947 8.6684 14.0947C8.28745 14.0947 8.16047 13.7773 8.16047 13.5868C8.16047 13.2693 8.35094 12.8249 9.30332 12.8249C9.4938 12.8884 9.55729 12.8884 9.55729 12.8884Z" fill="white"/>
<path d="M12.2298 15.1751C12.5473 15.1751 14.1346 15.2386 14.1346 13.5243C14.1346 11.937 12.6108 12.2545 12.6108 11.6195C12.6108 11.3021 12.8648 11.1751 13.3092 11.1751C13.4997 11.1751 14.1981 11.2386 14.1981 11.2386L14.3886 10.0957C14.3886 10.0957 13.9441 9.96875 13.1822 9.96875C12.2298 9.96875 11.2775 10.3497 11.2775 11.6195C11.2775 13.0799 12.8648 12.9529 12.8648 13.5243C12.8648 13.9053 12.4203 13.9687 12.1029 13.9687C11.5314 13.9687 10.96 13.7783 10.96 13.7783L10.7695 14.9211C10.833 15.0481 11.1505 15.1751 12.2298 15.1751Z" fill="white"/>
<path d="M37.5605 9.01562L37.3065 10.7299C37.3065 10.7299 36.7985 10.095 36.1001 10.095C34.9573 10.095 33.9414 11.4918 33.9414 13.1426C33.9414 14.1585 34.4493 15.2378 35.5287 15.2378C36.2906 15.2378 36.7351 14.7299 36.7351 14.7299L36.6716 15.1744H37.9414L38.8938 9.07912L37.5605 9.01562ZM36.989 12.3807C36.989 13.0791 36.6716 13.968 35.9732 13.968C35.5287 13.968 35.2747 13.5871 35.2747 12.9521C35.2747 11.9363 35.7192 11.3013 36.2906 11.3013C36.7351 11.3013 36.989 11.6188 36.989 12.3807Z" fill="white"/>
<path d="M2.38213 15.1109L3.14404 10.5394L3.27102 15.1109H4.15991L5.8107 10.5394L5.11229 15.1109H6.44562L7.46149 9.01562H5.36626L4.09642 12.7617L4.03292 9.01562H2.19165L1.17578 15.1109H2.38213Z" fill="white"/>
<path d="M22.0648 15.1106C22.4457 13.0153 22.5092 11.3011 23.3981 11.6185C23.5251 10.7931 23.7156 10.4757 23.8426 10.1582C23.8426 10.1582 23.7791 10.1582 23.5886 10.1582C23.0172 10.1582 22.5727 10.9201 22.5727 10.9201L22.6997 10.2217H21.4934L20.668 15.1741H22.0648V15.1106Z" fill="white"/>
<path d="M29.94 10.0312C29.0512 10.0312 28.4162 10.2852 28.4162 10.2852L28.2258 11.3646C28.2258 11.3646 28.7972 11.1106 29.6226 11.1106C30.067 11.1106 30.448 11.1741 30.448 11.5551C30.448 11.809 30.3845 11.8725 30.3845 11.8725C30.3845 11.8725 30.0035 11.8725 29.8131 11.8725C28.7337 11.8725 27.5273 12.317 27.5273 13.7773C27.5273 14.9201 28.2892 15.1741 28.7337 15.1741C29.6226 15.1741 30.0035 14.6027 30.067 14.6027L30.0035 15.1106H31.1464L31.6543 11.6186C31.7178 10.0947 30.3845 10.0312 29.94 10.0312ZM30.2575 12.8884C30.2575 13.0789 30.1305 14.0947 29.3686 14.0947C28.9877 14.0947 28.8607 13.7773 28.8607 13.5868C28.8607 13.2693 29.0512 12.8249 30.0035 12.8249C30.194 12.8884 30.194 12.8884 30.2575 12.8884Z" fill="white"/>
<path d="M32.7367 15.1106C33.1176 13.0153 33.1811 11.3011 34.07 11.6185C34.197 10.7931 34.3875 10.4757 34.5144 10.1582C34.5144 10.1582 34.451 10.1582 34.2605 10.1582C33.6891 10.1582 33.2446 10.9201 33.2446 10.9201L33.3716 10.2217H32.1652L31.3398 15.1741H32.7367V15.1106Z" fill="white"/>
<path d="M14.3203 14.1594C14.3203 14.9213 14.7648 15.2387 15.3362 15.2387C15.7806 15.2387 16.1616 15.1117 16.2886 15.0482L16.479 13.9689C16.4156 13.9689 16.2886 14.0324 16.1616 14.0324C15.7171 14.0324 15.6536 13.7784 15.7171 13.6514L16.0981 11.4292H16.7965L16.987 10.2228H16.3521L16.479 9.46094" fill="#DCE5E5"/>
<path d="M17.3711 13.0156C17.3711 14.7933 17.9425 15.2378 18.9584 15.2378C19.9108 15.2378 20.2917 15.0473 20.2917 15.0473L20.5457 13.841C20.5457 13.841 19.8473 14.1584 19.2124 14.1584C17.8155 14.1584 18.0695 13.1426 18.0695 13.1426H20.6727C20.6727 13.1426 20.8632 12.3172 20.8632 11.9997C20.8632 11.1743 20.4187 10.1584 19.0219 10.1584C17.6886 10.0314 17.3711 11.4283 17.3711 13.0156ZM18.9584 11.1743C19.6568 11.1743 19.7838 11.9997 19.7838 12.0632H18.133C18.133 11.9997 18.26 11.1743 18.9584 11.1743Z" fill="#DCE5E5"/>
<path d="M27.0134 15.0474L27.2674 13.6506C27.2674 13.6506 26.6324 13.968 26.188 13.968C25.2991 13.968 24.9182 13.2696 24.9182 12.5077C24.9182 10.9839 25.6801 10.1585 26.5689 10.1585C27.2039 10.1585 27.7118 10.5395 27.7118 10.5395L27.9023 9.20613C27.9023 9.20613 27.1404 8.88867 26.442 8.88867C24.9816 8.88867 24.1562 10.1585 24.1562 12.5712C24.1562 14.1585 24.2832 15.2379 25.807 15.2379C26.315 15.2379 27.0134 15.0474 27.0134 15.0474Z" fill="#DCE5E5"/>
<path d="M7.58904 11.428C7.58904 11.428 8.16047 11.1741 8.98586 11.1741C9.43031 11.1741 9.81126 11.2376 9.81126 11.6185C9.81126 11.8725 9.74777 11.936 9.74777 11.936C9.74777 11.936 9.36682 11.936 9.17634 11.936C8.09697 11.936 6.89062 12.3804 6.89062 13.8407C6.89062 14.9836 7.65253 15.2376 8.09697 15.2376C8.98586 15.2376 9.36682 14.6661 9.43031 14.6661L9.36682 15.1741H10.5097L11.0176 11.682C11.0176 10.2217 9.74777 10.1582 9.23983 10.1582M10.1922 12.8884C10.1922 13.0788 9.43031 14.0947 8.6684 14.0947C8.28745 14.0947 8.16047 13.7773 8.16047 13.5868C8.16047 13.2693 8.35094 12.8249 9.30332 12.8249C9.4938 12.8884 10.1922 12.8884 10.1922 12.8884Z" fill="#DCE5E5"/>
<path d="M10.8281 15.0481C10.8281 15.0481 11.2091 15.1751 12.2884 15.1751C12.6059 15.1751 14.1932 15.2386 14.1932 13.5243C14.1932 11.937 12.6694 12.2545 12.6694 11.6195C12.6694 11.3021 12.9234 11.1751 13.3678 11.1751C13.5583 11.1751 14.2567 11.2386 14.2567 11.2386L14.4472 10.0957C14.4472 10.0957 14.0027 9.96875 13.2408 9.96875C12.2884 9.96875 11.971 10.3497 11.971 11.6195C11.971 13.0799 12.9234 12.9529 12.9234 13.5243C12.9234 13.9053 12.4789 13.9687 12.1615 13.9687" fill="#DCE5E5"/>
<path d="M37.309 10.7309C37.309 10.7309 36.801 10.096 36.1026 10.096C34.9598 10.096 34.5788 11.4928 34.5788 13.1436C34.5788 14.1594 34.4518 15.2388 35.5312 15.2388C36.2931 15.2388 36.7376 14.7309 36.7376 14.7309L36.6741 15.1753H37.9439L38.8963 9.08008M37.2455 12.3817C37.2455 13.0801 36.6741 13.969 35.9756 13.969C35.5312 13.969 35.2772 13.588 35.2772 12.9531C35.2772 11.9372 35.7217 11.3023 36.2931 11.3023C36.7376 11.3023 37.2455 11.6198 37.2455 12.3817Z" fill="#DCE5E5"/>
<path d="M2.38213 15.1109L3.14404 10.5394L3.27102 15.1109H4.15991L5.8107 10.5394L5.11229 15.1109H6.44562L7.46149 9.01562H5.87419L4.09642 12.7617L4.03292 9.01562H3.33451L1.17578 15.1109H2.38213Z" fill="#DCE5E5"/>
<path d="M20.7344 15.1106H22.0677C22.4487 13.0153 22.5122 11.3011 23.401 11.6185C23.528 10.7931 23.7185 10.4757 23.8455 10.1582C23.8455 10.1582 23.782 10.1582 23.5915 10.1582C23.0201 10.1582 22.5756 10.9201 22.5756 10.9201L22.7026 10.2217" fill="#DCE5E5"/>
<path d="M28.2258 11.428C28.2258 11.428 28.7972 11.1741 29.6226 11.1741C30.067 11.1741 30.448 11.2376 30.448 11.6185C30.448 11.8725 30.3845 11.936 30.3845 11.936C30.3845 11.936 30.0035 11.936 29.8131 11.936C28.7337 11.936 27.5273 12.3804 27.5273 13.8407C27.5273 14.9836 28.2892 15.2376 28.7337 15.2376C29.6226 15.2376 30.0035 14.6661 30.067 14.6661L30.0035 15.1741H31.1464L31.6543 11.682C31.6543 10.2217 30.3845 10.1582 29.8766 10.1582M30.8289 12.8884C30.8289 13.0788 30.067 14.0947 29.3051 14.0947C28.9242 14.0947 28.7972 13.7773 28.7972 13.5868C28.7972 13.2693 28.9877 12.8249 29.94 12.8249C30.194 12.8884 30.8289 12.8884 30.8289 12.8884Z" fill="#DCE5E5"/>
<path d="M31.3984 15.1106H32.7318C33.1127 13.0153 33.1762 11.3011 34.0651 11.6185C34.1921 10.7931 34.3826 10.4757 34.5095 10.1582C34.5095 10.1582 34.4461 10.1582 34.2556 10.1582C33.6842 10.1582 33.2397 10.9201 33.2397 10.9201L33.3667 10.2217" fill="#DCE5E5"/>
</svg>
