<svg width="54" height="55" viewBox="0 0 54 55" fill="none" xmlns="http://www.w3.org/2000/svg">
<g id="Group 1171276481">
<g id="Group 1171276029">
<g id="Group 1171275984">
<g id="Group 1171275872">
<ellipse id="Ellipse 1098" cx="27" cy="27.2547" rx="27" ry="27.2547" fill="#FEEAEE"/>
</g>
</g>
</g>
<g id="Layer_1">
<path id="Vector" d="M20.8787 23.5702C19.8942 22.7317 20.0165 21.5208 20.6579 20.8451C20.8234 20.6715 21.0215 20.5322 21.2409 20.4353C21.4603 20.3383 21.6966 20.2855 21.9364 20.2799C22.1762 20.2743 22.4147 20.3161 22.6384 20.4027C22.862 20.4894 23.0664 20.6193 23.2398 20.785C24.037 21.5494 23.9804 22.6479 23.084 23.58C23.3897 23.7034 23.6823 23.8572 23.9574 24.0391C24.2654 24.2534 24.5398 24.5125 24.7714 24.8077C24.8532 24.9132 24.9112 24.9174 25.0223 24.8552C25.2396 24.7357 25.4709 24.6407 25.7008 24.5331C25.67 24.4346 25.5722 24.3975 25.5065 24.3339C24.754 23.6107 24.6554 22.4802 25.2969 21.6577C25.4122 21.5082 25.3926 21.4481 25.255 21.3454C24.3347 20.6467 23.5046 19.8543 22.8792 18.8732C22.3978 18.12 22.075 17.315 22.119 16.3969C22.132 16.0439 22.2199 15.6977 22.3771 15.3813C22.5342 15.0649 22.7569 14.7857 23.0304 14.562C23.3039 14.3384 23.6218 14.1756 23.9631 14.0844C24.3044 13.9932 24.6611 13.9757 25.0097 14.033C25.6235 14.1238 26.2033 14.3717 26.693 14.7527C26.8369 14.8638 26.9166 14.8645 27.0668 14.7527C27.9542 14.1085 28.9192 13.7962 30.0099 14.1609C30.4659 14.3166 30.8651 14.6048 31.1563 14.9887C31.4474 15.3726 31.6174 15.8347 31.6443 16.3158C31.7142 17.4115 31.2837 18.3359 30.6695 19.1954C30.0721 20.0339 29.3286 20.7263 28.5125 21.3447C28.3783 21.4467 28.349 21.504 28.4678 21.6563C28.7735 22.0482 28.9216 22.5403 28.8828 23.0358C28.844 23.5314 28.6212 23.9944 28.2582 24.3339C28.1918 24.3975 28.0954 24.4353 28.0625 24.5331C28.0779 24.5464 28.0877 24.5617 28.1009 24.5652C28.3804 24.6477 28.6418 24.9195 28.8766 24.8825C29.0946 24.8482 29.2567 24.5079 29.4586 24.3186C29.808 23.9881 30.2272 23.7638 30.6807 23.5849C29.794 22.6493 29.7241 21.5942 30.483 20.8262C30.816 20.4868 31.2687 20.2912 31.7442 20.2813C32.2197 20.2713 32.6801 20.4479 33.0271 20.7731C33.8341 21.5229 33.788 22.5472 32.8908 23.5891C33.282 23.7362 33.6477 23.9436 33.9746 24.204C34.5165 24.6466 34.9368 25.2199 35.196 25.8698C35.4056 26.3855 35.1303 26.811 34.5727 26.8138C33.3618 26.8194 32.1509 26.8138 30.9392 26.8138C30.5612 26.8138 30.5612 26.8138 30.6954 27.159C30.8295 27.5041 30.7722 27.7676 30.5354 27.9632C30.3663 28.103 30.1664 28.103 29.9659 28.103H24.9992C24.5723 28.103 24.1454 28.1072 23.7184 28.103C23.1217 28.096 22.8541 27.6907 23.0749 27.138C23.2027 26.8166 23.2027 26.8166 22.8499 26.8166C21.6564 26.8166 20.4627 26.8166 19.2688 26.8166C18.6085 26.8166 18.3311 26.4008 18.5959 25.8013C19.0431 24.7867 19.7495 24.0314 20.8005 23.6268C20.8282 23.6104 20.8544 23.5914 20.8787 23.5702ZM31.3187 20.9094C30.8009 21.0806 30.4704 21.5711 30.4802 22.1504C30.4843 22.4157 30.5733 22.6728 30.7341 22.8839C30.8949 23.095 31.1191 23.2491 31.3739 23.3236L31.3829 23.3354L31.3976 23.3319L31.4773 23.3627C32.0523 23.4843 32.5813 23.2711 32.879 22.7974C33.0212 22.5712 33.09 22.3065 33.0758 22.0397C33.0617 21.7728 32.9654 21.5169 32.8 21.307C32.6444 21.1009 32.4288 20.9481 32.1828 20.8696C31.9367 20.7911 31.6724 20.7909 31.4263 20.8689C31.4063 20.8635 31.3852 20.8645 31.3659 20.8718C31.3466 20.8791 31.3301 20.8922 31.3187 20.9094ZM21.2763 24.0384C20.1625 24.3179 19.4819 25.0704 19.0403 26.0836C18.9774 26.2282 19.0466 26.2974 19.1968 26.2932L19.6161 26.2813C20.8682 26.2846 22.1202 26.2886 23.3718 26.2932C23.4145 26.2971 23.4574 26.2888 23.4956 26.2694C23.5338 26.25 23.5657 26.2203 23.5878 26.1835C23.7991 25.8641 24.0557 25.5769 24.3494 25.331C24.4276 25.2661 24.4297 25.2171 24.3676 25.1389C23.7058 24.3116 22.5858 23.7246 21.3902 24.0069C21.3702 24.0007 21.3488 24.0003 21.3286 24.0059C21.3084 24.0115 21.2903 24.0227 21.2763 24.0384ZM21.5488 23.3152C21.7787 23.4263 22.0177 23.4228 22.2608 23.3732C22.9673 23.2285 23.4152 22.4886 23.2391 21.7849C23.063 21.0813 22.2895 20.6404 21.6529 20.8633C21.1002 20.9849 20.7068 21.4698 20.6782 22.0637C20.6682 22.3384 20.7478 22.609 20.9048 22.8347C21.0618 23.0603 21.2878 23.229 21.5488 23.3152ZM26.6657 24.3297C26.8642 24.3996 27.0612 24.3591 27.2541 24.3116C27.6275 24.2129 27.9481 23.973 28.1482 23.6426C28.3483 23.3122 28.4123 22.9169 28.3266 22.5403C28.1443 21.7793 27.3875 21.2713 26.6664 21.4223C25.96 21.4921 25.4129 22.1084 25.4003 22.8463C25.3876 23.2071 25.5106 23.5596 25.745 23.8342C25.9794 24.1088 26.3081 24.2856 26.6664 24.3297H26.6657ZM29.6424 25.5176C29.8213 25.7412 30.005 25.9613 30.1776 26.1898C30.2028 26.2243 30.2365 26.2517 30.2755 26.2692C30.3144 26.2867 30.3573 26.2938 30.3998 26.2897C31.7759 26.2897 33.1519 26.2897 34.528 26.2897C34.7292 26.2897 34.7754 26.2122 34.6971 26.0312C34.3694 25.2717 33.8705 24.6602 33.1319 24.2724C32.459 23.9231 31.7505 23.819 31.0119 24.0551C30.4529 24.1767 30.005 24.496 29.6088 24.8936C29.2825 25.2269 29.2839 25.229 29.6431 25.5197L29.6424 25.5176ZM26.3052 24.9474L26.2185 24.9775H26.2046C26.12 24.9949 26.0334 25.0047 25.9516 25.0299C24.8713 25.366 24.1467 26.099 23.6639 27.0961C23.4389 27.5621 23.4494 27.5768 23.9539 27.5747C24.0405 27.5747 24.1265 27.5663 24.2131 27.5621C24.2998 27.5579 24.4039 27.5747 24.4996 27.5747H29.8799C29.9324 27.5747 29.9848 27.5747 30.0372 27.5747C30.2244 27.5831 30.2685 27.5048 30.1972 27.3343C30.1013 27.1008 29.9878 26.8749 29.8576 26.6587C29.0673 25.3562 27.6684 24.684 26.3059 24.9495L26.3052 24.9474ZM24.58 14.5445C24.1453 14.5348 23.7205 14.6755 23.3777 14.9429C23.0348 15.2103 22.7948 15.5879 22.6983 16.0119C22.5208 16.7805 22.7178 17.4967 23.0707 18.178C23.6618 19.3169 24.5786 20.1645 25.5666 20.9492C25.7727 21.1134 25.9453 21.163 26.157 20.996C26.716 20.8074 27.2701 20.8186 27.8012 21.098C27.9144 21.1574 27.978 21.1036 28.0555 21.0456C28.6834 20.5902 29.2608 20.069 29.7779 19.4909C30.4068 18.7677 30.9169 17.9782 31.0937 17.0104C31.3236 15.7492 30.5927 14.6836 29.3748 14.5501C28.546 14.46 27.8445 14.7891 27.2156 15.2999C26.8872 15.5668 26.8823 15.5661 26.5581 15.3048C25.9782 14.8408 25.3451 14.5201 24.58 14.5445Z" fill="#050505"/>
<path id="Vector_2" d="M35.3835 27.9878C35.9191 26.961 36.3935 25.9033 36.804 24.8204C36.9948 24.3271 37.1597 23.8233 37.3365 23.3237C37.523 22.7968 37.8591 22.4272 38.4216 22.3007C38.5704 22.2653 38.7251 22.262 38.8753 22.2911C39.0254 22.3201 39.1677 22.3808 39.2926 22.4691C39.4175 22.5575 39.5221 22.6714 39.5995 22.8033C39.6769 22.9352 39.7254 23.0821 39.7416 23.2342C39.7758 23.4674 39.7623 23.7052 39.7017 23.933C39.0121 26.3555 38.3371 28.7816 37.6055 31.1909C37.3926 31.8934 37.0139 32.5344 36.5015 33.06C36.0982 33.4696 35.7188 33.9022 35.3653 34.3555C34.763 35.1457 34.6044 36.0534 34.6414 37.017C34.6456 37.1386 34.6826 37.1742 34.807 37.1798C35.4149 37.2077 35.628 37.4362 35.6301 38.0413C35.6301 38.4767 35.6301 38.9127 35.6301 39.348C35.6252 39.8832 35.3576 40.1536 34.828 40.1543C32.981 40.1543 31.1342 40.1543 29.2876 40.1543C28.7552 40.1543 28.4855 39.8874 28.4785 39.3536C28.4729 38.9008 28.4736 38.4452 28.4785 37.9945C28.4834 37.4502 28.7279 37.191 29.2716 37.1819C29.4337 37.1819 29.4469 37.1022 29.4686 36.9841C29.6669 35.9314 29.7686 34.8628 29.7726 33.7916C29.7726 33.1473 29.7726 32.5017 29.9647 31.8756C30.0877 31.469 30.2791 31.0986 30.5978 30.8128C31.5313 29.9743 32.4208 29.0911 33.2817 28.1772C33.6757 27.7579 34.16 27.5252 34.7609 27.6559C34.995 27.7069 35.1885 27.8369 35.3835 27.9878ZM33.6226 39.6226C34.0307 39.6226 34.4395 39.6261 34.8475 39.6317C35.0208 39.6317 35.1033 39.5618 35.1026 39.3822C35.1035 38.9057 35.104 38.4277 35.104 37.9484C35.104 37.7723 35.0222 37.6962 34.8489 37.699C34.4402 37.7045 34.0321 37.7059 33.6233 37.7087C32.169 37.7059 30.7147 37.7025 29.2604 37.6983C29.0864 37.6983 29.0018 37.7716 29.0025 37.947C29.0025 38.4264 29.0025 38.9055 29.0025 39.3843C29.0025 39.5604 29.0857 39.6331 29.2604 39.6324C30.7152 39.6277 32.17 39.6245 33.6247 39.6226H33.6226ZM34.1285 28.2212C33.8581 28.305 33.6743 28.507 33.492 28.7047C32.8058 29.4468 32.1168 30.1909 31.3329 30.8282C30.6418 31.3907 30.3323 32.0943 30.3162 32.9608C30.2903 34.3275 30.2666 35.695 29.9836 37.04C29.9535 37.1798 30.0241 37.1798 30.1198 37.1798L33.6205 37.1693C33.6555 37.1728 33.6904 37.1784 33.7247 37.1791C34.1104 37.1854 34.1139 37.1854 34.1083 36.806C34.0915 35.6279 34.4213 34.5742 35.2263 33.6889C35.519 33.366 35.8006 33.0334 36.1046 32.7218C36.5888 32.2285 36.9414 31.6217 37.1303 30.9568C37.8165 28.5857 38.5015 26.2144 39.1854 23.8429C39.2395 23.6579 39.2498 23.463 39.2154 23.2734C39.1728 23.0449 39.0617 22.8681 38.8045 22.8346C38.753 22.8115 38.6974 22.799 38.641 22.7979C38.5845 22.7968 38.5285 22.8072 38.4761 22.8283C38.0988 22.9345 37.9171 23.2189 37.8074 23.5654C37.3093 25.0842 36.6956 26.5627 35.9718 27.9878C35.8265 28.2743 35.649 28.5398 35.758 28.8864C35.7818 28.9633 35.7538 29.059 35.7398 29.1442C35.6567 29.6655 35.3968 30.1064 35.0977 30.5263C34.5904 31.2391 33.9678 31.8491 33.3648 32.4772C33.3192 32.5242 33.2614 32.5574 33.1979 32.5731C33.1344 32.5887 33.0678 32.5863 33.0057 32.566C32.817 32.3829 32.8659 32.2243 33.0371 32.0552C33.5961 31.4962 34.1551 30.9323 34.6191 30.2902C34.8741 29.9408 35.1082 29.574 35.2067 29.14C35.2815 28.8228 35.2235 28.5538 34.9705 28.3407C34.7176 28.1276 34.4388 28.0689 34.1306 28.2212H34.1285Z" fill="#050504"/>
<path id="Vector_3" d="M18.3757 27.9826C19.108 27.4649 19.7913 27.4823 20.4104 28.1147C21.33 29.0559 22.2635 29.9804 23.2243 30.8796C23.7539 31.3757 23.8986 32.0584 23.9552 32.7579C24.025 33.5915 23.9684 34.43 24.053 35.2636C24.1131 35.8533 24.2053 36.4368 24.2996 37.0209C24.322 37.1607 24.3821 37.176 24.5009 37.1795C25.0249 37.1949 25.2779 37.4527 25.2842 37.9789C25.2898 38.4401 25.2898 38.9017 25.2842 39.3638C25.2772 39.8823 25.0047 40.1548 24.4918 40.1555C22.6359 40.1555 20.7803 40.1555 18.9249 40.1555C18.4092 40.1555 18.1381 39.8837 18.1325 39.3659C18.1283 38.8956 18.1276 38.4254 18.1325 37.9544C18.1388 37.4513 18.4015 37.1858 18.9109 37.1816C19.066 37.1816 19.1171 37.146 19.1205 36.9832C19.1618 35.9092 18.9214 34.9282 18.194 34.1029C17.9285 33.8025 17.6783 33.4874 17.3912 33.2086C16.6924 32.5273 16.2732 31.6916 16.0069 30.7629C15.3739 28.5507 14.7392 26.338 14.1029 24.1249C14.0246 23.8765 13.9906 23.6164 14.0022 23.3563C14.0595 22.4933 14.8568 22.0286 15.6387 22.4011C16.0461 22.5974 16.2906 22.9335 16.4297 23.3576C16.926 24.8686 17.5352 26.3401 18.252 27.7597C18.2904 27.8275 18.3289 27.896 18.3757 27.9826ZM20.1372 39.6237C21.592 39.6265 23.0463 39.6298 24.5002 39.6335C24.6944 39.6335 24.7608 39.5399 24.7594 39.3596C24.7562 38.8975 24.7562 38.4359 24.7594 37.9747C24.7594 37.7944 24.6944 37.6987 24.5002 37.6994C23.0459 37.705 21.5918 37.7085 20.1379 37.7099C19.7292 37.7099 19.3204 37.7057 18.9123 37.7001C18.739 37.7001 18.6559 37.7735 18.6573 37.9495C18.6573 38.4275 18.6573 38.9057 18.6573 39.3841C18.6573 39.5608 18.7383 39.6356 18.9116 39.6328C19.3204 39.6272 19.7319 39.6265 20.1372 39.6237ZM19.6306 28.223C19.3232 28.0686 19.0416 28.1287 18.7879 28.3411C18.5343 28.5535 18.4777 28.8239 18.5518 29.1412C18.6559 29.5849 18.8935 29.9545 19.1555 30.3123C19.6195 30.9453 20.1708 31.5001 20.7228 32.0591C20.8905 32.2275 20.9436 32.3875 20.7542 32.5699C20.5816 32.6209 20.4572 32.5538 20.3399 32.4267C20.0331 32.0948 19.711 31.7775 19.407 31.4421C18.9801 30.9719 18.5685 30.4869 18.2821 29.9147C18.0724 29.4954 17.9159 29.0664 18.041 28.5871C18.0654 28.4906 18.0158 28.418 17.9746 28.3432C17.5761 27.6023 17.2155 26.8415 16.8943 26.0639C16.545 25.2422 16.2229 24.4086 15.9475 23.5582C15.7764 23.0292 15.4682 22.7896 15.0168 22.8161C14.6996 22.8909 14.5675 23.0348 14.5347 23.3395C14.5168 23.5656 14.5434 23.793 14.6129 24.0089C15.2418 26.1869 15.8707 28.3642 16.4891 30.5442C16.7455 31.4484 17.1431 32.2618 17.837 32.9158C18.0389 33.1065 18.2094 33.3301 18.4001 33.5328C19.2477 34.43 19.6537 35.4976 19.6495 36.7288C19.6495 37.1984 19.6565 37.1984 20.1386 37.1697C21.3055 37.1732 22.4724 37.1746 23.6393 37.1816C23.7707 37.1816 23.7931 37.1495 23.77 37.0188C23.6687 36.4444 23.5848 35.8687 23.5282 35.2873C23.4458 34.4446 23.501 33.5978 23.4283 32.7558C23.3766 32.1541 23.2382 31.5798 22.7659 31.1577C21.8491 30.3388 20.9736 29.4787 20.1393 28.5773C20.0059 28.4143 19.8298 28.2916 19.6306 28.223Z" fill="#050504"/>
<path id="Vector_4" d="M24.5797 14.544C25.3483 14.5196 25.9772 14.8396 26.555 15.3043C26.8793 15.5656 26.8841 15.5663 27.2126 15.2994C27.8414 14.7886 28.5402 14.4609 29.3717 14.5496C30.5924 14.6831 31.3233 15.7487 31.0934 17.0064C30.9166 17.9742 30.4093 18.7638 29.7776 19.487C29.2605 20.065 28.6831 20.5862 28.0552 21.0417C27.9777 21.0997 27.9155 21.1535 27.8009 21.0941C27.2699 20.8146 26.7185 20.8034 26.1568 20.9921C26.1439 20.9601 26.1257 20.9306 26.1029 20.9047C25.4653 20.4106 24.886 19.8454 24.3764 19.22C23.8802 18.5961 23.468 17.9288 23.2947 17.1371C23.1759 16.59 23.1717 16.054 23.4254 15.5363C23.6692 15.0388 24.078 14.739 24.5797 14.544Z" fill="#F9535B"/>
<path id="Vector_5" d="M26.2053 24.976H26.2193L26.3059 24.946C27.6685 24.6804 29.0674 25.3526 29.8618 26.6551C29.9921 26.8714 30.1056 27.0972 30.2014 27.3308C30.2713 27.5013 30.2287 27.5795 30.0414 27.5711C29.989 27.5711 29.9366 27.5711 29.8842 27.5711H24.5039C24.4081 27.5711 24.3131 27.5628 24.2174 27.5586C24.2053 27.4197 24.2294 27.2801 24.2873 27.1533C24.5169 26.6292 24.8342 26.1481 25.2257 25.7307C25.5101 25.426 25.8923 25.2457 26.2053 24.976Z" fill="#2A91F8"/>
<path id="Vector_6" d="M31.0128 24.0571C31.7507 23.821 32.4599 23.9244 33.1328 24.2737C33.8714 24.6615 34.3703 25.2729 34.698 26.0325C34.7762 26.2135 34.7301 26.291 34.5289 26.291C33.1533 26.2882 31.7772 26.2882 30.4007 26.291C30.3582 26.2951 30.3153 26.288 30.2763 26.2705C30.2374 26.253 30.2037 26.2256 30.1785 26.1911C30.0059 25.9626 29.8221 25.7425 29.6432 25.5189C29.9437 25.0598 30.2805 24.6329 30.7298 24.3059C30.8311 24.2332 30.9737 24.2039 31.0128 24.0571Z" fill="#4EE58C"/>
<path id="Vector_7" d="M21.3913 24.0063C22.5868 23.7268 23.7069 24.3109 24.3686 25.1382C24.4308 25.2165 24.4287 25.2654 24.3505 25.3304C24.0568 25.5763 23.8002 25.8634 23.5888 26.1829C23.5668 26.2196 23.5349 26.2494 23.4967 26.2688C23.4585 26.2882 23.4156 26.2964 23.3729 26.2926C22.1208 26.2865 20.8689 26.2826 19.6172 26.2807C19.6024 26.1333 19.6321 25.9848 19.7024 25.8545C19.9418 25.3233 20.2926 24.8498 20.731 24.466C20.9071 24.3123 21.1342 24.2271 21.2788 24.037C21.2982 24.0458 21.32 24.0475 21.3406 24.0419C21.3611 24.0363 21.379 24.0237 21.3913 24.0063Z" fill="#FBC62E"/>
<path id="Vector_8" d="M26.6673 21.4261C27.3884 21.2717 28.1452 21.7797 28.3275 22.5441C28.4131 22.9209 28.3491 23.3162 28.1488 23.6466C27.9486 23.9771 27.6279 24.2169 27.2543 24.3154C27.0614 24.3629 26.8644 24.4035 26.6659 24.3336C26.6479 24.2961 26.6243 24.2615 26.596 24.2309C25.9874 23.7634 25.7715 22.8725 26.1069 22.1535C26.2355 21.8621 26.4528 21.6469 26.6673 21.4261Z" fill="#FBD5AC"/>
<path id="Vector_9" d="M21.6526 20.8632C22.2891 20.6389 23.0661 21.084 23.2408 21.7848C23.4155 22.4857 22.9676 23.2284 22.2626 23.3731C22.0194 23.4227 21.7804 23.4262 21.5505 23.3151C21.5401 23.2047 21.4611 23.1285 21.4003 23.0488C21.2559 22.8657 21.1556 22.6517 21.1072 22.4236C21.0587 22.1954 21.0634 21.9592 21.1208 21.7331C21.2026 21.3816 21.4178 21.1175 21.6526 20.8632Z" fill="#FAD5AB"/>
<path id="Vector_10" d="M31.4012 23.3314L31.3865 23.3349L31.3774 23.323C31.3751 23.2884 31.3653 23.2547 31.3487 23.2243C31.332 23.1939 31.3089 23.1675 31.281 23.1469C30.8715 22.7444 30.7395 21.9877 31.0378 21.4238C31.1301 21.2512 31.2838 21.1115 31.3173 20.9088C31.338 20.9147 31.36 20.9138 31.3801 20.9062C31.4002 20.8987 31.4174 20.8849 31.4291 20.8669C31.6753 20.7889 31.9396 20.7892 32.1856 20.8676C32.4316 20.9461 32.6473 21.0989 32.8029 21.305C32.9682 21.5149 33.0646 21.7709 33.0787 22.0377C33.0928 22.3045 33.0241 22.5692 32.8818 22.7954C32.5842 23.2692 32.0552 23.4823 31.4801 23.3607L31.4012 23.3314Z" fill="#FAD5AB"/>
<path id="Vector_11" d="M24.5798 14.5454C24.0781 14.7404 23.6714 15.0401 23.4255 15.5383C23.1718 16.0561 23.176 16.592 23.2948 17.1391C23.4674 17.9308 23.8804 18.5981 24.3765 19.2221C24.8861 19.8474 25.4654 20.4127 26.1031 20.9068C26.1259 20.9326 26.144 20.9622 26.1569 20.9941C25.9473 21.1611 25.7726 21.1115 25.5664 20.9473C24.5784 20.1626 23.6617 19.3136 23.0705 18.1761C22.7212 17.4976 22.5206 16.7828 22.6981 16.01C22.7952 15.5865 23.0354 15.2096 23.3782 14.9427C23.7211 14.6759 24.1455 14.5356 24.5798 14.5454Z" fill="#EC4049"/>
<path id="Vector_12" d="M26.2053 24.9766C25.8922 25.2463 25.51 25.4266 25.227 25.7333C24.8356 26.1507 24.5182 26.6318 24.2886 27.1559C24.2307 27.2827 24.2067 27.4224 24.2187 27.5612C24.1321 27.5654 24.0461 27.5738 23.9595 27.5738C23.455 27.5738 23.4445 27.5612 23.6695 27.0952C24.1524 26.098 24.877 25.3651 25.9572 25.029C26.0341 25.0038 26.1207 24.994 26.2053 24.9766Z" fill="#0E7FEF"/>
<path id="Vector_13" d="M26.6675 21.4258C26.4529 21.6466 26.2356 21.8618 26.1029 22.1497C25.7703 22.8687 25.9862 23.7568 26.592 24.227C26.6203 24.2576 26.6438 24.2922 26.6619 24.3298C26.3044 24.2853 25.9765 24.1089 25.7425 23.8351C25.5085 23.5612 25.3853 23.2098 25.3971 22.8498C25.4139 22.1119 25.961 21.4964 26.6675 21.4258Z" fill="#F3C292"/>
<path id="Vector_14" d="M21.2791 24.0371C21.1344 24.2272 20.9073 24.3124 20.7313 24.4661C20.2929 24.8499 19.9421 25.3234 19.7027 25.8545C19.6323 25.9849 19.6027 26.1334 19.6175 26.2808L19.1982 26.2927C19.048 26.2962 18.9788 26.227 19.0417 26.083C19.4847 25.0692 20.1653 24.3152 21.2791 24.0371Z" fill="#E8A406"/>
<path id="Vector_15" d="M21.6526 20.8633C21.4178 21.1176 21.2026 21.3817 21.1229 21.7332C21.0655 21.9593 21.0608 22.1955 21.1092 22.4237C21.1577 22.6518 21.258 22.8658 21.4024 23.049C21.4632 23.1286 21.5422 23.2048 21.5526 23.3152C21.2915 23.2291 21.0653 23.0605 20.9082 22.8348C20.751 22.6092 20.6714 22.3385 20.6813 22.0637C20.71 21.4698 21.0999 20.9849 21.6526 20.8633Z" fill="#F3C292"/>
<path id="Vector_16" d="M31.3207 20.9082C31.2844 21.1108 31.1306 21.2506 31.0412 21.4232C30.7428 21.9871 30.8749 22.7438 31.2844 23.1463C31.3123 23.1668 31.3354 23.1933 31.352 23.2237C31.3687 23.2541 31.3785 23.2878 31.3808 23.3224C31.1261 23.2479 30.9019 23.0938 30.741 22.8827C30.5802 22.6716 30.4912 22.4145 30.4871 22.1492C30.4724 21.5699 30.8029 21.0794 31.3207 20.9082Z" fill="#F3C292"/>
<path id="Vector_17" d="M31.0122 24.0566C30.9731 24.2013 30.8305 24.2327 30.7292 24.3061C30.2799 24.6331 29.9431 25.06 29.6427 25.5191C29.2835 25.2284 29.2821 25.2263 29.6091 24.8965C30.0032 24.4975 30.4504 24.1782 31.0122 24.0566Z" fill="#3AD37A"/>
<path id="Vector_18" d="M31.4305 20.8675C31.4187 20.8855 31.4016 20.8993 31.3815 20.9068C31.3613 20.9143 31.3393 20.9152 31.3187 20.9094C31.3301 20.8911 31.3473 20.8771 31.3675 20.8696C31.3877 20.862 31.4098 20.8612 31.4305 20.8675Z" fill="#F3C292"/>
<path id="Vector_19" d="M21.3916 24.005C21.3795 24.0234 21.3613 24.0369 21.3401 24.0429C21.3189 24.049 21.2963 24.0472 21.2763 24.0379C21.2902 24.0217 21.3085 24.01 21.329 24.0042C21.3495 23.9983 21.3713 23.9986 21.3916 24.005Z" fill="#E8A406"/>
<path id="Vector_20" d="M33.6234 37.1665L30.1227 37.177C30.027 37.177 29.9564 37.1819 29.9864 37.0373C30.2694 35.6922 30.2932 34.3247 30.319 32.958C30.3351 32.0916 30.6447 31.3879 31.3357 30.8254C32.1197 30.1882 32.8087 29.444 33.4948 28.7019C33.6772 28.5042 33.861 28.3023 34.1314 28.2184C34.5877 28.3092 34.7987 28.6321 34.6981 29.0723C34.5318 29.7983 34.0329 30.316 33.5801 30.8632C33.2531 31.2586 32.8813 31.6143 32.5208 31.9763C32.3692 32.1286 32.3112 32.2984 32.4376 32.4912C32.5962 32.733 32.8003 32.6715 33.0071 32.5611C33.0693 32.5814 33.1359 32.5839 33.1994 32.5682C33.2629 32.5525 33.3207 32.5193 33.3663 32.4724C33.9693 31.8435 34.5919 31.2342 35.0992 30.5215C35.3982 30.1022 35.6581 29.6606 35.7413 29.1394C35.7553 29.0541 35.7832 28.9584 35.7595 28.8815C35.6505 28.5321 35.8293 28.2694 35.9733 27.9829C36.6971 26.5578 37.3108 25.0794 37.8089 23.5606C37.9214 23.2112 38.1003 22.9317 38.4776 22.8234C38.5299 22.8023 38.586 22.792 38.6424 22.793C38.6989 22.7941 38.7545 22.8066 38.806 22.8297C38.755 23.0016 38.8647 23.1602 38.8242 23.3426C38.6572 24.0979 38.4084 24.8288 38.1953 25.5702C37.7921 26.9677 37.3889 28.3707 36.9655 29.7626C36.7293 30.541 36.5651 31.353 36.0851 32.035C35.7043 32.5758 35.2054 33.0167 34.7819 33.5233C34.3263 34.0676 33.9539 34.649 33.7638 35.3477C33.6017 35.9556 33.6325 36.56 33.6234 37.1665Z" fill="#FBD5AC"/>
<path id="Vector_21" d="M33.625 39.6236C32.1702 39.6264 30.7156 39.6296 29.2613 39.6333C29.0866 39.6333 29.0028 39.5635 29.0035 39.3853C29.0035 38.906 29.0035 38.4268 29.0035 37.948C29.0035 37.7726 29.0873 37.6992 29.2613 37.6992C30.7156 37.7048 32.17 37.7083 33.6243 37.7097C33.6243 38.3488 33.6245 38.9868 33.625 39.6236Z" fill="#2A91F8"/>
<path id="Vector_22" d="M33.623 37.167C33.6321 36.5605 33.6013 35.9561 33.7627 35.3559C33.9528 34.6572 34.3252 34.0758 34.7808 33.5315C35.2042 33.0249 35.7031 32.584 36.084 32.0432C36.564 31.3612 36.7282 30.5492 36.9644 29.7708C37.3878 28.3768 37.791 26.9759 38.1942 25.5784C38.408 24.837 38.6567 24.1061 38.823 23.3508C38.8636 23.1684 38.7532 23.0098 38.8049 22.8379C39.062 22.8714 39.1731 23.0475 39.2157 23.2767C39.2502 23.4663 39.2399 23.6613 39.1857 23.8462C38.5009 26.2173 37.8159 28.5886 37.1307 30.9601C36.9402 31.6241 36.5864 32.2297 36.1014 32.7216C35.7975 33.0333 35.5159 33.3659 35.2231 33.6887C34.4217 34.574 34.0918 35.6277 34.1051 36.8058C34.1107 37.1852 34.1051 37.1852 33.7215 37.1789C33.6922 37.1761 33.6579 37.1705 33.623 37.167Z" fill="#E3AF7B"/>
<path id="Vector_23" d="M33.6251 39.6229C33.6251 38.9851 33.6251 38.3472 33.6251 37.709C34.0338 37.709 34.4419 37.7048 34.8507 37.6992C35.0239 37.6992 35.1064 37.7726 35.1057 37.9487C35.1048 38.428 35.1043 38.906 35.1043 39.3825C35.1043 39.5593 35.0226 39.6347 34.8493 39.6319C34.4419 39.6264 34.0331 39.6257 33.6251 39.6229Z" fill="#0E81F3"/>
<path id="Vector_24" d="M33.0083 32.5669C32.7987 32.6752 32.5974 32.7367 32.4388 32.497C32.3124 32.3042 32.369 32.1344 32.522 31.9821C32.8846 31.6201 33.2543 31.2644 33.5813 30.869C34.0327 30.3218 34.5316 29.8041 34.6993 29.0781C34.7999 28.6379 34.5889 28.315 34.1326 28.2242C34.4407 28.0719 34.7202 28.1299 34.9746 28.3437C35.2289 28.5575 35.2855 28.8258 35.2107 29.1431C35.1094 29.577 34.8781 29.9417 34.6231 30.2932C34.1563 30.9353 33.5987 31.4971 33.0411 32.0582C32.8686 32.2252 32.8196 32.3838 33.0083 32.5669Z" fill="#E3AF7B"/>
<path id="Vector_25" d="M15.0165 22.8124C15.4679 22.7872 15.7761 23.022 15.9473 23.5544C16.2226 24.4048 16.5433 25.2384 16.8941 26.0601C17.2152 26.8378 17.5758 27.5985 17.9743 28.3394C18.0155 28.4142 18.0651 28.4869 18.0407 28.5833C17.9156 29.0619 18.0728 29.4917 18.2818 29.9109C18.5696 30.4832 18.9805 30.9681 19.4067 31.4384C19.71 31.7738 20.0356 32.091 20.3396 32.4229C20.457 32.5501 20.5813 32.6172 20.7539 32.5661C20.9635 32.6758 21.1655 32.7366 21.3234 32.4963C21.4813 32.2559 21.3548 32.0882 21.1836 31.9254C20.7116 31.4779 20.2701 30.9991 19.8623 30.4923C19.5227 30.0653 19.1824 29.6356 19.063 29.0787C18.9686 28.6364 19.1748 28.315 19.6303 28.2248C19.8292 28.292 20.0055 28.4129 20.1397 28.5742C20.975 29.4756 21.8505 30.3358 22.7663 31.1547C23.2387 31.5739 23.377 32.1511 23.4287 32.7527C23.4986 33.5947 23.4462 34.4416 23.5286 35.2843C23.5852 35.8656 23.6684 36.4414 23.7704 37.0158C23.7935 37.1464 23.7704 37.18 23.6397 37.1786C22.4728 37.1716 21.3059 37.1702 20.139 37.1667C20.139 36.9319 20.139 36.6964 20.139 36.4609C20.1445 35.6836 19.9306 34.9205 19.522 34.2592C19.1426 33.6478 18.6416 33.1412 18.1574 32.622C17.7144 32.1476 17.3699 31.6291 17.1847 31.01C16.4934 28.6986 15.8052 26.386 15.1199 24.0722C15.0025 23.6641 14.8083 23.2526 15.0165 22.8124Z" fill="#FBD5AC"/>
<path id="Vector_26" d="M20.138 37.7097C21.5923 37.7069 23.0464 37.7034 24.5003 37.6992C24.6945 37.6992 24.7609 37.7942 24.7595 37.9745C24.7563 38.4357 24.7563 38.8973 24.7595 39.3594C24.7595 39.5397 24.6945 39.634 24.5003 39.6333C23.046 39.6278 21.5916 39.6245 20.1373 39.6236C20.1373 38.9868 20.1376 38.3488 20.138 37.7097Z" fill="#2A91F8"/>
<path id="Vector_27" d="M15.0167 22.8125C14.807 23.2527 15.0027 23.6643 15.1229 24.0702C15.8034 26.3849 16.4905 28.6976 17.1842 31.0081C17.3693 31.6272 17.7138 32.1456 18.1568 32.6201C18.6411 33.1379 19.1421 33.6458 19.5215 34.2572C19.9297 34.9184 20.1433 35.6813 20.1378 36.4583C20.1378 36.6938 20.1378 36.9292 20.1378 37.164C19.6549 37.1927 19.6486 37.1927 19.6486 36.7231C19.6528 35.4919 19.2469 34.4242 18.3993 33.5271C18.2085 33.3244 18.038 33.1008 17.8361 32.9101C17.1422 32.256 16.7447 31.4427 16.4882 30.5385C15.8698 28.3584 15.2382 26.1811 14.6121 24.0032C14.5426 23.7873 14.516 23.5599 14.5338 23.3338C14.5674 23.0312 14.7008 22.8873 15.0167 22.8125Z" fill="#E3AF7B"/>
<path id="Vector_28" d="M20.1381 37.7091C20.1381 38.3473 20.1381 38.9852 20.1381 39.6229C19.73 39.6229 19.3213 39.6264 18.9125 39.632C18.7392 39.632 18.6568 39.5621 18.6582 39.3833C18.661 38.9053 18.661 38.4272 18.6582 37.9487C18.6582 37.7727 18.7399 37.6965 18.9132 37.6993C19.3206 37.7049 19.7321 37.7063 20.1381 37.7091Z" fill="#0E81F3"/>
<path id="Vector_29" d="M19.6309 28.2231C19.1753 28.3132 18.9692 28.6346 19.0635 29.0769C19.183 29.6359 19.5233 30.0636 19.8629 30.4905C20.2711 30.9976 20.713 31.4766 21.1856 31.9243C21.3554 32.0871 21.4749 32.2618 21.3254 32.4952C21.1758 32.7286 20.9627 32.6762 20.7559 32.5651C20.9453 32.3827 20.8956 32.2227 20.7245 32.0543C20.1724 31.5002 19.6211 30.944 19.1572 30.3074C18.8937 29.9545 18.6562 29.5849 18.5521 29.1412C18.478 28.824 18.536 28.5529 18.7882 28.3411C19.0405 28.1294 19.3235 28.0686 19.6309 28.2231Z" fill="#E3AF7B"/>
</g>
</g>
</svg>
