<svg width="17" height="20" viewBox="0 0 17 20" fill="none" xmlns="http://www.w3.org/2000/svg">
<path d="M1.56765 1.00039C1.90232 0.956943 2.24169 1.03118 2.52765 1.21039L12.2777 6.75289L9.81015 9.25039L1.56765 1.00039ZM0.817654 1.75039C0.770634 1.91368 0.74789 2.08299 0.750154 2.25289V17.7479C0.74789 17.9178 0.770634 18.0871 0.817654 18.2504L9.06766 10.0004L0.817654 1.75039ZM9.81766 10.7504L1.56765 19.0004C1.90248 19.0478 2.24319 18.9732 2.52765 18.7904L12.2777 13.2479L9.81766 10.7504ZM16.2077 8.99539L13.2527 7.31539L10.5527 10.0004L13.2452 12.6929L16.2002 11.0129C17.1752 10.4579 17.1752 9.54289 16.2002 8.98789L16.2077 8.99539Z" fill="#16020B"/>
</svg>
