<svg width="93" height="19" viewBox="0 0 93 19" fill="none" xmlns="http://www.w3.org/2000/svg">
<path d="M34.7545 11.0007C34.7545 11.4051 34.6626 11.8463 34.4604 12.3059C34.2582 12.7838 33.9457 13.2434 33.5229 13.6846C33.1001 14.1441 32.5486 14.5118 31.8868 14.7875C31.2251 15.0633 30.453 15.2103 29.5706 15.2103C28.9089 15.2103 28.3022 15.1552 27.7507 15.0265C27.1993 14.8978 26.7029 14.6956 26.2618 14.4383C25.8206 14.1625 25.3978 13.8132 25.0301 13.3721C24.6992 12.9676 24.4051 12.5265 24.1661 12.0301C23.9272 11.5338 23.7617 11.0191 23.6331 10.4492C23.5228 9.89775 23.4492 9.29112 23.4492 8.66611C23.4492 7.65507 23.5963 6.73594 23.8904 5.9271C24.1845 5.11827 24.6073 4.43811 25.1588 3.84986C25.7103 3.28 26.3537 2.83882 27.1074 2.5447C27.8427 2.25058 28.6515 2.10352 29.4787 2.10352C30.5081 2.10352 31.4089 2.30572 32.2177 2.71014C33.0266 3.11456 33.6332 3.62927 34.056 4.2359C34.4788 4.84253 34.6994 5.41239 34.6994 5.94548C34.6994 6.23961 34.5891 6.49696 34.3869 6.71755C34.1847 6.93815 33.9273 7.04844 33.6332 7.04844C33.3023 7.04844 33.0633 6.97491 32.8979 6.80947C32.7324 6.64402 32.5486 6.38667 32.3464 6.00063C32.0155 5.37562 31.6111 4.89768 31.1699 4.58517C30.7103 4.27267 30.1589 4.12561 29.4971 4.12561C28.4493 4.12561 27.6037 4.53002 26.9787 5.32047C26.3537 6.12931 26.0412 7.25065 26.0412 8.73964C26.0412 9.7323 26.1882 10.5411 26.464 11.2029C26.7397 11.8647 27.1257 12.3426 27.6405 12.6735C28.1552 13.0044 28.7434 13.1515 29.4236 13.1515C30.1589 13.1515 30.7839 12.9676 31.2986 12.6C31.8133 12.2323 32.1993 11.6992 32.4567 10.9823C32.567 10.6514 32.6957 10.3757 32.8611 10.1735C33.0266 9.97128 33.2839 9.86098 33.6332 9.86098C33.9457 9.86098 34.2031 9.97128 34.4236 10.1735C34.6442 10.3941 34.7545 10.6514 34.7545 10.9639V11.0007Z" fill="#E9198B"/>
<path d="M36.9071 13.7765V3.53736C36.9071 3.05941 37.0174 2.71014 37.2196 2.47117C37.4218 2.23219 37.7159 2.10352 38.0652 2.10352C38.4144 2.10352 38.7086 2.23219 38.9291 2.47117C39.1497 2.71014 39.26 3.07779 39.26 3.55574V13.7949C39.26 14.2728 39.1497 14.6405 38.9291 14.8794C38.7086 15.1184 38.4144 15.2471 38.0652 15.2471C37.7159 15.2471 37.4402 15.1184 37.2196 14.8794C36.999 14.6405 36.8887 14.2728 36.8887 13.8132L36.9071 13.7765Z" fill="#E9198B"/>
<path d="M42.8793 4.51348C42.5484 4.51348 42.2726 4.42156 42.0337 4.21936C41.7947 4.01715 41.6844 3.74141 41.6844 3.35537C41.6844 3.02448 41.8131 2.74874 42.052 2.52815C42.291 2.30756 42.5668 2.19727 42.8793 2.19727C43.1918 2.19727 43.4491 2.28918 43.6881 2.49139C43.9271 2.6936 44.0374 2.96934 44.0374 3.35537C44.0374 3.74141 43.9271 3.99876 43.6881 4.20097C43.4491 4.40318 43.1918 4.51348 42.8609 4.51348H42.8793ZM44.0374 6.95837V13.7783C44.0374 14.2563 43.9271 14.6055 43.7065 14.8445C43.4859 15.0835 43.1918 15.2122 42.8425 15.2122C42.4932 15.2122 42.2175 15.0835 41.9969 14.8445C41.7763 14.6055 41.666 14.2379 41.666 13.7783V7.0319C41.666 6.57233 41.7763 6.20468 41.9969 5.98409C42.2175 5.74511 42.4932 5.63482 42.8425 5.63482C43.1918 5.63482 43.4675 5.74511 43.7065 5.98409C43.9271 6.22306 44.0374 6.55395 44.0374 6.97675V6.95837Z" fill="#E9198B"/>
<path d="M48.6333 6.9204V7.21452C49.0561 6.66304 49.4973 6.25863 49.9936 6.00127C50.49 5.74391 51.0598 5.61523 51.6848 5.61523C52.3098 5.61523 52.8613 5.74391 53.3577 6.01965C53.854 6.29539 54.2216 6.68143 54.4606 7.17776C54.6077 7.47188 54.718 7.78439 54.7547 8.11527C54.8099 8.44616 54.8283 8.86896 54.8283 9.40206V13.7955C54.8283 14.2735 54.718 14.6227 54.4974 14.8617C54.2768 15.1007 54.0011 15.2293 53.6518 15.2293C53.3025 15.2293 53.0084 15.1007 52.7878 14.8617C52.5672 14.6227 52.4569 14.2551 52.4569 13.7955V9.86162C52.4569 9.08955 52.3466 8.48292 52.126 8.07851C51.9054 7.67409 51.4826 7.4535 50.8392 7.4535C50.4164 7.4535 50.0304 7.58218 49.6811 7.82115C49.3319 8.07851 49.0745 8.40939 48.9274 8.85058C48.8171 9.19985 48.762 9.86162 48.762 10.8175V13.7771C48.762 14.2551 48.6517 14.6227 48.4311 14.8617C48.2105 15.1007 47.9164 15.2293 47.5671 15.2293C47.2178 15.2293 46.9421 15.1007 46.7215 14.8617C46.5009 14.6227 46.3906 14.2551 46.3906 13.7955V6.97555C46.3906 6.53437 46.4825 6.1851 46.6848 5.96451C46.887 5.74391 47.1443 5.63362 47.4936 5.63362C47.6958 5.63362 47.8796 5.68877 48.0635 5.78068C48.2289 5.87259 48.3576 6.01965 48.4679 6.22186C48.5598 6.42407 48.6149 6.66304 48.6149 6.93878L48.6333 6.9204Z" fill="#E9198B"/>
<path d="M58.3754 4.51348C58.0445 4.51348 57.7688 4.42156 57.5298 4.21936C57.2908 4.01715 57.1805 3.74141 57.1805 3.35537C57.1805 3.02448 57.3092 2.74874 57.5482 2.52815C57.7871 2.30756 58.0629 2.19727 58.3754 2.19727C58.6879 2.19727 58.9452 2.28918 59.1842 2.49139C59.4232 2.6936 59.5335 2.96934 59.5335 3.35537C59.5335 3.74141 59.4232 3.99876 59.1842 4.20097C58.9452 4.40318 58.6879 4.51348 58.357 4.51348H58.3754ZM59.5335 6.95837V13.7783C59.5335 14.2563 59.4232 14.6055 59.2026 14.8445C58.982 15.0835 58.6879 15.2122 58.3386 15.2122C57.9893 15.2122 57.7136 15.0835 57.493 14.8445C57.2724 14.6055 57.1621 14.2379 57.1621 13.7783V7.0319C57.1621 6.57233 57.2724 6.20468 57.493 5.98409C57.7136 5.74511 57.9893 5.63482 58.3386 5.63482C58.6879 5.63482 58.9636 5.74511 59.2026 5.98409C59.4232 6.22306 59.5335 6.55395 59.5335 6.97675V6.95837Z" fill="#E9198B"/>
<path d="M72.9342 11.0007C72.9342 11.4051 72.8423 11.8463 72.6401 12.3059C72.4379 12.7838 72.1254 13.2434 71.7026 13.6846C71.2798 14.1441 70.7283 14.5118 70.0665 14.7875C69.4047 15.0633 68.6327 15.2103 67.7503 15.2103C67.0885 15.2103 66.4819 15.1552 65.9304 15.0265C65.379 14.8978 64.8826 14.6956 64.4414 14.4383C64.0003 14.1625 63.5775 13.8132 63.2098 13.3721C62.8789 12.9676 62.5848 12.5265 62.3458 12.0301C62.1069 11.5338 61.9414 11.0191 61.8127 10.4492C61.7024 9.89775 61.6289 9.29112 61.6289 8.66611C61.6289 7.65507 61.7759 6.73594 62.0701 5.9271C62.3642 5.11827 62.787 4.43811 63.3385 3.84986C63.89 3.28 64.5333 2.83882 65.287 2.5447C66.0223 2.25058 66.8312 2.10352 67.6584 2.10352C68.6878 2.10352 69.5886 2.30572 70.3974 2.71014C71.2063 3.11456 71.8129 3.62927 72.2357 4.2359C72.6585 4.84253 72.8791 5.41239 72.8791 5.94548C72.8791 6.23961 72.7688 6.49696 72.5666 6.71755C72.3644 6.93815 72.107 7.04844 71.8129 7.04844C71.482 7.04844 71.243 6.97491 71.0776 6.80947C70.9121 6.66241 70.7283 6.38667 70.5261 6.00063C70.1952 5.37562 69.7908 4.89768 69.3496 4.58517C68.89 4.27267 68.3386 4.12561 67.6768 4.12561C66.629 4.12561 65.7834 4.53002 65.1584 5.32047C64.5334 6.12931 64.2209 7.25065 64.2209 8.73964C64.2209 9.7323 64.3679 10.5411 64.6437 11.2029C64.9194 11.8647 65.3054 12.3426 65.8201 12.6735C66.3349 13.0044 66.9231 13.1515 67.6033 13.1515C68.3386 13.1515 68.9636 12.9676 69.4783 12.6C69.993 12.2323 70.379 11.6992 70.6364 10.9823C70.7467 10.6514 70.8754 10.3757 71.0408 10.1735C71.2062 9.97128 71.4636 9.86098 71.8129 9.86098C72.1254 9.86098 72.3827 9.97128 72.6033 10.1735C72.8239 10.3941 72.9342 10.6514 72.9342 10.9639V11.0007Z" fill="#E9198B"/>
<path d="M81.0438 13.8879C80.4739 14.3291 79.9224 14.6599 79.3893 14.8805C78.8562 15.1011 78.2496 15.2114 77.5878 15.2114C76.9812 15.2114 76.4481 15.0827 75.9885 14.8438C75.529 14.6048 75.1797 14.2739 74.9223 13.8695C74.6834 13.4651 74.5547 13.0239 74.5547 12.5459C74.5547 11.9026 74.7569 11.3511 75.1613 10.8915C75.5657 10.4319 76.1356 10.1378 76.8525 9.97238C76.9996 9.93561 77.3672 9.86208 77.9739 9.7334C78.5621 9.60472 79.0768 9.49443 79.4996 9.40252C79.9224 9.3106 80.382 9.18192 80.8783 9.03486C80.8415 8.40985 80.7313 7.95029 80.5107 7.65617C80.2901 7.36204 79.8305 7.21498 79.132 7.21498C78.5253 7.21498 78.0842 7.3069 77.7716 7.47234C77.4775 7.63778 77.2018 7.89514 76.9996 8.22603C76.779 8.55691 76.6319 8.77751 76.54 8.8878C76.4481 8.9981 76.2643 9.05324 75.9702 9.05324C75.7128 9.05324 75.4738 8.96133 75.29 8.79589C75.0878 8.63045 74.9959 8.40985 74.9959 8.13411C74.9959 7.71131 75.1429 7.3069 75.437 6.92086C75.7312 6.53483 76.1907 6.20394 76.8157 5.94658C77.4408 5.68923 78.2128 5.56055 79.132 5.56055C80.1614 5.56055 80.9886 5.68922 81.5768 5.9282C82.1651 6.16717 82.5879 6.55321 82.8269 7.0863C83.0658 7.6194 83.1945 8.31794 83.1945 9.20031C83.1945 9.75178 83.1945 10.2297 83.1945 10.6158C83.1945 11.0018 83.1945 11.4246 83.1945 11.9026C83.1945 12.3437 83.268 12.8033 83.4151 13.2813C83.5622 13.7592 83.6357 14.0717 83.6357 14.2188C83.6357 14.4577 83.5254 14.6783 83.2864 14.8805C83.0658 15.0827 82.8085 15.1747 82.5144 15.1747C82.2754 15.1747 82.0364 15.0644 81.7974 14.8254C81.5585 14.6048 81.3195 14.2739 81.0438 13.8327V13.8879ZM80.8967 10.4687C80.5474 10.5974 80.0511 10.7261 79.3893 10.8731C78.7276 11.0202 78.268 11.1121 78.0106 11.1856C77.7533 11.2592 77.5143 11.3878 77.2753 11.5717C77.0363 11.7555 76.926 12.0312 76.926 12.3805C76.926 12.7298 77.0547 13.0423 77.3305 13.2996C77.6062 13.557 77.9555 13.6673 78.3966 13.6673C78.8562 13.6673 79.2974 13.557 79.6834 13.3548C80.0695 13.1526 80.3636 12.8952 80.5474 12.5643C80.768 12.2151 80.8599 11.6268 80.8599 10.7996V10.4687H80.8967Z" fill="#E9198B"/>
<path d="M85.6024 13.7765V3.53736C85.6024 3.05941 85.7126 2.71014 85.9149 2.47117C86.1171 2.23219 86.4112 2.10352 86.7605 2.10352C87.1097 2.10352 87.4039 2.23219 87.6245 2.47117C87.845 2.71014 87.9553 3.07779 87.9553 3.55574V13.7949C87.9553 14.2728 87.845 14.6405 87.6245 14.8794C87.4039 15.1184 87.1097 15.2471 86.7605 15.2471C86.4112 15.2471 86.1354 15.1184 85.9149 14.8794C85.6943 14.6405 85.584 14.2728 85.584 13.8132L85.6024 13.7765Z" fill="#E9198B"/>
<path d="M90.3992 13.7765V3.53736C90.3992 3.05941 90.5095 2.71014 90.7117 2.47117C90.9139 2.23219 91.2081 2.10352 91.5573 2.10352C91.9066 2.10352 92.2007 2.23219 92.4213 2.47117C92.6419 2.71014 92.7522 3.07779 92.7522 3.55574V13.7949C92.7522 14.2728 92.6419 14.6405 92.4213 14.8794C92.2007 15.1184 91.9066 15.2471 91.5573 15.2471C91.2081 15.2471 90.9323 15.1184 90.7117 14.8794C90.4911 14.6405 90.3809 14.2728 90.3809 13.8132L90.3992 13.7765Z" fill="#E9198B"/>
<path d="M20.8951 5.30374C20.748 2.45443 18.4686 -0.063989 15.031 0.083072C12.292 0.193368 10.4721 2.89561 10.4721 2.89561C10.4721 2.89561 8.68901 0.174983 5.95 0.00953983C2.53083 -0.174286 0.196248 2.32575 0.0124215 5.15668C-0.171405 7.96922 1.722 10.506 3.24775 12.234C3.79923 12.859 4.44264 13.484 5.10442 14.109C5.5456 13.3921 6.09706 12.5465 6.46471 11.9582C5.72941 11.1126 5.28823 10.0097 5.28823 8.8332C5.28823 6.13095 7.56768 3.92504 10.3802 3.92504C13.1928 3.92504 15.4722 6.11257 15.4722 8.8332C15.4722 11.5538 13.1928 13.7414 10.3802 13.7414C7.93533 13.9252 6.40958 14.2745 5.56398 14.5502C7.27357 16.0576 9.09343 17.3811 10.3434 18.1348C12.2185 17.0319 15.3987 14.6789 17.5311 12.3443C19.0936 10.6347 21.0238 8.11628 20.8951 5.30374Z" fill="#E9198B"/>
<path d="M10.4731 11.3874C9.24143 11.3874 8.12007 10.8176 7.38477 9.8433L8.13846 9.27344C8.68994 10.0087 9.55393 10.4499 10.4731 10.4499C11.3922 10.4499 12.2378 10.0271 12.7893 9.3102L13.543 9.88006C12.8077 10.836 11.6863 11.3874 10.4731 11.3874Z" fill="#E9198B"/>
</svg>
