<svg width="99" height="26" viewBox="0 0 99 26" fill="none" xmlns="http://www.w3.org/2000/svg">
<path d="M7.1063 11.8191C6.84081 11.8965 6.43151 12.1067 5.86734 12.4607C5.30317 12.8147 4.77219 13.3678 4.27439 14.12C3.7766 14.8723 3.47792 15.8679 3.38942 17.1068V17.3723C3.38942 18.7993 3.83191 20.0272 4.71688 21.0449C4.93812 21.2662 5.15936 21.4432 5.38061 21.5759C5.45804 21.4432 5.54654 21.3215 5.6461 21.2219C6.07752 20.7794 6.54213 20.5582 7.06205 20.5582C7.33861 20.5582 7.62622 20.6356 7.90277 20.7794C8.55544 21.2109 8.87624 21.764 8.87624 22.4609C8.87624 22.6047 8.86518 22.7596 8.83199 22.9034C8.7435 23.2684 8.52226 23.6114 8.16827 23.9211C7.81428 24.2308 7.30542 24.3857 6.64169 24.3857C5.34742 24.3857 4.13058 23.8215 2.99118 22.6821C1.66373 21.2109 1 19.463 1 17.4387V16.9962C1.09956 15.4364 1.48673 14.12 2.1394 13.0691C2.79207 12.0182 3.53323 11.1996 4.36289 10.6133C5.19255 10.027 5.92265 9.65093 6.57532 9.47394L6.73019 9.42969H9.09749V11.8191H7.1063Z" fill="#E9198B" stroke="#231F20" stroke-width="0.2" stroke-miterlimit="10"/>
<path d="M21.4897 11.8191H8.87891V9.42969H21.4897V11.8191ZM10.3391 19.3192C11.2683 19.452 12.1422 19.5184 12.9719 19.5184C15.0073 19.5184 16.5007 19.1312 17.4631 18.3458C17.8503 17.9918 18.0384 17.5382 18.0384 16.9741L18.0162 16.6201C17.9167 16.0006 17.5959 15.536 17.0538 15.2373C16.5118 14.9386 15.9476 14.7616 15.3613 14.7174C15.1843 14.7063 15.0184 14.6953 14.8525 14.6953C14.5317 14.6953 14.2219 14.7285 13.9454 14.7838C14.2551 15.0824 14.4763 15.3922 14.6091 15.7351C14.6865 15.9674 14.7197 16.2108 14.7197 16.4431C14.7197 17.1842 14.3768 17.7705 13.702 18.213C13.2485 18.4343 12.7838 18.5449 12.3303 18.5449C11.7661 18.5449 11.2573 18.3679 10.8037 18.0139C10.2395 17.494 9.963 16.8634 9.963 16.1112C9.963 15.8015 10.0072 15.4917 10.0957 15.182C10.3944 14.297 10.9697 13.6001 11.8436 13.0802C12.7175 12.5603 13.7352 12.3058 14.8967 12.3058C15.118 12.3058 15.3503 12.3058 15.5826 12.328C16.9432 12.4607 18.0494 12.8921 18.9012 13.6112C19.753 14.3302 20.2508 15.2484 20.3835 16.3546L20.4278 16.9741C20.4278 18.202 19.9853 19.2307 19.1003 20.0715C18.4808 20.6578 17.6512 21.1113 16.6224 21.421C17.8282 22.0073 19.0561 22.7817 20.295 23.722L18.857 25.6247C16.8547 24.1645 14.9852 23.1467 13.2595 22.5715C11.567 22.0295 10.4608 21.7197 9.94087 21.6644L10.3391 19.3192Z" fill="#E9198B" stroke="#231F20" stroke-width="0.2" stroke-miterlimit="10"/>
<path d="M36.2815 23.191H33.8921V19.4077C33.8921 18.7108 33.7815 18.1577 33.5492 17.7374C33.3169 17.317 33.0182 17.1068 32.631 17.1068C32.5093 17.1068 32.3323 17.14 32.1 17.1953C31.8677 17.2506 31.6465 17.4387 31.4584 17.7374C31.2704 18.036 31.1597 18.5449 31.1266 19.2529L28.7371 19.2307C28.7371 18.3126 28.6044 17.5493 28.35 16.9298C28.0955 16.3103 27.7305 15.901 27.2548 15.713C27.0889 15.6355 26.9229 15.6024 26.7459 15.6024C26.3145 15.6024 25.8942 15.8015 25.4849 16.1997C24.9981 16.786 24.7548 17.494 24.7548 18.3015C24.7548 18.7993 24.8433 19.2418 25.0203 19.6069C25.3742 19.2529 25.7946 19.0759 26.2813 19.0759C26.7238 19.0759 27.111 19.2418 27.4539 19.5626C27.7969 19.9166 27.9628 20.3259 27.9628 20.7794C27.9628 21.0007 27.9185 21.2219 27.83 21.4432C27.3986 22.2728 26.757 22.6821 25.8831 22.6821C24.5003 22.6821 23.4605 21.941 22.7636 20.4476C22.487 19.7507 22.3432 19.0427 22.3432 18.3236C22.3432 17.6046 22.4649 16.9077 22.7193 16.2329C22.9738 15.5581 23.3277 14.9939 23.7813 14.5183C24.6994 13.6444 25.684 13.2129 26.7459 13.2129C28.2393 13.2129 29.4119 13.9652 30.2858 15.4696C30.9496 14.9718 31.735 14.7174 32.631 14.7174C33.0624 14.7174 33.4828 14.8059 33.8921 14.9829V11.8191H21.2812V9.42969H38.1399V11.8191H36.2815V23.191Z" fill="#E9198B" stroke="#231F20" stroke-width="0.2" stroke-miterlimit="10"/>
<path d="M51.2464 23.1881C49.742 23.1881 48.326 23.0886 47.0097 22.9005C45.6933 22.7125 44.2441 22.2921 42.6843 21.6616C42.0317 21.385 41.5228 20.9536 41.1467 20.3894C40.7706 19.8252 40.5825 19.1947 40.5825 18.4978V17.7456C42.0096 17.0708 43.0936 16.4513 43.8237 15.9092C44.5538 15.3672 45.0517 14.9026 45.3171 14.5265C45.5826 14.1504 45.7264 13.8849 45.7375 13.7189L45.7596 13.4756C45.7596 13.2654 45.6601 12.9999 45.4499 12.6791C44.9189 12.1039 44.3105 11.8163 43.6136 11.8163C43.337 11.8163 43.0605 11.8605 42.795 11.949C43.1047 12.4468 43.2596 12.8893 43.2596 13.2765C43.2153 14.2057 42.806 14.8583 42.0206 15.2455C41.7219 15.3672 41.4343 15.4225 41.1357 15.4225C40.6157 15.4225 40.1511 15.2455 39.7197 14.8915C39.244 14.4601 39.0117 13.9291 39.0117 13.2986C39.0117 13.0773 39.0449 12.845 39.1223 12.5906C39.3546 11.7499 39.8746 11.0308 40.671 10.4224C41.6113 9.74763 42.5959 9.40471 43.6136 9.40471C44.3216 9.40471 44.9963 9.55958 45.649 9.85825C46.3017 10.1569 46.8548 10.6105 47.3305 11.1968C47.8725 11.9158 48.149 12.6791 48.149 13.4756C48.149 15.4557 46.4897 17.3363 43.1711 19.1173C43.2928 19.2611 43.4255 19.3717 43.5914 19.4491C45.284 20.1239 47.0539 20.5553 48.8791 20.7323V7.63477H51.2464V9.42683H53.1049V11.8163H51.2464V23.1881Z" fill="#E9198B" stroke="#231F20" stroke-width="0.2" stroke-miterlimit="10"/>
<path d="M71.2443 23.191H70.0495C68.9876 23.191 68.003 23.0472 67.0959 22.7596C66.1889 22.472 65.3924 22.1401 64.7065 21.7529C64.0207 21.3657 63.4676 21.0117 63.0583 20.6909C62.3835 20.171 61.8525 19.5294 61.4764 18.7661C61.1003 18.0028 60.9122 17.1842 60.9122 16.3325V15.4917L68.8548 12.7262V11.8191H59.8281V9.42969H77.6382V11.8191H71.2443V12.505C71.8195 12.6045 72.5275 12.8479 73.3571 13.2129C74.1868 13.578 74.9279 14.1532 75.5806 14.9386C76.2333 15.7904 76.5541 16.7749 76.5541 17.8812C76.5541 19.0427 76.2554 19.8392 75.6691 20.2706C75.2709 20.5803 74.8616 20.7352 74.4523 20.7352C73.8881 20.7352 73.4124 20.5361 73.0142 20.1489C72.616 19.7617 72.3947 19.3082 72.3505 18.7883C72.3505 18.6666 72.3726 18.4896 72.4279 18.2352C72.4832 17.9807 72.616 17.7263 72.8483 17.4608C73.0806 17.1953 73.4346 16.963 73.9213 16.7749L73.7 16.3988C73.1801 15.7462 72.3615 15.2705 71.2443 14.9608V23.191ZM68.8548 20.7573V15.2484L63.3901 17.1511C63.5782 17.8148 63.9543 18.3568 64.4963 18.7883C65.7464 19.7949 67.2066 20.4476 68.8548 20.7573Z" fill="#E9198B" stroke="#231F20" stroke-width="0.2" stroke-miterlimit="10"/>
<path d="M81.6522 23.1881H79.2627V11.8163H77.4043V9.42683H79.2627V7.63477H81.6522V9.42683H83.5106V11.8163H81.6522V23.1881Z" fill="#E9198B" stroke="#231F20" stroke-width="0.2" stroke-miterlimit="10"/>
<path d="M91.6195 23.1025H91.2213C89.8828 23.0251 88.7655 22.6821 87.8805 22.0737C86.9955 21.4653 86.2986 20.702 85.7898 19.7839C85.2809 18.8657 84.9158 17.9254 84.7057 16.963C84.4955 16.0006 84.3849 15.1488 84.3849 14.4298H86.7743C86.7743 15.4032 86.9734 16.4541 87.3716 17.5935C87.6482 18.39 88.1018 19.0869 88.7212 19.6954C89.396 20.348 90.3805 20.6799 91.6638 20.7131C92.9801 20.7131 93.9094 20.3591 94.4514 19.6511C94.8939 19.0648 95.1151 18.2683 95.1151 17.2838L95.093 16.7749C94.197 17.317 92.9801 17.7484 91.4646 18.0582L90.0708 18.2794V11.8191H83.3008V9.42969H98.5887V11.8191H92.4602V15.3369C93.4226 14.9829 94.197 14.5957 94.7833 14.1643L95.093 13.9652H96.9293L97.1727 14.8059C97.3939 15.4364 97.5046 16.255 97.5046 17.2396C97.5046 18.7883 97.1174 20.0825 96.3541 21.1113C95.3253 22.4388 93.7434 23.1025 91.6195 23.1025Z" fill="#E9198B" stroke="#231F20" stroke-width="0.2" stroke-miterlimit="10"/>
<path d="M90.7805 8.45588L89.2539 6.61957C89.3092 6.60851 89.796 6.12177 90.692 5.18149C91.588 4.24121 92.6279 2.84738 93.7894 1L95.8248 2.23896C94.5416 4.26333 93.4022 5.78991 92.4177 6.82975C91.4331 7.86959 90.88 8.41164 90.7805 8.45588Z" fill="#E9198B" stroke="#231F20" stroke-width="0.2" stroke-miterlimit="10"/>
</svg>
