<svg width="54" height="55" viewBox="0 0 54 55" fill="none" xmlns="http://www.w3.org/2000/svg">
<g id="Group 1171276485">
<ellipse id="Ellipse 1098" cx="27" cy="27.2547" rx="27" ry="27.2547" fill="#FEEAEE"/>
<g id="Group 1171276484">
<path id="Vector" d="M29.8809 13C30.1364 13.1 30.383 13.2251 30.6174 13.3738C30.7889 13.4805 30.9674 13.4366 31.1445 13.3579C31.9398 13.0061 32.4691 13.454 32.3788 14.3916C32.3284 14.913 32.1569 15.3942 31.951 15.8634C31.7251 16.3718 31.4659 16.8621 31.1753 17.3306C31.0997 17.4532 31.0955 17.519 31.197 17.6333C31.3367 17.7835 31.4424 17.9663 31.5062 18.1677C31.5699 18.3692 31.5899 18.5837 31.5646 18.7949C31.5464 18.9727 31.6038 19.0635 31.7242 19.1656C32.1016 19.485 32.4712 19.8149 32.8374 20.1494C33.1069 20.3953 33.1223 20.5088 32.9683 20.8591C32.7316 21.0445 32.5286 20.9938 32.3151 20.7903C31.9839 20.4725 31.6325 20.1789 31.2923 19.8716C31.2019 19.7899 31.1305 19.7642 31.0206 19.8482C30.8106 20.0056 30.5691 20.082 30.3205 20.1509C29.6905 20.3249 29.0513 20.3567 28.4086 20.3862C28.2084 20.3794 28.0074 20.3779 27.8079 20.365C27.0588 20.3181 26.3076 20.275 25.6138 19.9178C25.4927 19.855 25.4367 19.9405 25.3646 20.001C24.7307 20.5342 24.1304 21.1124 23.5675 21.7316C22.1421 23.3078 20.989 25.0725 20.3715 27.1996C20.0474 28.3165 19.9032 29.4591 20.0075 30.6312C20.0166 30.7395 20.0075 30.8583 20.1517 30.8916C21.1255 31.1352 21.9768 31.671 22.8282 32.2067C23.2608 32.4784 23.7159 32.6986 24.215 32.7659C25.6512 32.9601 27.0882 33.1453 28.5262 33.3213C29.7661 33.4727 30.5656 34.2294 30.8365 35.5536C30.8491 35.8101 30.8617 36.0674 30.875 36.3436C30.9597 36.3096 31.015 36.2899 31.071 36.2634C32.4306 35.6157 33.7755 34.9445 35.1428 34.3391C35.644 34.1174 35.9437 33.7693 36.1684 33.2653C37.0218 31.3471 37.0414 29.3744 36.5058 27.3714C35.9948 25.4592 35.0174 23.8338 33.7993 22.3642C33.541 22.0517 33.527 21.9458 33.7111 21.6189C33.9211 21.4902 34.1213 21.4819 34.2992 21.6946C35.8029 23.4887 36.9595 25.4902 37.4377 27.8882C37.8066 29.7323 37.7226 31.5393 37.0211 33.2888C37.0133 33.3185 37.0079 33.3489 37.005 33.3796C37.2066 33.3955 37.3551 33.2631 37.5175 33.1912C37.9375 33.0035 38.3702 32.9006 38.8168 33.0444C39.4861 33.26 39.874 33.7746 39.9755 34.5003C40.0749 35.2146 39.8628 35.8389 39.281 36.2407C36.8867 37.8918 34.4884 39.5359 32.0862 41.1729C31.2951 41.7188 30.3741 42.0039 29.4356 41.9932C27.7071 41.9886 25.9786 41.9697 24.2507 42.0008C23.2998 42.0255 22.3541 41.8417 21.4707 41.4605C20.4289 41.0064 19.3704 40.6092 18.3203 40.1801C18.1634 40.1158 18.0948 40.0878 18.0682 40.3315C17.9933 41.0201 17.5376 41.4332 16.8907 41.4378C16.3236 41.4418 15.7563 41.4418 15.1888 41.4378C14.4768 41.4287 14 40.9262 14 40.1657C14 36.8993 14 33.6336 14 30.3687C14 29.6082 14.4817 29.0906 15.1818 29.0823C15.7498 29.0777 16.3173 29.0777 16.8844 29.0823C17.574 29.0868 18.0598 29.5862 18.0745 30.3301C18.0794 30.5283 18.1291 30.5828 18.307 30.5851C18.5597 30.5931 18.8119 30.6158 19.0624 30.6532C19.1814 30.6683 19.2094 30.6335 19.2024 30.5019C19.0624 26.9173 20.5102 24.0449 22.6699 21.4971C23.3411 20.7151 24.071 19.9946 24.8521 19.3427C24.9039 19.2988 24.9543 19.2511 25.0166 19.1914C24.1527 19.0862 22.4844 19.5046 21.8984 20.6019C21.7584 20.8682 21.5211 20.922 21.3216 20.7774C21.122 20.6329 21.0926 20.3885 21.2466 20.1304C21.8011 19.2012 22.6363 18.7351 23.5969 18.4831C24.0732 18.362 24.5609 18.3 25.0502 18.2985C24.6302 17.7392 24.1618 17.4086 23.5366 17.4078C23.0403 17.4078 22.5439 17.4774 22.0504 17.3541C21.616 17.2512 21.2022 17.0649 20.8287 16.804C20.604 16.6428 20.5487 16.4135 20.667 16.1986C20.7853 15.9837 21.017 15.9307 21.2368 16.0821C21.8162 16.4795 22.5044 16.6492 23.1859 16.5626C23.5793 16.5131 23.9779 16.5612 24.3514 16.7033C24.725 16.8455 25.0636 17.0779 25.3415 17.3828C25.4192 17.4638 25.4766 17.5107 25.5823 17.4229C25.7055 17.32 25.5956 17.2534 25.5599 17.1891C25.1266 16.4135 24.7037 15.6341 24.5168 14.7404C24.4468 14.3961 24.4237 14.0473 24.549 13.7105C24.7275 13.23 25.0887 13.0522 25.5158 13.2777C25.875 13.4676 26.1893 13.4752 26.5127 13.2096C26.624 13.1158 26.7662 13.0681 26.8943 13H27.4187C27.683 13.0988 27.9376 13.2256 28.179 13.3784C28.2427 13.4204 28.3152 13.4445 28.3897 13.4486C28.4643 13.4527 28.5386 13.4366 28.606 13.4018C28.8419 13.2724 29.0716 13.1339 29.304 13H29.8809ZM28.2119 14.2819C28.0193 14.2236 27.8226 14.1691 27.6595 14.0405C27.3416 13.79 27.042 13.8135 26.7207 14.0465C26.5621 14.1648 26.3808 14.2425 26.1903 14.2737C25.9999 14.3049 25.8053 14.2888 25.6215 14.2266C25.2267 14.1033 25.1959 14.1358 25.2862 14.5724C25.2974 14.6277 25.3121 14.6814 25.3275 14.7359C25.5795 15.6084 26.0164 16.3779 26.4665 17.1415C26.4883 17.1822 26.5211 17.2146 26.5606 17.2342C26.6001 17.2539 26.6443 17.2598 26.6871 17.2512C26.7264 17.2698 26.7668 17.2855 26.8082 17.2981C27.9556 17.5766 29.0947 17.5054 30.2302 17.2065C30.2674 17.1968 30.3023 17.1787 30.3326 17.1534C30.3629 17.1281 30.3879 17.0962 30.4059 17.0597C30.784 16.437 31.1382 15.7991 31.398 15.1052C31.5013 14.8442 31.569 14.5684 31.5989 14.2864C31.6087 14.1721 31.5989 14.0594 31.4491 14.1351C30.9296 14.3901 30.4494 14.294 29.988 13.9633C29.8834 13.8831 29.7576 13.8416 29.6294 13.845C29.5012 13.8484 29.3775 13.8965 29.2767 13.9822C28.9666 14.2172 28.5886 14.3236 28.2119 14.2819ZM18.0976 38.1393C18.0934 38.4026 18.0976 38.669 18.0808 38.93C18.0668 39.123 18.1291 39.2055 18.2972 39.2721C19.6049 39.7874 20.9085 40.3171 22.2135 40.8468C22.6868 41.042 23.1889 41.143 23.6956 41.1449C25.6166 41.1414 27.5372 41.1414 29.4573 41.1449C30.231 41.1535 30.9902 40.9184 31.6423 40.4684C34.0362 38.8309 36.4293 37.1934 38.8217 35.5559C38.9728 35.4584 39.0887 35.3085 39.1508 35.1306C39.217 34.9595 39.2355 34.7712 39.2039 34.5888C39.1723 34.4065 39.092 34.2381 38.973 34.1045C38.6929 33.7663 38.3338 33.7617 37.9858 33.9176C37.2472 34.2475 36.5219 34.6115 35.791 34.9611C35.742 34.9793 35.6916 34.9937 35.6447 35.0164C34.035 35.7791 32.4262 36.5439 30.8183 37.3107C30.6282 37.4037 30.4214 37.4505 30.2127 37.4477C29.2704 37.4416 28.3274 37.4477 27.385 37.4477C26.9482 37.4477 26.512 37.4537 26.0759 37.4477C25.7699 37.4416 25.5928 37.2373 25.6383 36.9528C25.6838 36.6682 25.8609 36.5986 26.0969 36.5994C27.2315 36.5994 28.3663 36.5994 29.5014 36.5994C30.0776 36.5994 30.0776 36.5994 30.0797 35.9872C30.0848 35.5482 29.9406 35.1224 29.6745 34.7907C29.4084 34.459 29.0389 34.2445 28.6361 34.1878C27.8492 34.0773 27.0588 33.9925 26.2705 33.8934C25.5347 33.8003 24.7954 33.7269 24.0645 33.6006C23.2321 33.4575 22.511 33.0035 21.7948 32.5533C20.7139 31.8722 19.5636 31.4576 18.3028 31.4303C18.134 31.4303 18.0717 31.4606 18.0815 31.6573C18.0962 31.9494 18.0885 32.2423 18.0815 32.5344C18.0773 32.8628 17.9891 32.974 17.6811 33.0595C17.4143 33.0134 17.2939 32.8461 17.296 32.5525C17.3016 31.8548 17.3002 31.1564 17.296 30.4587C17.296 30.0804 17.1672 29.9419 16.8263 29.9396C16.2942 29.9396 15.7614 29.9396 15.2294 29.9396C14.9136 29.9396 14.7862 30.0811 14.7862 30.4216C14.7862 33.6558 14.7862 36.8902 14.7862 40.1249C14.7862 40.4609 14.9017 40.5834 15.2133 40.585C15.7278 40.585 16.2424 40.585 16.7577 40.585C17.1945 40.585 17.2967 40.4752 17.2967 40.0061C17.2967 38.252 17.3016 36.498 17.2967 34.7439C17.2967 34.4322 17.3919 34.2362 17.6825 34.1734C18.0115 34.2801 18.0836 34.3822 18.085 34.7568C18.0902 35.8828 18.0944 37.0103 18.0976 38.1393ZM28.2819 19.5326C28.9796 19.5374 29.6751 19.4456 30.3513 19.2595C30.7014 19.1656 30.8547 18.863 30.7679 18.4808C30.6909 18.1403 30.4711 18.0139 30.1063 18.0888C29.7906 18.1539 29.4762 18.2205 29.1556 18.2667C28.2196 18.4021 27.2968 18.303 26.3811 18.076C26.1081 18.0079 25.9079 18.1259 25.8112 18.3855C25.6586 18.7941 25.8343 19.1672 26.2383 19.2716C26.907 19.4491 27.5933 19.5367 28.2819 19.5326Z" fill="#3A3A3C"/>
<path id="Vector_2" d="M33.7125 21.6176C33.5283 21.9445 33.5423 22.0504 33.8007 22.3629C35.0188 23.8324 35.9962 25.4579 36.5072 27.37C37.0428 29.373 37.0232 31.3458 36.1698 33.264C35.9451 33.768 35.6454 34.1161 35.1442 34.3378C33.7755 34.9432 32.4306 35.6151 31.0759 36.2591C31.0213 36.2856 30.9646 36.3052 30.8799 36.3393C30.8666 36.0631 30.854 35.8058 30.8414 35.5493C31.026 35.4112 31.1941 35.2491 31.342 35.0665C32.4726 33.8036 32.9914 32.2523 33.1188 30.5422C33.2091 29.3314 33.0383 28.1442 32.6854 26.9856C32.0799 24.9993 31.043 23.3012 29.7177 21.7977C29.2921 21.3149 28.8475 20.851 28.4114 20.3788C29.0541 20.3493 29.696 20.3176 30.3233 20.1435C30.5691 20.0754 30.8134 19.999 31.0234 19.8408C31.1333 19.7568 31.2047 19.7826 31.2951 19.8643C31.6353 20.1715 31.9867 20.4651 32.3179 20.7829C32.5314 20.9865 32.7344 21.0372 32.9711 20.8518L33.7125 21.6176Z" fill="#FF8080"/>
<path id="Vector_3" d="M28.4113 20.383C28.8475 20.8552 29.292 21.319 29.7177 21.8018C31.043 23.3054 32.0798 25.0034 32.6854 26.9898C33.0354 28.1453 33.2091 29.3356 33.1187 30.5463C32.9913 32.2565 32.4726 33.8077 31.3419 35.0706C31.194 35.2532 31.0259 35.4154 30.8413 35.5534C30.5683 34.2322 29.7688 33.4717 28.531 33.3211C27.0917 33.1426 25.6551 32.9564 24.2213 32.7627C23.7221 32.6953 23.2671 32.4751 22.8344 32.2035C21.9831 31.6677 21.1318 31.132 20.1579 30.8883C20.013 30.852 20.0228 30.737 20.0137 30.628C19.9094 29.4559 20.0536 28.3133 20.3778 27.1964C20.9953 25.0693 22.1483 23.3046 23.5737 21.7284C24.1366 21.1092 24.737 20.531 25.3708 19.9978C25.4408 19.9373 25.4989 19.8518 25.6201 19.9146C26.3138 20.2717 27.065 20.3149 27.8141 20.3618C28.0102 20.3747 28.2118 20.3762 28.4113 20.383ZM27.9913 28.6235C27.9913 29.1229 27.9857 29.6231 27.9913 30.1225C27.9913 30.2943 27.9416 30.3253 27.7931 30.3057C27.4193 30.2557 27.0931 30.084 26.7808 29.8751C26.5568 29.7238 26.3293 29.7881 26.2123 30.0022C26.0954 30.2164 26.1535 30.4381 26.3622 30.5879C26.685 30.8305 27.0479 31.0039 27.4312 31.0987C27.6083 31.1396 27.8681 31.0987 27.9472 31.2137C28.041 31.3484 27.9801 31.6087 27.9892 31.8145C28.0011 32.0885 28.1439 32.2534 28.37 32.2572C28.5961 32.261 28.7544 32.0968 28.7712 31.8312C28.7799 31.6618 28.7799 31.4921 28.7712 31.3227C28.7663 31.1918 28.7936 31.1237 28.9315 31.0957C29.1465 31.053 29.3519 30.9659 29.5364 30.8391C30.3247 30.2981 30.7209 29.524 30.6726 28.5138C30.6299 27.6254 30.1742 27.0322 29.4468 26.6644C29.2802 26.5824 29.1087 26.5124 28.9336 26.4548C28.883 26.4462 28.8376 26.4165 28.8071 26.372C28.7766 26.3276 28.7634 26.272 28.7705 26.2172C28.7761 25.4348 28.7761 24.6528 28.7705 23.8714C28.7705 23.7027 28.8244 23.6837 28.9567 23.7291C29.1639 23.8015 29.3595 23.9082 29.5364 24.0454C29.7569 24.2127 29.9774 24.1832 30.1132 23.9804C30.2491 23.7776 30.2078 23.5445 29.9977 23.3621C29.8129 23.2017 29.6113 23.0458 29.3823 23.0004C28.9434 22.9127 28.6648 22.7492 28.7523 22.1779C28.788 21.9569 28.5422 21.7723 28.3455 21.7995C28.1299 21.8306 27.9955 21.9645 27.9857 22.2097C27.9769 22.3321 27.9769 22.455 27.9857 22.5774C28.0046 22.7742 27.9556 22.8801 27.7539 22.9217C27.4803 22.9892 27.2276 23.132 27.0202 23.3364C26.2004 24.0855 25.9897 25.8252 27.2436 26.5509C27.4354 26.6621 27.6244 26.7779 27.8218 26.877C27.8747 26.8953 27.92 26.9328 27.95 26.9832C27.98 27.0336 27.9929 27.0937 27.9864 27.1532C27.9829 27.6421 27.9885 28.1347 27.9878 28.6235H27.9913Z" fill="#EEF8FE"/>
<path id="Vector_4" d="M17.6839 33.053C17.9919 32.9675 18.0802 32.8563 18.0844 32.5279C18.0886 32.2358 18.0963 31.9429 18.0844 31.6508C18.0746 31.4579 18.1369 31.4238 18.3056 31.4238C19.5658 31.4511 20.7167 31.8673 21.7976 32.5468C22.5138 32.997 23.2349 33.451 24.0673 33.5941C24.7982 33.7204 25.5375 33.7938 26.2733 33.8869C27.0616 33.986 27.852 34.0708 28.6389 34.1813C29.0409 34.2388 29.4093 34.4535 29.6747 34.7848C29.9401 35.1161 30.0839 35.541 30.079 35.9792C30.079 36.5914 30.079 36.5914 29.5008 36.5914C28.3661 36.5914 27.2313 36.5914 26.0962 36.5914C25.8603 36.5914 25.6811 36.667 25.6376 36.9448C25.5942 37.2225 25.7693 37.4336 26.0752 37.4396C26.5114 37.4487 26.9475 37.4396 27.3844 37.4396C28.3267 37.4396 29.2697 37.4359 30.212 37.4396C30.4208 37.4425 30.6275 37.3957 30.8176 37.3027C32.4227 36.5379 34.0306 35.7772 35.6413 35.0205C35.6882 34.9978 35.7386 34.9834 35.7876 34.9652C35.8226 34.9686 35.8557 34.9837 35.8824 35.0084C35.9092 35.0331 35.9281 35.0661 35.9367 35.1029C36.1026 35.5668 36.0396 36.3545 35.5432 36.6988C34.3587 37.5176 33.1545 38.3091 31.9924 39.1627C31.1019 39.8157 30.1434 40.0382 29.0842 40.0185C27.2017 39.9837 25.3177 40.0071 23.4338 40.0109C23.1994 40.0128 22.9659 39.9794 22.74 39.9118C21.6758 39.5887 20.6649 39.1044 19.6232 38.7109C19.1156 38.5195 18.6304 38.2569 18.0998 38.1396C18.0956 37.0106 18.0914 35.8821 18.0872 34.7541C18.0872 34.3757 18.0137 34.2774 17.6846 34.1707C17.6832 33.7984 17.683 33.4258 17.6839 33.053Z" fill="#E6E6E6"/>
<path id="Vector_5" d="M18.0977 38.1394C18.6284 38.259 19.1135 38.5178 19.6211 38.7107C20.6628 39.1042 21.6738 39.5885 22.7379 39.9116C22.9638 39.9792 23.1973 40.0126 23.4317 40.0108C25.3156 40.007 27.1996 39.9835 29.0821 40.0183C30.1414 40.038 31.0998 39.8155 31.9903 39.1625C33.1546 38.3089 34.3587 37.5182 35.5433 36.6964C36.0396 36.3521 36.1033 35.5613 35.9367 35.1005C35.9281 35.0637 35.9092 35.0306 35.8825 35.0059C35.8558 34.9813 35.8226 34.9662 35.7876 34.9628C36.5185 34.6132 37.2438 34.2492 37.9824 33.9193C38.3324 33.7634 38.6881 33.7679 38.9695 34.1062C39.0886 34.2398 39.1688 34.4081 39.2004 34.5905C39.232 34.7728 39.2136 34.9611 39.1473 35.1323C39.0853 35.3102 38.9693 35.4601 38.8183 35.5575C36.4249 37.1935 34.0329 38.8306 31.6424 40.4686C30.9907 40.916 30.2328 41.1492 29.4609 41.1398C27.5408 41.1398 25.6202 41.1398 23.6991 41.1398C23.1916 41.14 22.6883 41.0407 22.2135 40.8469C20.9086 40.3172 19.605 39.7875 18.2972 39.2722C18.1292 39.2056 18.0669 39.1209 18.0809 38.9302C18.1012 38.6676 18.0935 38.4028 18.0977 38.1394Z" fill="#EEF8FE"/>
<path id="Vector_6" d="M28.2818 19.5326C27.5931 19.5367 26.9065 19.449 26.2376 19.2715C25.8336 19.1671 25.6579 18.794 25.8105 18.3854C25.9071 18.1258 26.1074 18.007 26.3804 18.0759C27.2961 18.3029 28.2188 18.402 29.1549 18.2666C29.472 18.2212 29.7877 18.1538 30.1021 18.0888C30.4668 18.0131 30.6867 18.1402 30.7637 18.4807C30.8505 18.8591 30.6937 19.1618 30.3471 19.2594C29.6723 19.4451 28.9782 19.5369 28.2818 19.5326Z" fill="#FF8080"/>
<path id="Vector_7" d="M27.9878 28.6232C27.9878 28.1321 27.9829 27.6395 27.9878 27.1514C27.9943 27.0919 27.9814 27.0318 27.9514 26.9814C27.9214 26.931 27.8761 26.8935 27.8233 26.8752C27.6258 26.7776 27.4368 26.6603 27.245 26.5491C25.9911 25.8234 26.2018 24.0837 27.0216 23.3346C27.229 23.1302 27.4818 22.9874 27.7553 22.9199C27.957 22.8783 28.006 22.7686 27.9871 22.5756C27.9783 22.4532 27.9783 22.3303 27.9871 22.2079C27.9983 21.9627 28.1313 21.8295 28.3469 21.7977C28.5464 21.7697 28.7894 21.9544 28.7537 22.1761C28.6627 22.7474 28.9413 22.9109 29.3838 22.9986C29.6127 23.044 29.8143 23.1999 29.9991 23.3603C30.2092 23.5427 30.2498 23.7765 30.1147 23.9786C29.9795 24.1806 29.7583 24.2109 29.5378 24.0436C29.3609 23.9064 29.1653 23.7997 28.9581 23.7273C28.8258 23.6819 28.7705 23.7009 28.7719 23.8696C28.7775 24.6525 28.7775 25.4345 28.7719 26.2154C28.7648 26.2702 28.778 26.3258 28.8085 26.3702C28.839 26.4147 28.8844 26.4444 28.935 26.453C29.1101 26.5106 29.2816 26.5806 29.4482 26.6626C30.1756 27.0304 30.6313 27.6236 30.674 28.512C30.7223 29.5222 30.324 30.2963 29.5378 30.8373C29.3533 30.9641 29.1479 31.0512 28.9329 31.0939C28.7929 31.1211 28.7677 31.1892 28.7726 31.3209C28.7813 31.4903 28.7813 31.66 28.7726 31.8294C28.7558 32.095 28.5948 32.2592 28.3714 32.2554C28.1481 32.2516 28.0025 32.0867 27.9906 31.8127C27.9815 31.6069 28.0424 31.3466 27.9486 31.2119C27.8695 31.0984 27.6097 31.1362 27.4326 31.0969C27.0493 31.0021 26.6864 30.8287 26.3636 30.5861C26.1535 30.4348 26.101 30.2078 26.2137 30.0004C26.3265 29.7931 26.5582 29.725 26.7822 29.8733C27.0973 30.0822 27.4207 30.2517 27.7945 30.3039C27.943 30.3235 27.9955 30.2925 27.9927 30.1207C27.9822 29.6228 27.9878 29.1227 27.9878 28.6232ZM28.7719 30.238C29.3817 30.1102 29.8626 29.4715 29.892 28.7723C29.9214 28.0731 29.5644 27.5525 28.9252 27.3504C28.8048 27.3126 28.7726 27.3368 28.7726 27.4693C28.7754 28.3909 28.7719 29.3126 28.7719 30.238ZM27.9871 24.8616C27.9871 24.559 27.9759 24.2563 27.9906 23.9596C28.0018 23.7326 27.9206 23.7228 27.7679 23.8144C27.336 24.0694 27.1379 24.4719 27.1484 24.9948C27.1554 25.4307 27.4074 25.7576 27.8485 25.9468C27.9969 26.0096 27.9885 25.9218 27.9885 25.8196C27.9885 25.5003 27.9892 25.1832 27.9892 24.8616H27.9871Z" fill="#3A3A3C"/>
<path id="Vector_8" d="M28.772 30.2378C28.772 29.3123 28.772 28.3906 28.772 27.469C28.772 27.3365 28.8042 27.3123 28.9246 27.3502C29.5638 27.5522 29.9187 28.0675 29.8914 28.772C29.8641 29.4765 29.3839 30.1099 28.772 30.2378Z" fill="#E2136E"/>
<path id="Vector_9" d="M27.9893 24.8618C27.9893 25.1811 27.9893 25.5004 27.9893 25.8198C27.9893 25.9219 28.0005 26.0097 27.8492 25.9469C27.4068 25.7577 27.1547 25.4308 27.1491 24.9949C27.1414 24.4721 27.3368 24.0695 27.7687 23.8145C27.9227 23.7229 28.0026 23.7305 27.9914 23.9598C27.9781 24.2594 27.9893 24.5614 27.9893 24.8618Z" fill="#E2136E"/>
</g>
</g>
</svg>
