<svg width="341" height="194" viewBox="0 0 341 194" fill="none" xmlns="http://www.w3.org/2000/svg">
<g filter="url(#filter0_d_8034_23680)">
<path d="M173.523 106.512C169.84 106.533 168.015 108.406 168.022 112.146C168.029 115.738 170.099 117.906 173.544 117.934C177.038 117.955 179.143 115.822 179.164 112.251C179.185 108.322 177.389 106.491 173.523 106.519V106.512Z" fill="white"/>
<path d="M133.007 167.205C137.953 167.409 142.556 167.711 147.165 167.725C148.968 167.725 150.842 167.283 152.568 166.714C155.276 165.816 156.707 163.234 156.286 160.554C155.837 157.678 153.992 156.099 150.87 155.923C145.334 155.615 143.875 156.857 142.773 162.933H133.547C131.828 156.351 135.589 151.286 144.324 148.318C141.861 146.129 139.377 143.919 136.753 141.589C132.375 148.977 125.121 149.532 117.136 148.718V139.962C119.171 139.962 121.163 140.025 123.156 139.948C128.832 139.73 131.758 136.664 131.695 131.206C131.681 129.844 131.351 129.192 129.87 129.199C123.381 129.241 116.884 129.269 110.394 129.185C108.219 129.157 108.485 130.511 108.485 131.872C108.492 143.175 108.492 154.478 108.499 165.781C108.499 166.777 108.499 167.774 108.499 168.931H98.2065C98.1364 167.865 98.0101 166.813 98.0031 165.753C97.9961 154.618 97.9469 143.484 98.0522 132.349C98.0732 129.999 97.5049 128.96 94.9651 129.171C92.3761 129.381 89.7661 129.22 86.1528 129.22C89.2329 132.167 89.717 135.275 89.5135 138.622C89.296 142.144 87.8577 144.838 84.953 146.915C84.1251 147.511 83.4235 148.886 83.4095 149.911C83.2832 158.176 83.3393 166.441 83.3393 174.713C83.3393 175.618 83.3393 176.523 83.3393 178.158C79.1296 177.66 75.1444 177.646 71.4329 176.642C64.95 174.881 58.6494 172.468 52.2367 170.433C50.7142 169.949 50.0476 169.282 50.1318 167.605C50.2722 164.911 50.2581 162.203 50.1318 159.509C50.0617 157.916 50.5318 157.116 52.1174 156.597C58.4249 154.527 64.6904 152.31 70.9698 150.149C71.5522 149.946 72.1275 149.7 73.4114 149.202C67.2513 148.367 62.5224 146.508 59.751 140.944C54.994 148.97 47.7253 149.539 39.7269 148.753V139.969C41.8037 139.969 43.8804 140.053 45.9502 139.955C51.3877 139.702 54.1942 136.748 54.3064 131.514C54.3485 129.711 53.7241 129.164 51.9911 129.199C47.5218 129.283 43.0525 129.227 38.5832 129.227C37.6711 129.227 36.752 129.227 35.5242 129.227L34.8296 121.264C36.2188 121.264 37.2852 121.264 38.3447 121.264C136.487 121.292 234.629 121.32 332.771 121.348C335.353 121.348 336.669 122.639 336.721 125.221C336.742 126.385 336.721 127.557 336.721 129.136C335.423 129.136 334.272 129.227 333.143 129.115C331.038 128.904 330.322 129.809 330.35 131.865C330.448 139.372 330.434 146.88 330.455 154.387C330.469 159.179 330.455 163.971 330.455 169.093C327.347 169.093 324.429 169.107 321.503 169.093C319.7 169.079 320.149 167.662 320.149 166.679C320.142 156.892 320.177 147.111 320.198 137.324C320.198 135.296 320.156 133.275 320.212 131.248C320.247 129.753 319.643 129.08 318.121 129.129C316.269 129.192 314.402 129.269 312.557 129.101C310.158 128.883 309.358 129.697 309.386 132.188C309.519 143.491 309.463 154.794 309.477 166.097C309.477 167.002 309.477 167.907 309.477 169.037C305.036 168.945 300.959 169.591 296.862 167.711C289.446 164.301 281.847 161.284 274.284 158.211C272.712 157.572 272.116 156.765 272.172 155.053C272.298 151.096 272.298 147.125 272.172 143.161C272.123 141.498 272.776 140.698 274.249 140.228C281.777 137.829 289.278 135.352 296.827 133.016C298.258 132.574 299.668 132.202 299.044 130.49C298.791 129.809 297.304 129.206 296.378 129.199C286.092 129.115 275.807 129.199 265.521 129.122C263.451 129.108 262.771 129.711 262.792 131.837C262.897 143.224 262.848 154.611 262.855 165.999C262.855 166.904 262.855 167.816 262.855 169.072C259.564 169.072 256.554 169.156 253.565 168.981C253.13 168.952 252.436 167.69 252.422 166.981C252.323 162.259 252.246 157.53 252.443 152.815C252.548 150.325 251.432 149.665 249.489 150.43C247.096 151.37 244.802 152.633 242.585 153.952C239.259 155.923 236.151 158.281 232.734 160.056C229.423 161.775 225.739 162.308 221.775 161.901V152.794C222.322 152.717 222.722 152.654 223.129 152.612C228.188 152.001 231.205 149.763 231.766 146.206C232.615 140.804 230.658 136.601 225.929 134.531C224.02 133.696 222.778 132.932 223.045 130.609C223.087 130.216 222.049 129.346 221.445 129.283C214.808 128.589 211.195 130.357 208.143 136.861C205.406 142.691 205.645 149.006 207.153 155.18C208.044 158.807 210.753 160.884 214.261 161.614C216.331 162.042 216.639 163.101 216.352 164.806C216.211 165.634 216.015 166.462 215.938 167.297C215.601 170.868 215.187 171.191 211.735 170.433C201.983 168.3 195.907 160.996 195.921 150.991C195.928 146.809 196.068 142.523 197.029 138.495C197.773 135.359 199.885 132.553 201.576 129.234H193.795C193.374 129.234 192.953 129.234 192.532 129.234C186.575 129.234 184.66 130.904 184.695 137.022C184.709 139.807 185.656 142.614 186.379 145.357C187.256 148.676 188.68 151.882 189.276 155.243C190.076 159.726 188.968 163.992 185.993 167.528C185.298 168.356 183.93 168.924 182.821 169.016C180.239 169.233 177.629 169.086 174.844 169.086C174.991 168.63 175.012 168.272 175.188 168.04C180.008 161.845 180.001 155.194 177.089 148.262C175.223 143.814 173.378 139.358 174.598 134.37C174.977 132.833 175.56 131.353 176.156 129.529H164.544C168.95 140.228 167.281 145.175 157.402 148.985C164.425 151.602 167.014 156.625 166.228 163.34C165.337 170.959 159.661 172.741 152.961 173.099L153.199 173.745C158.16 175.197 163.127 176.649 168.109 178.102C167.982 180.712 167.87 183.132 167.744 185.77C167.112 185.693 166.551 185.7 166.046 185.546C155.578 182.402 145.117 179.217 134.641 176.102C133.14 175.653 132.368 174.979 132.579 173.288C132.831 171.226 132.88 169.142 133.014 167.219L133.007 167.205ZM299.051 141.456C293.642 143.175 288.695 144.663 283.812 146.339C281.665 147.076 282.921 149.104 282.647 150.535C282.402 151.854 282.935 152.682 284.282 153.215C288.26 154.787 292.182 156.499 296.132 158.148C297.08 158.541 298.041 158.891 299.051 159.277V141.463V141.456ZM241.28 144.171C241.989 144.024 242.361 144.045 242.592 143.884C245.188 142.046 247.959 140.811 251.243 140.874C251.657 140.881 252.429 139.807 252.457 139.211C252.562 136.608 252.401 133.991 252.457 131.381C252.492 129.767 251.881 129.115 250.24 129.143C245.946 129.213 241.652 129.157 237.358 129.185C236.937 129.185 236.509 129.416 235.611 129.683C240.578 133.472 241.82 138.439 241.28 144.171ZM147.706 129.206C146.443 129.206 145.159 129.073 143.931 129.269C143.391 129.353 142.626 130.034 142.528 130.553C141.524 135.857 145.25 140.334 150.624 140.39C154.139 140.432 156.279 138.608 156.406 135.457C156.546 131.809 154.497 129.416 150.989 129.213C149.902 129.15 148.8 129.206 147.706 129.213V129.206ZM70.3945 129.22C69.1316 129.22 67.8546 129.094 66.6198 129.276C66.0655 129.353 65.2446 129.964 65.1394 130.462C64.0028 135.738 67.995 140.488 73.3834 140.39C76.9195 140.327 78.9121 138.509 78.9893 135.289C79.0665 131.746 77.0879 129.459 73.671 129.227C72.5835 129.15 71.489 129.213 70.3945 129.227V129.22ZM73.3483 169.037V158.463C69.9034 159.46 66.8934 160.189 63.9887 161.221C62.6206 161.705 61.4489 162.757 60.186 163.55C61.4419 164.322 62.6206 165.311 63.9747 165.83C67.0618 167.023 70.2401 167.991 73.3483 169.037Z" fill="white"/>
<path d="M69.8474 110.761H59.7862V86.2678C57.534 87.9657 55.773 89.2006 54.1242 90.5687C50.6933 93.4243 47.2273 96.2588 43.9577 99.2898C42.351 100.777 40.7303 101.451 38.5693 101.289C36.3312 101.128 34.072 101.254 31.5251 101.254C31.5251 100.027 31.5251 99.1285 31.5251 98.2234C31.5251 89.2848 31.483 80.3392 31.5672 71.4006C31.5812 69.5343 31.048 68.9379 29.1396 68.9239C21.4218 68.8608 16.5947 72.4951 15.2967 80.2831C14.6583 84.1349 14.7635 88.1692 15.0091 92.0842C15.3388 97.3113 18.2295 100.609 23.5337 101.563C23.8565 101.619 24.1652 101.788 24.4669 101.935C24.6072 102.005 24.7194 102.138 24.944 102.321L23.9968 110.235C22.8461 110.235 21.6814 110.417 20.5869 110.207C12.2026 108.614 6.81421 103.64 4.98299 95.3257C3.22194 87.3132 3.63589 79.3429 7.79647 72.025C11.9571 64.7002 18.3137 60.9676 26.8804 60.9816C53.0156 61.0377 79.1508 60.9956 105.279 61.0448C107.37 61.0448 109.489 61.2693 111.544 61.6552C115.13 62.3357 117.838 64.3423 119.613 68.2854C121.809 62.4129 125.829 60.3922 131.379 60.3502C137.076 60.3081 140.837 62.7146 143.307 67.9697C143.426 65.7175 143.545 63.4653 143.671 61.0307C144.731 61.0307 145.559 61.0307 146.394 61.0307C165.19 61.0448 183.993 61.0868 202.789 61.0307C204.831 61.0307 205.961 61.3184 205.813 63.7109C205.715 65.2615 206.115 66.8401 206.34 68.8608C204.789 68.8608 203.554 68.952 202.333 68.8397C200.264 68.6503 199.583 69.4361 199.604 71.562C199.709 82.9492 199.667 94.3364 199.674 105.724C199.674 106.636 199.674 107.548 199.674 108.748C195.64 108.649 191.858 109.463 188.098 107.828C180.303 104.44 172.445 101.177 164.572 97.9848C162.903 97.3113 162.313 96.4483 162.383 94.6451C162.531 90.7722 162.524 86.8853 162.39 83.0123C162.327 81.2723 162.931 80.4234 164.551 79.9182C172.087 77.5538 179.559 74.9718 187.136 72.7828C189.403 72.1303 189.775 71.1761 189.122 69.0502C188.441 69.0011 187.705 68.9028 186.975 68.9028C176.689 68.9028 166.404 68.9941 156.118 68.8678C153.606 68.8397 153.045 69.6816 153.066 72.0461C153.185 83.2649 153.122 94.4838 153.122 105.696C153.122 106.615 153.122 107.534 153.122 108.642H142.703C142.703 107.583 142.703 106.601 142.703 105.618C142.703 96.6798 142.724 87.7342 142.703 78.7956C142.689 71.9128 136.803 67.5768 130.249 69.6045C127.513 70.4534 126.334 72.4109 126.306 76.1716C126.278 79.9884 127.331 82.0301 130.172 82.7036C132.256 83.2018 134.466 83.1597 136.781 83.3772C136.655 85.9802 136.62 88.7305 136.304 91.4528C136.248 91.9229 135.02 92.5683 134.305 92.6104C128.264 92.9893 122.833 91.8808 119.732 85.7136C115.915 93.3261 109.454 93.0735 102.936 92.3228C102.746 89.376 102.557 86.3871 102.353 83.2158C103.918 83.2158 105.475 83.2509 107.033 83.2158C110.997 83.1036 113.144 81.146 113.369 77.4976C113.691 72.1934 112.337 69.7939 108.085 69.3308C103.813 68.8678 99.3713 67.8434 95.3932 70.7411C91.0923 73.8773 89.3453 78.3676 89.0015 83.3842C88.777 86.7169 89.0155 90.1197 89.4154 93.4454C89.9346 97.7743 92.692 100.426 96.8525 101.353C98.8662 101.802 99.2731 102.77 98.9574 104.51C98.803 105.338 98.6136 106.166 98.5364 107.001C98.1716 110.761 97.9541 110.93 94.1794 110.095C84.4831 107.955 78.4843 100.588 78.5053 90.5758C78.5123 86.8011 78.4071 82.9001 79.3051 79.2938C80.1681 75.8208 82.266 72.6565 83.9218 69.1414C83.5499 69.1063 82.7781 68.98 82.0134 68.98C69.6228 68.966 57.2253 69.0291 44.8348 68.9099C42.4493 68.8888 41.8108 69.6536 41.8739 71.9408C42.0213 77.5678 41.9231 83.2018 41.9231 89.0462C42.4072 88.7445 42.8913 88.499 43.2982 88.1622C47.55 84.7173 51.8088 81.2723 56.0396 77.7993C57.534 76.5715 59.1337 75.9962 61.1263 76.1084C63.9608 76.2628 66.8094 76.1505 69.8263 76.1505V110.761H69.8474ZM189.347 81.2232C184.049 82.865 179.363 84.3665 174.641 85.7627C173.118 86.2117 172.634 87.1238 172.859 88.5621C173.111 90.1408 172.017 92.0562 174.535 92.9963C179.019 94.6732 183.376 96.6588 187.803 98.49C188.287 98.6935 188.841 98.7285 189.347 98.8338V81.2232Z" fill="white"/>
<path d="M173.523 106.511C177.389 106.49 179.192 108.314 179.164 112.243C179.143 115.821 177.031 117.954 173.544 117.926C170.099 117.905 168.029 115.73 168.022 112.138C168.015 108.398 169.84 106.532 173.523 106.504V106.511Z" fill="white"/>
<path d="M303.451 113.629C303.612 113.454 303.766 113.279 303.927 113.111C303.766 113.286 303.612 113.461 303.451 113.629Z" fill="white"/>
<path opacity="0.08" d="M213.427 41.7742C212.178 43.4791 212.143 45.4086 212.374 47.3941C212.22 47.338 211.974 47.338 211.918 47.2258C210.817 45.3244 211.918 41.0586 213.813 39.7676C214.17 40.5323 213.749 41.1427 213.434 41.7742H213.427Z" fill="#6D6D6D"/>
<path opacity="0.08" d="M215.931 36.7598C215.265 37.4403 214.598 38.1209 213.932 38.7945C213.7 37.0123 213.756 36.9562 215.931 36.7598Z" fill="#6D6D6D"/>
<path d="M325.194 95.4141L325.404 95.533L325.187 95.4211L325.194 95.4141Z" fill="white"/>
<path d="M188.434 0H21.906C19.7283 0 17.9629 1.76538 17.9629 3.94308V44.3702C17.9629 46.5479 19.7283 48.3133 21.906 48.3133H188.434C190.612 48.3133 192.378 46.5479 192.378 44.3702V3.94308C192.378 1.76538 190.612 0 188.434 0Z" fill="white"/>
<path d="M160.923 13.6777C165.575 11.3063 169.651 11.5378 173.208 14.667C175.061 10.6117 178.884 14.1268 181.487 12.043C181.614 13.7619 181.705 14.9968 181.796 16.2106C178.449 17.3402 178.435 17.3402 178.414 21.1149C178.393 25.079 178.281 29.0501 178.442 33.0072C178.541 35.4419 177.208 35.3998 175.447 35.484C173.363 35.5892 173.089 34.5789 173.159 32.8739C173.257 30.4534 173.187 28.0258 173.187 25.0509C170.198 26.7699 167.595 28.2433 165.02 29.7588C161.842 31.6321 161.744 31.6321 159.253 28.3275L163.203 25.6683C161.477 24.5387 159.365 23.8301 158.481 22.3708C157.654 21.0026 158.124 18.8416 158.018 16.9683C154.889 16.2597 152.462 17.7401 151.437 21.171C149.732 26.8611 151.227 30.6498 155.899 32.481C156.019 36.4381 155.282 36.9644 151.669 35.498C148.778 34.3263 147.122 32.1302 146.435 29.1484C145.473 24.9808 146.035 21.4797 148.441 16.835H142.232V35.091C141.355 35.2103 140.724 35.2875 140.092 35.3857C138.099 35.6874 137.229 35.0419 137.314 32.8248C137.482 28.4467 137.363 24.0546 137.356 19.6695C137.356 18.7574 137.356 17.8523 137.356 17.0946C136.935 16.8631 136.802 16.7227 136.654 16.7157C131.203 16.3579 129.912 18.126 131.673 23.3811C132.36 25.4368 133.385 27.5627 133.357 29.6465C133.293 34.221 131.946 36.3048 126.488 35.07C129.729 31.3795 128.501 27.6469 127.063 23.7108C126.298 21.62 126.502 19.1784 126.256 16.7368H122.32V34.9016C118.517 36.2698 115.732 34.3964 112.869 33.1265C111.045 32.3197 109.488 31.9197 107.404 32.6635C103.987 33.8843 100.402 33.4773 97.0129 32.1864C92.4524 30.4464 90.2984 25.9209 91.0351 19.6415H95.3079C95.5395 21.2832 95.7009 22.9391 96.0236 24.5668C96.641 27.7241 98.9493 29.1484 103.166 29.0852C106.667 29.0291 108.372 27.8083 108.884 24.9737C109.277 22.7917 108.232 21.157 106.436 21.1008C104.675 21.0447 104.022 22.0691 103.994 23.6266C103.952 26.3629 101.938 25.5 100.514 25.5C98.6336 25.507 98.9844 24.0125 99.1177 22.911C99.6018 18.9469 102.275 16.8631 106.555 17.0174C110.905 17.1718 113.487 19.5783 113.655 23.6407C113.683 24.23 113.683 24.8264 113.634 25.4088C113.339 29.1905 113.382 29.2536 117.29 30.285V16.7719C116.153 16.7227 115.262 16.6456 114.378 16.6456C106.541 16.6386 98.6968 16.6456 90.8597 16.6386C88.7782 16.6386 87.8217 15.4224 87.9901 12.9902C88.9303 12.941 89.9055 12.8568 90.8878 12.8568C112.975 12.8288 135.062 12.8007 157.141 12.8218C158.166 12.8218 159.19 13.2708 160.937 13.6847L160.923 13.6777ZM172.745 20.0133C171.37 17.1648 168.416 15.9159 165.771 16.9683C164.221 17.5857 162.432 18.8206 163.568 20.4203C164.466 21.6902 166.739 22.6233 168.353 22.5532C169.862 22.49 171.3 20.9044 172.745 20.0133Z" fill="#E9188B"/>
<path d="M72.2884 17.4498C73.9232 17.8217 75.579 18.1304 77.1927 18.5794C81.1919 19.681 82.4127 21.3438 82.3496 25.4623C82.3005 28.802 81.2059 30.1491 77.9505 30.9068C74.274 31.7628 73.86 31.3909 74.267 27.4268C75.9228 27.076 78.2802 27.2093 77.6768 24.3818C77.0243 21.3508 74.26 22.4734 72.1411 21.3578V35.4533C70.1836 35.2428 68.3804 35.3831 66.8439 34.8078C63.5463 33.573 60.403 31.9172 57.1546 30.535C55.8145 29.9667 55.3304 29.1738 55.3163 27.6864C55.2672 21.6595 55.2041 21.6455 60.9433 19.702C62.4518 19.1898 64.0164 18.825 65.5389 18.3479C66.2545 18.1234 66.9351 17.8006 67.6367 17.527L67.4753 16.7342H53.008C52.8537 15.2959 52.7344 14.2435 52.6011 13.0156H84.2299C84.3071 14.1382 84.3773 15.2468 84.4825 16.7202H72.3656L72.2814 17.4639L72.2884 17.4498ZM67.3701 30.7595V22.0244C65.2652 22.6979 63.3147 23.1961 61.4905 23.9819C60.8451 24.2625 60.1505 25.2378 60.1224 25.9183C60.1013 26.5989 60.7258 27.5952 61.3502 27.946C63.1604 28.9634 65.1179 29.7281 67.3631 30.7525L67.3701 30.7595Z" fill="#E9188B"/>
<path d="M46.266 29.8113C46.266 26.7593 46.3011 23.3915 46.252 20.0308C46.2239 18.3188 45.7398 16.8314 43.7051 16.5578C41.5301 16.2631 39.8603 17.0489 38.9902 19.0906C38.2255 20.8867 38.9903 22.0304 40.9127 22.2268C41.6494 22.304 42.3861 22.311 43.0877 22.3461C43.677 25.9033 43.4666 26.205 40.4636 26.212C36.7521 26.219 34.8928 25.1596 34.0158 22.5215C33.1247 19.8343 34.2824 16.0947 36.6539 14.3828C40.0076 11.9622 43.6279 11.7166 47.3956 13.3023C49.9004 14.3617 50.8055 16.6069 50.8756 19.0134C51.037 24.3948 50.9247 29.7832 50.9247 35.2699C49.1075 35.6347 47.5359 36.21 46.0134 34.5051C45.4241 33.8386 44.0349 33.7333 42.9895 33.6632C40.3093 33.4667 37.6081 33.5369 34.9279 33.3123C31.2655 33.0036 29.4272 31.2777 28.873 27.7064C28.7046 26.6259 27.7995 24.9842 29.9184 24.7526C31.511 24.5772 33.4475 24.1001 33.672 26.7242C33.8474 28.7729 35.1664 29.2781 36.9977 29.3272C39.9936 29.4114 42.9824 29.6429 46.259 29.8253L46.266 29.8113Z" fill="#E9188B"/>
</g>
<g clip-path="url(#clip0_8034_23680)">
<path d="M263 30C239.802 30 221 48.8017 221 72C221 95.1983 239.802 114 263 114C286.198 114 305 95.1894 305 72C305 48.8106 286.189 30 263 30ZM268.925 57.1481C269.649 56.9068 270.265 56.7817 270.81 56.7817C271.391 56.7817 271.811 56.9157 272.258 57.0587C272.705 57.1928 273.16 57.3357 273.768 57.3357C273.938 57.3357 274.117 57.3179 274.295 57.3H274.34L274.367 57.2643C274.429 57.1838 274.492 57.1481 274.537 57.1481C274.608 57.1481 274.689 57.2196 274.778 57.3C274.903 57.4072 275.055 57.5323 275.26 57.5323C275.305 57.5323 275.35 57.5323 275.403 57.5145H275.421L275.448 57.4877C275.779 57.157 276.431 56.9783 277.316 56.9783C279.344 56.9783 282.293 57.9523 282.919 59.1677C283.089 59.4894 283.062 59.8111 282.856 60.1238C282.731 60.2043 282.615 60.24 282.499 60.24C282.284 60.24 282.088 60.106 281.873 59.963C281.659 59.8111 281.435 59.6502 281.158 59.6055H281.123C280.953 59.6323 280.837 59.7038 280.783 59.8021C280.676 59.9719 280.747 60.1774 280.819 60.383C280.846 60.4902 280.881 60.5885 280.89 60.6779C280.729 61.4017 280.363 62.6438 280.095 63.3677C279.612 63.6357 279.648 64.0647 279.675 64.4221C279.702 64.6455 279.711 64.8421 279.603 64.9583C279.505 65.0655 279.3 65.1191 278.978 65.1191C278.799 65.1191 278.576 65.1013 278.317 65.0655L278.227 65.0477L278.2 65.1281C278.147 65.2711 278.236 65.414 278.308 65.5392C278.317 65.5392 278.334 65.566 278.343 65.5838C278.326 65.5749 278.317 65.566 278.299 65.557C278.2 65.4766 278.093 65.4051 277.968 65.4051C277.897 65.4051 277.834 65.423 277.771 65.4677L277.709 65.5034L277.727 65.5838C277.843 66.0128 277.7 67.0047 277.477 67.3085C277.45 67.3443 277.414 67.3711 277.396 67.3711C277.387 67.3711 277.244 67.3621 277.057 66.7277L277.039 66.674L276.985 66.6562C276.753 66.5847 276.574 66.54 276.44 66.54C276.306 66.54 276.208 66.5757 276.145 66.6562C276.038 66.7813 276.065 66.9779 276.1 67.1477C276.109 67.237 276.136 67.38 276.109 67.4157C276.1 67.4247 276.074 67.4336 276.038 67.4336C275.966 67.4336 275.85 67.3979 275.689 67.3443C275.671 67.3085 275.636 67.2102 275.609 67.1477C275.52 66.9153 275.457 66.7277 275.314 66.7277C275.198 66.7277 275.153 66.8617 275.135 66.9064V66.9421C275.153 67.38 275.082 67.6838 274.93 67.8357C274.823 67.9519 274.653 68.0055 274.42 68.0055C274.251 68.0055 274.054 67.9787 273.866 67.9519C273.679 67.9251 273.473 67.8983 273.294 67.8983C273.08 67.8983 272.767 67.934 272.58 68.2111L272.562 68.2379V68.2736C272.553 68.8455 272.49 69.0064 272.463 69.0511C272.311 68.926 272.017 67.9966 272.115 67.5051C272.151 67.3264 272.222 67.3264 272.249 67.3264H272.303L272.338 67.3085C272.41 67.2728 272.446 67.2192 272.437 67.1566C272.437 67.0583 272.32 67.0315 272.222 67.0047C272.204 67.0047 272.186 67.0047 272.169 66.9868C272.329 66.8974 272.606 66.6919 272.571 66.5311C272.562 66.4953 272.535 66.406 272.383 66.406C272.329 66.406 272.258 66.4238 272.169 66.4417H272.133C272.088 66.4864 272.034 66.5221 271.99 66.5668C271.9 66.6472 271.793 66.7277 271.704 66.7277C271.686 66.7277 271.659 66.7187 271.641 66.7098C271.463 66.5936 271.311 66.5311 271.186 66.4864C271.087 66.4417 271.007 66.406 270.989 66.3702C270.971 66.3166 271.034 66.1647 271.168 65.9234C271.203 65.9055 271.248 65.8877 271.302 65.8698C271.463 65.7983 271.65 65.7179 271.686 65.566C271.695 65.5034 271.677 65.4319 271.632 65.3694C271.74 65.28 271.784 65.1996 271.793 65.1102C271.802 64.9583 271.677 64.8511 271.543 64.726C271.623 64.6455 271.668 64.574 271.677 64.4847C271.677 64.3328 271.534 64.2255 271.409 64.1362C271.355 64.1004 271.266 64.0289 271.257 64.0021C271.257 64.0021 271.257 63.9843 271.293 63.9574L271.311 63.9396C271.677 63.4481 271.677 63.2426 271.293 62.8494V62.8315H271.266C271.266 62.8315 271.32 62.6349 271.391 62.5187C271.498 62.3311 271.632 62.1077 271.534 61.9289C271.454 61.786 271.239 61.7145 270.873 61.7055C271.007 60.0077 270.31 59.9094 269.702 59.82C269.389 59.7664 269.094 59.7217 268.916 59.4715C268.666 59.114 268.674 58.3545 268.925 57.1481ZM258.443 55.8791L258.478 55.8345C258.55 55.763 258.657 55.7362 258.8 55.7362C259.256 55.7362 259.962 56.0668 260.471 56.317C260.757 56.4511 260.989 56.5583 261.141 56.603C261.758 57.0319 262.866 57.0945 263.867 57.0945C264.269 57.0945 264.68 57.0766 265.091 57.0677C265.475 57.0587 265.886 57.0498 266.262 57.0498C267.245 57.0498 268.29 57.1123 268.603 57.586C268.746 57.8004 268.728 58.1043 268.549 58.5064H268.54V58.5332C268.451 59.9362 269.202 60.0166 269.8 60.0791C270.104 60.1149 270.399 60.1417 270.551 60.3294C270.667 60.4813 270.703 60.7136 270.658 61.0621C270.56 61.3481 270.551 61.5626 270.64 61.7145C270.748 61.8932 270.953 61.9289 271.123 61.9557C271.221 61.9736 271.337 62.0004 271.355 62.0362C271.373 62.0809 271.373 62.2238 271.016 62.7064L270.953 62.7868L271.034 62.8494C271.507 63.2068 271.355 63.4391 271.203 63.6894C271.123 63.8234 271.043 63.9574 271.096 64.0915C271.132 64.1898 271.23 64.2613 271.4 64.3149V64.3328C271.445 64.5294 271.445 64.583 271.337 64.6187L271.168 64.6902L271.311 64.7974C271.579 65.0119 271.588 65.0923 271.588 65.1013C271.588 65.1102 271.561 65.137 271.543 65.146C271.48 65.2085 271.355 65.3068 271.454 65.5123C271.212 65.6196 271.069 65.8251 270.944 66.0128C270.774 66.2451 270.64 66.4417 270.337 66.4506H270.319C270.122 66.4864 270.149 66.683 270.158 66.7545V66.7723C270.104 66.7366 270.06 66.7277 270.006 66.7277C269.863 66.7277 269.8 66.8438 269.738 66.9511C269.657 67.0851 269.595 67.1745 269.452 67.1834H269.416L269.389 67.2102C269.22 67.3621 269.327 67.5587 269.398 67.6838C269.47 67.8089 269.488 67.8626 269.452 67.8983L269.363 67.9966L269.479 68.0592C269.532 68.086 269.568 68.1128 269.577 68.1396C269.577 68.1932 269.47 68.3183 269.389 68.4166C269.184 68.6489 268.907 68.9617 268.996 69.3906C268.621 70.2932 268.201 70.2932 267.79 70.3021C267.549 70.3021 267.298 70.3021 267.111 70.4987C266.843 70.7757 266.735 71.3923 266.762 72.5362V72.5898L266.798 72.6166C266.968 72.7596 267.03 72.84 267.057 72.8668C267.048 72.8757 267.03 72.8757 267.03 72.8847C266.959 72.9026 266.86 72.9383 266.825 73.0366C266.798 73.0902 266.807 73.1617 266.834 73.2332C266.762 73.3226 266.646 73.3762 266.53 73.4298C266.396 73.4923 266.262 73.5549 266.262 73.68C266.253 73.7872 266.342 73.8677 266.449 73.9391C266.431 73.9391 266.405 73.9302 266.387 73.9302C266.342 73.9123 266.289 73.9034 266.226 73.9034C266.128 73.9034 266.047 73.9391 265.976 74.0106C265.877 74.0821 265.815 74.1 265.77 74.1C265.645 74.1 265.618 73.9213 265.609 73.8677C265.583 73.6264 265.699 73.3315 265.94 73.2868L266.092 73.2511L266.003 73.117C265.958 73.0634 265.922 73.0187 265.86 73.0187C265.851 73.0187 265.824 73.0187 265.806 73.0277C265.761 73.0009 265.717 72.983 265.654 72.983C265.538 72.983 265.422 73.0455 265.314 73.0902C265.261 73.117 265.216 73.1349 265.189 73.1438L265.055 73.1796L265.127 73.2957C265.154 73.3494 265.154 73.3762 265.154 73.3762C265.145 73.394 265.082 73.4298 264.966 73.4298C264.868 73.4298 264.769 73.403 264.725 73.3851C264.725 73.3851 264.662 73.3315 264.626 73.3136C264.564 73.26 264.519 73.2332 264.466 73.2332C264.43 73.2332 264.394 73.2511 264.367 73.2868C264.331 73.3494 264.367 73.4119 264.439 73.537L264.457 73.5728H264.501C264.921 73.6711 265.163 73.7962 265.27 73.966C265.404 74.1894 265.297 74.52 265.163 74.9847C265.136 75.0562 265.118 75.1277 265.091 75.2081C264.805 75.083 264.403 75.0115 263.974 74.94C263.349 74.8328 262.696 74.7166 262.392 74.4306L262.258 74.3055L262.223 74.4932C262.169 74.7881 262.643 75.0472 263.134 75.3153C263.357 75.4315 263.626 75.5745 263.679 75.6549C263.929 76.2089 264.662 76.2983 265.198 76.3609C265.225 76.3698 265.252 76.3698 265.288 76.3698C265.404 76.4592 265.547 76.7809 265.618 76.9953L265.449 77.0757C265.636 77.6477 265.502 78.023 265.404 78.1928C265.404 78.1928 265.404 78.2017 265.404 78.2106C265.404 78.166 265.395 78.1213 265.368 78.0855C265.341 78.0587 265.306 78.0409 265.279 78.0409C265.198 78.0409 265.136 78.1123 265.055 78.2285L265.037 78.2464C264.966 78.3715 264.814 78.3894 264.591 78.3894C264.43 78.3894 264.26 78.3894 264.171 78.5145C264.117 78.577 264.09 78.6574 264.108 78.7647C264.037 78.8898 263.974 78.8898 263.956 78.8898C263.849 78.8898 263.715 78.7915 263.572 78.6932C263.402 78.577 263.232 78.4519 263.054 78.4519C262.875 78.4519 262.732 78.577 262.634 78.8094L262.571 78.9434H262.723C262.821 78.9613 262.937 78.9881 262.937 79.0864C262.929 79.2026 262.759 79.3991 262.571 79.3991C262.33 79.3991 262.151 79.1043 262.071 78.5949L262.053 78.4698C262.053 78.4698 261.928 78.4877 261.883 78.4877C261.293 78.434 260.283 79.6494 259.962 80.114C259.765 80.4089 259.649 80.5609 259.506 80.5609C259.157 80.5609 258.443 79.7566 257.147 78.1749C257.147 78.1481 257.129 78.1302 257.12 78.1123C257.156 78.1302 257.183 78.1481 257.209 78.157L257.334 78.2464L257.37 78.0945C257.379 78.023 257.486 77.9068 257.558 77.8264C257.692 77.6834 257.808 77.5583 257.754 77.4332C257.71 77.326 257.576 77.317 257.469 77.317H257.343L257.308 77.3617C257.308 77.3617 257.236 77.4332 257.2 77.4332C257.174 77.4332 257.138 77.4153 257.12 77.3885C257.093 77.3438 257.066 77.2634 257.102 77.183C257.138 77.0847 257.111 77.0221 257.093 76.9774C257.013 76.8434 256.816 76.8077 256.664 76.7719C256.655 76.7719 256.637 76.7719 256.629 76.7719L256.771 76.6289C256.879 76.5217 256.968 76.4323 256.923 76.334C256.888 76.2357 256.771 76.2357 256.727 76.2357C256.691 76.2357 256.646 76.2357 256.602 76.2447C256.459 76.1285 256.325 75.7532 256.298 75.5477C256.325 75.5745 256.369 75.5923 256.414 75.5923C256.459 75.5923 256.503 75.5655 256.53 75.5209C256.629 75.3243 256.316 74.4306 256.289 74.3949C256.119 74.1983 255.797 73.9928 255.485 73.9928H255.449C255.449 73.9928 255.52 73.9123 255.565 73.8945L255.762 73.7962L255.565 73.7068C255.413 73.6264 255.27 73.3494 255.127 73.0902C254.922 72.6791 254.698 72.2681 254.323 72.2681C254.269 72.2681 254.207 72.277 254.153 72.2949C253.921 72.2681 253.778 72.2055 253.715 72.0983C253.581 71.9017 253.706 71.5443 253.84 71.16C253.966 70.8026 254.091 70.4451 254.046 70.1323C254.198 70.2128 254.386 70.2932 254.564 70.3736C254.788 70.4719 254.993 70.5523 255.118 70.6417C255.145 70.6596 255.172 70.6864 255.199 70.7132C255.36 70.8651 255.556 71.0528 255.797 71.0528C255.869 71.0528 255.949 71.026 256.021 70.9813H256.039C256.316 70.7311 256.575 70.7311 256.78 70.7221C256.932 70.7221 257.075 70.7221 257.165 70.606C257.254 70.4809 257.245 70.2574 257.129 69.7928C257.245 69.4443 257.522 69.1226 257.79 68.8187C258.326 68.2021 258.88 67.5677 258.219 66.6204V66.6026H258.201C257.558 66.0664 257.692 65.1549 257.826 64.2791C257.889 63.8681 257.942 63.4928 257.924 63.1443C258.174 61.8485 257.781 61.0443 257.397 60.2668C257.084 59.6413 256.888 59.0515 256.906 58.1936C256.932 57.3089 257.424 56.174 257.96 54.9498C257.96 55.3251 258.04 55.8166 258.407 55.8791H258.46H258.443ZM265.94 79.9174L266.029 80.0068C265.958 79.9711 265.877 79.9174 265.824 79.8638C265.788 79.8191 265.779 79.7923 265.779 79.7923V79.7387L265.743 79.703C265.672 79.6494 265.591 79.6226 265.493 79.6226C265.413 79.6226 265.323 79.6404 265.243 79.6583C265.171 79.6762 265.1 79.694 265.037 79.694C264.975 79.694 264.903 79.6762 264.859 79.5511C265.037 79.2294 265.207 79.0596 265.35 79.0596C265.52 79.0596 265.717 79.3009 265.922 79.56C265.958 79.6047 265.985 79.6404 266.02 79.6762C265.922 79.6762 265.886 79.703 265.869 79.7566C265.842 79.837 265.904 79.8906 265.94 79.9174ZM264.877 82.0532C264.877 82.0532 264.85 82.0711 264.85 82.08C264.814 82.0532 264.769 81.9728 264.743 81.9281C264.662 81.794 264.564 81.6332 264.412 81.5796C264.448 81.4545 264.439 81.3115 264.43 81.1774C264.412 80.9183 264.412 80.7843 264.546 80.7306C264.635 80.7485 264.707 80.7574 264.778 80.7574C264.975 80.7574 265.091 80.6949 265.189 80.6502C265.261 80.6145 265.314 80.5966 265.377 80.5966C265.511 80.5966 265.69 80.6949 265.967 80.9183C266.101 81.0345 266.146 81.097 266.163 81.1238C266.11 81.1506 265.949 81.1596 265.833 81.1774C265.502 81.2043 265.091 81.24 264.912 81.5081C264.823 81.6511 264.814 81.8298 264.877 82.0532ZM264.984 75.7979C264.894 75.8068 264.823 75.8604 264.796 75.9498C264.787 75.9587 264.769 75.9677 264.743 75.9677C264.609 75.9677 264.385 75.8247 264.233 75.646C264.153 75.5566 264.126 75.4851 264.117 75.4583H264.215C264.215 75.4583 264.296 75.494 264.34 75.5119C264.546 75.5834 264.778 75.6817 264.984 75.7979ZM242.42 48.346C242.634 47.9796 242.822 47.6668 242.608 47.4791C242.5 47.1396 242.849 46.8536 243.126 46.6123C243.153 46.5945 243.18 46.5766 243.197 46.5587C244.243 46.237 244.332 46.0136 244.404 45.6651C244.457 45.4238 244.52 45.1289 245.226 44.6106C245.351 44.6553 245.458 44.6821 245.548 44.6821C245.771 44.6821 245.905 44.5391 245.905 44.2979C245.905 43.86 245.431 43.1809 244.833 43.1809C244.788 43.1809 244.743 43.1809 244.708 43.1898C244.69 43.1898 244.681 43.1809 244.663 43.1719C244.6 43.1362 244.52 43.1004 244.449 43.1004C244.386 43.1004 244.341 43.1183 244.314 43.163C244.341 43.0111 244.386 42.8234 244.44 42.6268C244.565 42.1979 244.681 41.9745 244.761 41.8851C244.779 41.9387 244.779 42.0102 244.77 42.1174C244.77 42.3051 244.761 42.5285 244.967 42.6536H244.976L244.994 42.6715C245.315 42.734 245.512 42.9128 245.717 43.0915C245.959 43.3149 246.209 43.5294 246.647 43.5472C246.763 43.7885 246.942 43.9494 247.174 44.0119C247.165 44.0655 247.156 44.1191 247.183 44.1728C247.21 44.2443 247.263 44.2889 247.353 44.3247C247.424 44.5749 247.576 44.7 247.674 44.7894C247.701 44.8162 247.746 44.8519 247.755 44.8698C247.737 44.9323 247.54 45.0753 247.174 45.2987L247.058 45.3702L247.156 45.4685C247.228 45.54 247.317 45.5757 247.424 45.5757C247.567 45.5757 247.701 45.5221 247.853 45.4596C247.987 45.406 248.13 45.3523 248.255 45.3523C248.327 45.3523 248.38 45.3702 248.434 45.406C248.506 45.7009 248.702 45.9779 248.926 45.9779C249.051 45.9779 249.203 45.9064 249.292 45.5579C249.346 45.5132 249.399 45.4864 249.444 45.4864C249.551 45.4864 249.676 45.6115 249.801 45.7277C249.953 45.8796 250.114 46.0315 250.32 46.0404H250.337C250.597 46.0136 250.99 45.8706 251.008 45.6383C251.026 45.5043 250.927 45.397 250.713 45.3255C250.74 45.2362 250.757 45.1736 250.713 45.1111C250.695 45.0843 250.659 45.0664 250.623 45.0664C250.57 45.0664 250.534 45.0932 250.489 45.1379H250.471C250.471 45.1379 250.427 45.1111 250.382 44.986C250.337 44.8519 250.266 44.6464 250.025 44.6196C249.766 44.5749 249.64 44.4498 249.658 44.2532C249.676 44.0298 249.873 43.8064 250.043 43.8064C250.355 44.0923 250.65 44.2979 250.963 44.4319C250.972 44.4945 250.972 44.5391 250.981 44.5749C250.981 44.7447 251.043 44.7715 251.213 44.8162C251.258 44.8162 251.311 44.843 251.392 44.8698C251.392 44.8787 251.401 44.8877 251.401 44.8966C251.392 44.9055 251.383 44.9055 251.383 44.9055C251.294 44.9145 251.177 44.9323 251.115 45.0574C251.07 45.1647 251.061 45.3613 251.419 45.9511C251.356 46.6838 251.919 47.077 252.455 47.4434C252.768 47.6579 253.081 47.8723 253.26 48.1494V48.1672H253.277C253.465 48.3281 253.626 48.3996 253.769 48.3996C253.885 48.3996 253.974 48.3549 254.046 48.3191C254.091 48.2923 254.126 48.2745 254.171 48.2745C254.225 48.2745 254.296 48.3281 254.394 48.4264L254.439 48.48L254.502 48.4621C254.618 48.4264 254.734 48.4085 254.832 48.4085C255.154 48.4085 255.315 48.5962 255.413 48.7213C255.476 48.7928 255.529 48.8553 255.61 48.8553C255.753 48.8553 255.797 48.7034 255.914 48.1136C256.057 48.0064 256.459 47.6668 256.396 47.4434C256.378 47.3898 256.325 47.3004 256.137 47.3004C256.101 47.3004 256.057 47.3004 256.003 47.3094C256.039 47.2468 256.155 47.1932 256.209 47.1574C256.244 47.1396 256.271 47.1217 256.298 47.1038L256.539 46.943L256.253 46.9162C256.048 46.8983 255.967 46.8357 255.967 46.7911C255.967 46.7196 256.101 46.6123 256.271 46.6123C256.289 46.6123 256.307 46.6123 256.325 46.6213L256.521 46.6481L256.441 46.4694C256.36 46.3085 256.343 46.1745 256.387 46.103C256.414 46.0672 256.45 46.0583 256.477 46.0583C256.539 46.0583 256.593 46.094 256.629 46.1477C256.7 46.246 256.691 46.3889 256.629 46.5587L256.593 46.6392L256.664 46.6838C256.807 46.7732 256.932 46.7821 257.031 46.7821H257.102C257.2 46.7821 257.254 46.7821 257.308 47.1038V47.1485L257.343 47.1753C257.415 47.22 257.469 47.4613 257.513 47.6579C257.603 48.0421 257.71 48.48 258.031 48.48C258.076 48.48 258.13 48.4711 258.174 48.4532C258.246 48.5247 258.246 48.5604 258.237 48.5694C258.237 48.5962 258.148 48.6409 258.103 48.6587C258.023 48.6945 257.933 48.7302 257.933 48.8285C257.933 48.9268 258.04 48.9804 258.139 49.0251H258.174C258.228 49.034 258.273 49.0519 258.282 49.0698C258.326 49.1502 258.166 49.4004 258.067 49.5791C257.906 49.8294 257.763 50.0706 257.817 50.2494L257.862 50.437C258.157 51.6434 258.46 52.8855 258.067 54.083C257.656 54.6191 257.522 55.1821 257.415 55.6826C257.236 56.4511 257.12 56.9515 256.128 56.9515C255.914 56.9515 255.654 56.9247 255.36 56.8711C255.047 56.6655 254.707 56.5762 254.305 56.5762C254.117 56.5762 253.93 56.594 253.778 56.6119C253.635 56.6298 253.51 56.6477 253.394 56.6477C253.09 56.6477 252.813 56.5672 252.759 55.6826V55.6021L252.688 55.5843C252.357 55.486 251.892 55.477 251.401 55.477H251.061C250.168 55.477 249.337 55.4413 249.015 55.0302C248.863 54.8336 248.836 54.5566 248.934 54.1813V54.1634C248.961 53.7523 248.559 53.3949 248.166 53.2698L247.987 53.2162L248.032 53.3949C248.041 53.4485 248.041 53.4753 248.032 53.4843H247.737L247.71 53.52C247.585 53.6898 247.469 53.7702 247.38 53.7702C247.29 53.7702 247.201 53.7077 247.094 53.6451C246.942 53.5468 246.745 53.4217 246.477 53.4217C246.432 53.4217 246.388 53.4217 246.334 53.4217C246.155 53.377 246.021 53.2162 245.887 53.0374C245.735 52.8409 245.574 52.6443 245.324 52.5638C245.235 52.4834 245.226 52.3494 245.217 52.1885C245.199 51.9651 245.181 51.6881 244.913 51.5272C244.1 50.7051 243.492 50.303 243.054 50.303C242.84 50.303 242.697 50.3923 242.599 50.4638C242.554 50.4906 242.5 50.5174 242.483 50.5174C242.456 50.5174 242.384 50.4906 242.214 50.16V50.1421C241.723 49.5255 242.107 48.8643 242.42 48.337V48.346ZM244.985 65.137H244.967C244.243 64.7974 243.153 64.297 242.429 63.6357C241.651 62.9298 241.419 62.1613 241.741 61.3123C242.456 60.7851 242.706 60.1864 242.411 59.677C242.572 59.4626 242.715 59.3464 242.831 59.3464C242.992 59.3464 243.144 59.534 243.287 59.7217C243.466 59.9362 243.653 60.1596 243.903 60.1596C244.314 60.1596 244.717 59.5787 245.253 58.2115H245.262V58.1936C245.333 57.8451 245.324 57.5502 245.324 57.3089C245.315 57.0945 245.315 56.9068 245.378 56.8353C245.387 56.8353 245.423 56.7996 245.521 56.7996C245.682 56.7996 245.959 56.8711 246.379 57.023L246.432 57.0498L246.486 57.0051C246.629 56.88 246.79 56.8174 246.986 56.8174C247.21 56.8174 247.442 56.8889 247.692 56.9694C247.951 57.0498 248.22 57.1392 248.488 57.1392H248.604L248.631 57.0677C248.702 56.8443 248.8 56.8174 248.881 56.8174C248.988 56.8174 249.122 56.8711 249.265 56.9247C249.435 56.9962 249.614 57.0677 249.801 57.0677H249.855L250.043 57.0498L249.926 56.8979C249.926 56.8979 249.882 56.8264 249.864 56.8085C249.926 56.7817 249.989 56.737 250.007 56.6119V56.5494C249.926 56.4064 250.007 56.326 250.221 56.1562C250.355 56.0489 250.498 55.9417 250.516 55.7719C250.516 55.7362 250.516 55.7094 250.507 55.6736C250.936 55.6826 251.553 55.6915 251.982 55.6915H252.268C252.563 55.7362 252.571 55.7719 252.589 55.9596C252.607 56.1204 252.643 56.3528 252.84 56.6655C252.965 56.8621 253.099 56.9604 253.251 56.9604C253.403 56.9604 253.528 56.8711 253.671 56.7817C253.733 56.737 253.796 56.6923 253.867 56.6566C254.046 56.7013 254.234 56.7549 254.439 56.8085C254.913 56.9426 255.458 57.1034 255.949 57.1034C256.057 57.1034 256.164 57.0945 256.262 57.0766H256.271C256.343 57.0587 256.405 57.0498 256.459 57.0498C256.548 57.0498 256.611 57.0766 256.655 57.1302C256.816 57.3 256.771 57.8004 256.718 58.3366C256.62 59.3732 256.334 60.4992 257.406 61.1068C257.844 61.3481 257.79 61.9826 257.79 61.9826C257.781 62.4115 257.835 62.7511 257.728 63.2783C257.477 64.5115 257.2 65.9055 258.058 66.7634C258.55 67.657 258.148 68.086 257.674 68.5774C257.245 69.0332 256.754 69.5515 256.995 70.4809C256.682 70.606 256.387 70.6685 256.092 70.6685C255.413 70.6685 254.823 70.3379 254.135 69.9447C253.974 69.8553 253.805 69.757 253.635 69.6677L253.608 69.6498H253.581C252.67 69.6409 252.116 69.614 251.83 69.5157C251.589 69.4264 251.535 69.2923 251.41 68.9974C251.303 68.7026 251.124 68.2647 250.65 67.666C250.498 67.3711 250.311 67.2281 250.069 67.2281C249.855 67.2281 249.631 67.3443 249.417 67.4515C249.203 67.5677 248.988 67.6749 248.791 67.6749C248.631 67.6749 248.389 67.6123 248.148 67.094C248.318 66.7991 248.327 66.406 248.166 66.0574C248.005 65.7089 247.71 65.4855 247.371 65.4498L247.281 65.4319L247.263 65.5213C247.192 65.7715 247.004 65.8877 246.691 65.8877C246.102 65.8877 245.297 65.4587 245.003 65.1549L244.985 65.137ZM251.169 91.5702C251.213 91.5166 251.24 91.454 251.249 91.3826C251.303 91.5613 251.401 91.7043 251.589 91.7757C251.74 91.9634 251.794 92.0706 251.812 92.1153C251.651 92.0885 251.285 91.8472 251.169 91.5702ZM258.845 85.154L258.666 85.2613C258.889 85.8064 258.523 86.4498 258.353 86.6911L258.326 86.7447L258.353 86.7983C258.791 87.7992 258.746 88.2281 258.639 88.4157C258.541 88.5855 258.353 88.6123 258.219 88.6213C258.139 88.6302 258.049 88.6392 258.031 88.7285C258.005 88.8268 258.103 88.8894 258.192 88.9519H258.219C258.496 89.0681 258.469 89.3898 258.416 89.7383V89.783C258.451 89.8992 258.523 90.0153 258.594 90.1226C258.72 90.3102 258.791 90.4353 258.764 90.5515C258.496 90.5962 258.362 90.7481 258.246 90.8732C258.148 90.9804 258.067 91.0698 257.915 91.1055C257.871 91.0072 257.799 90.9357 257.701 90.9357C257.629 90.9357 257.576 90.9715 257.513 91.0162C257.469 91.043 257.424 91.0787 257.361 91.1055H257.334C257.12 91.1055 256.888 90.9894 256.825 90.8553C256.78 90.7749 256.798 90.6855 256.879 90.5872L256.914 90.5426L256.897 90.4889C256.834 90.2923 256.771 90.1583 256.655 90.1583C256.521 90.1583 256.468 90.3102 256.396 90.4979C256.369 90.5783 256.334 90.6855 256.298 90.7213L256.244 90.7838L256.289 90.8464C256.423 91.043 256.566 91.2217 256.691 91.3736C256.807 91.5077 256.968 91.7132 256.968 91.7757C256.968 91.7757 256.932 91.8204 256.637 91.8204C256.512 91.8204 256.36 91.8204 256.164 91.8026L256.03 91.7847L256.057 91.9187C256.101 92.2136 256.083 92.3208 256.066 92.3566C255.94 92.303 255.61 91.7757 255.619 91.4004C255.905 90.9626 255.931 90.4532 255.967 89.9706C255.994 89.4791 256.03 89.0145 256.298 88.6034V88.5855C256.45 88.2102 256.298 87.9689 256.155 87.7545C256.101 87.6472 256.039 87.5579 256.012 87.4506C256.28 87.1915 256.521 86.28 256.486 86.1102C256.468 86.0387 256.414 86.0119 256.369 86.0119C256.334 86.0119 256.298 86.0298 256.271 86.0655C256.012 86.3604 255.976 86.6196 255.94 86.8072C255.923 86.986 255.905 87.0574 255.789 87.1111H255.771L255.753 87.1379C255.529 87.3881 255.672 87.6383 255.78 87.8438C255.86 87.9957 255.94 88.1387 255.905 88.2906C255.815 88.5051 255.771 88.7821 255.726 89.0502C255.708 89.2021 255.681 89.3451 255.654 89.4702C255.637 89.4792 255.619 89.4881 255.61 89.4881C255.538 89.4077 255.592 88.8804 255.681 88.7643L255.699 88.7464V88.7196C255.735 88.5677 255.637 88.3353 255.476 87.9779C255.377 87.7455 255.252 87.4685 255.261 87.3702C255.261 87.3702 255.27 87.2898 255.279 87.254C255.306 86.986 255.342 86.6464 255.19 86.414L255.118 86.3157L255.029 86.3962C254.806 86.6017 254.841 87.1915 254.895 87.9332C254.913 88.1387 254.931 88.3174 254.931 88.4247V88.4962L254.993 88.523C254.993 88.523 255.038 88.5409 255.056 88.5409C255.154 88.5409 255.199 88.4604 255.217 88.3711C255.288 88.5855 255.315 88.7374 255.306 88.8447C255.297 88.9251 255.27 88.9519 255.217 88.9877C255.02 89.1306 255.011 89.2736 255.342 89.8187C255.369 90.2745 255.234 90.3996 255.091 90.5247C254.886 90.7123 254.743 90.8911 254.868 91.463C254.85 91.74 254.546 92.1957 254.323 92.1957C254.251 92.1957 254.189 92.1421 254.135 92.0349C254.037 91.7132 254.1 91.3915 254.162 91.0609C254.251 90.614 254.35 90.1494 254.028 89.6936L253.983 89.6311L253.912 89.6489C253.831 89.6757 253.769 89.7204 253.742 89.783C253.68 89.8992 253.733 90.0421 253.778 90.1851C253.823 90.3013 253.867 90.4174 253.831 90.48C253.626 90.5962 253.528 90.8464 253.456 91.043C253.429 91.1145 253.385 91.2217 253.358 91.2575L253.304 91.2038L253.134 91.32C253.224 91.4987 253.179 91.7847 253.134 92.0438C253.09 92.3209 253.045 92.6068 253.179 92.7498C252.965 92.9464 252.857 92.9732 252.804 92.9732C252.67 92.9732 252.634 92.5979 252.607 92.2672C252.571 91.9009 252.536 91.5166 252.366 91.2753L252.294 91.177L252.205 91.2664C252.08 91.3915 251.964 91.454 251.874 91.454C251.49 91.454 251.41 90.0957 251.365 89.2826C251.329 88.8 251.311 88.3979 251.249 88.1834C251.633 87.7634 251.177 87.1826 250.909 86.834C250.874 86.7983 250.847 86.7626 250.82 86.7268C250.793 86.6732 250.775 86.6374 250.775 86.6106C250.802 86.6017 250.829 86.5749 250.847 86.5213C250.865 86.4498 250.847 86.3515 250.668 86.0387C250.606 85.8243 250.606 85.5651 250.606 85.2881C250.606 84.743 250.606 84.1353 250.06 83.8583C250.337 83.5098 250.194 83.1255 250.051 82.7413C249.882 82.2766 249.712 81.803 250.123 81.24L250.141 81.2221V81.1953C250.194 80.8826 249.989 80.6949 249.792 80.5072C249.605 80.3374 249.417 80.1587 249.363 79.8638V79.8281L249.337 79.8102C248.774 79.1757 249.444 78.3536 249.9 77.8085C250.159 77.4868 250.302 77.317 250.23 77.174C250.194 77.1026 250.123 77.0668 250.007 77.0668C249.971 77.0668 249.926 77.0668 249.873 77.0757C249.48 76.9953 249.14 76.9417 248.863 76.897C248.273 76.7987 247.907 76.7362 247.817 76.5664C247.692 76.343 247.934 75.7979 248.398 74.7077L248.479 74.5289V74.5111C248.488 74.3145 248.479 74.2072 248.407 74.1536C248.38 74.1268 248.345 74.1089 248.3 74.1089C248.22 74.1089 248.157 74.1715 248.077 74.243C248.041 74.2787 247.969 74.3413 247.934 74.3502C247.925 74.3413 247.907 74.3055 247.88 74.2072V74.1536L247.826 74.1268C247.433 73.957 247.326 73.7515 247.237 73.5728C247.129 73.3583 247.022 73.1528 246.557 73.126C246.549 73.1081 246.549 73.0902 246.557 73.0098C246.575 72.9383 246.593 72.8489 246.531 72.7685C246.495 72.7238 246.441 72.697 246.361 72.6881C246.352 72.6792 246.343 72.6345 246.343 72.554C246.361 72.4289 246.406 72.277 246.441 72.1251C246.522 71.8481 246.566 71.6694 246.513 71.5532H246.504C246.504 71.5532 246.459 71.4728 246.459 71.4281C246.459 71.3566 246.504 71.2762 246.575 71.1511C246.611 71.0796 246.656 71.0081 246.683 70.9366V70.8919C246.638 70.5345 246.763 70.5166 247.049 70.4809C247.576 70.4094 248.05 70.2306 247.969 68.926C248.041 68.8545 248.068 68.783 248.059 68.7115C248.05 68.5864 247.934 68.506 247.826 68.4345C247.755 68.3809 247.683 68.3362 247.639 68.2736V68.1664C247.612 67.666 247.621 67.3085 247.969 67.2013C248.157 67.6213 248.425 67.8268 248.791 67.8268C249.024 67.8268 249.256 67.7553 249.489 67.6838C249.703 67.6123 249.926 67.5409 250.132 67.5409C250.454 67.5409 250.847 67.7106 251.07 68.9974V69.0153C251.329 69.7928 252.071 69.7928 252.563 69.7928C252.598 69.7928 252.732 69.7928 252.768 69.7928C253.331 69.7928 253.742 69.8374 253.849 70.3468C253.251 72.0626 253.42 72.2323 254.01 72.4736C254.377 72.6255 254.886 72.8311 255.377 73.7783C255.127 74.0553 255.074 74.1357 255.109 74.2251C255.127 74.2519 255.163 74.3055 255.243 74.3055C255.279 74.3055 255.324 74.2966 255.377 74.2877C255.44 74.2787 255.529 74.2608 255.619 74.2608C255.833 74.2608 255.985 74.3413 256.092 74.5021C256.235 74.9489 256.298 75.1902 256.316 75.3064C256.28 75.2796 256.244 75.2617 256.2 75.2617C256.164 75.2617 256.119 75.2796 256.101 75.3153C256.048 75.3868 256.03 75.4762 256.217 76.1106V76.1285C256.343 76.3519 256.512 76.4234 256.629 76.4413C256.584 76.4949 256.53 76.5574 256.468 76.62H256.459C256.414 76.6915 256.36 76.7898 256.396 76.8792C256.441 76.9685 256.548 76.9864 256.655 77.0043C256.736 77.0132 256.834 77.0311 256.87 77.0847C256.897 77.1294 256.897 77.2187 256.852 77.3349V77.4153C256.888 77.4779 256.986 77.6566 257.156 77.6566C257.245 77.6566 257.317 77.6119 257.379 77.5672C257.424 77.5494 257.469 77.5226 257.495 77.5226C257.504 77.5226 257.531 77.5315 257.549 77.5672C257.54 77.5672 257.531 77.5762 257.513 77.5762C257.477 77.594 257.433 77.6119 257.388 77.6566C257.334 77.7013 257.299 77.7728 257.263 77.8443C257.245 77.88 257.218 77.9336 257.2 77.9515C257.066 77.8621 257.022 77.8443 256.977 77.8443C256.923 77.8443 256.888 77.8711 256.87 77.9157C256.816 78.014 256.879 78.1123 257.442 78.8183C257.737 79.1757 258.282 79.846 258.282 79.9889V80.0426L258.317 80.0694C258.398 80.1498 258.55 80.2481 258.72 80.3643C258.997 80.543 259.452 80.8379 259.434 80.9987C259.426 81.0523 259.363 81.097 259.256 81.1417H259.22L259.202 81.1774C259.113 81.3115 259.157 81.4009 259.202 81.4545L259.131 81.4902H259.104L259.086 81.526C259.032 81.6064 259.014 81.7047 259.041 81.794C259.068 81.8566 259.113 81.9102 259.166 81.946C259.131 81.9728 259.068 82.0174 259.032 82.0353C258.898 82.1157 258.782 82.1872 258.782 82.3034C258.782 82.3481 258.8 82.4196 258.889 82.4732L258.934 82.5L258.979 82.4821H259.014C259.086 82.4821 259.157 82.5179 259.193 82.5536C259.166 82.5536 259.149 82.5536 259.113 82.5447H259.05C258.997 82.5804 258.961 82.6162 258.952 82.6698C258.934 82.7413 258.979 82.8038 259.041 82.8753C259.104 82.9557 259.184 83.063 259.211 83.2417V83.2774L259.256 83.3043C259.542 83.5277 259.515 83.6438 259.461 83.8494C259.417 84.046 259.354 84.3051 259.631 84.6804C259.506 84.7966 259.417 84.9396 259.336 85.0736C259.256 85.2077 259.175 85.3417 259.095 85.3417C259.068 85.3417 258.997 85.3238 258.854 85.163L258.845 85.154ZM263.134 90.6766L263.08 90.8374C263.08 90.8374 263.054 90.8643 263.054 90.8732C263.045 90.6855 263.116 90.2298 263.179 90.1494H263.188C263.295 89.9706 263.375 89.8455 263.429 89.774C263.366 90.0243 263.223 90.4443 263.143 90.6766H263.134ZM265.377 90.1851L265.314 90.203C265.207 90.2298 265.145 90.346 265.073 90.4711C265.046 90.5336 265.011 90.5872 264.984 90.6319C264.984 90.5694 264.957 90.5068 264.93 90.4532C264.894 90.3817 264.868 90.337 264.921 90.2477C264.984 90.1315 265.163 89.9706 265.449 89.7919C265.466 89.8634 265.493 89.926 265.52 89.9885C265.52 89.9885 265.52 90.0064 265.529 90.0064C265.44 90.0511 265.404 90.1226 265.377 90.1851ZM265.556 88.1387C265.556 88.1387 265.511 88.1119 265.484 88.1119C265.35 88.1119 265.314 88.246 265.198 88.8536C265.171 88.9877 265.145 89.1128 265.127 89.1753C265.002 89.3451 264.894 89.4077 264.841 89.4077C264.841 89.4077 264.823 89.4077 264.814 89.3808C264.787 89.2826 264.877 89.077 265.136 88.934L265.029 88.7464C264.769 88.8983 264.635 88.934 264.573 88.9519C264.609 88.8715 264.725 88.6928 264.966 88.4515C265.243 88.1655 265.502 87.9868 265.609 87.96C265.609 87.9868 265.6 88.0404 265.556 88.1387ZM265.332 87.0038V87.0217C265.27 87.2183 265.118 87.2898 264.948 87.3792C264.751 87.4685 264.537 87.5757 264.51 87.8796C264.492 87.9064 264.483 87.9243 264.474 87.9511C264.349 88.2281 264.206 88.5766 264.019 88.5766C263.938 88.5766 263.84 88.514 263.724 88.4068C263.911 87.8974 264.224 86.8162 263.733 86.4587L263.563 86.3336V86.5392C263.563 86.5392 263.563 86.5481 263.599 86.7357C263.429 87.0664 263.563 87.2987 263.652 87.4506C263.742 87.6026 263.751 87.6383 263.661 87.7277H263.643C263.304 88.1655 263.134 88.7643 262.964 89.3451C262.714 90.2298 262.473 91.0698 261.695 91.3736C261.445 91.3111 260.98 91.186 260.927 91.1145C260.927 91.0877 260.963 91.043 260.989 90.9983C261.079 90.8553 261.204 90.6498 261.204 90.2834C261.249 90.203 261.257 90.1672 261.231 90.1136L261.195 90.0689H261.141C261.079 90.0689 261.061 90.1047 261.016 90.1583C261.007 90.1762 260.989 90.203 260.971 90.2209L260.954 90.2566C260.864 90.5426 260.677 90.8464 260.453 90.8464C260.4 90.8464 260.355 90.8374 260.301 90.8017C260.319 89.7115 260.989 89.1217 261.534 88.6481C261.981 88.2638 262.374 87.9243 262.285 87.4328H262.08C261.99 87.8885 261.722 88.0672 261.409 88.2638C261.141 88.4336 260.846 88.6213 260.641 89.0055H260.632V89.0323C260.578 89.2468 260.462 89.4791 260.257 89.4791C260.194 89.4791 260.123 89.4613 260.051 89.4166C260.06 89.3719 260.069 89.3362 260.078 89.3004C260.108 89.1813 260.2 89.0621 260.355 88.943L260.409 88.9072V88.8536C260.364 88.4157 260.462 88.1566 260.766 87.8796L260.989 87.683L260.694 87.7009C260.31 87.7187 260.194 88.1477 260.123 88.4247C260.114 88.4604 260.105 88.4872 260.096 88.514C260.051 88.5677 260.006 88.6123 259.971 88.657C259.747 88.8894 259.649 89.0234 259.711 89.4523C259.631 89.5774 259.577 89.5864 259.577 89.5864C259.56 89.5864 259.542 89.5685 259.515 89.5417C259.309 89.2915 259.193 88.3621 259.238 88.1119V88.0583C258.711 86.6643 259.059 86.1549 259.685 85.2345C259.828 85.0289 259.989 84.8055 260.149 84.5464L259.997 84.4034C259.935 84.4391 259.872 84.4928 259.828 84.5196C259.801 84.4391 259.747 84.3319 259.595 84.2247C259.801 83.626 259.622 83.3757 259.443 83.1434C259.354 83.0272 259.274 82.9111 259.229 82.7592C259.3 82.7502 259.363 82.7145 259.399 82.6519C259.417 82.6072 259.443 82.5089 259.336 82.366H259.327V82.3481C259.265 82.2945 259.175 82.2855 259.086 82.2855H259.032C259.032 82.2855 259.104 82.223 259.14 82.1962C259.247 82.1247 259.354 82.0532 259.363 81.9281C259.363 81.8298 259.291 81.7404 259.229 81.6689C259.238 81.66 259.274 81.6421 259.291 81.6243C259.345 81.5885 259.417 81.5528 259.426 81.4634C259.434 81.4187 259.426 81.374 259.381 81.3294C259.372 81.2847 259.39 81.2668 259.488 81.2311C259.56 81.1953 259.658 81.1506 259.676 81.0345C259.694 80.954 259.649 80.8557 259.542 80.7217C259.962 80.6234 260.373 80.0694 260.766 79.5421C261.088 79.1221 261.436 78.6485 261.669 78.6485C261.803 78.6485 261.901 78.8719 261.963 79.0596C262.08 79.5421 262.357 79.6226 262.509 79.6226C262.839 79.6226 263.143 79.2919 263.143 79.0417C263.143 78.9881 263.125 78.8094 262.884 78.7557C262.946 78.6664 263.009 78.6664 263.036 78.6664C263.152 78.6664 263.304 78.7647 263.447 78.8719C263.617 78.9881 263.777 79.0953 263.938 79.0953C264.01 79.0953 264.072 79.0774 264.135 79.0328C264.215 79.3366 264.394 79.6047 264.564 79.846C264.689 80.0336 264.814 80.2123 264.868 80.3732C264.823 80.3911 264.778 80.3911 264.734 80.3911C264.689 80.3911 264.653 80.3911 264.617 80.3821C264.573 80.3732 264.546 80.3732 264.51 80.3732C264.269 80.3732 264.18 80.5877 264.072 81.0166C264.046 81.2221 263.938 81.2489 263.858 81.2668C263.813 81.2757 263.742 81.2936 263.724 81.3651C263.706 81.4366 263.76 81.4902 263.831 81.5617C263.831 81.5796 263.831 81.5796 263.813 81.5796C263.813 81.5796 263.786 81.5796 263.76 81.5349L263.706 81.4545L263.626 81.4902C263.518 81.5438 263.393 81.6153 263.402 81.7404C263.402 81.8745 263.563 81.9281 263.751 81.9906C263.84 82.0174 263.947 82.0532 263.992 82.0889L264.072 82.1604L264.135 82.0711C264.215 81.9728 264.26 81.9638 264.278 81.9638C264.376 81.9638 264.564 82.3123 264.671 83.2328C264.573 83.4026 264.501 83.4115 264.43 83.4204C264.189 83.4472 264.099 83.5813 264.019 84.2872V84.3319C264.046 84.4034 264.09 84.4481 264.144 84.4481C264.242 84.4481 264.269 84.3587 264.323 84.2068C264.385 83.9834 264.501 83.617 264.743 83.617C264.85 83.617 264.984 83.6796 265.145 83.8226C265.261 84.0281 265.413 84.3498 265.484 84.5374L265.457 84.5196L265.422 84.6626C265.35 84.9574 265.44 85.1362 265.529 85.3149C265.681 85.5919 265.851 85.9136 265.332 87.0038ZM267.754 86.3872C267.691 86.8251 267.629 87.2898 267.718 87.6651C267.665 87.9243 267.397 88.3264 267.003 88.7196C266.61 89.1128 266.244 89.3451 266.119 89.3451C266.119 89.3183 266.119 89.1753 266.351 88.7553H266.36C266.485 88.4872 266.494 88.4426 266.458 88.38L266.431 88.3353H266.369C266.289 88.3353 266.271 88.3532 265.994 88.7911C265.94 88.8715 265.877 88.9698 265.833 89.0413C265.699 88.8179 265.922 88.0851 266.119 87.4238C266.387 86.557 266.682 85.574 266.476 84.9843C266.44 84.1621 266.047 83.8315 265.734 83.5723C265.449 83.3311 265.225 83.1345 265.297 82.6251C265.52 81.6689 265.717 81.5975 265.77 81.5975C266.029 81.5975 266.396 82.5089 266.673 83.1702C266.896 83.7243 267.111 84.2515 267.316 84.5017V84.5196H267.343C267.951 84.8591 267.852 85.6009 267.754 86.3872ZM269.139 86.5392C269.094 86.7804 269.005 86.9591 268.898 87.0485C268.898 87.0217 268.934 86.9502 268.951 86.8877C269.023 86.7357 269.121 86.4945 269.094 86.1996C269.121 86.1191 269.139 86.0566 269.157 86.0209C269.175 86.137 269.175 86.3336 269.139 86.5392ZM270.766 87.6562C270.533 88.1387 270.131 88.4068 269.675 88.4068H269.604C269.604 88.4068 269.55 88.3621 269.55 88.3532C269.541 88.2996 269.622 88.1834 269.702 88.0851C269.872 87.8438 270.113 87.5221 270.113 87.0306C270.131 86.8787 270.131 86.6732 270.122 86.4587C270.113 86.1549 270.104 85.7349 270.203 85.6366C270.211 85.6187 270.229 85.6187 270.247 85.6187C270.292 85.6187 270.417 85.6545 270.685 85.9136C271.025 86.3604 271.051 87.0753 270.766 87.6562ZM274.528 85.2345C274.528 85.2345 274.483 85.3149 274.376 85.3149C274.26 85.3149 274.108 85.2702 273.902 85.1898C273.652 84.886 273.429 84.3766 273.5 84.0102C273.536 83.8494 273.616 83.7243 273.75 83.6438C274.108 83.9834 274.644 84.9306 274.528 85.2345ZM278.415 94.2153C278.352 94.2957 278.254 94.3404 278.093 94.3404C278.057 94.3404 278.022 94.3404 277.977 94.3315H277.95C277.825 94.3404 277.745 94.3494 277.7 94.4208C277.664 94.4745 277.682 94.537 277.7 94.5817C277.7 94.5906 277.7 94.5996 277.709 94.6085C277.682 94.6174 277.664 94.6174 277.655 94.6174C277.646 94.6174 277.637 94.6174 277.637 94.6085C277.566 94.537 277.593 94.2064 277.602 93.9383C277.637 93.4647 277.673 92.9285 277.441 92.5889C277.45 92.3477 277.575 92.0706 277.637 92.0617C277.637 92.0617 277.682 92.0706 277.745 92.2047C277.62 92.5711 277.646 92.6068 277.673 92.6426C277.691 92.6783 277.727 92.6962 277.763 92.6962C277.843 92.6962 277.888 92.6157 277.906 92.58C277.959 92.4638 278.084 92.1153 277.995 91.8383C278.013 91.8383 278.022 91.8383 278.04 91.8383C278.049 91.8294 278.057 91.8294 278.066 91.8294C278.066 91.8472 278.066 91.8651 278.057 91.8919V91.9187C278.066 92.0974 278.147 92.3745 278.245 92.6962C278.415 93.2502 278.62 93.9472 278.415 94.2243V94.2153ZM277.235 91.9723C277.253 91.8651 277.262 91.7221 277.28 91.5613C277.316 91.2574 277.378 90.5872 277.459 90.3817C277.486 90.4353 277.539 90.5604 277.602 90.8196C277.575 90.8821 277.539 91.0072 277.486 91.2128C277.432 91.3915 277.325 91.7668 277.235 91.9723ZM284.322 96.9677C284.223 96.9677 284.054 96.78 283.803 95.9043L283.786 95.8417H283.714C283.589 95.8149 283.446 95.8149 283.321 95.8149H283.151C282.651 95.8149 282.338 95.7702 282.338 95.1804V95.1536L282.32 95.1268C282.186 94.9302 282.052 94.8409 281.909 94.8409C281.694 94.8409 281.543 95.0464 281.391 95.243L281.373 95.2698C279.639 96.1098 280.434 98.1383 281.131 99.9255C281.426 100.676 281.712 101.391 281.784 101.972C281.543 101.784 281.31 101.203 281.096 100.676C280.819 99.9702 280.524 99.2374 280.095 99.014C279.586 98.3438 279.362 97.5306 279.157 96.7353C278.987 96.1098 278.835 95.5111 278.531 95.0374C278.567 94.9838 278.594 94.9213 278.611 94.8587C278.629 94.823 278.647 94.7604 278.665 94.7336H278.674C278.737 94.68 278.79 94.6532 278.835 94.6532H278.862C278.906 94.6532 278.942 94.6353 278.96 94.5906C278.987 94.537 278.96 94.4834 278.942 94.4655C278.924 94.4387 278.88 94.3762 278.817 94.26C278.763 94.1081 278.737 93.9026 278.942 93.7596L278.96 93.7417C279.076 93.6255 279.067 93.5183 279.067 93.4468C279.058 93.3753 279.058 93.3396 279.148 93.2681L279.183 93.2323V93.1877C279.183 93.1877 279.183 93.1162 279.201 93.0715C279.219 92.9643 279.246 92.7855 279.103 92.6872C279.157 92.4549 279.148 92.437 279.112 92.3923L279.085 92.3566H279.031C278.951 92.3566 278.933 92.3655 278.79 92.8123C278.746 92.866 278.71 92.8928 278.683 92.9017C278.683 92.857 278.683 92.7855 278.701 92.7319C278.719 92.58 278.728 92.4638 278.665 92.3923C278.638 92.3655 278.603 92.3477 278.558 92.3477H278.469L278.451 92.437C278.451 92.437 278.451 92.4549 278.442 92.4638C278.424 92.4102 278.397 92.3209 278.406 92.2404C278.406 92.2047 278.424 92.1779 278.442 92.1689C278.629 92.1511 278.763 91.9902 278.763 91.874C278.763 91.8115 278.71 91.7579 278.647 91.7489C278.719 91.7043 278.799 91.6417 278.781 91.5345L278.763 91.4451H278.665C278.54 91.4451 278.406 91.4719 278.281 91.4898C278.174 91.5077 278.075 91.5255 277.995 91.5255C277.932 91.5255 277.923 91.5166 277.923 91.5166C277.923 91.5166 277.897 91.463 278.013 91.2217C278.129 91.1681 278.183 91.1323 278.191 91.0698C278.209 91.0162 278.174 90.9804 278.165 90.9626C278.174 90.9357 278.209 90.8643 278.37 90.7213L278.245 90.5515C278.093 90.6409 278.031 90.6587 278.004 90.6587C277.986 90.6319 277.986 90.5426 277.986 90.48C277.977 90.337 277.968 90.1672 277.914 89.9974L277.897 89.9617H277.879C277.771 89.774 277.494 88.4962 277.521 88.1745H277.575L277.611 88.1298C277.646 88.0762 277.62 88.0226 277.593 87.96C277.593 87.9511 277.584 87.9511 277.584 87.9511L277.637 87.8438H277.468C277.405 87.8349 277.351 87.8617 277.307 87.9064C277.271 87.9421 277.244 87.9957 277.235 88.0583C277.03 87.8081 277.119 87.5579 277.217 87.2987C277.298 87.0843 277.378 86.8609 277.262 86.6643L277.235 86.6196H277.191C277.128 86.6017 277.092 86.557 277.083 86.4319C277.602 86.2174 278.057 85.7528 277.95 85.1451V85.0826L277.87 85.0647C277.87 85.0647 277.825 85.0557 277.807 85.0557C277.584 85.0557 277.557 85.3149 277.539 85.5115C277.53 85.583 277.521 85.717 277.494 85.7438L277.477 85.7617L277.459 85.7885C277.405 85.8868 277.262 85.9583 277.128 86.0298C276.94 86.1281 276.708 86.2532 276.708 86.4766C276.637 86.28 276.565 86.0477 276.476 85.7885C276.074 84.5821 275.475 82.7502 274.277 82.1426C273.714 81.7226 273.786 81.4455 273.929 80.9451C273.991 80.7574 274.054 80.534 274.081 80.2749L273.875 80.2392C273.706 80.8111 273.518 80.9809 273.375 81.106C273.232 81.2311 273.143 81.3294 273.143 81.5975C273.017 81.5349 272.866 81.4813 272.749 81.4813C272.597 81.4813 272.526 81.5706 272.517 81.6511V81.7404L272.589 81.7672C272.589 81.7672 272.66 81.794 272.687 81.803C272.58 81.8387 272.392 81.8655 272.222 81.8655C272.16 81.8655 272.133 81.8566 272.124 81.8566L272.079 82.0621C272.338 82.1247 272.365 82.1962 272.365 82.1962C272.356 82.2319 272.204 82.3213 271.99 82.3213C271.909 82.3213 271.838 82.3123 271.775 82.2855C271.784 82.2319 271.775 82.1872 271.749 82.1426C271.668 82.0085 271.454 81.9638 271.302 81.9638C271.132 81.9638 271.025 82.0174 270.998 82.1068C270.971 82.1872 271.016 82.2587 271.105 82.3213H271.087C271.016 82.3213 270.926 82.3302 270.882 82.3928C270.855 82.4196 270.837 82.4643 270.855 82.5268L270.873 82.6072H270.953C271.427 82.6251 271.686 82.7949 271.686 83.0898C271.677 83.483 271.221 83.9923 270.703 83.9923C270.551 83.9923 270.408 83.9477 270.274 83.8583C270.149 83.7421 270.077 83.4919 270.006 83.2596C269.881 82.8664 269.765 82.4643 269.407 82.4643H269.139L269.327 82.6519C269.595 82.8932 269.649 83.1702 269.586 83.3311C269.532 83.474 269.398 83.5455 269.202 83.5455C269.13 83.5455 269.059 83.5366 268.978 83.5187C268.8 83.4204 268.674 83.197 268.558 82.9826C268.406 82.6966 268.246 82.3928 267.915 82.3928H267.879C266.762 80.3553 265.726 78.4251 266.208 75.9409L266.262 75.6996L266.056 75.8336C266.003 75.8604 265.967 75.8783 265.94 75.8783C265.922 75.8783 265.877 75.8783 265.806 75.7532C265.654 75.1366 265.636 74.7345 265.77 74.5557C265.869 74.4217 266.047 74.4217 266.235 74.4128C266.423 74.4128 266.619 74.4038 266.726 74.2519C266.825 74.1357 266.825 73.9392 266.753 73.6443V73.6085L266.709 73.5906C266.709 73.5906 266.78 73.5281 266.807 73.5102C266.914 73.4477 267.03 73.3672 267.039 73.2511C267.048 73.1974 267.039 73.1617 267.012 73.117C267.03 73.1081 267.057 73.0991 267.102 73.0813C267.173 73.0634 267.271 73.0455 267.289 72.9472C267.316 72.8668 267.254 72.7864 267.191 72.7238H267.182V72.706C267.021 72.6166 267.039 72.554 267.075 72.4111C267.111 72.277 267.164 72.0715 266.905 71.9106C267.102 71.3834 267.155 71.0438 267.191 70.8115C267.218 70.6328 267.236 70.5613 267.28 70.5345C267.343 70.4898 267.513 70.4809 267.79 70.4719C267.977 70.463 268.237 70.454 268.567 70.4272H268.594L268.621 70.4094C268.987 70.1234 269.086 69.6855 269.184 69.2923C269.237 69.0689 269.282 68.8545 269.38 68.6847C269.917 68.4077 269.765 68.0502 269.64 67.7285C269.586 67.6213 269.541 67.5051 269.514 67.3889C269.747 67.2638 269.934 67.103 270.095 66.96C270.346 66.7455 270.542 66.5757 270.81 66.5757C271.007 66.5757 271.239 66.674 271.516 66.8796C271.561 66.9153 271.614 66.9332 271.668 66.9332C271.811 66.9332 271.972 66.8349 272.124 66.7366C272.186 66.6919 272.276 66.6383 272.329 66.6115C271.936 66.8796 271.874 66.9421 271.891 67.0404C271.909 67.1298 271.999 67.1477 272.061 67.1566C271.999 67.1834 271.963 67.2281 271.927 67.2728C271.731 67.5498 271.945 68.1485 272.097 68.5864C272.142 68.7115 272.186 68.8187 272.195 68.8813C272.195 68.9528 272.186 68.9796 272.177 68.9974H272.142C272.034 68.9974 271.9 69.0243 271.749 69.194C271.337 69.5068 271.337 70.034 271.346 70.4898C271.346 71.0796 271.329 71.446 270.828 71.5532H270.81C270.623 71.6336 270.524 71.7319 270.506 71.8481C270.471 72.0179 270.623 72.1698 270.757 72.3038C270.801 72.3485 270.873 72.4111 270.891 72.4468C270.882 72.4557 270.846 72.4647 270.783 72.4736C270.676 72.4826 270.596 72.563 270.569 72.6791C270.489 73.1081 271.114 74.3234 271.409 74.5557C271.418 74.5915 271.427 74.6451 271.445 74.7077C272.374 78.7111 272.544 78.7111 272.687 78.7111C272.723 78.7111 272.758 78.7021 272.785 78.6753C272.839 78.6038 272.892 78.4609 272.821 77.46C272.901 76.7719 273.026 76.754 273.026 76.754C273.044 76.754 273.151 76.7719 273.384 77.2098C273.545 77.5136 273.723 77.9247 273.893 78.3268C274.313 79.2919 274.572 79.8817 274.849 79.9621H274.903C275.055 79.9174 275.126 79.8013 275.189 79.7119C275.243 79.6226 275.269 79.5868 275.305 79.5868C275.314 79.5868 275.35 79.5957 275.394 79.6226L275.43 79.6404H275.466C275.949 79.5511 276.467 79.2294 276.565 78.7468C276.753 78.6843 276.869 78.5949 276.914 78.4877C276.94 78.434 276.967 78.3357 276.914 78.2196C276.145 76.2804 276.69 75.8068 277.316 75.2528C277.941 74.7077 278.647 74.0911 278.093 72.0268C278.102 72.0089 278.102 72 278.111 71.9911C278.174 72.0179 278.317 72.2234 278.406 72.3396C278.585 72.5987 278.763 72.8311 278.942 72.84H278.987C279.309 72.706 279.532 72.4468 279.72 72.2323C279.845 72.0894 279.979 71.9374 280.068 71.9374C280.131 71.9374 280.274 72.0357 280.497 72.6881L280.551 72.8489L280.676 72.7238C280.738 72.6523 280.801 72.5272 280.863 72.3932C280.917 72.2949 280.997 72.1251 281.051 72.0715C281.06 72.0983 281.096 72.1519 281.123 72.2681C280.89 73.126 281.212 73.8945 281.525 74.6451C281.846 75.4315 282.159 76.1732 281.802 76.9328V76.9506C281.703 77.3617 281.793 77.8979 281.882 78.4072C281.954 78.863 282.034 79.3366 281.98 79.6762V79.7566C282.811 81.0434 283.348 82.5715 283.643 84.4213C283.902 86.0745 283.946 87.8349 283.991 89.5417C284.054 91.8383 284.116 94.2153 284.688 96.4583C284.491 96.9319 284.357 96.9677 284.322 96.9677Z" fill="white"/>
<path d="M276.914 86.7445C276.914 86.7445 276.833 86.6998 276.789 86.6641C276.914 86.95 276.976 86.959 276.976 86.959C276.976 86.959 277.003 86.95 277.039 86.9053C277.057 86.816 277.03 86.7981 276.914 86.7445Z" fill="#3E1608"/>
</g>
<defs>
<filter id="filter0_d_8034_23680" x="0" y="0" width="340.73" height="193.77" filterUnits="userSpaceOnUse" color-interpolation-filters="sRGB">
<feFlood flood-opacity="0" result="BackgroundImageFix"/>
<feColorMatrix in="SourceAlpha" type="matrix" values="0 0 0 0 0 0 0 0 0 0 0 0 0 0 0 0 0 0 127 0" result="hardAlpha"/>
<feOffset dy="4"/>
<feGaussianBlur stdDeviation="2"/>
<feComposite in2="hardAlpha" operator="out"/>
<feColorMatrix type="matrix" values="0 0 0 0 0 0 0 0 0 0 0 0 0 0 0 0 0 0 0.25 0"/>
<feBlend mode="normal" in2="BackgroundImageFix" result="effect1_dropShadow_8034_23680"/>
<feBlend mode="normal" in="SourceGraphic" in2="effect1_dropShadow_8034_23680" result="shape"/>
</filter>
<clipPath id="clip0_8034_23680">
<rect width="84" height="84" fill="white" transform="translate(221 30)"/>
</clipPath>
</defs>
</svg>
