<svg width="54" height="55" viewBox="0 0 54 55" fill="none" xmlns="http://www.w3.org/2000/svg">
<g id="Group 1171276483">
<ellipse id="Ellipse 1098" cx="27" cy="27.2547" rx="27" ry="27.2547" fill="#FEEAEE"/>
<g id="Objects">
<path id="Vector" d="M14.1079 16.9845C14.416 16.5497 14.72 16.114 15.2078 15.8509C15.5695 15.6533 15.9394 15.5091 16.358 15.51C17.998 15.5137 19.6382 15.5137 21.2786 15.51C21.8761 15.51 22.4761 15.5512 23.0671 15.4492C23.1744 15.5585 23.3109 15.5091 23.4337 15.5091C27.0929 15.5124 30.7511 15.5124 34.4081 15.5091C34.8829 15.7278 35.3885 15.8905 35.7511 16.3011C36.1908 16.7975 36.4689 17.3578 36.4697 18.0324C36.4697 20.3855 36.4697 22.7387 36.4697 25.091C36.4697 25.7947 36.4144 26.5 36.5306 27.2005C36.4022 27.2045 36.2738 27.2126 36.1453 27.2134C35.2438 27.2134 34.3423 27.2037 33.4416 27.2175C32.8197 27.2272 32.3482 27.5106 32.0921 28.088C31.858 28.6167 31.9523 29.1139 32.3108 29.5577C32.636 29.9577 33.0863 30.0662 33.5741 30.0816V33.8065C33.5741 35.9305 33.583 38.0553 33.5611 40.1793C33.5529 40.9769 33.6757 41.7259 34.0805 42.4207C31.8238 42.4523 29.5664 42.3446 27.3113 42.4806C27.2902 42.4442 27.2691 42.4458 27.2495 42.4806H27.1219C27.0162 42.3697 26.878 42.4175 26.7561 42.4175C23.1592 42.4175 19.5618 42.4175 15.9638 42.4175C15.2557 42.1616 14.6314 41.8029 14.2371 41.1219C14.0353 40.7826 13.9203 40.3991 13.9022 40.0052C13.7632 36.9524 13.8794 33.898 13.8412 30.8452C13.8522 30.7172 13.8304 30.5884 13.7778 30.4711C13.99 30.4176 13.9006 30.2443 13.9006 30.1253C13.9055 26.547 13.9006 22.9678 13.9087 19.3887C13.9201 18.5838 13.8038 17.7668 14.1079 16.9845ZM25.1969 18.3222C23.693 18.3222 22.1891 18.3222 20.6852 18.3222C20.447 18.3222 20.2162 18.3376 20.0024 18.4631C19.7613 18.5992 19.5729 18.8119 19.4674 19.0671C19.3618 19.3223 19.3451 19.6054 19.42 19.8711C19.4948 20.1369 19.6569 20.37 19.8804 20.5333C20.1038 20.6965 20.3757 20.7805 20.6527 20.7718C23.6708 20.775 26.6892 20.775 29.7078 20.7718C30.4394 20.7718 30.9955 20.2333 30.9979 19.5361C30.9979 18.8194 30.4785 18.3214 29.7094 18.3214C28.205 18.3204 26.7008 18.3206 25.1969 18.3222ZM21.7054 25.6101C21.7054 25.1291 21.7054 24.6481 21.7054 24.1663C21.6997 23.512 21.2941 23.1006 20.6405 23.0966C19.6845 23.0912 18.7288 23.0912 17.7733 23.0966C17.123 23.0966 16.7084 23.5088 16.7027 24.1622C16.6951 25.1248 16.6951 26.0876 16.7027 27.0507C16.7076 27.6661 17.1214 28.0791 17.7368 28.0839C18.7123 28.0909 19.6891 28.0909 20.6673 28.0839C21.2835 28.0799 21.6957 27.6677 21.7046 27.0547C21.7119 26.5737 21.7054 26.0927 21.7054 25.6109V25.6101ZM19.2073 30.4104C18.7139 30.4104 18.2196 30.4047 17.7262 30.4104C17.1303 30.4201 16.7092 30.829 16.7027 31.4217C16.693 32.4056 16.6913 33.3895 16.7027 34.3733C16.7149 34.9725 17.1214 35.3871 17.7205 35.3952C18.7074 35.4087 19.6948 35.4087 20.6828 35.3952C21.3055 35.3863 21.7006 34.9725 21.7038 34.3515C21.7103 33.3895 21.7103 32.4269 21.7038 31.4638C21.7038 30.829 21.2884 30.4193 20.6559 30.4112C20.1739 30.4055 19.6902 30.4104 19.2073 30.4104ZM29.1249 24.0489C30.5421 24.0489 31.9593 24.0489 33.3765 24.0489C33.5814 24.0489 33.8765 24.1153 33.8765 23.8059C33.8765 23.4966 33.5749 23.5387 33.3578 23.5387C30.5126 23.5387 27.6674 23.5387 24.8222 23.5387C24.5929 23.5387 24.3027 23.5233 24.3157 23.8286C24.3263 24.0853 24.6076 24.0521 24.8092 24.0521L29.1249 24.0489ZM29.1119 25.8474H33.392C33.4776 25.8505 33.5633 25.8491 33.6488 25.8433C33.7087 25.8404 33.7656 25.8165 33.8094 25.7757C33.8532 25.7349 33.881 25.6799 33.8878 25.6206C33.9122 25.4741 33.8122 25.3996 33.6927 25.3696C33.5783 25.3441 33.4612 25.3326 33.344 25.3356C30.5118 25.3356 27.6798 25.3356 24.8482 25.3356C24.784 25.3356 24.7189 25.3356 24.6547 25.3356C24.4783 25.3429 24.3116 25.4028 24.3182 25.5988C24.3247 25.7947 24.4946 25.8457 24.6701 25.8474H29.1119ZM28.2941 31.3059H31.9311C32.0653 31.3059 32.2067 31.3059 32.2108 31.1229C32.2149 30.9569 32.1084 30.8735 31.949 30.8581C31.8848 30.8525 31.8198 30.8581 31.7556 30.8581H24.7425C24.6783 30.8581 24.6132 30.8581 24.549 30.8581C24.4181 30.8711 24.3108 30.9391 24.3051 31.0719C24.3051 31.2217 24.4165 31.2922 24.5604 31.3035C24.6352 31.3092 24.7108 31.3035 24.7856 31.3035L28.2941 31.3059ZM27.7714 33.1044H30.928C31.08 33.1044 31.2304 33.0623 31.2231 32.889C31.2225 32.8537 31.2142 32.8189 31.1987 32.7871C31.1833 32.7553 31.161 32.7272 31.1335 32.7049C31.1061 32.6825 31.074 32.6664 31.0396 32.6576C31.0053 32.6489 30.9694 32.6477 30.9345 32.6542C30.8914 32.6542 30.8483 32.6542 30.8053 32.6542H24.7214C24.6464 32.6481 24.571 32.652 24.497 32.6655C24.3897 32.6963 24.2978 32.7651 24.306 32.8906C24.3104 32.9395 24.331 32.9855 24.3645 33.0215C24.3981 33.0574 24.4427 33.0811 24.4913 33.089C24.5756 33.1034 24.6612 33.108 24.7466 33.1028L27.7714 33.1044ZM26.7138 34.4527H24.6815C24.5068 34.4527 24.3222 34.5053 24.3255 34.6956C24.3287 34.8859 24.497 34.9693 24.6929 34.9693C26.0025 34.9693 27.3121 34.9693 28.6218 34.9653C28.7957 34.9653 28.9957 34.9312 28.9884 34.7005C28.9811 34.4697 28.7973 34.4527 28.6112 34.4535C27.9771 34.4543 27.3438 34.4527 26.7138 34.4527ZM26.7138 27.1988H24.6173C24.4645 27.1988 24.3141 27.2401 24.3214 27.4142C24.3279 27.5608 24.436 27.6507 24.61 27.6507C25.9627 27.6507 27.3154 27.6507 28.6681 27.6507C28.8542 27.6507 28.9933 27.5835 28.9933 27.3802C28.9933 27.177 28.8169 27.2021 28.6795 27.2013C28.0194 27.197 27.3642 27.1961 26.7138 27.1988Z" fill="#E6E6E6"/>
<path id="Vector_2" d="M34.0903 42.4221C33.6838 41.7273 33.5627 40.9783 33.5708 40.1807C33.5928 38.0567 33.5814 35.9318 33.5838 33.8078C33.6651 33.7633 33.7545 33.7196 33.8383 33.6734C34.7682 33.1608 35.7023 33.1139 36.651 33.6329C36.8859 33.7576 37.1306 33.8633 37.3826 33.9487C38.3622 34.2929 39.3726 34.3139 40.3904 34.203C40.3904 36.3894 40.4156 38.583 40.3904 40.7718C40.3725 42.1824 39.3596 43.4318 37.9874 43.8489C37.3183 44.0564 36.6011 44.0521 35.9346 43.8366C35.2681 43.6211 34.685 43.2049 34.2659 42.6456C34.2106 42.5678 34.1496 42.4933 34.0903 42.4221Z" fill="#FFCC00"/>
<path id="Vector_3" d="M33.5838 30.0803C33.0961 30.065 32.6441 29.9565 32.3206 29.5564C31.9621 29.1127 31.8678 28.6155 32.1019 28.0867C32.3579 27.5094 32.8335 27.2259 33.4513 27.2162C34.352 27.2025 35.2536 27.2162 36.1551 27.2122C36.2835 27.2122 36.412 27.2033 36.5404 27.1992C37.8476 27.2041 39.1548 27.2092 40.4619 27.2146C41.122 27.2146 41.6236 27.4891 41.8894 28.1094C41.9699 28.3021 42.0061 28.5103 41.9956 28.7187C41.985 28.9271 41.9279 29.1306 41.8283 29.3142C41.7288 29.4979 41.5893 29.6571 41.4202 29.7802C41.251 29.9034 41.0564 29.9874 40.8505 30.0261C40.7042 30.0536 40.553 30.0585 40.4042 30.0739C40.301 29.988 40.1782 30.0269 40.0644 30.0277C37.9048 30.0434 35.7446 30.0609 33.5838 30.0803Z" fill="#004DA0"/>
<path id="Vector_4" d="M33.5839 30.0794C35.7441 30.0616 37.9043 30.044 40.0645 30.0267C40.1783 30.0267 40.301 29.9871 40.4043 30.0729C40.4043 31.4479 40.4013 32.8231 40.3953 34.1986C39.3759 34.3096 38.363 34.2885 37.3875 33.9444C37.1355 33.8589 36.8908 33.7533 36.6559 33.6285C35.7072 33.1095 34.7732 33.1565 33.8432 33.669C33.7619 33.7152 33.6733 33.7589 33.5887 33.8035L33.5839 30.0794Z" fill="#007BFF"/>
<path id="Vector_5" d="M14.1079 16.9844C13.8039 17.7666 13.9201 18.5837 13.9185 19.3869C13.9087 22.9661 13.9185 26.5452 13.9103 30.1235C13.9103 30.2426 13.9998 30.4159 13.7876 30.4693C13.6917 29.8717 13.5974 29.2749 13.4974 28.6781C13.2947 27.464 13.0901 26.2494 12.8836 25.0342C12.6568 23.6949 12.4203 22.3571 12.2065 21.0162C12.0918 20.302 11.8659 19.5869 12.1065 18.8501C12.43 17.8581 13.0714 17.2135 14.1079 16.9844Z" fill="#6B7588"/>
<path id="Vector_6" d="M15.9735 42.4165C19.571 42.4165 23.1684 42.4165 26.7658 42.4165C26.8886 42.4165 27.026 42.3687 27.1317 42.4796C26.5813 42.6489 26.0074 42.6975 25.4432 42.7963C23.9946 43.0497 22.5419 43.2862 21.0908 43.5291C20.2495 43.67 19.413 43.853 18.5659 43.9413C17.5172 44.0579 16.3588 43.3785 15.9735 42.4165Z" fill="#6B7588"/>
<path id="Vector_7" d="M34.4147 15.5072C30.7554 15.5072 27.0973 15.5072 23.4402 15.5072C23.3175 15.5072 23.1809 15.5566 23.0736 15.4473L25.9692 14.9614C27.3122 14.7363 28.6551 14.5112 29.9981 14.2861C30.5541 14.1938 31.1101 14.1007 31.6694 14.0262C32.7449 13.882 33.5798 14.2974 34.2163 15.1485C34.2952 15.2586 34.396 15.3615 34.4147 15.5072Z" fill="#6B7588"/>
<path id="Vector_8" d="M27.2593 42.4785C27.2788 42.4429 27.2999 42.4413 27.3211 42.4785H27.2593Z" fill="#E2E2E0"/>
<path id="Vector_9" d="M25.1969 18.3223C26.7008 18.3223 28.2047 18.3223 29.7086 18.3223C30.4776 18.3223 30.9995 18.8186 30.9971 19.5369C30.9971 20.2341 30.441 20.7718 29.707 20.7726C26.6889 20.7726 23.6705 20.7726 20.6519 20.7726C20.3749 20.7813 20.103 20.6973 19.8795 20.5341C19.6561 20.3708 19.494 20.1377 19.4191 19.872C19.3443 19.6062 19.361 19.3231 19.4665 19.0679C19.5721 18.8127 19.7604 18.6001 20.0015 18.464C20.2153 18.3385 20.4462 18.3223 20.6844 18.3231C22.1888 18.3236 23.693 18.3233 25.1969 18.3223Z" fill="#004DA0"/>
<path id="Vector_10" d="M21.7054 25.6109C21.7054 26.0967 21.7119 26.5737 21.7054 27.0555C21.6965 27.6685 21.2843 28.0807 20.6681 28.0847C19.6926 28.0912 18.7171 28.0912 17.7416 28.0847C17.1262 28.0798 16.7125 27.6669 16.7076 27.0515C16.7 26.0884 16.7 25.1256 16.7076 24.163C16.7133 23.5096 17.1262 23.1006 17.7782 23.0974C18.7342 23.0925 19.6899 23.0925 20.6454 23.0974C21.2957 23.1014 21.7022 23.5128 21.7103 24.1671C21.7095 24.6489 21.7054 25.1299 21.7054 25.6109ZM20.6169 24.7841C20.6108 24.7447 20.5949 24.7073 20.5708 24.6754C20.5467 24.6435 20.5151 24.618 20.4787 24.6011C20.3479 24.5323 20.2519 24.6011 20.1641 24.6861C19.7991 25.0489 19.4244 25.4028 19.0748 25.7793C18.8911 25.9777 18.757 26.0344 18.5757 25.789C18.4736 25.6648 18.3595 25.5509 18.2351 25.4489C18.1221 25.3469 17.9912 25.2935 17.8676 25.4271C17.7441 25.5607 17.7912 25.6805 17.9026 25.7923C18.1375 26.0271 18.3749 26.2595 18.6082 26.4968C18.7643 26.6587 18.9017 26.6279 19.048 26.4798C19.5244 26.0004 20.0048 25.5259 20.4828 25.0489C20.5236 25.0176 20.5568 24.9775 20.58 24.9317C20.6033 24.8859 20.6159 24.8354 20.6169 24.7841Z" fill="#004DA0"/>
<path id="Vector_11" d="M19.2073 30.4104C19.6902 30.4104 20.1738 30.4055 20.6567 30.4104C21.2892 30.4177 21.7005 30.8274 21.7046 31.4631C21.7105 32.4261 21.7105 33.3887 21.7046 34.3507C21.7046 34.9717 21.3062 35.3855 20.6835 35.3944C19.6956 35.4079 18.7082 35.4079 17.7213 35.3944C17.1213 35.3871 16.7149 34.9726 16.7035 34.3749C16.6913 33.3911 16.6929 32.4072 16.7035 31.4234C16.71 30.8306 17.1311 30.4217 17.727 30.412C18.2196 30.4047 18.7138 30.4104 19.2073 30.4104ZM18.0497 32.6599C18.0036 32.6586 17.958 32.6701 17.9181 32.6931C17.8782 32.7162 17.8455 32.7498 17.8237 32.7902C17.7538 32.9052 17.8074 33.0032 17.8822 33.081C18.1042 33.3134 18.3391 33.5336 18.5594 33.7668C18.7407 33.9587 18.8976 33.945 19.0764 33.7628C19.5349 33.2963 20.0015 32.838 20.4641 32.3773C20.5836 32.2574 20.6982 32.1262 20.5413 31.9667C20.3673 31.7902 20.2332 31.9238 20.1072 32.0477L19.1967 32.9562C18.8155 33.336 18.8187 33.3328 18.4334 32.9562C18.3131 32.8437 18.2212 32.6842 18.0497 32.6599Z" fill="#004DA0"/>
<path id="Vector_12" d="M29.1282 24.0476H24.8116C24.61 24.0476 24.3287 24.0808 24.3182 23.8242C24.3052 23.5189 24.5954 23.5343 24.8246 23.5343C27.6709 23.5343 30.5161 23.5343 33.3603 23.5343C33.5773 23.5343 33.8789 23.4832 33.8789 23.8015C33.8789 24.1197 33.5838 24.0444 33.379 24.0444C31.9629 24.0487 30.546 24.0498 29.1282 24.0476Z" fill="#EEF8FE"/>
<path id="Vector_13" d="M29.1153 25.8462H24.6735C24.4979 25.8462 24.328 25.7895 24.3215 25.5976C24.315 25.4057 24.4841 25.3417 24.658 25.3344C24.7222 25.3344 24.7873 25.3344 24.8515 25.3344C27.6837 25.3344 30.5156 25.3344 33.3473 25.3344C33.4645 25.3315 33.5817 25.3429 33.6961 25.3684C33.8156 25.3984 33.9156 25.4729 33.8912 25.6195C33.8843 25.6788 33.8565 25.7337 33.8127 25.7745C33.7689 25.8153 33.712 25.8393 33.6522 25.8422C33.5667 25.848 33.4809 25.8493 33.3953 25.8462H29.1153Z" fill="#EEF8FE"/>
<path id="Vector_14" d="M28.2975 31.3053H24.7889C24.7141 31.3053 24.6385 31.3094 24.5637 31.3053C24.4198 31.294 24.3044 31.2243 24.3085 31.0737C24.3085 30.9425 24.4182 30.8729 24.5523 30.8599C24.6166 30.8543 24.6816 30.8599 24.7458 30.8599H31.7621C31.8263 30.8599 31.8914 30.8599 31.9556 30.8599C32.1182 30.8753 32.2214 30.9587 32.2174 31.1247C32.2174 31.3053 32.0718 31.3077 31.9377 31.3077L28.2975 31.3053Z" fill="#EEF8FE"/>
<path id="Vector_15" d="M27.7747 33.1051H24.7465C24.6612 33.1103 24.5755 33.1057 24.4913 33.0913C24.4427 33.0834 24.3981 33.0596 24.3645 33.0237C24.331 32.9878 24.3103 32.9418 24.3059 32.8929C24.2978 32.7674 24.3872 32.6986 24.497 32.6678C24.5709 32.6542 24.6464 32.6504 24.7213 32.6565H30.8085C30.8516 32.6565 30.8946 32.6565 30.9377 32.6565C30.9726 32.65 31.0085 32.6512 31.0429 32.6599C31.0772 32.6687 31.1093 32.6848 31.1368 32.7071C31.1642 32.7295 31.1865 32.7576 31.202 32.7894C31.2174 32.8212 31.2257 32.856 31.2263 32.8913C31.2336 33.0646 31.0832 33.1067 30.9312 33.1067H27.7747V33.1051Z" fill="#EEF8FE"/>
<path id="Vector_16" d="M26.7139 34.452C27.3471 34.452 27.9804 34.452 28.6145 34.452C28.8006 34.452 28.9835 34.4755 28.9917 34.699C28.9998 34.9225 28.799 34.9629 28.625 34.9637C27.3154 34.9694 26.0058 34.9638 24.6962 34.9678C24.5003 34.9678 24.3312 34.882 24.3288 34.6941C24.3263 34.5062 24.51 34.4512 24.6848 34.4512L26.7139 34.452Z" fill="#EEF8FE"/>
<path id="Vector_17" d="M26.7138 27.1977C27.3679 27.1977 28.0229 27.1977 28.6786 27.1977C28.816 27.1977 28.9867 27.1743 28.9924 27.3767C28.9981 27.5791 28.8575 27.6472 28.6673 27.6472C27.3146 27.6472 25.9619 27.6472 24.6092 27.6472C24.4352 27.6472 24.3271 27.5573 24.3206 27.4107C24.3133 27.2366 24.4636 27.1953 24.6165 27.1953L26.7138 27.1977Z" fill="#EEF8FE"/>
<path id="Vector_18" d="M20.6169 24.7838C20.6158 24.8351 20.6032 24.8856 20.58 24.9314C20.5568 24.9772 20.5235 25.0173 20.4827 25.0486C20.0047 25.5256 19.5243 26.0001 19.0479 26.4795C18.9016 26.6276 18.7642 26.6568 18.6082 26.4965C18.3748 26.2592 18.1375 26.0268 17.9025 25.792C17.7912 25.6802 17.74 25.5579 17.8676 25.4268C17.9952 25.2956 18.122 25.3458 18.235 25.4486C18.3595 25.5506 18.4736 25.6645 18.5756 25.7887C18.7569 26.0317 18.891 25.9774 19.0748 25.779C19.4243 25.4025 19.7991 25.0502 20.1641 24.6858C20.2519 24.5984 20.3478 24.532 20.4787 24.6008C20.515 24.6176 20.5467 24.6432 20.5708 24.6751C20.5949 24.707 20.6107 24.7443 20.6169 24.7838Z" fill="#F3FCF7"/>
<path id="Vector_19" d="M18.0498 32.6589C18.2213 32.6832 18.3132 32.8427 18.4335 32.9585C18.8188 33.3335 18.8155 33.3367 19.1968 32.9585L20.1073 32.05C20.2333 31.9245 20.3674 31.7909 20.5414 31.969C20.6983 32.131 20.5836 32.2597 20.4642 32.3796C20.0016 32.8403 19.535 33.2986 19.0765 33.7651C18.8977 33.9473 18.7408 33.961 18.5595 33.7691C18.3392 33.5359 18.1042 33.3156 17.8823 33.0832C17.8075 33.0023 17.7539 32.9075 17.8238 32.7925C17.8452 32.7515 17.8777 32.7172 17.9176 32.6936C17.9576 32.67 18.0033 32.658 18.0498 32.6589Z" fill="#F3FCF7"/>
</g>
</g>
</svg>
