<svg width="54" height="55" viewBox="0 0 54 55" fill="none" xmlns="http://www.w3.org/2000/svg">
<g id="Group 1171276039">
<ellipse id="Ellipse 1098" cx="27" cy="27.2547" rx="27" ry="27.2547" fill="#FEEAEE"/>
<g id="Group">
<g id="Group_2">
<g id="Group_3">
<path id="Vector" d="M35.8897 16.8027V38.303C35.8897 39.6871 34.7647 40.8033 33.3892 40.8033H32.2851C30.9061 40.7997 29.7882 39.6835 29.7882 38.303V33.8001H17.101V16.8027H35.8897Z" fill="#F6F1EC"/>
<path id="Vector_2" d="M29.7889 38.303V33.8013L11.0001 33.8008V38.303C11.0001 39.6835 12.1199 40.8029 13.5005 40.8029H32.285C30.9067 40.801 29.7889 39.6827 29.7889 38.303Z" fill="#D7C3B7"/>
<path id="Vector_3" d="M32.0953 19.4434H20.8956V20.6393H32.0953V19.4434Z" fill="#D7C3B7"/>
<path id="Vector_4" d="M32.0953 22.9609H20.8956V24.1568H32.0953V22.9609Z" fill="#D7C3B7"/>
<path id="Vector_5" d="M32.0953 26.4766H20.8956V27.6724H32.0953V26.4766Z" fill="#D7C3B7"/>
<path id="Vector_6" d="M32.0953 29.9941H20.8956V31.19H32.0953V29.9941Z" fill="#D7C3B7"/>
<path id="Vector_7" d="M35.8897 13H17.101V15.0727H35.8897V13Z" fill="#2A2B2A"/>
<path id="Vector_8" d="M35.8897 15.0723H17.101V16.8016H35.8897V15.0723Z" fill="#ED3024"/>
</g>
<g id="Group_4">
<path id="Vector_9" d="M41.4021 14.0477C41.6067 13.6135 42.1408 13.435 42.595 13.6492L43.3627 14.0113C43.8168 14.2254 44.019 14.7508 43.8144 15.1849L42.3689 18.2505C42.1643 18.6849 41.6302 18.8632 41.176 18.6488L40.4083 18.287C39.9539 18.0728 39.7522 17.5473 39.9567 17.1131L41.4021 14.0477Z" fill="#F16B63"/>
<g id="Group_5">
<path id="Vector_10" d="M33.7824 33.3332L40.5838 18.9082L41.7901 19.4768L34.8115 34.2778L34.6288 33.732L34.0074 33.8988L33.7824 33.3332Z" fill="#FFCA07"/>
<path id="Vector_11" d="M32.8472 35.317L33.782 33.334L34.007 33.8996L34.6272 33.7323L34.8111 34.2787L33.2436 35.504L32.8472 35.317Z" fill="#FFCA57"/>
<path id="Vector_12" d="M32.477 36.1012L33.243 35.5024L32.4511 35.1289L32.477 36.1012Z" fill="#333333"/>
<path id="Vector_13" d="M32.3992 33.141L39.3778 18.3398L40.5837 18.9087L33.7823 33.3336L33.2031 33.52L32.9779 32.9543L32.3992 33.141Z" fill="#F37C20"/>
<path id="Vector_14" d="M32.3993 33.1418L32.978 32.9551L33.2032 33.5208L33.7824 33.3344L32.8476 35.3174L32.4513 35.1306L32.3993 33.1418Z" fill="#F0B845"/>
</g>
<path id="Vector_15" d="M40.5762 15.8088L39.3818 18.3418L41.7941 19.4792L42.9885 16.9462L40.5762 15.8088Z" fill="#686868"/>
</g>
</g>
</g>
</g>
</svg>
