<svg width="54" height="55" viewBox="0 0 54 55" fill="none" xmlns="http://www.w3.org/2000/svg">
<g id="Group 1171276482">
<g id="Group 1171276042">
<ellipse id="Ellipse 1098" cx="27" cy="27.2547" rx="27" ry="27.2547" fill="#FEEAEE"/>
</g>
<g id="a">
<path id="Vector" d="M21.8891 36.8583C22.0843 37.4962 22.2733 38.1059 22.4581 38.7171C22.5789 39.1175 22.4426 39.3009 22.0246 39.3016C20.5346 39.303 19.0446 39.3023 17.5546 39.3016C17.1718 39.3016 17.0706 39.2201 17.0243 38.8435C16.8247 37.2264 16.6294 35.6092 16.4327 33.9921C16.2986 32.8878 16.163 31.7841 16.0295 30.6798C16.0162 30.5667 16.0007 30.4529 16 30.3398C15.9986 30.1087 16.1342 29.9457 16.3639 29.9436C17.4155 29.9366 18.4672 29.9373 19.5188 29.9436C19.7359 29.945 19.8357 30.1017 19.8919 30.292C19.9958 30.6426 20.1026 30.9931 20.234 31.4287C20.5663 31.1891 20.8852 31.0072 21.1444 30.7627C21.8378 30.1087 22.6267 29.6535 23.5652 29.468C24.6063 29.2622 25.6102 29.3886 26.5572 29.8607C27.129 30.1459 27.7233 30.2232 28.3534 30.271C29.4529 30.3539 30.4265 30.1185 31.3517 29.513C32.1238 29.0079 32.9429 29.0591 33.729 29.5586C33.7929 29.5994 33.9158 29.6064 33.9819 29.5727C34.6773 29.2158 35.3068 29.3472 35.8821 29.827C36.0121 29.9352 36.1013 29.9401 36.2481 29.8755C37.1059 29.4968 38.1055 29.7827 38.624 30.5442C38.8115 30.8189 38.7848 31.0051 38.5158 31.1898C36.2931 32.7192 34.0802 34.2633 31.8385 35.7638C31.0862 36.2675 30.1926 36.4382 29.2962 36.3588C28.4356 36.2829 27.5835 36.108 26.73 35.9633C25.979 35.8361 25.2337 35.6739 24.4806 35.5636C24.2614 35.5313 23.9902 35.5643 23.802 35.6718C23.1564 36.0392 22.5368 36.4522 21.8884 36.8597L21.8891 36.8583ZM37.8337 30.7627C37.3904 30.3946 36.9155 30.3419 36.4139 30.6096C35.3096 31.1983 34.2088 31.7954 33.1087 32.3925C33.0461 32.4262 32.9738 32.4838 32.9534 32.5456C32.8319 32.9109 32.7953 32.9447 32.4202 32.9341C32.2628 32.9292 32.1055 32.9166 31.9474 32.9109C30.775 32.8688 29.6032 32.7473 28.4307 32.9236C28.1792 32.9615 27.9994 32.8168 27.979 32.5955C27.9593 32.3806 28.0893 32.2113 28.338 32.2C29.1592 32.1642 29.9811 32.1424 30.8038 32.1241C31.247 32.1143 31.6903 32.1227 32.128 32.1227C32.0071 31.5088 31.3826 31.0058 30.6703 30.9945C30.0219 30.9847 29.3721 30.9685 28.7251 30.9973C27.7858 31.0388 26.9246 30.8365 26.057 30.4564C24.5536 29.7982 23.1276 30.0391 21.8708 31.1154C21.431 31.4919 21.0109 31.8888 20.4286 32.0694C20.843 33.4273 21.2498 34.762 21.6664 36.1291C22.2136 35.7842 22.7349 35.4659 23.2456 35.1315C23.7198 34.8203 24.2228 34.7473 24.7763 34.8534C26.1258 35.1112 27.4746 35.3795 28.8325 35.5882C29.8751 35.7483 30.867 35.5671 31.7585 34.9426C32.9562 34.1031 34.1694 33.2854 35.3749 32.4571C36.1905 31.8972 37.004 31.3352 37.8337 30.7641V30.7627ZM17.7324 38.5415H21.639C20.8494 35.9556 20.0668 33.3971 19.2912 30.8358C19.247 30.6903 19.1718 30.6728 19.046 30.6735C18.345 30.6777 17.6446 30.6749 16.9435 30.6763C16.8943 30.6763 16.8444 30.6911 16.7763 30.7016C17.0952 33.3198 17.4127 35.9261 17.7317 38.5408L17.7324 38.5415ZM32.8052 31.7181C33.6559 31.258 34.4898 30.807 35.3503 30.3419C35.0019 30.0981 34.6837 30.03 34.3331 30.226C33.9741 30.4269 33.6095 30.6173 33.2478 30.8126C33.0047 30.944 32.7623 31.076 32.5193 31.2074C32.6197 31.3879 32.7047 31.5397 32.8052 31.7188V31.7181ZM31.3601 30.3461C31.5505 30.4466 31.7163 30.5386 31.8877 30.6215C31.9278 30.6405 31.9924 30.6468 32.0296 30.6271C32.3731 30.448 32.7132 30.2618 33.096 30.0553C32.4223 29.7574 31.8968 29.9984 31.3608 30.3461H31.3601Z" fill="#E2136E"/>
<path id="Vector_2" d="M32.4532 17.6506C32.3808 17.7707 32.3288 17.8796 32.2565 17.9738C32.0851 18.1958 31.8013 18.3911 31.7584 18.632C31.7191 18.8533 31.9776 19.1118 32.0282 19.3696C32.1082 19.7771 32.3443 19.8691 32.718 19.8916C33.5238 19.9408 33.5231 19.959 33.5231 20.7781C33.5231 21.1547 33.5259 21.5319 33.5224 21.9085C33.5196 22.2126 33.403 22.3342 33.1009 22.3651C32.822 22.3932 32.4876 22.3398 32.2818 22.4782C32.0942 22.6046 32.0787 22.9615 31.9305 23.1772C31.6903 23.5263 31.7935 23.7631 32.052 24.0511C32.5782 24.6384 32.5614 24.6538 32.0029 25.2116C31.7303 25.4842 31.4598 25.7596 31.1838 26.0286C30.9597 26.2471 30.8079 26.252 30.5642 26.056C30.3387 25.8748 30.1349 25.5846 29.8862 25.5397C29.6579 25.4989 29.391 25.768 29.1261 25.8172C28.7145 25.893 28.6491 26.1445 28.6302 26.4965C28.5866 27.3086 28.574 27.3093 27.7724 27.3093C27.3868 27.3093 27.0011 27.3114 26.6154 27.3086C26.3084 27.3058 26.1869 27.1927 26.156 26.892C26.13 26.6391 26.1173 26.3841 26.0724 26.1347C26.0583 26.0546 25.974 25.9598 25.8975 25.9232C25.6144 25.787 25.3242 25.664 25.0292 25.5558C24.9519 25.5277 24.8269 25.5432 24.7608 25.5903C24.548 25.7427 24.3534 25.9211 24.1489 26.0876C23.9635 26.2387 23.7794 26.233 23.6087 26.0644C23.223 25.6823 22.8388 25.2973 22.4559 24.9116C22.2761 24.7311 22.2824 24.5428 22.4426 24.351C22.5943 24.1698 22.7383 23.9808 22.8978 23.8066C23.0074 23.6879 23.0256 23.5902 22.947 23.4378C22.8149 23.1828 22.7018 22.9144 22.6119 22.6412C22.5613 22.4859 22.4791 22.4353 22.333 22.4262C22.0969 22.4107 21.8616 22.3862 21.6263 22.3637C21.3389 22.3356 21.2188 22.2112 21.2167 21.9232C21.2125 21.397 21.2167 20.8716 21.2153 20.3454C21.2153 20.0939 21.3354 19.9506 21.5855 19.9232C21.8469 19.8944 22.1103 19.8804 22.3688 19.8361C22.4496 19.822 22.5508 19.7497 22.5866 19.6766C22.7271 19.3858 22.8521 19.0872 22.9666 18.7852C22.9933 18.7149 22.9814 18.5983 22.9385 18.5386C22.7959 18.3398 22.6301 18.1571 22.4756 17.9674C22.2648 17.7089 22.2669 17.5614 22.496 17.3289C22.8472 16.9734 23.2006 16.6208 23.556 16.2695C23.7942 16.0342 23.9508 16.03 24.2171 16.2477C24.4004 16.3974 24.574 16.5603 24.7671 16.6952C24.8332 16.7416 24.9575 16.7521 25.0355 16.724C25.3305 16.6172 25.6221 16.4964 25.9052 16.3608C25.9811 16.3243 26.0611 16.226 26.0759 16.1452C26.1194 15.9049 26.1314 15.6583 26.156 15.4146C26.1862 15.1181 26.3 15.005 26.588 15.0029C27.1135 14.9987 27.6397 14.9994 28.1651 15.0029C28.4489 15.005 28.5557 15.1006 28.5951 15.3879C28.6288 15.6394 28.6393 15.8951 28.6843 16.1445C28.699 16.2245 28.7756 16.3215 28.8501 16.3573C29.1332 16.4936 29.4233 16.6165 29.7176 16.7254C29.7956 16.7542 29.9214 16.7444 29.9867 16.698C30.2003 16.5463 30.3956 16.3686 30.5993 16.2028C30.7946 16.0433 30.9835 16.0567 31.1599 16.2337C31.5308 16.6067 31.9024 16.9783 32.267 17.3577C32.3415 17.4357 32.3857 17.5424 32.4546 17.6534L32.4532 17.6506ZM27.8862 26.5731C27.9178 26.2654 27.9495 25.9801 27.9769 25.6942C27.9979 25.4736 28.1223 25.3725 28.3302 25.2966C28.7714 25.1357 29.2055 24.951 29.6284 24.7473C29.8476 24.6419 30.0204 24.6384 30.2038 24.7992C30.4068 24.977 30.619 25.1435 30.829 25.3163C31.0714 25.0669 31.3011 24.8295 31.542 24.5808C31.3868 24.3918 31.2287 24.181 31.0517 23.9893C30.8592 23.7806 30.8817 23.5938 31.006 23.3493C31.2069 22.9545 31.3762 22.54 31.5203 22.1206C31.6074 21.8677 31.7366 21.742 32.0036 21.73C32.2621 21.7181 32.5192 21.6794 32.7686 21.6535V20.6292C32.4728 20.5976 32.1947 20.5632 31.9158 20.5393C31.691 20.5203 31.5926 20.3939 31.5167 20.1887C31.3538 19.7483 31.1718 19.3127 30.9688 18.8891C30.8641 18.6699 30.8585 18.4978 31.0194 18.3138C31.1971 18.1108 31.3643 17.8986 31.5174 17.7131C31.2744 17.4624 31.0461 17.227 30.8093 16.9818C30.6056 17.1497 30.3942 17.3183 30.189 17.4954C30.0127 17.6471 29.849 17.6429 29.6376 17.541C29.214 17.338 28.7784 17.1582 28.3372 16.9959C28.123 16.9172 27.9916 16.8097 27.9726 16.5758C27.9502 16.2997 27.9171 16.025 27.889 15.7539H26.862C26.836 16.0201 26.8037 16.2716 26.7896 16.5231C26.7756 16.7753 26.6569 16.9053 26.4145 16.9924C25.9726 17.1504 25.5385 17.3359 25.1156 17.5389C24.9048 17.6401 24.7411 17.6457 24.5641 17.4926C24.3541 17.3113 24.1363 17.1392 23.9522 16.9882C23.6944 17.2291 23.4535 17.4539 23.2013 17.69C23.3776 17.9028 23.5469 18.1143 23.7239 18.3187C23.8841 18.5042 23.8708 18.6777 23.7654 18.8954C23.5645 19.3106 23.3811 19.7363 23.2266 20.1712C23.1451 20.4009 23.0327 20.5266 22.7882 20.5442C22.5128 20.5646 22.2381 20.6011 21.9712 20.6299V21.6549C22.2585 21.683 22.5269 21.7132 22.7966 21.7335C23.0278 21.7511 23.1423 21.8719 23.2216 22.0904C23.3825 22.5316 23.5638 22.9678 23.7682 23.3907C23.8743 23.6106 23.8785 23.782 23.719 23.9654C23.542 24.1698 23.3734 24.382 23.2062 24.5857C23.4514 24.8302 23.6853 25.0634 23.9326 25.31C24.1258 25.1505 24.3323 24.9896 24.5269 24.8161C24.7243 24.6405 24.9069 24.6405 25.1458 24.7606C25.5497 24.9643 25.9691 25.1449 26.3976 25.2889C26.6576 25.376 26.7714 25.5144 26.7882 25.7729C26.8051 26.0328 26.836 26.2914 26.8634 26.5724H27.1409C27.3846 26.5724 27.6277 26.5724 27.8862 26.5724V26.5731Z" fill="#E2136E"/>
<path id="Vector_3" d="M18.5317 37.4526C18.5317 36.8934 18.9701 36.4551 19.5293 36.4551C20.0836 36.4551 20.5325 36.9054 20.5268 37.4568C20.5212 38.0041 20.0569 38.4579 19.5124 38.4495C18.975 38.441 18.5317 37.9907 18.5317 37.4533V37.4526ZM19.8974 37.4589C19.7358 37.336 19.6522 37.2271 19.5483 37.2032C19.3881 37.1653 19.2532 37.2791 19.282 37.4358C19.301 37.5383 19.433 37.6711 19.5342 37.6922C19.615 37.709 19.726 37.5756 19.8967 37.4597L19.8974 37.4589Z" fill="#E2136E"/>
<path id="Vector_4" d="M27.3032 24.8167C25.2519 24.7507 23.6348 23.0647 23.7001 21.0612C23.7683 18.9705 25.455 17.4054 27.5674 17.4728C29.5463 17.536 31.1199 19.2719 31.0469 21.3127C30.9773 23.2698 29.2569 24.8799 27.3032 24.8167ZM27.3889 18.2062C25.75 18.2069 24.4314 19.5269 24.4349 21.1623C24.4384 22.7605 25.7746 24.0854 27.3777 24.0791C29.0061 24.0728 30.3148 22.7591 30.3134 21.1328C30.312 19.5213 28.9977 18.2048 27.3889 18.2062Z" fill="#E2136E"/>
<path id="Vector_5" d="M27.0658 21.5438C27.5161 21.0556 27.9601 20.561 28.423 20.0848C28.513 19.992 28.683 19.9267 28.8094 19.9365C28.9085 19.9443 29.0588 20.077 29.0757 20.1733C29.0974 20.2969 29.0461 20.476 28.9597 20.5681C28.5874 20.9615 28.1898 21.331 27.802 21.7096C27.6208 21.8867 27.4445 22.0693 27.2576 22.2407C27.0651 22.417 26.8888 22.4199 26.7005 22.2414C26.383 21.9415 26.0711 21.6345 25.7641 21.324C25.592 21.1497 25.5899 20.9404 25.7395 20.7894C25.8884 20.639 26.102 20.6327 26.2748 20.8069C26.4961 21.0303 26.697 21.2748 26.9063 21.5094L27.0679 21.5445L27.0658 21.5438Z" fill="#E2136E"/>
</g>
</g>
</svg>
