<svg width="44" height="35" viewBox="0 0 44 35" fill="none" xmlns="http://www.w3.org/2000/svg">
<g id="Frame">
<path id="Vector" d="M34.72 0.587891H8.71997C6.51083 0.587891 4.71997 2.37875 4.71997 4.58789V30.5879C4.71997 32.797 6.51083 34.5879 8.71997 34.5879H34.72C36.9291 34.5879 38.72 32.797 38.72 30.5879V4.58789C38.72 2.37875 36.9291 0.587891 34.72 0.587891Z" fill="#EB148C"/>
<path id="Vector_2" d="M23.7354 12.163C23.3387 12.0897 22.9743 12.3429 22.8988 12.7301C22.8233 13.1173 23.0773 13.4954 23.4632 13.5712C24.6251 13.7977 25.5222 14.6971 25.7496 15.8629C25.8143 16.1985 26.1098 16.4434 26.45 16.4434C26.4957 16.4434 26.5413 16.4392 26.5878 16.4309C26.9737 16.3534 27.2277 15.9762 27.1522 15.5881C26.8127 13.8468 25.4724 12.5019 23.7354 12.163Z" fill="white"/>
<path id="Vector_3" d="M23.6835 9.26051C23.4976 9.23387 23.3109 9.28883 23.1623 9.40708C23.0096 9.527 22.9142 9.70021 22.8935 9.89425C22.8495 10.2865 23.1325 10.6413 23.5242 10.6854C26.2256 10.9868 28.3253 13.0912 28.629 15.801C28.6697 16.1641 28.9743 16.4381 29.3378 16.4381C29.3652 16.4381 29.3917 16.4364 29.4191 16.4331C29.6091 16.4123 29.7785 16.3182 29.898 16.1683C30.0166 16.0184 30.0706 15.8319 30.049 15.6412C29.6706 12.2601 27.0538 9.63609 23.6835 9.26051Z" fill="white"/>
<path id="Vector_4" fill-rule="evenodd" clip-rule="evenodd" d="M20.913 18.3982C24.2372 21.7215 24.9913 17.8768 27.1079 19.9919C29.1484 22.0319 30.3212 22.4406 27.7359 25.0252C27.412 25.2854 25.3545 28.4164 18.1237 21.1876C10.8919 13.9579 14.0211 11.8983 14.2814 11.5745C16.8731 8.98277 17.2747 10.1624 19.3152 12.2023C21.4318 14.3183 17.5887 15.0749 20.913 18.3982Z" fill="white"/>
</g>
</svg>
