<svg width="20" height="20" viewBox="0 0 20 20" fill="none" xmlns="http://www.w3.org/2000/svg">
<g id="Frame">
<g id="Clip path group">
<mask id="mask0_5564_2251" style="mask-type:luminance" maskUnits="userSpaceOnUse" x="0" y="0" width="20" height="20">
<g id="clip0_3250_6844">
<path id="Vector" d="M20 0H0V20H20V0Z" fill="white"/>
</g>
</mask>
<g mask="url(#mask0_5564_2251)">
<g id="Group">
<path id="Vector_2" d="M19.5135 8.81945L18.1494 7.45535C17.8259 7.13186 17.5613 6.49166 17.5613 6.03243V4.10279C17.5613 3.18434 16.8125 2.43556 15.894 2.43556H13.9644C13.5052 2.43556 12.865 2.17088 12.5415 1.84739L11.1774 0.483286C10.5304 -0.163699 9.46941 -0.163699 8.82017 0.483286L7.45607 1.84739C7.13257 2.17088 6.49011 2.43556 6.03315 2.43556H4.10351C3.18732 2.43556 2.43627 3.18434 2.43627 4.10279V6.03243C2.43627 6.48939 2.1716 7.13186 1.8481 7.45535L0.484006 8.81945C-0.165242 9.46643 -0.165242 10.5274 0.484006 11.1767L1.8481 12.5408C2.1716 12.8643 2.43627 13.5067 2.43627 13.9637V15.8933C2.43627 16.8095 3.18732 17.5606 4.10351 17.5606H6.03315C6.49237 17.5606 7.13257 17.8252 7.45607 18.1487L8.82017 19.5128C9.46715 20.1598 10.5281 20.1598 11.1774 19.5128L12.5415 18.1487C12.865 17.8252 13.5052 17.5606 13.9644 17.5606H15.894C16.8102 17.5606 17.5613 16.8095 17.5613 15.8933V13.9637C17.5613 13.5045 17.8259 12.8643 18.1494 12.5408L19.5135 11.1767C20.1605 10.5297 20.1605 9.4687 19.5135 8.81945Z" fill="#EB148C"/>
<path id="Vector_3" d="M8.888 13.7171L5.26172 10.0908L6.84977 8.50272L8.888 10.541L13.1477 6.28125L14.7358 7.86931L8.888 13.7171Z" fill="white"/>
</g>
</g>
</g>
</g>
</svg>
