<svg width="44" height="45" viewBox="0 0 44 45" fill="none" xmlns="http://www.w3.org/2000/svg">
<g id="Frame">
<path id="Vector" d="M22 44.877C34.1503 44.877 44 35.0273 44 22.877C44 10.7267 34.1503 0.876953 22 0.876953C9.84974 0.876953 0 10.7267 0 22.877C0 35.0273 9.84974 44.877 22 44.877Z" fill="url(#paint0_linear_5564_2266)"/>
<path id="Vector_2" d="M21.9999 39.2334C14.3664 39.2334 7.64499 34.0918 5.65481 26.7302C5.47484 26.0642 5.87006 25.3761 6.53593 25.196C6.64343 25.167 6.7536 25.1523 6.86334 25.1523C7.42654 25.1523 7.92279 25.5326 8.06997 26.0773C9.76587 32.3503 15.4941 36.7314 21.9999 36.7314C28.5056 36.7314 34.2338 32.3503 35.9297 26.0773C36.0769 25.5327 36.5732 25.1524 37.1365 25.1524C37.2463 25.1524 37.3565 25.1671 37.4641 25.1961C38.1297 25.3761 38.525 26.0643 38.3449 26.7302C36.3549 34.0919 29.6335 39.2334 21.9999 39.2334Z" fill="url(#paint1_linear_5564_2266)"/>
<path id="Vector_3" d="M31.8409 3.19727C33.3246 6.15864 34.161 9.50066 34.161 13.0385C34.161 25.1887 24.3113 35.0384 12.1611 35.0384C8.62321 35.0384 5.28119 34.2021 2.31982 32.7183C5.93196 39.9274 13.3872 44.877 21.9996 44.877C34.1499 44.877 43.9996 35.0273 43.9996 22.877C43.9996 14.2646 39.05 6.80941 31.8409 3.19727Z" fill="url(#paint2_linear_5564_2266)"/>
<path id="Vector_4" d="M15.7643 16.7066C15.7643 18.5887 14.2386 20.1144 12.3566 20.1144C10.4745 20.1144 8.94873 18.5886 8.94873 16.7066C8.94873 14.8246 10.4745 13.2988 12.3566 13.2988C14.2386 13.2988 15.7643 14.8246 15.7643 16.7066Z" fill="url(#paint3_linear_5564_2266)"/>
<path id="Vector_5" d="M15.2009 16.7074C15.2009 18.2781 13.9275 19.5515 12.3568 19.5515C10.786 19.5515 9.5127 18.2782 9.5127 16.7074C9.5127 15.1366 10.786 13.8633 12.3568 13.8633C13.9275 13.8633 15.2009 15.1366 15.2009 16.7074Z" fill="url(#paint4_linear_5564_2266)"/>
<path id="Vector_6" d="M13.8809 13.6582C14.1107 14.1169 14.2403 14.6345 14.2403 15.1826C14.2403 17.0647 12.7146 18.5904 10.8325 18.5904C10.2845 18.5904 9.76683 18.4608 9.30811 18.231C9.8676 19.3477 11.0225 20.1144 12.3565 20.1144C14.2386 20.1144 15.7643 18.5886 15.7643 16.7066C15.7643 15.3725 14.9976 14.2177 13.8809 13.6582Z" fill="url(#paint5_linear_5564_2266)"/>
<path id="Vector_7" d="M35.0509 16.7066C35.0509 18.5887 33.5252 20.1144 31.6432 20.1144C29.761 20.1144 28.2354 18.5886 28.2354 16.7066C28.2354 14.8246 29.761 13.2988 31.6432 13.2988C33.5253 13.2988 35.0509 14.8246 35.0509 16.7066Z" fill="url(#paint6_linear_5564_2266)"/>
<path id="Vector_8" d="M34.4871 16.7074C34.4871 18.2781 33.2137 19.5515 31.6429 19.5515C30.0721 19.5515 28.7988 18.2782 28.7988 16.7074C28.7988 15.1366 30.0721 13.8633 31.6429 13.8633C33.2136 13.8633 34.4871 15.1366 34.4871 16.7074Z" fill="url(#paint7_linear_5564_2266)"/>
<path id="Vector_9" d="M33.1675 13.6582C33.3974 14.1169 33.527 14.6345 33.527 15.1826C33.527 17.0647 32.0012 18.5904 30.1191 18.5904C29.5711 18.5904 29.0534 18.4608 28.5947 18.231C29.1542 19.3477 30.3091 20.1144 31.6432 20.1144C33.5252 20.1144 35.0509 18.5886 35.0509 16.7066C35.0509 15.3725 34.2843 14.2177 33.1675 13.6582Z" fill="url(#paint8_linear_5564_2266)"/>
<path id="Vector_10" d="M21.9999 24.5632C30.3499 24.5632 37.1189 19.6736 37.1189 13.642C37.1189 7.6103 30.3499 2.7207 21.9999 2.7207C13.6499 2.7207 6.88086 7.6103 6.88086 13.642C6.88086 19.6736 13.6499 24.5632 21.9999 24.5632Z" fill="url(#paint9_linear_5564_2266)"/>
</g>
<defs>
<linearGradient id="paint0_linear_5564_2266" x1="13.7686" y1="14.6456" x2="42.2622" y2="43.1392" gradientUnits="userSpaceOnUse">
<stop stop-color="#FFD945"/>
<stop offset="1" stop-color="#FFA325"/>
</linearGradient>
<linearGradient id="paint1_linear_5564_2266" x1="21.9999" y1="28.6664" x2="21.9999" y2="39.4589" gradientUnits="userSpaceOnUse">
<stop stop-color="#8A7889"/>
<stop offset="1" stop-color="#6E566E"/>
</linearGradient>
<linearGradient id="paint2_linear_5564_2266" x1="22.7637" y1="31.3085" x2="53.0037" y2="-24.9337" gradientUnits="userSpaceOnUse">
<stop stop-color="#FFD945" stop-opacity="0"/>
<stop offset="1" stop-color="#B43759"/>
</linearGradient>
<linearGradient id="paint3_linear_5564_2266" x1="11.0815" y1="15.4316" x2="15.4952" y2="19.8452" gradientUnits="userSpaceOnUse">
<stop stop-color="#8A7889"/>
<stop offset="1" stop-color="#6E566E"/>
</linearGradient>
<linearGradient id="paint4_linear_5564_2266" x1="11.9639" y1="16.141" x2="9.4919" y2="12.5775" gradientUnits="userSpaceOnUse">
<stop stop-color="#BDC2D1" stop-opacity="0"/>
<stop offset="0.3183" stop-color="#C1C6D4" stop-opacity="0.318"/>
<stop offset="0.6082" stop-color="#CCD0DD" stop-opacity="0.608"/>
<stop offset="0.8861" stop-color="#DEE2EC" stop-opacity="0.886"/>
<stop offset="1" stop-color="#E8ECF4"/>
</linearGradient>
<linearGradient id="paint5_linear_5564_2266" x1="12.4748" y1="18.0126" x2="17.1591" y2="9.30061" gradientUnits="userSpaceOnUse">
<stop stop-color="#6E566E" stop-opacity="0"/>
<stop offset="0.0471" stop-color="#6E566E" stop-opacity="0.047"/>
<stop offset="1" stop-color="#6E566E"/>
</linearGradient>
<linearGradient id="paint6_linear_5564_2266" x1="30.3681" y1="15.4316" x2="34.7818" y2="19.8452" gradientUnits="userSpaceOnUse">
<stop stop-color="#8A7889"/>
<stop offset="1" stop-color="#6E566E"/>
</linearGradient>
<linearGradient id="paint7_linear_5564_2266" x1="31.25" y1="16.141" x2="28.7781" y2="12.5775" gradientUnits="userSpaceOnUse">
<stop stop-color="#BDC2D1" stop-opacity="0"/>
<stop offset="0.3183" stop-color="#C1C6D4" stop-opacity="0.318"/>
<stop offset="0.6082" stop-color="#CCD0DD" stop-opacity="0.608"/>
<stop offset="0.8861" stop-color="#DEE2EC" stop-opacity="0.886"/>
<stop offset="1" stop-color="#E8ECF4"/>
</linearGradient>
<linearGradient id="paint8_linear_5564_2266" x1="31.7615" y1="18.0126" x2="36.4457" y2="9.3006" gradientUnits="userSpaceOnUse">
<stop stop-color="#6E566E" stop-opacity="0"/>
<stop offset="0.0471" stop-color="#6E566E" stop-opacity="0.047"/>
<stop offset="1" stop-color="#6E566E"/>
</linearGradient>
<linearGradient id="paint9_linear_5564_2266" x1="23.7103" y1="19.9571" x2="18.0169" y2="-1.06434" gradientUnits="userSpaceOnUse">
<stop stop-color="#FFD945" stop-opacity="0"/>
<stop offset="1" stop-color="white"/>
</linearGradient>
</defs>
</svg>
