<svg width="21" height="26" viewBox="0 0 21 26" fill="none" xmlns="http://www.w3.org/2000/svg">
<g id="Group 24">
<g id="Group">
<g id="Group_2">
<g id="Group_3">
<path id="Vector" d="M4.86184 19.172H6.34773V20.6663C6.34773 21.2171 6.79174 21.6637 7.33946 21.6637C7.88718 21.6637 8.33119 21.2171 8.33119 20.6663V19.172H9.81703C10.3647 19.172 10.8088 18.7254 10.8088 18.1746C10.8088 17.6238 10.3647 17.1772 9.81703 17.1772H8.33119V15.6829C8.33119 15.1321 7.88718 14.6855 7.33946 14.6855C6.79174 14.6855 6.34773 15.1321 6.34773 15.6829V17.1772H4.86184C4.31418 17.1772 3.87012 17.6238 3.87012 18.1746C3.87012 18.7254 4.31418 19.172 4.86184 19.172Z" fill="#EB148C"/>
<path id="Vector_2" d="M19.5065 0.412109H1.26126C0.71359 0.412109 0.269531 0.858642 0.269531 1.40947V24.4147C0.269531 24.9655 0.713541 25.4121 1.26126 25.4121H14.4168C14.6611 25.4121 14.9243 25.315 15.118 25.12L20.2077 20.0014C20.391 19.8172 20.4982 19.5604 20.4982 19.2961V1.40947C20.4982 0.858642 20.0542 0.412109 19.5065 0.412109ZM15.4085 22.0069V20.2935H17.1123C15.9935 21.4187 16.2768 21.1336 15.4085 22.0069ZM18.5149 18.2988H18.5148H14.4168C13.8691 18.2988 13.4251 18.7453 13.4251 19.2962V23.4174H2.25294V2.40678H18.5149V18.2988Z" fill="#EB148C"/>
<path id="Vector_3" d="M4.86184 12.5787H9.98784C10.5355 12.5787 10.9796 12.1322 10.9796 11.5813C10.9796 11.0305 10.5356 10.584 9.98784 10.584H4.86184C4.31418 10.584 3.87012 11.0305 3.87012 11.5813C3.87012 12.1322 4.31418 12.5787 4.86184 12.5787Z" fill="#EB148C"/>
<path id="Vector_4" d="M4.86184 9.51616H15.9072C16.4548 9.51616 16.8989 9.06963 16.8989 8.51885C16.8989 7.96807 16.4549 7.52148 15.9072 7.52148H4.86184C4.31418 7.52148 3.87012 7.96802 3.87012 8.51885C3.87012 9.06968 4.31418 9.51616 4.86184 9.51616Z" fill="#EB148C"/>
<path id="Vector_5" d="M4.86184 6.45566H15.9072C16.4548 6.45566 16.8989 6.00913 16.8989 5.4583C16.8989 4.90747 16.4549 4.46094 15.9072 4.46094H4.86184C4.31418 4.46094 3.87012 4.90747 3.87012 5.4583C3.87012 6.00913 4.31418 6.45566 4.86184 6.45566Z" fill="#EB148C"/>
</g>
</g>
</g>
</g>
</svg>
