<svg width="240" height="47" viewBox="0 0 240 47" fill="none" xmlns="http://www.w3.org/2000/svg">
<g id="a">
<g id="Group">
<path id="Vector" d="M89.9205 29.6215C89.9205 30.6655 89.6621 31.7933 89.1489 33.0084C88.6356 34.2234 87.8256 35.4176 86.7222 36.5873C85.6189 37.757 84.2083 38.7067 82.4939 39.4399C80.7795 40.1696 78.7823 40.5363 76.4988 40.5363C74.7705 40.5363 73.1958 40.3722 71.7817 40.0439C70.3641 39.7157 69.0792 39.206 67.9234 38.5111C66.7677 37.8163 65.7063 36.905 64.7356 35.7702C63.8697 34.7402 63.133 33.588 62.5219 32.3135C61.9109 31.0391 61.4535 29.6774 61.1462 28.2319C60.839 26.7863 60.6888 25.25 60.6888 23.6264C60.6888 20.9868 61.0729 18.623 61.8411 16.5385C62.6092 14.4505 63.7091 12.6663 65.1406 11.1824C66.5722 9.69844 68.2482 8.57065 70.172 7.79552C72.0959 7.02038 74.1455 6.63281 76.3207 6.63281C78.9744 6.63281 81.3382 7.16354 83.4087 8.22149C85.4792 9.27945 87.0679 10.5888 88.1712 12.1461C89.2746 13.7033 89.8262 15.1768 89.8262 16.5629C89.8262 17.3241 89.5574 17.9945 89.0197 18.5741C88.482 19.1572 87.836 19.447 87.0749 19.447C86.2264 19.447 85.5874 19.2445 85.1615 18.8429C84.7355 18.4414 84.2641 17.7466 83.7404 16.7619C82.8745 15.1384 81.8584 13.9233 80.6887 13.1167C79.519 12.3102 78.077 11.9086 76.3626 11.9086C73.6357 11.9086 71.4604 12.9456 69.8438 15.0161C68.2272 17.0902 67.4172 20.0336 67.4172 23.8499C67.4172 26.3988 67.7733 28.5217 68.4891 30.2116C69.2049 31.905 70.2174 33.169 71.5303 34.0035C72.8431 34.838 74.3794 35.257 76.1357 35.257C78.0421 35.257 79.6587 34.7856 80.9785 33.8359C82.2984 32.8897 83.2935 31.5 83.9639 29.6669C84.2467 28.801 84.5958 28.0992 85.0148 27.5545C85.4338 27.0098 86.1042 26.7375 87.026 26.7375C87.8151 26.7375 88.496 27.0133 89.0616 27.565C89.6272 28.1166 89.9101 28.801 89.9101 29.6215H89.9205Z" fill="#ED018C"/>
<path id="Vector_2" d="M95.4644 36.8247V10.3444C95.4644 9.12232 95.7368 8.19705 96.2815 7.57205C96.8262 6.94706 97.5594 6.63281 98.4847 6.63281C99.4099 6.63281 100.154 6.94357 100.719 7.56158C101.285 8.17959 101.568 9.10836 101.568 10.3444V36.8247C101.568 38.0607 101.281 38.9895 100.705 39.6075C100.133 40.2255 99.389 40.5363 98.4812 40.5363C97.5734 40.5363 96.8611 40.215 96.2989 39.5761C95.7403 38.9371 95.4609 38.0188 95.4609 36.8247H95.4644Z" fill="#ED018C"/>
<path id="Vector_3" d="M110.964 12.873C110.115 12.873 109.385 12.6111 108.785 12.0909C108.181 11.5706 107.881 10.8304 107.881 9.87719C107.881 9.01127 108.191 8.29898 108.809 7.74033C109.427 7.18167 110.147 6.90234 110.967 6.90234C111.788 6.90234 112.458 7.15723 113.069 7.66351C113.68 8.16979 113.987 8.91001 113.987 9.87719C113.987 10.8444 113.691 11.5497 113.094 12.0804C112.496 12.6111 111.788 12.873 110.971 12.873H110.964ZM113.984 19.1788V36.8219C113.984 38.0439 113.694 38.9692 113.111 39.5942C112.528 40.2192 111.791 40.5335 110.897 40.5335C110.003 40.5335 109.277 40.2122 108.715 39.5733C108.156 38.9343 107.877 38.016 107.877 36.8219V19.3569C107.877 18.1488 108.156 17.241 108.715 16.6299C109.274 16.0189 110 15.7117 110.897 15.7117C111.795 15.7117 112.531 16.0189 113.111 16.6299C113.694 17.241 113.984 18.0929 113.984 19.1788Z" fill="#ED018C"/>
<path id="Vector_4" d="M125.834 19.0869V19.8236C126.906 18.406 128.083 17.369 129.357 16.7021C130.632 16.0387 132.098 15.707 133.753 15.707C135.408 15.707 136.801 16.0562 138.069 16.758C139.336 17.4598 140.282 18.4514 140.907 19.7328C141.309 20.4801 141.571 21.2831 141.689 22.149C141.808 23.015 141.867 24.1183 141.867 25.4591V36.8207C141.867 38.0428 141.588 38.9681 141.03 39.5931C140.471 40.2181 139.745 40.5323 138.851 40.5323C137.957 40.5323 137.203 40.2111 136.637 39.5721C136.071 38.9332 135.789 38.0149 135.789 36.8207V26.6462C135.789 24.6351 135.509 23.0953 134.951 22.0268C134.392 20.9619 133.278 20.4277 131.606 20.4277C130.516 20.4277 129.525 20.7524 128.631 21.4018C127.737 22.0513 127.081 22.9416 126.662 24.0729C126.365 24.9807 126.215 26.6811 126.215 29.1706V36.8173C126.215 38.0533 125.928 38.982 125.352 39.6001C124.78 40.2181 124.036 40.5288 123.128 40.5288C122.22 40.5288 121.525 40.2076 120.96 39.5686C120.394 38.9297 120.111 38.0114 120.111 36.8173V19.1777C120.111 18.015 120.366 17.1456 120.872 16.5729C121.379 16.0003 122.074 15.7105 122.953 15.7105C123.491 15.7105 123.973 15.8362 124.406 16.0911C124.839 16.346 125.185 16.7266 125.446 17.2329C125.708 17.7391 125.838 18.3572 125.838 19.0904L125.834 19.0869Z" fill="#ED018C"/>
<path id="Vector_5" d="M151.039 12.873C150.191 12.873 149.461 12.6111 148.857 12.0909C148.253 11.5706 147.953 10.8304 147.953 9.87719C147.953 9.01127 148.263 8.29898 148.881 7.74033C149.499 7.18167 150.219 6.90234 151.039 6.90234C151.86 6.90234 152.53 7.15723 153.141 7.66351C153.752 8.16979 154.059 8.91001 154.059 9.87719C154.059 10.8444 153.763 11.5497 153.166 12.0804C152.569 12.6111 151.86 12.873 151.043 12.873H151.039ZM154.059 19.1788V36.8219C154.059 38.0439 153.77 38.9692 153.187 39.5942C152.603 40.2192 151.867 40.5335 150.973 40.5335C150.079 40.5335 149.353 40.2122 148.791 39.5733C148.232 38.9343 147.953 38.016 147.953 36.8219V19.3569C147.953 18.1488 148.232 17.241 148.791 16.6299C149.349 16.0189 150.076 15.7117 150.973 15.7117C151.87 15.7117 152.607 16.0189 153.187 16.6299C153.77 17.241 154.059 18.0929 154.059 19.1788Z" fill="#ED018C"/>
<path id="Vector_6" d="M188.72 29.6215C188.72 30.6655 188.462 31.7933 187.948 33.0084C187.435 34.2234 186.625 35.4176 185.522 36.5873C184.418 37.757 183.008 38.7067 181.293 39.4399C179.579 40.1696 177.582 40.5363 175.298 40.5363C173.57 40.5363 171.995 40.3722 170.581 40.0439C169.164 39.7157 167.879 39.206 166.723 38.5111C165.567 37.8163 164.506 36.905 163.535 35.7702C162.669 34.7402 161.933 33.588 161.321 32.3135C160.71 31.0391 160.253 29.6774 159.946 28.2319C159.639 26.7863 159.488 25.25 159.488 23.6264C159.488 20.9868 159.872 18.623 160.641 16.5385C161.409 14.4505 162.509 12.6663 163.94 11.1824C165.372 9.69844 167.048 8.57065 168.972 7.79552C170.895 7.02038 172.945 6.63281 175.12 6.63281C177.774 6.63281 180.138 7.16354 182.208 8.22149C184.279 9.27945 185.867 10.5888 186.971 12.1461C188.074 13.7033 188.626 15.1768 188.626 16.5629C188.626 17.3241 188.357 17.9945 187.819 18.5741C187.282 19.1572 186.636 19.447 185.874 19.447C185.026 19.447 184.387 19.2445 183.961 18.8429C183.535 18.4414 183.064 17.7466 182.54 16.7619C181.674 15.1384 180.658 13.9233 179.488 13.1167C178.319 12.3102 176.877 11.9086 175.162 11.9086C172.435 11.9086 170.26 12.9456 168.643 15.0161C167.027 17.0902 166.217 20.0336 166.217 23.8499C166.217 26.3988 166.576 28.5217 167.292 30.2116C168.008 31.905 169.02 33.169 170.333 34.0035C171.646 34.838 173.182 35.257 174.939 35.257C176.849 35.257 178.462 34.7856 179.782 33.8359C181.101 32.8897 182.097 31.5 182.767 29.6669C183.05 28.801 183.399 28.0992 183.818 27.5545C184.237 27.0098 184.907 26.7375 185.829 26.7375C186.618 26.7375 187.299 27.0133 187.865 27.565C188.43 28.1166 188.713 28.801 188.713 29.6215H188.72Z" fill="#ED018C"/>
<path id="Vector_7" d="M209.697 37.0889C208.22 38.2377 206.792 39.0966 205.413 39.6727C204.034 40.2453 202.487 40.5352 200.773 40.5352C199.208 40.5352 197.833 40.2244 196.646 39.6064C195.458 38.9884 194.547 38.1504 193.905 37.0889C193.262 36.031 192.944 34.8822 192.944 33.6462C192.944 31.9772 193.475 30.5527 194.533 29.376C195.591 28.1993 197.044 27.4067 198.894 27.0052C199.282 26.9144 200.242 26.7154 201.778 26.4011C203.315 26.0869 204.631 25.8006 205.724 25.5387C206.817 25.2769 208.007 24.9626 209.292 24.589C209.219 22.9794 208.894 21.7992 208.318 21.045C207.745 20.2908 206.555 19.9172 204.75 19.9172C203.199 19.9172 202.033 20.1337 201.251 20.5667C200.469 20.9996 199.798 21.6491 199.24 22.5115C198.681 23.3774 198.287 23.9466 198.056 24.2224C197.826 24.4982 197.33 24.6379 196.569 24.6379C195.884 24.6379 195.291 24.4179 194.792 23.978C194.292 23.538 194.041 22.9759 194.041 22.288C194.041 21.2161 194.421 20.1721 195.183 19.1561C195.944 18.1435 197.127 17.309 198.737 16.6526C200.347 15.9962 202.351 15.668 204.753 15.668C207.438 15.668 209.547 15.9857 211.083 16.6177C212.62 17.2532 213.702 18.2552 214.338 19.624C214.969 20.9962 215.287 22.8153 215.287 25.0813C215.287 26.5129 215.284 27.728 215.277 28.7266C215.27 29.7252 215.259 30.8355 215.242 32.0575C215.242 33.2063 215.43 34.4039 215.811 35.6469C216.192 36.8934 216.38 37.693 216.38 38.0526C216.38 38.6776 216.087 39.2502 215.497 39.7635C214.907 40.2768 214.24 40.5352 213.496 40.5352C212.871 40.5352 212.25 40.2419 211.639 39.6518C211.027 39.0617 210.378 38.2097 209.694 37.0924L209.697 37.0889ZM209.296 28.2552C208.402 28.5834 207.099 28.9291 205.392 29.2957C203.685 29.6623 202.504 29.9312 201.848 30.1022C201.192 30.2733 200.567 30.6085 199.97 31.1078C199.372 31.6071 199.076 32.3054 199.076 33.1993C199.076 34.0931 199.425 34.9102 200.127 35.5596C200.828 36.2091 201.743 36.5338 202.878 36.5338C204.086 36.5338 205.2 36.2684 206.223 35.7412C207.243 35.214 207.993 34.5296 208.472 33.6951C209.023 32.7698 209.299 31.251 209.299 29.1316V28.2587L209.296 28.2552Z" fill="#ED018C"/>
<path id="Vector_8" d="M221.481 36.8247V10.3444C221.481 9.12232 221.753 8.19705 222.298 7.57205C222.842 6.94706 223.576 6.63281 224.501 6.63281C225.426 6.63281 226.17 6.94357 226.739 7.56158C227.305 8.17959 227.587 9.10836 227.587 10.3444V36.8247C227.587 38.0607 227.301 38.9895 226.725 39.6075C226.152 40.2255 225.409 40.5363 224.501 40.5363C223.593 40.5363 222.881 40.215 222.319 39.5761C221.76 38.9371 221.481 38.0188 221.481 36.8247Z" fill="#ED018C"/>
<path id="Vector_9" d="M233.893 36.8247V10.3444C233.893 9.12232 234.166 8.19705 234.71 7.57205C235.255 6.94706 235.988 6.63281 236.914 6.63281C237.839 6.63281 238.583 6.94357 239.152 7.56158C239.717 8.17959 240 9.10836 240 10.3444V36.8247C240 38.0607 239.714 38.9895 239.138 39.6075C238.565 40.2255 237.821 40.5363 236.914 40.5363C236.006 40.5363 235.293 40.215 234.731 39.5761C234.173 38.9371 233.893 38.0188 233.893 36.8247Z" fill="#ED018C"/>
</g>
<g id="Group_2">
<path id="Vector_10" d="M27.0931 7.47799C27.0931 7.47799 31.8172 0.484464 38.9015 0.180701C47.77 -0.199875 53.6916 6.35721 54.0617 13.7104C54.4283 20.9797 49.4145 27.5019 45.3713 31.9292C39.8756 37.9486 31.6042 44.0587 26.7754 46.8904C21.9955 43.9959 13.8219 37.7775 8.42395 31.6882C4.45408 27.2086 -0.455002 20.6201 0.0338119 13.3577C0.522626 6.00806 6.549 -0.472214 15.407 0.0270741C22.4843 0.425108 27.0931 7.48148 27.0931 7.48148V7.47799Z" fill="#EC0C8C"/>
<path id="Vector_11" d="M26.87 10.1621C19.604 10.1621 13.7137 15.8395 13.7137 22.8471C13.7137 25.9302 14.8554 28.7514 16.7514 30.9511C15.4106 33.088 13.0503 36.5761 12.0796 38.5593C12.0796 38.5593 15.7213 36.3421 26.8735 35.5321C34.1395 35.5321 40.0299 29.8547 40.0299 22.8471C40.0299 15.8395 34.1395 10.1621 26.8735 10.1621H26.87Z" fill="white"/>
<path id="Vector_12" d="M27.0757 29.4604C23.9018 29.4604 20.9829 28.0045 19.0695 25.4661L21.0213 23.9961C22.4668 25.9165 24.677 27.0163 27.0757 27.0163C29.4744 27.0163 31.6218 25.9444 33.0708 24.0729L35.0051 25.5708C33.0917 28.0429 30.2007 29.4604 27.0792 29.4604H27.0757Z" fill="#ED018C"/>
</g>
</g>
</svg>
 