<svg width="55" height="47" viewBox="0 0 55 47" fill="none" xmlns="http://www.w3.org/2000/svg">
<path d="M27.0931 7.47799C27.0931 7.47799 31.8172 0.484464 38.9015 0.180701C47.77 -0.199875 53.6916 6.35721 54.0617 13.7104C54.4283 20.9797 49.4145 27.5019 45.3713 31.9292C39.8756 37.9486 31.6042 44.0587 26.7754 46.8904C21.9955 43.9959 13.8219 37.7775 8.42395 31.6882C4.45408 27.2086 -0.455002 20.6201 0.0338119 13.3577C0.522626 6.00806 6.549 -0.472214 15.407 0.0270741C22.4843 0.425108 27.0931 7.48148 27.0931 7.48148V7.47799Z" fill="#EC0C8C"/>
<path d="M26.87 10.1621C19.604 10.1621 13.7137 15.8395 13.7137 22.8471C13.7137 25.9302 14.8554 28.7514 16.7514 30.9511C15.4106 33.088 13.0503 36.5761 12.0796 38.5593C12.0796 38.5593 15.7213 36.3421 26.8735 35.5321C34.1395 35.5321 40.0299 29.8547 40.0299 22.8471C40.0299 15.8395 34.1395 10.1621 26.8735 10.1621H26.87Z" fill="white"/>
<path d="M27.0757 29.4604C23.9018 29.4604 20.9829 28.0045 19.0695 25.4661L21.0213 23.9961C22.4668 25.9165 24.677 27.0163 27.0757 27.0163C29.4744 27.0163 31.6218 25.9444 33.0708 24.0729L35.0051 25.5708C33.0917 28.0429 30.2007 29.4604 27.0792 29.4604H27.0757Z" fill="#ED018C"/>
</svg>
