<svg width="151" height="148" viewBox="0 0 151 148" fill="none" xmlns="http://www.w3.org/2000/svg">
<g id="Group 1000008261">
<g id="Group 1000008259">
<g id="Group" opacity="0.180327">
<g id="Group_2">
<path id="Vector" d="M94.4265 4.41331C94.4265 6.85081 92.4504 8.8269 90.0131 8.8269C87.5756 8.8269 85.5996 6.85081 85.5996 4.41331C85.5996 1.97595 87.5756 0 90.0131 0C92.4504 0 94.4265 1.97595 94.4265 4.41331Z" fill="#00B74A"/>
</g>
</g>
<g id="Group_3" opacity="0.451315">
<g id="Group_4">
<path id="Vector_2" d="M59.6879 14.8242L57.0669 16.3374C56.5923 16.6114 55.9855 16.4487 55.7115 15.9743L50.9788 7.77684C50.7048 7.30241 50.8675 6.69567 51.3419 6.4218L53.963 4.90843C54.4375 4.63455 55.0442 4.79708 55.3182 5.27151L60.0509 13.469C60.325 13.9435 60.1623 14.5501 59.6879 14.8242Z" fill="#DF443D"/>
</g>
</g>
<g id="Group_5" opacity="0.451315">
<g id="Group_6">
<path id="Vector_3" d="M15.4962 32.6373L16.0857 32.8373C16.7542 33.064 17.4915 32.9472 18.0573 32.525L18.5563 32.1526C19.9811 31.0894 22.0067 32.1214 21.984 33.8991L21.9761 34.5216C21.967 35.2275 22.3058 35.8927 22.8821 36.3003L23.3906 36.6598C24.842 37.6863 24.4863 39.9315 22.7887 40.4592L22.1941 40.644C21.52 40.8536 20.9924 41.3815 20.7829 42.0556L20.5979 42.6502C20.0703 44.3478 17.8249 44.7034 16.7984 43.2519L16.4388 42.7436C16.0312 42.1672 15.366 41.8283 14.6602 41.8374L14.0376 41.8452C12.26 41.8679 11.228 39.8425 12.2913 38.4176L12.6638 37.9186C13.086 37.353 13.2027 36.6157 12.976 35.947L12.776 35.3575C12.2051 33.6738 13.8125 32.0664 15.4962 32.6373Z" fill="#00B74A"/>
</g>
</g>
<g id="Group_7" opacity="0.451315">
<g id="Group_8">
<path id="Vector_4" d="M11.3158 63.8924L11.9778 66.8457C12.0976 67.3803 11.7614 67.911 11.2267 68.0307L1.99045 70.1012C1.45587 70.221 0.925331 69.8848 0.805314 69.3502L0.14334 66.3967C0.0236118 65.8622 0.359805 65.3316 0.894387 65.2119L10.1308 63.1414C10.6654 63.0217 11.1959 63.3579 11.3158 63.8924Z" fill="#4683F5"/>
</g>
</g>
<g id="Group_9" opacity="0.451315">
<g id="Group_10">
<path id="Vector_5" d="M20.6918 101.679C20.6918 104.116 18.7159 106.092 16.2785 106.092C13.841 106.092 11.8652 104.116 11.8652 101.679C11.8652 99.2416 13.841 97.2656 16.2785 97.2656C18.7159 97.2656 20.6918 99.2416 20.6918 101.679Z" fill="#F9C033"/>
</g>
</g>
<g id="Group_11" opacity="0.451315">
<g id="Group_12">
<path id="Vector_6" d="M15.4962 123.409L16.0857 123.609C16.7542 123.835 17.4915 123.719 18.0573 123.296L18.5563 122.924C19.9811 121.861 22.0067 122.893 21.984 124.671L21.9761 125.293C21.967 125.999 22.3058 126.664 22.8821 127.072L23.3906 127.431C24.842 128.458 24.4863 130.703 22.7887 131.231L22.1941 131.416C21.52 131.625 20.9924 132.153 20.7829 132.827L20.5979 133.422C20.0703 135.119 17.8249 135.475 16.7984 134.023L16.4388 133.515C16.0312 132.939 15.366 132.6 14.6602 132.609L14.0376 132.617C12.26 132.64 11.228 130.614 12.2913 129.189L12.6638 128.69C13.086 128.124 13.2027 127.387 12.976 126.719L12.776 126.129C12.2051 124.445 13.8125 122.838 15.4962 123.409Z" fill="#4782F9"/>
</g>
</g>
<g id="Group_13" opacity="0.451315">
<g id="Group_14">
<path id="Vector_7" d="M129.096 28.4322C127.758 26.6891 128.172 24.0925 130.013 22.68C131.854 21.2676 134.469 21.5396 135.807 23.2827C135.809 23.2861 135.812 23.2894 135.814 23.2926" stroke="#00B74A" stroke-width="2.01298" stroke-linecap="round" stroke-linejoin="round"/>
</g>
</g>
<g id="Group_15" opacity="0.451315">
<g id="Group_16">
<path id="Vector_8" d="M141 52.4771L141.59 52.6771C142.258 52.9039 142.995 52.787 143.561 52.3648L144.06 51.9925C145.485 50.9292 147.511 51.9612 147.488 53.7389L147.48 54.3614C147.471 55.0673 147.81 55.7325 148.386 56.1401L148.895 56.4996C150.346 57.5261 149.99 59.7713 148.293 60.2991L147.698 60.4839C147.024 60.6934 146.496 61.2213 146.287 61.8955L146.102 62.49C145.574 64.1876 143.329 64.5432 142.302 63.0917L141.943 62.5835C141.535 62.0071 140.87 61.6681 140.164 61.6773L139.542 61.6852C137.764 61.7078 136.732 59.6824 137.795 58.2576L138.168 57.7586C138.59 57.1928 138.707 56.4555 138.48 55.7869L138.28 55.1973C137.709 53.5136 139.316 51.9063 141 52.4771Z" fill="#FFBB31"/>
</g>
</g>
<g id="Group_17" opacity="0.451315">
<g id="Group_18">
<path id="Vector_9" d="M145.118 104.781C148.119 105.176 150.246 108.11 149.828 111.279C149.411 114.448 146.598 116.731 143.597 116.336C143.591 116.335 143.586 116.334 143.58 116.333" stroke="#DE3E3E" stroke-width="1.50974" stroke-linecap="round" stroke-linejoin="round"/>
</g>
</g>
<g id="Group_19" opacity="0.451315">
<g id="Group_20">
<path id="Vector_10" d="M135.668 142.014L133.047 143.527C132.573 143.801 131.966 143.638 131.692 143.164L126.959 134.967C126.685 134.492 126.848 133.885 127.322 133.611L129.943 132.098C130.418 131.824 131.025 131.986 131.298 132.461L136.031 140.659C136.305 141.133 136.143 141.74 135.668 142.014Z" fill="#4683F5"/>
</g>
</g>
<g id="Group_21" opacity="0.451315">
<g id="Group_22">
<path id="Vector_11" d="M49.775 146.796C47.9323 144.395 48.5028 140.817 51.0389 138.871C53.575 136.925 57.1781 137.3 59.0208 139.702L59.0313 139.715" stroke="#00B74A" stroke-width="2.01298" stroke-linecap="round" stroke-linejoin="round"/>
</g>
</g>
</g>
<g id="Group 1000008260">
<g id="Group_23" opacity="0.2">
<g id="Group_24">
<path id="Vector_12" d="M117.119 72.9999C117.119 96.7481 98.0913 116 74.6191 116C51.1472 116 32.1191 96.7481 32.1191 72.9999C32.1191 49.2516 51.1472 30 74.6191 30C98.0913 30 117.119 49.2516 117.119 72.9999Z" fill="#406062"/>
</g>
</g>
<g id="Group_25" opacity="0.2">
<g id="Group_26">
<path id="Vector_13" d="M129.119 73.1411C129.119 103.595 104.719 128.282 74.6191 128.282C44.5198 128.282 20.1191 103.595 20.1191 73.1411C20.1191 42.6874 44.5198 18 74.6191 18C104.719 18 129.119 42.6874 129.119 73.1411Z" fill="#EB148C"/>
</g>
</g>
<g id="Group 1000008258">
<g id="Group_27">
<g id="Group_28">
<path id="Vector_14" d="M104.119 73C104.119 89.5684 90.6878 103 74.1192 103C57.5507 103 44.1191 89.5684 44.1191 73C44.1191 56.4314 57.5507 43 74.1192 43C90.6878 43 104.119 56.4314 104.119 73Z" fill="#EB148C"/>
</g>
</g>
<g id="Group_29">
<g id="Group_30">
<path id="Vector_15" d="M60.1191 72.53L69.54 81.951L88.4911 63" stroke="white" stroke-width="4.86784" stroke-linecap="round" stroke-linejoin="round"/>
</g>
</g>
</g>
</g>
</g>
</svg>
